<svg width="469" height="406" viewBox="0 0 469 406" fill="none" xmlns="http://www.w3.org/2000/svg">
<g clip-path="url(#clip0)">
<path fill-rule="evenodd" clip-rule="evenodd" d="M468.47 269.238C464.44 273.363 463.33 279.877 459.47 284.238C443.07 302.767 417.88 318.182 390.47 325.238C378.05 328.438 363.99 328.092 349.76 328.093L349.77 328.02L344.81 327.36L344.8 327.493L338.79 326.502C336.258 325.716 333.65 325.202 331.01 324.967C328.189 324.481 325.332 324.237 322.47 324.238C308.98 324.238 297.57 329.438 293.8 336.583C292.057 338.591 290.6 340.831 289.47 343.238C281.46 358.438 295.18 374.894 298.47 381.238C300.63 385.4 293.07 397.449 287.61 405.238H183.47C182.865 403.637 182.527 401.948 182.47 400.238C186.45 395.618 190.63 387.648 196.47 385.238C210.98 379.247 233.67 383.582 251.47 380.238V378.238C254.29 373.878 252.6 360.651 252.47 354.238C247.69 350.924 244.59 344.359 240.47 340.238C222.92 322.677 210.47 304.832 210.47 269.238V250.238C212.18 243.759 214.44 239.083 214.47 229.238V226.238L213.47 225.238L212.47 223.238L210.47 221.238L207.47 220.238L200.47 219.238H179.47L179.41 219.331C178.368 219.375 177.355 219.688 176.47 220.238C170.78 222.36 171.69 228.01 166.47 230.238V231.238C165.46 232.228 165.48 230.252 165.47 230.238C164.89 229.338 164.578 228.292 164.57 227.222C166.18 225.254 168.53 222.361 168.74 222.107C169.01 221.771 168.88 221.607 168.49 221.807C168.06 222.038 164.14 224.107 162 225.236H159.47V224.236H158.47C158.87 217.536 156.87 219.226 155.47 213.236C159.47 210.587 163.21 206.788 168.47 205.236C176.19 202.957 179.83 208.024 183.47 209.236C187.71 210.648 194.52 208.781 197.47 208.236V203.236C191.79 199.594 186.21 195.18 178.47 193.236H92.4698C71.7198 193.236 52.6498 194.436 51.4698 175.236C51.5098 175.23 51.5298 175.224 51.5698 175.218C51.5059 174.895 51.4725 174.566 51.4698 174.236V170.236C51.4698 168.91 51.9966 167.638 52.9343 166.7C53.872 165.763 55.1437 165.236 56.4698 165.236H149.47C150.27 164.056 150.24 163.555 150.47 161.236H65.4698C53.7298 161.236 36.2598 163.815 26.4698 160.236C21.6398 158.471 6.78982 145.372 4.46982 141.236C-1.96018 129.778 0.46982 107.383 0.46982 90.236V48.236C5.74982 28.577 18.5198 9.99002 36.4698 3.23602C51.8698 -2.55898 96.7298 1.23602 117.47 1.23602H185.47C204.57 5.96602 221.19 21.773 227.47 39.236C231.51 50.467 227.56 63.311 230.47 75.236C236.7 100.796 239.45 129.05 251.47 149.236C264.9 171.78 302.11 177.06 321.47 194.236C325.97 198.228 329.2 203.968 333.47 208.236C337.74 212.504 343.47 215.736 347.47 220.236C364.48 239.336 373.06 265.563 401.47 273.236H413.47C439.91 273.244 446.8 257.626 467.47 257.236C468.47 260.131 468.53 264.912 468.47 269.238Z" fill="#E91E63"/>
<path fill-rule="evenodd" clip-rule="evenodd" d="M151.99 164.801C151.99 164.801 140.18 176.857 139.95 177.088C139.906 177.134 139.853 177.17 139.795 177.195C139.737 177.22 139.674 177.233 139.611 177.234C139.548 177.234 139.485 177.222 139.426 177.198C139.368 177.174 139.314 177.139 139.27 177.094C139.14 176.956 129.01 166.549 127.51 165C126 166.543 115.87 176.874 115.67 177.088C115.625 177.134 115.571 177.17 115.512 177.195C115.453 177.221 115.39 177.234 115.326 177.234C115.262 177.235 115.198 177.223 115.139 177.199C115.08 177.175 115.025 177.139 114.98 177.094C114.84 176.945 103.03 164.801 103.03 164.801C102.757 164.53 102.564 164.19 102.47 163.818V150.726C102.469 150.598 102.519 150.474 102.609 150.382C102.699 150.29 102.821 150.237 102.95 150.235H151.99C152.118 150.237 152.241 150.29 152.33 150.382C152.42 150.474 152.47 150.598 152.47 150.726V163.819C152.415 164.188 152.247 164.531 151.99 164.801ZM89.9497 177.088C89.9058 177.134 89.8532 177.17 89.795 177.195C89.7369 177.22 89.6743 177.233 89.611 177.234C89.5476 177.234 89.4849 177.222 89.4263 177.198C89.3677 177.174 89.3145 177.139 89.2698 177.094C89.1398 176.956 79.0098 166.549 77.5098 165C75.9998 166.543 65.8698 176.874 65.6698 177.088C65.625 177.134 65.5714 177.17 65.5125 177.195C65.4535 177.221 65.3902 177.234 65.3261 177.234C65.2619 177.235 65.1983 177.223 65.1389 177.199C65.0795 177.175 65.0254 177.139 64.9797 177.094C64.8397 176.945 53.0298 164.801 53.0298 164.801C52.7572 164.53 52.5635 164.19 52.4697 163.818V150.726C52.4692 150.598 52.5193 150.474 52.6091 150.382C52.699 150.29 52.8212 150.237 52.9497 150.235H101.99C102.118 150.237 102.241 150.29 102.33 150.382C102.42 150.474 102.47 150.598 102.47 150.726V163.819C102.415 164.188 102.247 164.532 101.99 164.802C101.99 164.802 90.1797 176.857 89.9497 177.088Z" fill="white"/>
<path fill-rule="evenodd" clip-rule="evenodd" d="M468.47 269.238C464.44 273.363 463.33 279.877 459.47 284.238C443.07 302.767 417.88 318.182 390.47 325.238C378.05 328.438 363.99 328.092 349.76 328.093L349.77 328.02L344.81 327.36L344.8 327.493L338.79 326.502C336.258 325.716 333.65 325.202 331.01 324.967C328.189 324.481 325.332 324.237 322.47 324.238C308.98 324.238 297.57 329.438 293.8 336.583C292.057 338.591 290.6 340.831 289.47 343.238C281.46 358.438 295.18 374.894 298.47 381.238C300.63 385.4 293.07 397.449 287.61 405.238H183.47C182.865 403.637 182.527 401.948 182.47 400.238C186.45 395.618 190.63 387.648 196.47 385.238C210.98 379.247 233.67 383.582 251.47 380.238V378.238C254.29 373.878 252.6 360.651 252.47 354.238C247.69 350.924 244.59 344.359 240.47 340.238C222.92 322.677 210.47 304.832 210.47 269.238V250.238C212.18 243.759 214.44 239.083 214.47 229.238V226.238L213.47 225.238L212.47 223.238L210.47 221.238L207.47 220.238L200.47 219.238H179.47L179.41 219.331C178.368 219.375 177.355 219.688 176.47 220.238C170.78 222.36 171.69 228.01 166.47 230.238V231.238C165.46 232.228 165.48 230.252 165.47 230.238C164.89 229.338 164.578 228.292 164.57 227.222C166.18 225.254 168.53 222.361 168.74 222.107C169.01 221.771 168.88 221.607 168.49 221.807C168.06 222.038 164.14 224.107 162 225.236H159.47V224.236H158.47C158.87 217.536 156.87 219.226 155.47 213.236C159.47 210.587 163.21 206.788 168.47 205.236C176.19 202.957 179.83 208.024 183.47 209.236C187.71 210.648 194.52 208.781 197.47 208.236V203.236C194.43 201.288 191.41 199.129 188.09 197.236H207.47V161.236H48.4698V161.959C40.2998 162.314 32.1098 162.298 26.4698 160.236C21.6398 158.471 6.78982 145.372 4.46982 141.236C-1.96018 129.778 0.46982 107.383 0.46982 90.236V48.236C5.74982 28.577 18.5198 9.99002 36.4698 3.23602C51.8698 -2.55898 96.7298 1.23602 117.47 1.23602H185.47C204.57 5.96602 221.19 21.773 227.47 39.236C231.51 50.467 227.56 63.311 230.47 75.236C236.7 100.796 239.45 129.05 251.47 149.236C264.9 171.78 302.11 177.06 321.47 194.236C325.97 198.228 329.2 203.968 333.47 208.236C337.74 212.504 343.47 215.736 347.47 220.236C364.48 239.336 373.06 265.563 401.47 273.236H413.47C439.91 273.244 446.8 257.626 467.47 257.236C468.47 260.131 468.53 264.912 468.47 269.238Z" fill="#E91E63"/>
<path fill-rule="evenodd" clip-rule="evenodd" d="M440.47 268.738C440.532 269.864 440.147 270.969 439.397 271.812C438.648 272.655 437.595 273.168 436.47 273.238C435.554 273.196 434.679 272.849 433.984 272.252C433.288 271.656 432.812 270.844 432.63 269.946C435.154 269.005 437.624 267.927 440.03 266.716C440.316 267.352 440.466 268.041 440.47 268.738ZM424.47 277.238C424.353 276.72 424.4 276.178 424.605 275.688C424.809 275.198 425.161 274.783 425.611 274.502C426.062 274.22 426.588 274.085 427.119 274.116C427.649 274.147 428.157 274.342 428.571 274.674C428.986 275.005 429.287 275.458 429.434 275.968C429.58 276.479 429.564 277.022 429.389 277.524C429.213 278.025 428.886 278.459 428.452 278.766C428.019 279.073 427.501 279.238 426.97 279.238C426.374 279.297 425.78 279.121 425.313 278.747C424.846 278.373 424.543 277.832 424.47 277.238ZM444.47 267.738C444.47 267.441 444.558 267.151 444.723 266.905C444.887 266.658 445.122 266.466 445.396 266.352C445.67 266.239 445.971 266.209 446.262 266.267C446.553 266.325 446.821 266.468 447.03 266.677C447.24 266.887 447.383 267.154 447.441 267.445C447.499 267.736 447.469 268.038 447.356 268.312C447.242 268.586 447.05 268.82 446.803 268.985C446.556 269.15 446.266 269.238 445.97 269.238C445.572 269.238 445.19 269.08 444.909 268.799C444.628 268.517 444.47 268.136 444.47 267.738ZM395.47 284.238C394.994 284.151 394.554 283.93 394.199 283.602C393.845 283.273 393.592 282.851 393.469 282.383C393.346 281.916 393.359 281.423 393.507 280.963C393.654 280.503 393.929 280.094 394.3 279.785C394.672 279.475 395.123 279.278 395.602 279.216C396.082 279.155 396.569 279.231 397.006 279.436C397.444 279.641 397.814 279.966 398.073 280.374C398.332 280.782 398.47 281.255 398.47 281.738C398.398 282.465 398.043 283.135 397.482 283.603C396.921 284.071 396.198 284.299 395.47 284.238ZM395.47 271.238C395.47 273.999 392.34 276.238 388.47 276.238C384.6 276.238 381.47 273.999 381.47 271.238C381.47 268.994 383.55 267.117 386.4 266.485C389.257 268.363 392.296 269.949 395.47 271.22V271.238ZM369.97 262.238C360.31 262.238 352.47 255.522 352.47 247.238C352.524 244.888 353.156 242.588 354.311 240.541C355.465 238.494 357.107 236.764 359.09 235.502C365.14 244.259 370.97 253.131 378.58 260.285C375.895 261.58 372.951 262.248 369.97 262.238ZM343.47 234.738C343.558 234.164 343.81 233.628 344.194 233.193C344.579 232.757 345.08 232.441 345.638 232.282C346.196 232.123 346.789 232.127 347.345 232.295C347.901 232.462 348.397 232.785 348.775 233.226C349.153 233.667 349.397 234.207 349.477 234.782C349.557 235.357 349.471 235.943 349.228 236.471C348.986 236.998 348.597 237.445 348.108 237.758C347.619 238.072 347.05 238.238 346.47 238.238C345.61 238.167 344.812 237.76 344.25 237.105C343.689 236.449 343.408 235.599 343.47 234.738ZM286.97 190.238C278.96 190.238 272.47 184.638 272.47 177.738C272.485 176.228 272.798 174.737 273.392 173.349C273.986 171.96 274.848 170.704 275.93 169.65C283.93 173.842 292.65 177.481 300.82 181.437C298.99 186.535 293.48 190.238 286.97 190.238ZM252.97 163.238C246.62 163.238 241.47 158.538 241.47 152.738C241.519 150.647 242.192 148.619 243.402 146.914C244.612 145.208 246.303 143.902 248.26 143.164C249.26 145.251 250.31 147.292 251.47 149.238C254.026 153.407 257.284 157.102 261.1 160.16C258.869 162.164 255.969 163.262 252.97 163.238ZM251.97 167.238C254.46 167.238 256.47 168.805 256.47 170.738C256.47 172.671 254.46 174.238 251.97 174.238C249.48 174.238 247.47 172.671 247.47 170.738C247.47 168.805 249.49 167.238 251.97 167.238ZM237.47 140.238C238.261 140.238 239.034 140.473 239.692 140.912C240.35 141.352 240.863 141.976 241.165 142.707C241.468 143.438 241.547 144.242 241.393 145.018C241.239 145.794 240.858 146.507 240.298 147.066C239.739 147.626 239.026 148.007 238.25 148.161C237.474 148.315 236.67 148.236 235.939 147.934C235.208 147.631 234.583 147.118 234.144 146.46C233.704 145.802 233.47 145.029 233.47 144.238C233.47 143.177 233.891 142.16 234.641 141.41C235.392 140.659 236.409 140.238 237.47 140.238ZM259.47 175.738C259.47 175.441 259.558 175.151 259.723 174.905C259.887 174.658 260.122 174.466 260.396 174.352C260.67 174.239 260.971 174.209 261.262 174.267C261.553 174.325 261.821 174.468 262.03 174.677C262.24 174.887 262.383 175.154 262.441 175.445C262.499 175.736 262.469 176.038 262.356 176.312C262.242 176.586 262.05 176.82 261.803 176.985C261.556 177.15 261.266 177.238 260.97 177.238C260.572 177.238 260.19 177.08 259.909 176.799C259.628 176.517 259.47 176.136 259.47 175.738ZM263.47 169.238C263.551 168.959 263.708 168.709 263.924 168.514C264.139 168.32 264.405 168.189 264.691 168.137C264.976 168.085 265.271 168.114 265.541 168.22C265.811 168.326 266.047 168.505 266.221 168.737C266.395 168.969 266.501 169.246 266.527 169.535C266.553 169.824 266.498 170.115 266.368 170.374C266.238 170.634 266.039 170.852 265.792 171.005C265.545 171.157 265.26 171.238 264.97 171.238C264.509 171.164 264.096 170.914 263.816 170.541C263.536 170.168 263.412 169.701 263.47 169.238ZM297.97 219.238C298.266 219.238 298.556 219.326 298.803 219.491C299.05 219.656 299.242 219.89 299.356 220.164C299.469 220.438 299.499 220.74 299.441 221.031C299.383 221.322 299.24 221.589 299.03 221.799C298.821 222.008 298.553 222.151 298.262 222.209C297.971 222.267 297.67 222.237 297.396 222.124C297.122 222.01 296.887 221.818 296.723 221.571C296.558 221.325 296.47 221.035 296.47 220.738C296.47 220.34 296.628 219.959 296.909 219.677C297.19 219.396 297.572 219.238 297.97 219.238ZM292.47 195.238C293.142 195.328 293.774 195.61 294.291 196.05C294.807 196.49 295.186 197.069 295.381 197.719C295.577 198.368 295.582 199.06 295.395 199.712C295.207 200.364 294.836 200.948 294.326 201.395C293.815 201.842 293.187 202.132 292.516 202.231C291.845 202.33 291.16 202.233 290.542 201.953C289.924 201.673 289.4 201.221 289.033 200.65C288.665 200.08 288.47 199.416 288.47 198.738C288.54 197.745 289 196.82 289.749 196.165C290.499 195.509 291.476 195.176 292.47 195.238ZM300.47 192.238C300.47 191.249 300.763 190.282 301.312 189.46C301.862 188.638 302.643 187.997 303.556 187.619C304.47 187.24 305.475 187.141 306.445 187.334C307.415 187.527 308.306 188.003 309.005 188.702C309.705 189.402 310.181 190.293 310.374 191.263C310.567 192.232 310.468 193.238 310.089 194.151C309.711 195.065 309.07 195.846 308.248 196.395C307.425 196.945 306.459 197.238 305.47 197.238C304.144 197.238 302.872 196.711 301.934 195.773C300.997 194.836 300.47 193.564 300.47 192.238ZM319.47 232.738C319.363 231.727 319.565 230.707 320.05 229.813C320.535 228.919 321.28 228.193 322.186 227.731C323.092 227.269 324.116 227.092 325.125 227.225C326.133 227.357 327.078 227.792 327.833 228.473C328.589 229.153 329.121 230.047 329.359 231.035C329.596 232.024 329.529 233.062 329.164 234.011C328.8 234.961 328.156 235.778 327.318 236.354C326.48 236.93 325.487 237.238 324.47 237.238C323.211 237.3 321.979 236.862 321.042 236.019C320.105 235.176 319.54 233.996 319.47 232.738ZM243.47 136.238C231.32 136.238 221.47 123.03 221.47 106.738C221.47 96.115 225.66 86.807 231.94 81.613C236.05 100.183 238.94 119.664 245.24 136.134C244.652 136.201 244.061 136.235 243.47 136.238ZM341.97 227.238C325.68 227.238 312.47 216.717 312.47 203.738C312.523 199.027 314.225 194.483 317.28 190.896C318.75 191.962 320.15 193.071 321.47 194.238C325.97 198.23 329.2 203.97 333.47 208.238C337.74 212.506 343.47 215.738 347.47 220.238C349.07 222.038 350.59 223.894 352.07 225.795C348.788 226.75 345.388 227.236 341.97 227.238ZM418.02 273.075C418.312 273.759 418.465 274.494 418.47 275.238C418.338 276.872 417.597 278.396 416.392 279.507C415.188 280.619 413.609 281.236 411.97 281.236C410.331 281.236 408.752 280.619 407.547 279.507C406.343 278.396 405.601 276.872 405.47 275.238C405.479 274.552 405.615 273.874 405.87 273.238H413.47C415.06 273.238 416.57 273.18 418.02 273.075Z" fill="#9D1A49"/>
<path fill-rule="evenodd" clip-rule="evenodd" d="M16.9697 92.238C18.8997 92.238 20.4697 94.253 20.4697 96.738C20.4697 99.223 18.8997 101.238 16.9697 101.238C15.0397 101.238 13.4697 99.223 13.4697 96.738C13.4697 94.253 15.0397 92.238 16.9697 92.238Z" fill="#393939"/>
<path d="M133.96 92.25C148.043 92.25 159.46 80.8333 159.46 66.75C159.46 52.6667 148.043 41.25 133.96 41.25C119.877 41.25 108.46 52.6667 108.46 66.75C108.46 80.8333 119.877 92.25 133.96 92.25Z" fill="#212121"/>
<path d="M143.46 67.25C148.431 67.25 152.46 63.2206 152.46 58.25C152.46 53.2794 148.431 49.25 143.46 49.25C138.489 49.25 134.46 53.2794 134.46 58.25C134.46 63.2206 138.489 67.25 143.46 67.25Z" fill="white"/>
</g>
<defs>
<clipPath id="clip0">
<rect width="468.46" height="405.249" fill="white"/>
</clipPath>
</defs>
</svg>
