<svg width="117" height="117" viewBox="0 0 117 117" fill="none" xmlns="http://www.w3.org/2000/svg">
<path d="M58.5 117C90.8087 117 117 90.8087 117 58.5C117 26.1913 90.8087 0 58.5 0C26.1913 0 0 26.1913 0 58.5C0 90.8087 26.1913 117 58.5 117Z" fill="#E9E9E9"/>
<path d="M58.3248 114.027C89.0881 114.027 114.027 89.0884 114.027 58.3251C114.027 27.5619 89.0881 2.62332 58.3248 2.62332C27.5616 2.62332 2.62305 27.5619 2.62305 58.3251C2.62305 89.0884 27.5616 114.027 58.3248 114.027Z" fill="#E9E9E9"/>
<path d="M58.325 110.354C87.06 110.354 110.354 87.06 110.354 58.3251C110.354 29.5902 87.06 6.29596 58.325 6.29596C29.5901 6.29596 6.2959 29.5902 6.2959 58.3251C6.2959 87.06 29.5901 110.354 58.325 110.354Z" fill="#E9E9E9"/>
</svg>
