<svg id="Pílula" xmlns="http://www.w3.org/2000/svg" width="901.469" height="351.375" viewBox="0 0 901.469 351.375">
  <defs>
    <style>
      .cls-1, .cls-3 {
        fill: #fff;
      }

      .cls-1 {
        stroke: #000;
        stroke-width: 1px;
      }

      .cls-1, .cls-2, .cls-3 {
        fill-rule: evenodd;
      }

      .cls-2 {
        fill: #b71c1c;
      }
    </style>
  </defs>
  <path id="Retângulo_Arredondado_1" data-name="Retângulo Arredondado 1" class="cls-1" d="M224.2,344.828h550a175,175,0,0,1,0,350h-550A175,175,0,0,1,224.2,344.828Z" transform="translate(-48.719 -343.969)"/>
  <path id="Preenchimento_de_Cor_2" data-name="Preenchimento de Cor 2" class="cls-2" d="M499.2,344.828h208c37.066,0,81.17-3.922,111,5,45.027,13.468,77.612,37.849,101,73a196.445,196.445,0,0,1,26,57q1,8.5,2,17c1.946,8.618,4.419,24.88,2,36-2.811,12.924-3.124,26.171-7,38-18.111,55.28-55.781,92.73-108,114-31.277,12.74-78.174,10-122,10h-221v-2c9.165-12.262,13.223-46.208,18-64,5.389-20.069,6.024-44.023,11-66q0.5-15,1-30c2.673-12.392,2.765-36.619,0-49v-18c-2.139-9.56-.589-20.622-3-31q-4.5-26-9-52C505.871,370.97,500.357,357.764,499.2,344.828Z" transform="translate(-48.719 -343.969)"/>
  <path id="Preenchimento_de_Cor_3" data-name="Preenchimento de Cor 3" class="cls-3" d="M529.2,372.828c-0.075,6.972-3.8,29-7,33-0.772-15.775-8.5-38.007-14-51h260v1Z" transform="translate(-48.719 -343.969)"/>
</svg>
