<svg id="Icon" xmlns="http://www.w3.org/2000/svg" width="784.687" height="605.5" viewBox="0 0 784.687 605.5">
  <defs>
    <style>
      .cls-1 {
        fill: #d8d8d0;
      }

      .cls-2, .cls-4 {
        fill: #6879f9;
      }

      .cls-3, .cls-5 {
        fill: #29bbf0;
      }

      .cls-10, .cls-14, .cls-15, .cls-16, .cls-17, .cls-19, .cls-22, .cls-23, .cls-25, .cls-30, .cls-4, .cls-5, .cls-7, .cls-8 {
        fill-rule: evenodd;
      }

      .cls-16, .cls-6 {
        fill: #e9e9e1;
      }

      .cls-7 {
        fill: #3c3c3c;
      }

      .cls-7, .cls-9 {
        stroke: #000;
      }

      .cls-11, .cls-7, .cls-9 {
        stroke-width: 3px;
      }

      .cls-12, .cls-8 {
        fill: #b0b0b0;
      }

      .cls-9 {
        fill: #373737;
      }

      .cls-10 {
        fill: #be1e20;
      }

      .cls-11 {
        fill: none;
        stroke: #373737;
      }

      .cls-13 {
        font-size: 45.833px;
        fill: #b22424;
        font-family: Arial;
        font-weight: 700;
      }

      .cls-14, .cls-20 {
        fill: #514e4e;
      }

      .cls-15, .cls-21 {
        fill: #b9f1fd;
      }

      .cls-17 {
        fill: #98eafc;
      }

      .cls-18 {
        fill: #505050;
      }

      .cls-19 {
        fill: #fff;
      }

      .cls-22, .cls-31 {
        fill: #e6e6e6;
      }

      .cls-23 {
        fill: #f44141;
      }

      .cls-24 {
        fill: #393939;
      }

      .cls-25, .cls-26 {
        fill: #414141;
      }

      .cls-27 {
        fill: #b0afb0;
      }

      .cls-28 {
        fill: #e6e442;
      }

      .cls-29 {
        fill: #e68f42;
      }

      .cls-30, .cls-32 {
        fill: #212121;
      }
    </style>
  </defs>
  <g id="Hospital">
    <g id="Base">
      <rect id="Fundo" class="cls-1" x="20.687" y="211" width="752" height="393"/>
      <g id="Roda_teto_fundo" data-name="Roda teto fundo">
        <rect id="Retângulo_Menor" data-name="Retângulo Menor" class="cls-2" x="19.531" y="208" width="754.312" height="14"/>
        <rect id="Retângulo_Maior" data-name="Retângulo Maior" class="cls-3" x="8.687" y="201" width="776" height="14"/>
      </g>
      <g id="Roda_teto_fundo_2" data-name="Roda teto fundo 2">
        <path id="Retângulo_Menor-2" data-name="Retângulo Menor" class="cls-4" d="M122.844,568.8H877.156v14H122.844v-14Z" transform="translate(-103.313 -182)"/>
        <path id="Retângulo_Maior-2" data-name="Retângulo Maior" class="cls-5" d="M112,561.8H888v14H112v-14Z" transform="translate(-103.313 -182)"/>
      </g>
      <rect id="Frontal" class="cls-6" x="228.687" y="8" width="336" height="596"/>
      <g id="Portão">
        <path id="Fundo-2" data-name="Fundo" class="cls-7" d="M712.2,648h128V776h-128V648Z" transform="translate(-103.313 -182)"/>
        <g id="Listras">
          <path id="Retângulo_Arredondado_1_copiar_5" data-name="Retângulo Arredondado 1 copiar 5" class="cls-8" d="M720.2,656h112a2.5,2.5,0,0,1,0,5h-112A2.5,2.5,0,0,1,720.2,656Zm0,7h112a2.5,2.5,0,0,1,0,5h-112A2.5,2.5,0,0,1,720.2,663Zm0,7h112a2.5,2.5,0,0,1,0,5h-112A2.5,2.5,0,0,1,720.2,670Zm0,7h112a2.5,2.5,0,0,1,0,5h-112A2.5,2.5,0,0,1,720.2,677Zm0,7h112a2.5,2.5,0,0,1,0,5h-112A2.5,2.5,0,0,1,720.2,684Zm0,7h112a2.5,2.5,0,0,1,0,5h-112A2.5,2.5,0,0,1,720.2,691Zm0,7h112a2.5,2.5,0,0,1,0,5h-112A2.5,2.5,0,0,1,720.2,698Zm0,7h112a2.5,2.5,0,0,1,0,5h-112A2.5,2.5,0,0,1,720.2,705Zm0,7h112a2.5,2.5,0,0,1,0,5h-112A2.5,2.5,0,0,1,720.2,712Zm0,7h112a2.5,2.5,0,0,1,0,5h-112A2.5,2.5,0,0,1,720.2,719Zm0,7h112a2.5,2.5,0,0,1,0,5h-112A2.5,2.5,0,0,1,720.2,726Zm0,7h112a2.5,2.5,0,0,1,0,5h-112A2.5,2.5,0,0,1,720.2,733Zm0,7h112a2.5,2.5,0,0,1,0,5h-112A2.5,2.5,0,0,1,720.2,740Zm0,7h112a2.5,2.5,0,0,1,0,5h-112A2.5,2.5,0,0,1,720.2,747Zm0,7h112a2.5,2.5,0,0,1,0,5h-112A2.5,2.5,0,0,1,720.2,754Zm0,7h112a2.5,2.5,0,0,1,0,5h-112A2.5,2.5,0,0,1,720.2,761Zm0,7h112a2.5,2.5,0,0,1,0,5h-112A2.5,2.5,0,0,1,720.2,768Zm0,7h112a2.5,2.5,0,0,1,0,5h-112A2.5,2.5,0,0,1,720.2,775Z" transform="translate(-103.313 -182)"/>
        </g>
      </g>
      <rect id="Piso" class="cls-9" x="20.687" y="592" width="752" height="12"/>
      <g id="Roda_teto_frontal" data-name="Roda teto frontal">
        <rect id="Retângulo_Menor-3" data-name="Retângulo Menor" class="cls-2" x="222.687" y="7" width="348" height="14"/>
        <rect id="Retângulo_Maior-3" data-name="Retângulo Maior" class="cls-3" x="217.687" width="358" height="14"/>
      </g>
    </g>
    <g id="Cruz">
      <path id="Retângulo_5_copiar_2" data-name="Retângulo 5 copiar 2" class="cls-10" d="M527,249.231H506.231V270H493.769V249.231H473V236.769h20.769V216h12.462v20.769H527v12.462Z" transform="translate(-103.313 -182)"/>
      <circle id="Elipse_2" data-name="Elipse 2" class="cls-11" cx="396.187" cy="61.5" r="34.5"/>
    </g>
    <g id="Entrada">
      <rect id="coluna_dir" data-name="coluna dir" class="cls-12" x="466.687" y="442" width="20" height="120"/>
      <rect id="coluna_esq" data-name="coluna esq" class="cls-12" x="306.687" y="442" width="20" height="120"/>
      <rect id="Cobertura" class="cls-1" x="291.687" y="442" width="210" height="36"/>
      <text id="HOSPITAL-2" data-name="HOSPITAL" class="cls-13" transform="translate(265.715 432.305) scale(1.153 1.235)">HOSPITAL</text>
      <g id="porta_vidro_entrada" data-name="porta vidro entrada">
        <path id="Borda" class="cls-14" d="M451.965,680.176h98.513v63.811H451.965V680.176ZM450,678H553v65.987H450V678Z" transform="translate(-103.313 -182)"/>
        <path id="Vidro" class="cls-15" d="M451.965,680.176h98.513v63.811H451.965V680.176Z" transform="translate(-103.313 -182)"/>
        <g id="Brilho_mais_claro" data-name="Brilho mais claro">
          <path id="Retângulo_5_copiar" data-name="Retângulo 5 copiar" class="cls-16" d="M551,743.969h6.982l0.011,0.013-49.883.006-0.1-63.978h0.23L551,734.992v8.977ZM501,680h7v63.969h-7V680Zm1,63.969h6.982l0.011,0.013-49.883.006-0.1-63.978h0.23L502,734.992v8.977ZM452,680h7v63.969h-7V680Z" transform="translate(-103.313 -182)"/>
        </g>
        <path id="Reflexo_porta_1" data-name="Reflexo porta 1" class="cls-17" d="M501.005,743.991L452.084,744l-0.1-63.572h0.225Zm49.519,0L501.109,744l-0.1-63.572h0.227Z" transform="translate(-103.313 -182)"/>
      </g>
      <g id="Escada">
        <rect id="degrau_1" data-name="degrau 1" class="cls-18" x="296.687" y="582" width="200" height="10"/>
        <rect id="degrau_2" data-name="degrau 2" class="cls-12" x="301.687" y="572" width="190" height="10"/>
        <rect id="degrau_3" data-name="degrau 3" class="cls-18" x="306.687" y="562" width="180" height="10"/>
      </g>
    </g>
    <g id="Janelas">
      <g id="Janelas_front" data-name="Janelas front">
        <g id="Agrupar_3" data-name="Agrupar 3">
          <g id="Linha_de_Janela" data-name="Linha de Janela">
            <g id="Duas_janelas_juntas" data-name="Duas janelas juntas">
              <g id="Janela_E" data-name="Janela E">
                <path id="Retângulo_2_copiar_2" data-name="Retângulo 2 copiar 2" class="cls-14" d="M342.2,332h66v65h-66V332Z" transform="translate(-103.313 -182)"/>
                <path id="Retângulo_2" data-name="Retângulo 2" class="cls-15" d="M345.665,335.5h59.468v58.375H345.665V335.5Z" transform="translate(-103.313 -182)"/>
                <path id="Retângulo_4" data-name="Retângulo 4" class="cls-19" d="M404.76,393.585l-54.131,0V393.6h-4.865v-58h4.865v0.331l54.131,53.459v4.2Z" transform="translate(-103.313 -182)"/>
                <path id="Reflexo_" data-name="Reflexo " class="cls-17" d="M403.75,393.588l-58.878.006-0.123-58.009h0.271Z" transform="translate(-103.313 -182)"/>
              </g>
              <g id="Janela_D" data-name="Janela D">
                <rect id="Retângulo_2_copiar_2-2" data-name="Retângulo 2 copiar 2" class="cls-20" x="301.812" y="150" width="66" height="65"/>
                <path id="Retângulo_2-2" data-name="Retângulo 2" class="cls-15" d="M408.6,335.5h59.469v58.375H408.6V335.5Z" transform="translate(-103.313 -182)"/>
                <path id="Retângulo_4-2" data-name="Retângulo 4" class="cls-19" d="M467.7,393.585l-54.131,0V393.6H408.7v-58h4.866v0.331L467.7,389.387v4.2Z" transform="translate(-103.313 -182)"/>
                <path id="Reflexo_2" data-name="Reflexo " class="cls-17" d="M466.688,393.588l-58.879.006-0.123-58.009h0.272Z" transform="translate(-103.313 -182)"/>
              </g>
            </g>
            <g id="TrÊs_janelas_juntas_copiar" data-name="TrÊs janelas juntas copiar">
              <g id="Janela_E-2" data-name="Janela E">
                <path id="Retângulo_2_copiar_2-3" data-name="Retângulo 2 copiar 2" class="cls-14" d="M468.071,332h66v65h-66V332Z" transform="translate(-103.313 -182)"/>
                <path id="Retângulo_2-3" data-name="Retângulo 2" class="cls-15" d="M471.54,335.5h59.468v58.375H471.54V335.5Z" transform="translate(-103.313 -182)"/>
                <path id="Retângulo_4-3" data-name="Retângulo 4" class="cls-19" d="M530.635,393.585l-54.131,0V393.6h-4.865v-58H476.5v0.331l54.131,53.459v4.2Z" transform="translate(-103.313 -182)"/>
                <path id="Reflexo_3" data-name="Reflexo " class="cls-17" d="M529.625,393.588l-58.878.006-0.123-58.009H470.9Z" transform="translate(-103.313 -182)"/>
              </g>
              <g id="Janela_MEIO" data-name="Janela MEIO">
                <path id="Retângulo_2_copiar_2-4" data-name="Retângulo 2 copiar 2" class="cls-14" d="M531.008,332h66v65h-66V332Z" transform="translate(-103.313 -182)"/>
                <path id="Retângulo_2-4" data-name="Retângulo 2" class="cls-15" d="M534.477,335.5h59.469v58.375H534.477V335.5Z" transform="translate(-103.313 -182)"/>
                <path id="Retângulo_4-4" data-name="Retângulo 4" class="cls-19" d="M593.573,393.585l-54.131,0V393.6h-4.866v-58h4.866v0.331l54.131,53.459v4.2Z" transform="translate(-103.313 -182)"/>
                <path id="Reflexo_4" data-name="Reflexo " class="cls-17" d="M592.563,393.588l-58.879.006-0.123-58.009h0.272Z" transform="translate(-103.313 -182)"/>
              </g>
              <g id="Janela_D_" data-name="Janela D ">
                <path id="Retângulo_2_copiar_2-5" data-name="Retângulo 2 copiar 2" class="cls-14" d="M593.946,332h66v65h-66V332Z" transform="translate(-103.313 -182)"/>
                <rect id="Retângulo_2-5" data-name="Retângulo 2" class="cls-21" x="494.093" y="153.5" width="59.469" height="58.375"/>
                <path id="Retângulo_4-5" data-name="Retângulo 4" class="cls-19" d="M656.51,393.585l-54.131,0V393.6h-4.866v-58h4.866v0.331l54.131,53.459v4.2Z" transform="translate(-103.313 -182)"/>
                <path id="Reflexo_5" data-name="Reflexo " class="cls-17" d="M655.5,393.588l-58.878.006L596.5,335.585h0.271Z" transform="translate(-103.313 -182)"/>
              </g>
            </g>
          </g>
          <g id="Linha_de_Janela_2" data-name="Linha de Janela 2">
            <g id="Duas_janelas_juntas-2" data-name="Duas janelas juntas">
              <g id="Janela_E-3" data-name="Janela E">
                <rect id="Retângulo_2_copiar_2-6" data-name="Retângulo 2 copiar 2" class="cls-20" x="237.312" y="241" width="66" height="65"/>
                <rect id="Retângulo_2-6" data-name="Retângulo 2" class="cls-21" x="240.781" y="244.5" width="59.469" height="58.375"/>
                <path id="Retângulo_4-6" data-name="Retângulo 4" class="cls-19" d="M403.2,484.585l-54.131,0V484.6H344.2v-58h4.866v0.331l54.131,53.46v4.2Z" transform="translate(-103.313 -182)"/>
                <path id="Reflexo_6" data-name="Reflexo " class="cls-17" d="M402.186,484.588l-58.879.006-0.123-58.009h0.272Z" transform="translate(-103.313 -182)"/>
              </g>
              <g id="Janela_D-2" data-name="Janela D">
                <rect id="Retângulo_2_copiar_2-7" data-name="Retângulo 2 copiar 2" class="cls-20" x="300.25" y="241" width="66" height="65"/>
                <rect id="Retângulo_2-7" data-name="Retângulo 2" class="cls-21" x="303.718" y="244.5" width="59.469" height="58.375"/>
                <path id="Retângulo_4-7" data-name="Retângulo 4" class="cls-19" d="M466.133,484.585l-54.131,0V484.6h-4.866v-58H412v0.331l54.131,53.46v4.2Z" transform="translate(-103.313 -182)"/>
                <path id="Reflexo_7" data-name="Reflexo " class="cls-17" d="M465.123,484.588l-58.878.006-0.123-58.009h0.271Z" transform="translate(-103.313 -182)"/>
              </g>
            </g>
            <g id="TrÊs_janelas_juntas_copiar-2" data-name="TrÊs janelas juntas copiar">
              <g id="Janela_E-4" data-name="Janela E">
                <rect id="Retângulo_2_copiar_2-8" data-name="Retângulo 2 copiar 2" class="cls-20" x="363.187" y="241" width="66" height="65"/>
                <rect id="Retângulo_2-8" data-name="Retângulo 2" class="cls-21" x="366.656" y="244.5" width="59.469" height="58.375"/>
                <path id="Retângulo_4-8" data-name="Retângulo 4" class="cls-19" d="M529.071,484.585l-54.131,0V484.6h-4.866v-58h4.866v0.331l54.131,53.46v4.2Z" transform="translate(-103.313 -182)"/>
                <path id="Reflexo_8" data-name="Reflexo " class="cls-17" d="M528.061,484.588l-58.879.006-0.123-58.009h0.272Z" transform="translate(-103.313 -182)"/>
              </g>
              <g id="Janela_MEIO-2" data-name="Janela MEIO">
                <rect id="Retângulo_2_copiar_2-9" data-name="Retângulo 2 copiar 2" class="cls-20" x="426.125" y="241" width="66" height="65"/>
                <rect id="Retângulo_2-9" data-name="Retângulo 2" class="cls-21" x="429.593" y="244.5" width="59.469" height="58.375"/>
                <path id="Retângulo_4-9" data-name="Retângulo 4" class="cls-19" d="M592.008,484.585l-54.131,0V484.6h-4.865v-58h4.865v0.331l54.131,53.46v4.2Z" transform="translate(-103.313 -182)"/>
                <path id="Reflexo_9" data-name="Reflexo " class="cls-17" d="M591,484.588l-58.878.006L532,426.585h0.271Z" transform="translate(-103.313 -182)"/>
              </g>
              <g id="Janela_D_2" data-name="Janela D ">
                <rect id="Retângulo_2_copiar_2-10" data-name="Retângulo 2 copiar 2" class="cls-20" x="489.062" y="241" width="66" height="65"/>
                <rect id="Retângulo_2-10" data-name="Retângulo 2" class="cls-21" x="492.531" y="244.5" width="59.469" height="58.375"/>
                <path id="Retângulo_4-10" data-name="Retângulo 4" class="cls-19" d="M654.946,484.585l-54.131,0V484.6h-4.866v-58h4.866v0.331l54.131,53.46v4.2Z" transform="translate(-103.313 -182)"/>
                <path id="Reflexo_10" data-name="Reflexo " class="cls-17" d="M653.936,484.588l-58.879.006-0.123-58.009h0.272Z" transform="translate(-103.313 -182)"/>
              </g>
            </g>
          </g>
        </g>
      </g>
      <g id="Janelas_fundo" data-name="Janelas fundo">
        <g id="Linha_de_Janela_Dir" data-name="Linha de Janela Dir">
          <g id="Duas_janelas_juntas-3" data-name="Duas janelas juntas">
            <g id="Janela_E-5" data-name="Janela E">
              <rect id="Retângulo_2_copiar_2-11" data-name="Retângulo 2 copiar 2" class="cls-20" x="575.687" y="274" width="66" height="65"/>
              <rect id="Retângulo_2-11" data-name="Retângulo 2" class="cls-21" x="579.156" y="277.5" width="59.469" height="58.375"/>
              <path id="Retângulo_4-11" data-name="Retângulo 4" class="cls-19" d="M741.008,517.991l-54.131,0v0.009h-4.865V460h4.865v0.331l54.131,53.46v4.2Z" transform="translate(-103.313 -182)"/>
              <path id="Reflexo_11" data-name="Reflexo " class="cls-17" d="M740.561,517.588l-58.879.006-0.123-58.009h0.272Z" transform="translate(-103.313 -182)"/>
            </g>
            <g id="Janela_D-3" data-name="Janela D">
              <rect id="Retângulo_2_copiar_2-12" data-name="Retângulo 2 copiar 2" class="cls-20" x="638.625" y="274" width="66" height="65"/>
              <rect id="Retângulo_2-12" data-name="Retângulo 2" class="cls-21" x="642.093" y="277.5" width="59.469" height="58.375"/>
              <path id="Retângulo_4-12" data-name="Retângulo 4" class="cls-19" d="M804.008,517.991l-54.131,0v0.009h-4.866V460h4.866v0.331l54.131,53.46v4.2Z" transform="translate(-103.313 -182)"/>
              <path id="Reflexo_12" data-name="Reflexo " class="cls-17" d="M803.5,517.588l-58.878.006L744.5,459.585h0.271Z" transform="translate(-103.313 -182)"/>
            </g>
          </g>
          <g id="Duas_janelas_juntas_copiar" data-name="Duas janelas juntas copiar">
            <g id="Janela_E-6" data-name="Janela E">
              <rect id="Retângulo_2_copiar_2-13" data-name="Retângulo 2 copiar 2" class="cls-20" x="701.562" y="274" width="66" height="65"/>
              <rect id="Retângulo_2-13" data-name="Retângulo 2" class="cls-21" x="705.031" y="277.5" width="59.469" height="58.375"/>
              <path id="Retângulo_4-13" data-name="Retângulo 4" class="cls-19" d="M867.446,517.585l-54.131,0V517.6h-4.866v-58h4.866v0.331l54.131,53.46v4.2Z" transform="translate(-103.313 -182)"/>
              <path id="Reflexo_13" data-name="Reflexo " class="cls-17" d="M866.436,517.588l-58.879.006-0.123-58.009h0.272Z" transform="translate(-103.313 -182)"/>
            </g>
          </g>
        </g>
        <g id="Linha_de_Janela_Dir_copiar" data-name="Linha de Janela Dir copiar">
          <g id="Duas_janelas_juntas-4" data-name="Duas janelas juntas">
            <g id="Janela_E-7" data-name="Janela E">
              <rect id="Retângulo_2_copiar_2-14" data-name="Retângulo 2 copiar 2" class="cls-20" x="25.812" y="273.5" width="66" height="65"/>
              <rect id="Retângulo_2-14" data-name="Retângulo 2" class="cls-21" x="29.281" y="277" width="59.469" height="58.375"/>
              <path id="Retângulo_4-14" data-name="Retângulo 4" class="cls-19" d="M192.008,516.991l-54.131,0v0.009h-4.865V459h4.865v0.331l54.131,53.46v4.2Z" transform="translate(-103.313 -182)"/>
              <path id="Reflexo_14" data-name="Reflexo " class="cls-17" d="M190.686,517.088l-58.879.006-0.123-58.009h0.272Z" transform="translate(-103.313 -182)"/>
            </g>
            <g id="Janela_D-4" data-name="Janela D">
              <rect id="Retângulo_2_copiar_2-15" data-name="Retângulo 2 copiar 2" class="cls-20" x="88.75" y="273.5" width="66" height="65"/>
              <rect id="Retângulo_2-15" data-name="Retângulo 2" class="cls-21" x="92.218" y="277" width="59.469" height="58.375"/>
              <path id="Retângulo_4-15" data-name="Retângulo 4" class="cls-19" d="M255.008,516.991l-54.131,0v0.009h-4.866V459h4.866v0.331l54.131,53.46v4.2Z" transform="translate(-103.313 -182)"/>
              <path id="Reflexo_15" data-name="Reflexo " class="cls-17" d="M253.623,517.088l-58.878.006-0.123-58.009h0.271Z" transform="translate(-103.313 -182)"/>
            </g>
          </g>
          <g id="Duas_janelas_juntas_copiar-2" data-name="Duas janelas juntas copiar">
            <g id="Janela_E-8" data-name="Janela E">
              <rect id="Retângulo_2_copiar_2-16" data-name="Retângulo 2 copiar 2" class="cls-20" x="151.687" y="273.5" width="66" height="65"/>
              <rect id="Retângulo_2-16" data-name="Retângulo 2" class="cls-21" x="155.156" y="277" width="59.469" height="58.375"/>
              <path id="Retângulo_4-16" data-name="Retângulo 4" class="cls-19" d="M317.008,516.991l-54.131,0v0.009h-4.865V459h4.865v0.331l54.131,53.46v4.2Z" transform="translate(-103.313 -182)"/>
              <path id="Reflexo_16" data-name="Reflexo " class="cls-17" d="M316.561,517.088l-58.879.006-0.123-58.009h0.272Z" transform="translate(-103.313 -182)"/>
            </g>
          </g>
        </g>
      </g>
    </g>
  </g>
  <g id="Ambulância">
    <g id="Corpo">
      <g id="Carcaça">
        <path id="Caçamba" class="cls-22" d="M267.313,660.416v105.87H169.4a22.057,22.057,0,1,0-43.413,0h-18v-131.3H317.134v25.429H267.313Z" transform="translate(-103.313 -182)"/>
        <path id="Front" class="cls-22" d="M365.423,765.246l1.525,0.072v0.968h-20.37c0.063-.685.1-1.378,0.1-2.08a22.269,22.269,0,1,0-44.537,0c0,0.7.036,1.395,0.1,2.08H267.318V661.452h50.324l16.139,48.928H363.39s2.242-1.765,2.033,2.881,0,27.552,0,27.552v24.433Z" transform="translate(-103.313 -182)"/>
        <path id="Faixa_vermelho_copiar" data-name="Faixa vermelho copiar" class="cls-23" d="M116.81,726.313h150.5v6.25H116.81v-6.25Zm0,7.812h150.5v6.219H116.81v-6.219Z" transform="translate(-103.313 -182)"/>
        <rect id="Parachoque" class="cls-24" y="570.281" width="265.718" height="14"/>
      </g>
      <g id="Vidro-2" data-name="Vidro">
        <path id="Preenchimento_de_Cor_2" data-name="Preenchimento de Cor 2" class="cls-25" d="M333.742,709.718h-35.81V668.2h21.924Z" transform="translate(-103.313 -182)"/>
        <rect id="Retângulo_6" data-name="Retângulo 6" class="cls-26" x="178" y="485.688" width="13" height="42.562" rx="3" ry="3"/>
      </g>
      <g id="Sombras">
        <rect id="Sombra_cabiine" data-name="Sombra cabiine" class="cls-27" x="164" y="479.469" width="3.125" height="90.812"/>
      </g>
      <g id="farol">
        <g id="Traseiro">
          <rect id="Retângulo_5" data-name="Retângulo 5" class="cls-28" x="4.687" y="544.313" width="6.75" height="14.031"/>
          <rect id="Retângulo_5_copiar_3" data-name="Retângulo 5 copiar 3" class="cls-29" x="4.687" y="539.656" width="6.75" height="4.657"/>
        </g>
        <g id="Dianteiro">
          <rect id="Retângulo_5-2" data-name="Retângulo 5" class="cls-28" x="256.906" y="544.313" width="6.75" height="14.031"/>
          <rect id="Retângulo_5_copiar_3-2" data-name="Retângulo 5 copiar 3" class="cls-29" x="256.906" y="539.656" width="6.75" height="4.657"/>
        </g>
      </g>
      <path id="Cruz-2" data-name="Cruz" class="cls-23" d="M187.909,721.66a39.447,39.447,0,1,1,39.437-39.447A39.485,39.485,0,0,1,187.909,721.66Zm0-75.275a35.828,35.828,0,1,0,35.82,35.828A35.862,35.862,0,0,0,187.909,646.385Zm4.818,57.459H183.09V687.033h-16.8v-9.64h16.8V660.582h9.637v16.811h16.8v9.64h-16.8v16.811Z" transform="translate(-103.313 -182)"/>
    </g>
    <g id="Rodas">
      <path id="Roda" class="cls-30" d="M324.4,741.375a22.313,22.313,0,1,1-22.312,22.313A22.313,22.313,0,0,1,324.4,741.375Z" transform="translate(-103.313 -182)"/>
      <circle id="Roda_branca" data-name="Roda branca" class="cls-31" cx="220.687" cy="581" r="11"/>
      <g id="Tras">
        <circle id="Roda_Tras" data-name="Roda Tras" class="cls-32" cx="45.156" cy="580.657" r="22.313"/>
        <circle id="Roda_Tras_copiar" data-name="Roda Tras copiar" class="cls-31" cx="44.687" cy="580" r="11"/>
      </g>
    </g>
  </g>
</svg>
