<svg width="500" height="500" viewBox="0 0 500 500" fill="none" xmlns="http://www.w3.org/2000/svg">
<path d="M32.9002 469.83C32.9002 469.97 129.36 470.09 248.32 470.09C367.28 470.09 463.76 470 463.76 469.83C463.76 469.66 367.32 469.57 248.32 469.57C129.32 469.57 32.9002 469.69 32.9002 469.83Z" fill="#263238"/>
<path d="M306.35 341.44C306.35 341.44 334.79 360.76 336.35 405.86C336.87 420.99 329.44 469.16 329.44 469.16L163.11 469.83L194.22 340.72L246.55 328.72L306.35 341.44Z" fill="#E91E63"/>
<path d="M242.81 374.92L265.47 469.45L208.83 469.83L242.81 374.92Z" fill="#263238"/>
<path d="M243.67 354.45C243.491 355.471 243.391 356.504 243.37 357.54C243.24 359.62 243.08 362.18 242.9 365.02C242.72 367.86 242.62 370.59 242.58 372.5C242.512 373.537 242.535 374.578 242.65 375.61C242.828 374.589 242.929 373.556 242.95 372.52C243.08 370.45 243.24 367.88 243.42 365.05C243.6 362.22 243.7 359.48 243.73 357.56C243.803 356.524 243.783 355.483 243.67 354.45Z" fill="#263238"/>
<path d="M233.41 364.87C233.41 364.92 233.78 365 234.41 365.35C235.236 365.846 235.894 366.577 236.3 367.45C236.615 368.078 236.761 368.776 236.726 369.477C236.691 370.177 236.476 370.857 236.1 371.45C235.671 372.193 235.026 372.788 234.251 373.157C233.476 373.526 232.608 373.65 231.76 373.515C230.913 373.379 230.127 372.99 229.505 372.398C228.884 371.806 228.457 371.04 228.28 370.2C228.103 369.528 228.103 368.822 228.278 368.149C228.453 367.477 228.798 366.861 229.28 366.36C229.937 365.655 230.79 365.164 231.73 364.95C232.39 364.8 232.73 364.84 232.79 364.79C232.85 364.74 232.69 364.79 232.51 364.73C232.238 364.691 231.962 364.691 231.69 364.73C230.677 364.878 229.74 365.352 229.02 366.08C228.512 366.581 228.123 367.189 227.88 367.86C227.612 368.647 227.574 369.493 227.77 370.3C227.965 371.236 228.439 372.091 229.131 372.751C229.823 373.41 230.7 373.844 231.644 373.994C232.588 374.144 233.555 374.002 234.418 373.589C235.28 373.176 235.996 372.51 236.47 371.68C236.906 370.975 237.131 370.159 237.12 369.33C237.091 368.633 236.91 367.95 236.59 367.33C236.132 366.412 235.388 365.668 234.47 365.21C234.228 365.084 233.968 364.993 233.7 364.94C233.51 364.86 233.42 364.85 233.41 364.87Z" fill="#263238"/>
<path d="M215.28 416.48C215.28 416.48 215.65 416.62 216.28 416.96C217.103 417.457 217.757 418.188 218.16 419.06C218.475 419.688 218.621 420.386 218.586 421.087C218.551 421.787 218.336 422.467 217.96 423.06C217.531 423.803 216.886 424.398 216.111 424.767C215.336 425.135 214.468 425.26 213.62 425.125C212.773 424.989 211.987 424.6 211.365 424.008C210.744 423.416 210.317 422.65 210.14 421.81C209.965 421.138 209.964 420.432 210.139 419.76C210.314 419.087 210.659 418.471 211.14 417.97C211.793 417.266 212.644 416.774 213.58 416.56C214.25 416.41 214.64 416.45 214.64 416.4C214.552 416.361 214.457 416.341 214.36 416.34C214.091 416.307 213.819 416.307 213.55 416.34C212.533 416.49 211.592 416.968 210.87 417.7C210.364 418.196 209.977 418.802 209.74 419.47C209.462 420.255 209.424 421.104 209.63 421.91C209.817 422.85 210.288 423.711 210.979 424.375C211.67 425.04 212.548 425.477 213.495 425.627C214.441 425.778 215.412 425.634 216.274 425.216C217.137 424.798 217.851 424.126 218.32 423.29C218.765 422.589 218.991 421.771 218.97 420.94C218.946 420.242 218.765 419.559 218.44 418.94C217.982 418.022 217.238 417.278 216.32 416.82C216.077 416.697 215.818 416.606 215.55 416.55C215.464 416.514 215.373 416.491 215.28 416.48Z" fill="#263238"/>
<path d="M274.09 379C274.194 379.159 274.315 379.306 274.45 379.44C274.69 379.72 275.05 380.13 275.54 380.64C276.942 382.072 278.439 383.408 280.02 384.64C285.284 388.675 291.354 391.53 297.82 393.01C301.369 393.862 305.029 394.158 308.67 393.89C311.672 393.673 314.557 392.635 317.01 390.89C318.648 389.694 319.964 388.11 320.84 386.28C321.06 385.782 321.24 385.267 321.38 384.74C321.436 384.559 321.466 384.37 321.47 384.18C321.42 384.18 321.27 384.94 320.65 386.18C319.731 387.93 318.408 389.435 316.79 390.57C314.373 392.232 311.555 393.216 308.63 393.42C305.037 393.648 301.431 393.338 297.93 392.5C291.532 391.034 285.508 388.255 280.24 384.34C278.653 383.149 277.134 381.871 275.69 380.51L274.52 379.38C274.25 379.11 274.11 379 274.09 379Z" fill="#263238"/>
<path d="M274.09 388.36C274.194 388.519 274.315 388.666 274.45 388.8C274.69 389.08 275.05 389.5 275.54 390.01C281.622 396.187 289.359 400.475 297.82 402.36C301.369 403.215 305.029 403.515 308.67 403.25C311.671 403.028 314.555 401.991 317.01 400.25C318.649 399.059 319.966 397.478 320.84 395.65C321.062 395.149 321.242 394.63 321.38 394.1C321.437 393.919 321.467 393.73 321.47 393.54C321.42 393.54 321.27 394.3 320.65 395.54C319.732 397.293 318.409 398.802 316.79 399.94C314.372 401.598 311.554 402.579 308.63 402.78C305.037 403.013 301.43 402.703 297.93 401.86C291.534 400.392 285.511 397.617 280.24 393.71C278.652 392.516 277.133 391.234 275.69 389.87L274.52 388.74C274.392 388.597 274.247 388.469 274.09 388.36Z" fill="#263238"/>
<path d="M272.621 385.53C272.585 385.661 272.561 385.795 272.551 385.93C272.551 386.22 272.481 386.62 272.421 387.12C272.301 388.2 272.131 389.74 271.921 391.71C271.501 395.71 270.701 401.44 270.341 408.61C270.135 412.521 270.219 416.442 270.591 420.34C271 424.831 272.009 429.247 273.591 433.47C275.334 438.167 278.097 442.419 281.681 445.92C283.583 447.762 285.721 449.343 288.041 450.62C290.44 451.927 293.032 452.842 295.721 453.33C301.081 454.201 306.578 453.183 311.271 450.45C315.647 447.97 319.335 444.437 322.001 440.17C324.351 436.314 326.041 432.093 327.001 427.68C327.855 423.844 328.318 419.93 328.381 416C328.402 410.335 328.001 404.676 327.181 399.07C326.891 397.07 326.671 395.57 326.521 394.5C326.441 394 326.371 393.61 326.331 393.31C326.312 393.175 326.282 393.041 326.241 392.91C326.227 393.047 326.227 393.184 326.241 393.32C326.241 393.62 326.321 394.01 326.381 394.51C326.511 395.59 326.701 397.13 326.951 399.09C327.682 404.693 328.016 410.34 327.951 415.99C327.866 419.885 327.391 423.761 326.531 427.56C325.555 431.915 323.866 436.078 321.531 439.88C318.918 444.078 315.299 447.557 311.001 450C306.41 452.673 301.033 453.666 295.791 452.81C293.157 452.341 290.617 451.446 288.271 450.16C285.989 448.908 283.884 447.358 282.011 445.55C278.473 442.107 275.741 437.924 274.011 433.3C272.438 429.119 271.429 424.748 271.011 420.3C270.62 416.423 270.517 412.523 270.701 408.63C271.011 401.48 271.701 395.72 272.111 391.73C272.311 389.73 272.441 388.18 272.521 387.13C272.521 386.63 272.581 386.23 272.601 385.93C272.621 385.63 272.621 385.53 272.621 385.53Z" fill="#263238"/>
<g opacity="0.2">
<path opacity="0.2" d="M324.66 435.06C322.86 441.16 322.09 442.74 318.72 447.61C315.608 452.225 311.054 455.679 305.77 457.43C301.993 458.734 297.945 459.051 294.011 458.351C290.076 457.651 286.386 455.957 283.29 453.43C277.18 448.32 275.02 440.43 273.96 435.08C276.62 438.66 279.45 443.75 282.8 446.7C286.15 449.65 290.58 452.23 295 453C301 454 308.15 452.2 313.28 448.94C318.41 445.68 321.51 439.84 324.69 435.07" fill="black"/>
</g>
<g opacity="0.2">
<path opacity="0.2" d="M320.38 396.27C319.24 398.813 317.498 401.04 315.304 402.76C313.111 404.479 310.532 405.639 307.79 406.14C302.38 407.14 295.37 405.43 291.99 400.35C303.89 404.53 315.72 404.63 320.38 396.27Z" fill="black"/>
</g>
<path d="M222.59 381.52C222.845 381.564 223.105 381.564 223.36 381.52C224.037 381.426 224.706 381.279 225.36 381.08C229.817 379.758 233.638 376.857 236.11 372.92C236.487 372.331 236.821 371.716 237.11 371.08C237.3 370.62 237.39 370.37 237.35 370.35C237.31 370.33 236.81 371.29 235.83 372.72C234.54 374.564 232.975 376.199 231.19 377.57C229.392 378.923 227.395 379.989 225.27 380.73C223.64 381.24 222.58 381.43 222.59 381.52Z" fill="#263238"/>
<g opacity="0.2">
<path opacity="0.2" d="M236.43 371C235.2 375.18 230.56 379.08 226.43 380.45C225.622 380.751 224.76 380.877 223.9 380.82C223.47 380.79 223.052 380.667 222.675 380.458C222.298 380.248 221.972 379.959 221.72 379.61C220.85 378.28 221.6 376.39 222.88 375.45C224.242 374.62 225.76 374.078 227.34 373.86C230.53 373.12 233.41 374.73 236.05 372.05" fill="black"/>
</g>
<g opacity="0.2">
<path opacity="0.2" d="M324.87 363.26C317.41 369.78 306.87 370.06 297.38 367.26C287.89 364.46 279.62 359.19 271.56 353.43C280.35 355.18 287.85 359.19 296.72 360.5C305.19 361.75 314 361.88 322.33 359.05" fill="black"/>
</g>
<path d="M181.81 463.42C181.866 463.469 181.931 463.506 182 463.53C182.191 463.632 182.388 463.723 182.59 463.8C183.368 464.114 184.186 464.316 185.02 464.4C188.114 464.656 191.2 463.829 193.75 462.06C197.07 459.95 200.09 456.4 203.32 452.46C206.786 448.136 209.899 443.541 212.63 438.72C217.588 429.949 221.383 420.57 223.92 410.82C224.92 407.08 225.5 404.02 225.87 401.89C226.03 400.89 226.16 400.04 226.26 399.44C226.31 399.156 226.343 398.868 226.36 398.58C226.264 398.853 226.194 399.134 226.15 399.42L225.67 401.85C225.24 403.96 224.57 407.01 223.57 410.72C220.936 420.402 217.11 429.72 212.18 438.46C209.458 443.258 206.369 447.838 202.94 452.16C199.75 456.1 196.77 459.65 193.55 461.75C191.062 463.516 188.046 464.381 185 464.2C183.907 464.086 182.833 463.824 181.81 463.42Z" fill="#263238"/>
<g opacity="0.2">
<path opacity="0.2" d="M217.77 426.52C217.77 426.52 203.01 445.08 192.24 449.63C188.59 451.18 184.57 452.44 182.08 455.52C181.458 456.225 180.997 457.058 180.729 457.959C180.461 458.861 180.394 459.81 180.53 460.74C180.572 460.96 180.639 461.175 180.73 461.38C182.28 465.33 189.73 464.78 193.14 462.28C194.63 461.19 193.75 461.89 194.95 460.99C198.4 458.39 216.87 437 217.77 426.52Z" fill="black"/>
</g>
<path d="M282.93 176.02L273.51 174.15L226.92 174.7L203.25 179.9L194.22 312.08L298.87 316.97L282.93 176.02Z" fill="#E0E0E0"/>
<path d="M215.16 306L212.93 245.88L216.64 176.17C201.92 179.96 181.79 184.17 170.64 196.88C163.41 205.13 156.32 215.68 153.64 232.67C150.56 252.67 146.5 290.92 143.96 312.32" fill="#E91E63"/>
<path d="M200.36 296.14L272.71 307.89L275.27 263.21L279.27 174.88C300.27 175.74 324.17 193.09 331.34 206.61C336.34 215.99 340.53 226.89 341.84 237.44C344.35 257.44 348.6 291.71 351.14 313.12C351.908 319.627 351.217 326.223 349.117 332.429C347.018 338.636 343.561 344.296 339 349C328.5 359.83 312.06 363.58 297.28 360.52L187.12 329.52L200.36 296.14Z" fill="#E91E63"/>
<path d="M208 295.34C207.994 295.255 207.978 295.171 207.95 295.09C207.89 294.91 207.82 294.67 207.74 294.37C207.53 293.7 207.25 292.77 206.88 291.58C206.1 289.12 204.99 285.58 203.61 281.2L192.26 245.76L192.11 246.07L203.84 241.22L204.3 241.03L203.89 240.76L201.18 238.98L192.33 233.2L192.43 233.48C196.93 217.86 200.89 204.08 203.74 194.17C205.13 189.25 206.25 185.29 207.04 182.53C207.4 181.18 207.69 180.13 207.9 179.38C207.987 179.053 208.057 178.783 208.11 178.57C208.143 178.48 208.163 178.386 208.17 178.29C208.17 178.29 208.17 178.37 208.07 178.55L207.81 179.36C207.58 180.1 207.26 181.14 206.86 182.48L203.41 194.07L191.94 233.34L191.89 233.52L192.05 233.63L200.89 239.42L203.6 241.19V240.73L191.88 245.6L191.66 245.69L191.73 245.91C196.35 260.1 200.38 272.45 203.26 281.3C204.71 285.68 205.86 289.19 206.67 291.63C207.07 292.81 207.39 293.74 207.61 294.4C207.71 294.69 207.8 294.92 207.86 295.11C207.898 295.192 207.945 295.269 208 295.34Z" fill="#263238"/>
<g opacity="0.2">
<path opacity="0.2" d="M192 233.56C192.59 235.729 193.867 237.648 195.64 239.03C197.02 239.82 196.23 240.87 195.09 241.97C193.72 243.29 191.52 243.65 190.51 245.25C189.5 246.85 190.07 248.68 190.59 250.36C195.6 266.299 201.68 281.881 208.79 297L192 245.83L203.71 241L192 233.56Z" fill="black"/>
</g>
<path d="M278.73 296.58C278.78 296.516 278.82 296.445 278.85 296.37C278.92 296.21 279.02 296.01 279.13 295.75L280.21 293.31C281.15 291.15 282.49 288.04 284.21 284.16L297.7 252.54L297.78 252.36L297.61 252.24L288.36 245.62V246L294.49 241.14L297.21 239L298.56 238L298.89 237.73C298.96 237.681 299.023 237.624 299.08 237.56C299.145 237.477 299.192 237.382 299.22 237.28C299.294 236.983 299.331 236.677 299.33 236.37C299.268 234.132 299.061 231.901 298.71 229.69C298.1 225.36 297.38 221.2 296.71 217.24C295.29 209.33 293.88 202.24 292.71 196.24C291.54 190.24 290.49 185.47 289.78 182.15C289.42 180.51 289.13 179.23 288.93 178.32L288.7 177.32C288.683 177.206 288.649 177.095 288.6 176.99C288.606 177.108 288.622 177.225 288.65 177.34C288.65 177.59 288.76 177.92 288.83 178.34C289.01 179.254 289.26 180.534 289.58 182.18C290.24 185.54 291.18 190.36 292.34 196.3C293.5 202.24 294.86 209.37 296.26 217.3C296.95 221.25 297.66 225.41 298.26 229.73C298.605 231.915 298.808 234.119 298.87 236.33C298.873 236.586 298.842 236.842 298.78 237.09C298.78 237.21 298.49 237.39 298.28 237.57L296.94 238.63L294.23 240.78L288.11 245.63L287.84 245.85L288.12 246.05L297.38 252.65L297.3 252.34L283.89 284C282.26 287.91 280.96 291 280.06 293.21C279.63 294.26 279.29 295.08 279.06 295.68L278.82 296.32C278.783 296.404 278.753 296.491 278.73 296.58Z" fill="#263238"/>
<path d="M191.252 253.194L264.149 241.948C265.465 241.745 266.696 242.646 266.899 243.962L282.621 345.876C282.824 347.192 281.922 348.423 280.607 348.626L207.709 359.872C206.394 360.075 205.163 359.173 204.96 357.857L189.237 255.943C189.035 254.627 189.936 253.397 191.252 253.194Z" fill="#E91E63"/>
<g opacity="0.2">
<path opacity="0.2" d="M191.252 253.194L264.149 241.948C265.465 241.745 266.696 242.646 266.899 243.962L282.621 345.876C282.824 347.192 281.922 348.423 280.607 348.626L207.709 359.872C206.394 360.075 205.163 359.173 204.96 357.857L189.237 255.943C189.034 254.627 189.936 253.397 191.252 253.194Z" fill="black"/>
</g>
<path d="M193.554 255.159L262.547 244.516L277.867 343.821L208.874 354.465L193.554 255.159Z" fill="#EBEBEB"/>
<path d="M214.28 253.53C214.77 252.019 215.669 250.673 216.879 249.644C218.089 248.614 219.56 247.941 221.13 247.7L220.55 243.45C220.315 241.911 220.699 240.341 221.62 239.085C222.54 237.828 223.922 236.989 225.46 236.75C227.001 236.511 228.574 236.895 229.832 237.815C231.09 238.736 231.931 240.119 232.17 241.66L232.85 246.06L234.33 245.86C235.883 245.644 237.465 245.86 238.903 246.485C240.34 247.109 241.578 248.118 242.48 249.4L243.63 251L213.63 255.64L214.28 253.53ZM226.68 245.77C227.298 245.675 227.875 245.4 228.336 244.978C228.797 244.556 229.123 244.006 229.272 243.399C229.421 242.792 229.387 242.154 229.173 241.566C228.959 240.979 228.576 240.468 228.072 240.098C227.568 239.728 226.965 239.516 226.34 239.489C225.716 239.462 225.097 239.621 224.563 239.945C224.028 240.27 223.602 240.746 223.338 241.313C223.074 241.88 222.985 242.512 223.08 243.13C223.211 243.956 223.663 244.697 224.337 245.191C225.011 245.686 225.853 245.894 226.68 245.77Z" fill="#263238"/>
<path d="M239.17 262.55C242.323 262.332 245.461 261.938 248.57 261.37C251.702 260.97 254.81 260.403 257.88 259.67C254.731 259.888 251.596 260.282 248.49 260.85C245.355 261.249 242.244 261.816 239.17 262.55Z" fill="#263238"/>
<path d="M249.35 264.21C250.879 264.243 252.406 264.096 253.9 263.77C255.421 263.623 256.921 263.304 258.37 262.82C256.842 262.799 255.316 262.946 253.82 263.26C252.299 263.407 250.799 263.725 249.35 264.21Z" fill="#263238"/>
<path d="M206.76 279.79C206.76 279.93 218.46 278.24 232.83 276.03C247.2 273.82 258.83 271.89 258.83 271.75C258.83 271.61 247.14 273.29 232.76 275.51C218.38 277.73 206.74 279.64 206.76 279.79Z" fill="#263238"/>
<path d="M207.53 284.75C207.53 284.89 219.22 283.21 233.6 280.99C247.98 278.77 259.6 276.86 259.6 276.72C259.6 276.58 247.91 278.26 233.53 280.48C219.15 282.7 207.51 284.61 207.53 284.75Z" fill="#263238"/>
<path d="M208.29 289.72C208.29 289.86 219.99 288.17 234.36 285.96C248.73 283.75 260.36 281.82 260.36 281.68C260.36 281.54 248.66 283.22 234.28 285.44C219.9 287.66 208.27 289.57 208.29 289.72Z" fill="#263238"/>
<path d="M209.06 294.68C209.06 294.82 220.75 293.14 235.13 290.92C249.51 288.7 261.13 286.79 261.13 286.64C261.13 286.49 249.44 288.19 235.06 290.41C220.68 292.63 209 294.54 209.06 294.68Z" fill="#263238"/>
<path d="M209.83 299.64C209.83 299.79 221.52 298.1 235.9 295.88C250.28 293.66 261.9 291.75 261.9 291.61C261.9 291.47 250.21 293.15 235.83 295.37C221.45 297.59 209.8 299.5 209.83 299.64Z" fill="#263238"/>
<path d="M210.59 304.61C210.59 304.75 222.29 303.07 236.66 300.85C251.03 298.63 262.66 296.72 262.66 296.57C262.66 296.42 250.97 298.11 236.59 300.33C222.21 302.55 210.57 304.47 210.59 304.61Z" fill="#263238"/>
<path d="M237.31 305.07C237.644 305.087 237.98 305.067 238.31 305.01C238.98 304.94 239.93 304.82 241.11 304.66C243.48 304.34 246.74 303.87 250.33 303.32C253.92 302.77 257.17 302.23 259.52 301.82C260.7 301.62 261.64 301.44 262.3 301.31C262.643 301.269 262.98 301.182 263.3 301.05C262.965 301.027 262.629 301.047 262.3 301.11C261.63 301.18 260.68 301.3 259.5 301.46C257.13 301.77 253.87 302.25 250.28 302.8C246.69 303.35 243.44 303.89 241.09 304.3C239.91 304.5 238.97 304.68 238.31 304.81C237.966 304.851 237.63 304.938 237.31 305.07Z" fill="#263238"/>
<path d="M202.59 267.74C204.004 267.783 205.418 267.652 206.8 267.35C208.208 267.222 209.596 266.92 210.93 266.45C208.107 266.538 205.307 266.972 202.59 267.74Z" fill="#263238"/>
<path d="M250.821 314.06C253.104 313.969 255.377 313.704 257.621 313.27C259.891 313.009 262.137 312.574 264.341 311.97C262.057 312.061 259.784 312.325 257.541 312.76C255.271 313.025 253.025 313.459 250.821 314.06Z" fill="#263238"/>
<path d="M251.06 318.64C253.384 318.542 255.697 318.271 257.98 317.83C260.288 317.569 262.571 317.127 264.81 316.51C262.49 316.609 260.18 316.879 257.9 317.32C255.589 317.581 253.302 318.023 251.06 318.64Z" fill="#263238"/>
<path d="M211.5 319.44C213.715 319.448 215.918 319.11 218.03 318.44C216.921 318.352 215.805 318.433 214.72 318.68C213.612 318.757 212.525 319.014 211.5 319.44Z" fill="#263238"/>
<path d="M211.9 323.53C214.116 323.538 216.319 323.2 218.43 322.53C216.215 322.522 214.012 322.86 211.9 323.53Z" fill="#263238"/>
<path d="M258.1 322.4C259.172 322.489 260.251 322.411 261.3 322.17C262.37 322.09 263.42 321.837 264.41 321.42C263.341 321.325 262.264 321.403 261.22 321.65C260.146 321.727 259.091 321.98 258.1 322.4Z" fill="#263238"/>
<path d="M212.4 328.3C213.202 328.431 214.023 328.394 214.81 328.19C215.622 328.149 216.416 327.938 217.14 327.57C216.339 327.427 215.516 327.461 214.73 327.67C213.917 327.711 213.123 327.926 212.4 328.3Z" fill="#263238"/>
<path d="M266.48 332.05C266.087 332.015 265.693 332.015 265.3 332.05L261.98 332.15L250.12 332.62H249.85L249.91 332.88C250.207 334.166 250.943 335.308 251.99 336.11C252.545 336.554 253.193 336.866 253.886 337.024C254.578 337.181 255.298 337.18 255.99 337.02C256.729 336.849 257.415 336.5 257.988 336.003C258.562 335.506 259.005 334.877 259.28 334.17C259.532 333.411 259.551 332.593 259.333 331.823C259.116 331.053 258.672 330.366 258.06 329.85C257.611 329.444 257.068 329.156 256.48 329.01C256.333 328.972 256.182 328.949 256.03 328.94C255.867 328.92 255.703 328.92 255.54 328.94C255.431 328.958 255.327 329.002 255.239 329.068C255.15 329.134 255.078 329.221 255.03 329.32C254.964 329.492 254.943 329.678 254.97 329.86C255.102 330.98 255.473 332.058 256.06 333.02C256.631 333.942 257.382 334.738 258.27 335.36C259.135 336.009 260.188 336.36 261.27 336.36C261.791 336.324 262.292 336.142 262.716 335.837C263.14 335.531 263.47 335.113 263.67 334.63C264.053 333.75 264.123 332.766 263.87 331.84C263.278 330.298 262.316 328.925 261.07 327.84L260.8 327.57V327.95C260.64 329.33 260.905 330.725 261.56 331.95C262.047 332.876 262.729 333.685 263.56 334.32C264.077 334.721 264.654 335.038 265.27 335.26C265.481 335.344 265.704 335.398 265.93 335.42C265.117 335.124 264.357 334.698 263.68 334.16C262.908 333.516 262.279 332.72 261.83 331.82C261.228 330.636 261.002 329.297 261.18 327.98L260.86 328.08C262.043 329.141 262.952 330.472 263.51 331.96C263.728 332.789 263.658 333.667 263.31 334.45C263.144 334.853 262.868 335.201 262.515 335.455C262.162 335.709 261.744 335.86 261.31 335.89C260.355 335.88 259.429 335.561 258.67 334.98C257.824 334.389 257.114 333.625 256.585 332.739C256.055 331.853 255.72 330.865 255.6 329.84C255.578 329.752 255.578 329.659 255.6 329.57C255.6 329.52 255.6 329.5 255.74 329.48C255.982 329.467 256.225 329.49 256.46 329.55C256.964 329.678 257.431 329.925 257.82 330.27C258.349 330.722 258.733 331.32 258.923 331.989C259.113 332.658 259.102 333.368 258.89 334.03C258.649 334.64 258.269 335.184 257.779 335.62C257.289 336.055 256.703 336.369 256.07 336.536C255.436 336.704 254.772 336.72 254.131 336.583C253.49 336.447 252.89 336.161 252.38 335.75C251.413 335.026 250.73 333.986 250.45 332.81L250.24 333.08L262 332.39L265.32 332.17C265.709 332.154 266.096 332.114 266.48 332.05Z" fill="#263238"/>
<path d="M217.06 339.5C217.22 339.727 217.412 339.93 217.63 340.1C217.887 340.32 218.173 340.501 218.48 340.64C218.913 340.832 219.401 340.856 219.85 340.71C220.134 340.623 220.381 340.444 220.55 340.2C220.719 339.937 220.816 339.633 220.83 339.32C220.822 338.681 220.775 338.044 220.69 337.41C220.56 336.05 220.41 334.56 220.25 332.95L219.82 333.12L223.64 338.29L224.59 339.57L225.21 340.41L225.06 339.41C224.65 336.74 224.28 334.25 223.95 332.06L223.58 332.26C225.14 333.575 226.522 335.088 227.69 336.76C228.53 337.97 228.93 338.76 228.98 338.7C228.931 338.5 228.854 338.308 228.75 338.13C228.494 337.612 228.21 337.108 227.9 336.62C226.803 334.867 225.456 333.284 223.9 331.92L223.45 331.53L223.54 332.13C223.84 334.31 224.2 336.81 224.54 339.49L225.01 339.29L224.01 338.01C222.65 336.19 221.36 334.45 220.16 332.86L219.63 332.14L219.73 333.03C219.92 334.64 220.09 336.13 220.25 337.48C220.344 338.093 220.404 338.711 220.43 339.33C220.447 339.571 220.386 339.81 220.256 340.014C220.126 340.217 219.935 340.373 219.71 340.46C219.365 340.554 219.002 340.561 218.653 340.48C218.304 340.4 217.98 340.235 217.71 340C217.508 339.816 217.29 339.649 217.06 339.5Z" fill="#263238"/>
<path d="M215.3 336.78C218.564 337.022 221.839 337.093 225.11 336.99C228.38 337.062 231.651 336.962 234.91 336.69C231.65 336.441 228.378 336.368 225.11 336.47C221.837 336.398 218.562 336.501 215.3 336.78Z" fill="#263238"/>
<path d="M212.11 339.89C214.697 340.429 217.316 340.799 219.95 341C222.565 341.368 225.2 341.569 227.84 341.6C225.256 341.047 222.636 340.673 220 340.48C217.387 340.106 214.751 339.909 212.11 339.89Z" fill="#263238"/>
<g opacity="0.2">
<path opacity="0.2" d="M299.07 236.93C299.19 239.93 298.38 242.99 295.88 244.68C299.01 246.2 300.68 249.84 300.78 253.32C300.88 256.8 299.67 260.18 298.36 263.41C294.31 273.34 285.67 287.32 279.08 295.78C279.08 295.78 282.42 286.78 283.38 284.67C287.72 275.18 291.55 265.67 295.9 256.15C296.38 255.15 297.24 252.23 297.24 252.23C296.767 251.997 296.329 251.697 295.94 251.34C293.5 249.34 288.21 245.83 288.21 245.83C288.21 245.83 299.07 237.23 299.07 236.93Z" fill="black"/>
</g>
<path d="M299.22 257.33C299.08 257.33 299.33 268.88 299.79 283.11C300.25 297.34 300.73 308.88 300.87 308.87C301.01 308.86 300.77 297.33 300.31 283.09C299.85 268.85 299.37 257.32 299.22 257.33Z" fill="#263238"/>
<path d="M282 227H283C283 226.62 281.55 188.79 280.42 173.73C280.383 172.673 280.131 171.635 279.679 170.679C279.226 169.723 278.584 168.869 277.79 168.17C274.67 165.5 270 165.85 269.79 165.86L269.87 166.86C269.92 166.86 274.33 166.54 277.13 168.93C277.821 169.547 278.381 170.297 278.774 171.136C279.168 171.974 279.388 172.884 279.42 173.81C280.52 188.76 281.95 226.58 282 227Z" fill="#263238"/>
<path d="M272.63 290.28H274.4V288.28H272.63C270.774 288.28 268.993 287.543 267.681 286.23C266.368 284.917 265.63 283.137 265.63 281.28V260.1H263.63V281.28C263.63 283.667 264.579 285.956 266.266 287.644C267.954 289.332 270.243 290.28 272.63 290.28Z" fill="#455A64"/>
<path d="M271.91 289.52C271.952 289.943 272.118 290.344 272.387 290.673C272.657 291.002 273.018 291.243 273.425 291.367C273.832 291.49 274.266 291.491 274.673 291.367C275.08 291.244 275.441 291.003 275.711 290.674C275.981 290.346 276.147 289.944 276.189 289.521C276.231 289.098 276.147 288.672 275.946 288.297C275.746 287.922 275.439 287.615 275.064 287.414C274.689 287.213 274.263 287.128 273.84 287.17C273.273 287.228 272.753 287.508 272.391 287.948C272.03 288.388 271.857 288.953 271.91 289.52Z" fill="#263238"/>
<path d="M289.93 290.23H291.7C294.087 290.23 296.376 289.282 298.064 287.594C299.752 285.906 300.7 283.617 300.7 281.23L300.62 260.05H298.62L298.7 281.23C298.7 283.086 297.962 284.867 296.649 286.18C295.337 287.492 293.556 288.23 291.7 288.23H289.93V290.23Z" fill="#455A64"/>
<path d="M292.41 289.46C292.369 289.881 292.204 290.28 291.936 290.607C291.668 290.934 291.309 291.175 290.904 291.298C290.5 291.421 290.068 291.422 289.663 291.3C289.258 291.178 288.899 290.939 288.63 290.613C288.36 290.286 288.194 289.888 288.151 289.467C288.109 289.046 288.192 288.622 288.39 288.249C288.588 287.875 288.892 287.569 289.264 287.368C289.636 287.167 290.059 287.081 290.48 287.12C290.761 287.146 291.033 287.228 291.282 287.36C291.531 287.492 291.752 287.672 291.931 287.889C292.111 288.107 292.245 288.357 292.327 288.627C292.41 288.897 292.438 289.18 292.41 289.46Z" fill="#263238"/>
<path d="M301.21 262.49L301.46 247.39C301.65 235.88 293.24 226.39 282.71 226.2C280.146 226.177 277.605 226.694 275.253 227.718C272.901 228.741 270.791 230.248 269.06 232.14C265.381 236.121 263.317 241.329 263.27 246.75L263.02 261.86L266.02 261.91L266.27 246.8C266.307 242.12 268.09 237.623 271.27 234.19C272.711 232.598 274.473 231.329 276.439 230.467C278.406 229.606 280.533 229.17 282.68 229.19C291.56 229.34 298.68 237.47 298.48 247.33L298.23 262.43L301.21 262.49Z" fill="#263238"/>
<path d="M215.79 227.56C215.79 227.16 220.38 187.85 221.7 175.25L221.79 174.33C222.2 170.05 222.68 165.21 227.41 163.93L227.15 162.93C221.75 164.39 221.22 169.83 220.79 174.2L220.7 175.11C219.39 187.71 214.84 227.02 214.8 227.42L215.79 227.56Z" fill="#263238"/>
<path d="M207.699 228.411C203.509 224.22 203.509 217.426 207.699 213.236C211.889 209.046 218.683 209.046 222.874 213.236C227.064 217.426 227.064 224.22 222.874 228.411C218.683 232.601 211.889 232.601 207.699 228.411Z" fill="#263238"/>
<path d="M210.11 220.82C210.11 221.847 210.415 222.851 210.986 223.704C211.556 224.558 212.367 225.223 213.316 225.616C214.265 226.008 215.309 226.11 216.316 225.909C217.323 225.708 218.248 225.213 218.974 224.486C219.699 223.759 220.193 222.834 220.392 221.826C220.591 220.819 220.487 219.775 220.092 218.827C219.698 217.879 219.031 217.069 218.176 216.5C217.322 215.931 216.317 215.628 215.29 215.63C214.609 215.63 213.935 215.764 213.306 216.025C212.676 216.286 212.105 216.669 211.624 217.151C211.143 217.633 210.761 218.205 210.502 218.835C210.242 219.464 210.109 220.139 210.11 220.82Z" fill="#455A64"/>
<path d="M278.73 296.58L292.2 329.71L184.75 359.5C179.838 360.869 174.683 361.13 169.658 360.265C164.633 359.401 159.862 357.432 155.69 354.5C144.45 346.57 141.69 332.7 143.06 318.97L145 304.37L278.73 296.58Z" fill="#E91E63"/>
<path d="M164.89 332.54C165 332.54 165.23 330.28 166.34 326.79C166.625 325.837 166.959 324.899 167.34 323.98C167.72 322.98 168.25 321.98 168.78 320.86C170.013 318.545 171.463 316.352 173.11 314.31C174.786 312.294 176.648 310.439 178.67 308.77C179.67 308.04 180.53 307.31 181.44 306.77C182.262 306.203 183.113 305.679 183.99 305.2C187.19 303.43 189.38 302.75 189.34 302.64C188.816 302.747 188.304 302.905 187.81 303.11C187.213 303.304 186.628 303.534 186.06 303.8C185.39 304.11 184.61 304.42 183.81 304.88C182.911 305.34 182.04 305.851 181.2 306.41C180.27 306.97 179.35 307.7 178.37 308.41C176.302 310.08 174.403 311.949 172.7 313.99C171.035 316.06 169.581 318.291 168.36 320.65C167.83 321.76 167.31 322.8 166.94 323.83C166.552 324.763 166.218 325.718 165.94 326.69C165.689 327.484 165.485 328.292 165.33 329.11C165.171 329.731 165.061 330.363 165 331C164.916 331.509 164.88 332.025 164.89 332.54Z" fill="#263238"/>
<g opacity="0.2">
<path opacity="0.2" d="M294.6 310.68C302.8 311.36 309.13 312.11 317.6 313.15C322.89 313.8 328.38 313.43 330.11 308.4C331.84 303.37 330.74 297.61 327.9 293.1C325.06 288.59 320.6 278.1 296.72 286.1L294.6 310.68Z" fill="black"/>
</g>
<path d="M283.54 309.23L283.48 309.01L283.25 308.35L282.35 305.83L278.9 296.52L278.85 296.39H278.72L242.17 299.7L206.81 303.06L196.1 304.13L193.19 304.45L192.44 304.55C192.351 304.553 192.263 304.569 192.18 304.6H192.44H193.2L196.12 304.38L206.85 303.46L242.22 300.26L278.75 296.79L278.57 296.67L282.17 305.93L283.17 308.41L283.44 309.05C283.49 309.17 283.53 309.24 283.54 309.23Z" fill="#263238"/>
<g opacity="0.2">
<path opacity="0.2" d="M239.33 343.4C224.07 347.49 214.79 345.12 200.93 337.54C198.091 335.876 195.365 334.025 192.77 332C190.794 330.384 189.036 328.519 187.54 326.45C205.39 333.28 220.22 338.45 238.62 343.59" fill="black"/>
</g>
<path d="M283.49 308.87L280 299.12L288.11 286.44C288.812 285.341 289.732 284.397 290.811 283.667C291.891 282.936 293.109 282.433 294.39 282.19L324.23 276.56C324.601 277.677 324.55 278.892 324.085 279.974C323.621 281.056 322.776 281.93 321.71 282.43C317.8 284.66 300.21 288.75 300.21 288.75L327.3 288.29C327.3 288.29 328.14 292.2 325.07 293.6C322 295 302.7 295.71 302.7 295.71L327.41 299.19C327.41 299.19 327.55 303.11 321.9 303.19C316.336 303.124 310.779 302.773 305.25 302.14C305.021 302.108 304.789 302.166 304.603 302.303C304.416 302.439 304.29 302.642 304.25 302.87C304.217 303.09 304.267 303.315 304.391 303.501C304.515 303.686 304.704 303.818 304.92 303.87L321.35 307.75C321.824 307.857 322.249 308.117 322.559 308.49C322.869 308.863 323.047 309.329 323.065 309.814C323.084 310.298 322.941 310.776 322.66 311.171C322.378 311.567 321.974 311.858 321.51 312C321.213 312.072 320.905 312.092 320.6 312.06C317.8 311.78 301.08 309.66 301.08 309.66L300.21 311.61L283.49 308.89" fill="#B78876"/>
<path d="M295.76 305.86C295.987 305.322 296.297 304.822 296.68 304.38C297.122 303.929 297.663 303.586 298.26 303.38C298.997 303.155 299.771 303.07 300.54 303.13C302.2 303.25 303.7 303.73 304.82 303.87C305.424 304.017 306.055 304.017 306.66 303.87C306.078 303.705 305.487 303.575 304.89 303.48C303.477 303.062 302.032 302.761 300.57 302.58C299.73 302.514 298.885 302.623 298.09 302.9C297.442 303.151 296.865 303.556 296.41 304.08C296.17 304.306 295.986 304.584 295.874 304.893C295.761 305.202 295.722 305.533 295.76 305.86Z" fill="#AA6550"/>
<path d="M293.061 298.43C293.111 298.43 293.141 298.16 293.361 297.73C293.685 297.133 294.179 296.646 294.781 296.33C296.291 295.45 298.841 295.74 301.521 295.92C304.201 296.1 306.661 296.5 308.431 296.73C309.38 296.91 310.344 297.007 311.311 297.02C310.394 296.71 309.45 296.492 308.491 296.37C306.202 295.921 303.893 295.587 301.571 295.37C300.287 295.253 298.999 295.203 297.711 295.22C296.625 295.194 295.552 295.456 294.601 295.98C293.957 296.352 293.457 296.93 293.181 297.62C293.056 297.87 293.014 298.154 293.061 298.43Z" fill="#AA6550"/>
<path d="M291 294.11C291.023 293.317 291.239 292.541 291.63 291.85C292.076 291.127 292.694 290.525 293.43 290.1C294.362 289.612 295.382 289.313 296.43 289.22C298.67 289.01 300.77 289.22 302.3 289.1C303.131 289.099 303.951 288.9 304.69 288.52C304.69 288.44 303.77 288.71 302.28 288.74C300.79 288.77 298.72 288.49 296.37 288.74C295.252 288.833 294.169 289.175 293.2 289.74C292.404 290.225 291.755 290.916 291.32 291.74C291.018 292.284 290.863 292.898 290.87 293.52C290.89 293.89 291 294.11 291 294.11Z" fill="#AA6550"/>
<path d="M194.13 294.08C194.128 293.537 194.078 292.995 193.98 292.46C193.85 291.46 193.6 289.92 193.25 288.08C192.56 284.4 191.34 279.37 190.05 273.82C188.91 269.093 188.038 264.306 187.44 259.48C187.32 258.55 187.27 257.71 187.2 256.97C187.13 256.23 187.09 255.6 187.07 255.07C187.075 254.527 187.028 253.985 186.93 253.45C186.866 253.991 186.846 254.536 186.87 255.08C186.87 255.6 186.87 256.25 186.87 256.99C186.87 257.73 186.93 258.58 187.04 259.51C187.527 264.371 188.348 269.193 189.5 273.94C190.8 279.5 192.07 284.5 192.85 288.16C193.24 289.98 193.55 291.47 193.74 292.49C193.827 293.03 193.957 293.562 194.13 294.08Z" fill="#263238"/>
<path d="M183.76 359.68C183.961 359.676 184.159 359.643 184.35 359.58L186.01 359.21L192.09 357.71C197.22 356.42 204.29 354.55 212.09 352.39C219.89 350.23 226.88 348.16 231.93 346.61L237.93 344.75L239.55 344.21C239.707 344.157 239.858 344.086 240 344C239.802 344.013 239.607 344.054 239.42 344.12L237.77 344.56L231.77 346.27L211.89 351.9L192 357.36L186 359.01L184.36 359.48C184.154 359.525 183.952 359.592 183.76 359.68Z" fill="#263238"/>
<path d="M286.7 69.6301C284.5 62.8401 273.23 56.7101 267.05 53.1501C257.8 47.8401 249.23 48.9001 243.95 53.6301C234.41 45.6301 221.84 37.9301 209.79 41.0801C197.74 44.2301 187.95 56.5701 190.15 68.8401C191.44 76.0701 196.45 82.5501 196.15 89.8401C195.95 94.8401 193.3 99.3601 191.15 103.9C189 108.44 187.42 113.72 189.3 118.36C191.05 122.67 195.42 125.36 197.77 129.36C199.69 132.64 200.13 136.54 201.36 140.13C205.9 153.43 221.6 160.89 235.46 158.55C249.32 156.21 260.87 145.78 267.46 133.34C274.05 120.9 276.17 106.62 276.93 92.5901" fill="#263238"/>
<path d="M276.49 78.9999L273.72 189.9C272.72 202.61 261.01 211.9 247.41 210.72C233.68 209.54 223.19 198.17 223.98 185.31C224.81 171.82 225.43 157.59 225.43 157.59C225.43 157.59 208.24 153.59 206.1 130.67C205.01 118.93 206.91 99.6699 208.9 84.4099C209.29 81.3675 210.292 78.4355 211.844 75.7903C213.397 73.1451 215.469 70.8414 217.935 69.0178C220.402 67.1942 223.212 65.8885 226.196 65.1791C229.18 64.4696 232.277 64.3713 235.3 64.8899" fill="#B78876"/>
<path d="M214 100.8C213.942 101.557 214.182 102.307 214.67 102.888C215.158 103.469 215.855 103.836 216.61 103.91C216.978 103.965 217.353 103.945 217.713 103.853C218.073 103.76 218.411 103.596 218.707 103.37C219.002 103.144 219.249 102.862 219.434 102.539C219.618 102.216 219.736 101.859 219.78 101.49C219.836 100.733 219.595 99.9833 219.108 99.4009C218.62 98.8184 217.925 98.4486 217.17 98.3701C216.802 98.3168 216.426 98.3377 216.066 98.4316C215.706 98.5255 215.368 98.6906 215.073 98.917C214.778 99.1435 214.531 99.4267 214.346 99.7501C214.162 100.074 214.044 100.431 214 100.8Z" fill="#263238"/>
<path d="M211.109 97.8402C211.449 98.2402 213.759 96.7502 216.889 96.9602C220.019 97.1702 222.209 98.8802 222.569 98.5202C222.749 98.3602 222.429 97.6602 221.479 96.8602C220.183 95.8324 218.601 95.2315 216.949 95.1402C215.324 95.0332 213.707 95.4427 212.329 96.3102C211.319 97.0002 210.949 97.6502 211.109 97.8402Z" fill="#263238"/>
<path d="M244 103.94C243.939 104.699 244.178 105.451 244.666 106.035C245.155 106.618 245.853 106.987 246.61 107.06C246.978 107.114 247.354 107.093 247.714 106.999C248.074 106.905 248.412 106.74 248.707 106.513C249.003 106.287 249.25 106.004 249.434 105.68C249.618 105.357 249.736 105 249.78 104.63C249.836 103.873 249.595 103.123 249.108 102.541C248.62 101.959 247.925 101.589 247.17 101.51C246.802 101.457 246.426 101.478 246.066 101.572C245.706 101.666 245.368 101.831 245.073 102.057C244.778 102.284 244.53 102.567 244.346 102.89C244.162 103.214 244.044 103.571 244 103.94Z" fill="#263238"/>
<path d="M241.84 100.41C242.18 100.81 244.49 99.3201 247.62 99.5301C250.75 99.7401 252.94 101.45 253.3 101.09C253.48 100.93 253.16 100.23 252.2 99.4301C250.907 98.4041 249.328 97.8033 247.68 97.7101C246.055 97.603 244.438 98.0126 243.06 98.88C242 99.56 241.68 100.22 241.84 100.41Z" fill="#263238"/>
<path d="M229 122.88C229 122.71 227.11 122.25 224 121.64C223.21 121.51 222.46 121.3 222.36 120.74C222.346 119.911 222.587 119.098 223.05 118.41C223.92 116.52 224.84 114.55 225.8 112.48C229.64 104.02 232.48 97.0499 232.14 96.8999C231.8 96.7499 228.41 103.48 224.56 111.9C223.64 113.98 222.75 115.97 221.91 117.9C221.339 118.829 221.119 119.932 221.29 121.01C221.388 121.299 221.55 121.562 221.765 121.779C221.98 121.995 222.242 122.16 222.53 122.26C222.963 122.411 223.413 122.502 223.87 122.53C227 122.92 229 123.06 229 122.88Z" fill="#263238"/>
<path d="M225.42 157.55C236.09 158.403 246.787 156.278 256.32 151.41C256.32 151.41 247.73 166.68 225.17 163.09L225.42 157.55Z" fill="#AA6550"/>
<path d="M241.82 88.0903C242.08 88.9603 245.23 88.7603 248.87 89.4403C252.51 90.1203 255.42 91.3103 255.96 90.5803C256.2 90.2303 255.73 89.3903 254.59 88.4903C253.067 87.3632 251.299 86.6127 249.43 86.3003C247.563 85.9563 245.641 86.0556 243.82 86.5903C242.44 87.0503 241.72 87.6803 241.82 88.0903Z" fill="#263238"/>
<path d="M212.85 88.8501C213.35 89.6001 215.56 89.0001 218.15 89.1301C220.74 89.2601 222.91 89.9201 223.46 89.2101C223.71 88.8601 223.46 88.1301 222.46 87.3901C221.223 86.5008 219.75 85.9993 218.228 85.9494C216.705 85.8996 215.202 86.3036 213.91 87.1101C213 87.7801 212.63 88.4901 212.85 88.8501Z" fill="#263238"/>
<path d="M233.84 128.77C231.39 128.77 230.17 129.49 228.09 130.77C227.464 131.1 226.949 131.608 226.61 132.23C226.45 132.677 226.395 133.154 226.449 133.626C226.502 134.098 226.664 134.551 226.92 134.95C227.431 135.858 228.192 136.601 229.111 137.092C230.031 137.583 231.071 137.801 232.11 137.72C233.146 137.611 234.122 137.182 234.902 136.492C235.681 135.801 236.226 134.885 236.46 133.87C236.654 132.847 236.501 131.788 236.027 130.861C235.553 129.934 234.783 129.191 233.84 128.75" fill="#AA6550"/>
<path d="M225.53 134C225.53 134.24 226.31 134.6 227.68 134.52C229.412 134.359 231.087 133.812 232.58 132.92C234.086 132.082 235.42 130.965 236.51 129.63C237.32 128.63 237.57 127.75 237.36 127.63C236.95 127.36 234.89 129.52 231.65 131.3C230.31 132.073 228.9 132.719 227.44 133.23C226.32 133.61 225.56 133.74 225.53 134Z" fill="#263238"/>
<path d="M240.98 114.48C240.521 114.48 240.15 114.108 240.15 113.65C240.15 113.191 240.521 112.82 240.98 112.82C241.438 112.82 241.81 113.191 241.81 113.65C241.81 114.108 241.438 114.48 240.98 114.48Z" fill="#AA6550"/>
<path d="M216.65 109.58C216.65 109.744 216.698 109.905 216.79 110.041C216.881 110.178 217.01 110.284 217.162 110.347C217.314 110.41 217.481 110.426 217.642 110.394C217.803 110.362 217.95 110.283 218.066 110.167C218.183 110.051 218.262 109.903 218.294 109.742C218.326 109.581 218.309 109.414 218.246 109.262C218.184 109.111 218.077 108.981 217.941 108.89C217.804 108.799 217.644 108.75 217.48 108.75C217.259 108.75 217.048 108.837 216.893 108.993C216.737 109.149 216.65 109.36 216.65 109.58Z" fill="#AA6550"/>
<path d="M212.06 111.74C212.048 111.858 212.06 111.976 212.096 112.089C212.132 112.201 212.191 112.304 212.27 112.392C212.349 112.48 212.445 112.551 212.553 112.599C212.661 112.647 212.777 112.672 212.895 112.672C213.013 112.672 213.13 112.647 213.238 112.599C213.346 112.551 213.442 112.48 213.521 112.392C213.6 112.304 213.659 112.201 213.695 112.089C213.731 111.976 213.743 111.858 213.73 111.74C213.708 111.534 213.61 111.344 213.456 111.206C213.302 111.068 213.102 110.992 212.895 110.992C212.688 110.992 212.489 111.068 212.335 111.206C212.181 111.344 212.083 111.534 212.06 111.74Z" fill="#AA6550"/>
<path d="M210.67 108.27C210.67 108.434 210.719 108.595 210.81 108.731C210.901 108.868 211.031 108.974 211.182 109.037C211.334 109.1 211.501 109.116 211.662 109.084C211.823 109.052 211.971 108.973 212.087 108.857C212.203 108.741 212.282 108.593 212.314 108.432C212.346 108.271 212.33 108.104 212.267 107.952C212.204 107.801 212.098 107.671 211.961 107.58C211.825 107.489 211.664 107.44 211.5 107.44C211.28 107.44 211.069 107.527 210.913 107.683C210.758 107.839 210.67 108.05 210.67 108.27Z" fill="#AA6550"/>
<path d="M243.95 117.32C243.948 117.487 243.996 117.65 244.087 117.79C244.178 117.929 244.308 118.038 244.462 118.103C244.615 118.169 244.784 118.187 244.948 118.155C245.111 118.124 245.262 118.045 245.38 117.928C245.499 117.811 245.58 117.661 245.613 117.498C245.646 117.335 245.63 117.165 245.567 117.011C245.504 116.857 245.396 116.725 245.258 116.633C245.119 116.54 244.957 116.49 244.79 116.49C244.569 116.49 244.357 116.577 244.2 116.733C244.042 116.888 243.953 117.099 243.95 117.32Z" fill="#AA6550"/>
<path d="M247.07 114C247.07 114.164 247.119 114.325 247.21 114.461C247.301 114.598 247.431 114.704 247.582 114.767C247.734 114.83 247.901 114.846 248.062 114.814C248.223 114.782 248.371 114.703 248.487 114.587C248.603 114.471 248.682 114.323 248.714 114.162C248.746 114.001 248.73 113.834 248.667 113.682C248.604 113.531 248.498 113.401 248.361 113.31C248.225 113.219 248.064 113.17 247.9 113.17C247.68 113.17 247.469 113.257 247.313 113.413C247.157 113.569 247.07 113.78 247.07 114Z" fill="#AA6550"/>
<path d="M233.47 103.94C233.563 102.761 233.747 101.591 234.02 100.44C234.843 97.3124 236.696 94.5537 239.28 92.6099C241.045 91.2698 243.1 90.3653 245.28 89.9699C247.779 89.5127 250.354 89.7302 252.74 90.5999C254.026 91.0588 255.234 91.7132 256.32 92.5399C257.471 93.3768 258.483 94.3891 259.32 95.5399C261.107 97.9707 262.07 100.908 262.07 103.925C262.07 106.941 261.107 109.879 259.32 112.31C257.664 114.585 255.376 116.323 252.74 117.31C250.354 118.18 247.779 118.397 245.28 117.94C243.1 117.545 241.045 116.64 239.28 115.3C236.699 113.358 234.846 110.603 234.02 107.48C233.749 106.329 233.565 105.159 233.47 103.98C233.456 104.056 233.456 104.134 233.47 104.21V104.9C233.471 105.275 233.501 105.65 233.56 106.02C233.611 106.526 233.701 107.028 233.83 107.52C234.146 108.893 234.672 110.208 235.39 111.42C237.108 114.359 239.801 116.604 243.002 117.762C246.204 118.92 249.71 118.92 252.91 117.76C254.244 117.285 255.499 116.611 256.63 115.76C257.828 114.898 258.878 113.847 259.74 112.65C261.604 110.138 262.609 107.093 262.609 103.965C262.609 100.837 261.604 97.7922 259.74 95.2799C258.878 94.0825 257.828 93.0323 256.63 92.1699C255.499 91.319 254.244 90.6446 252.91 90.1699C250.444 89.2848 247.784 89.0776 245.21 89.5699C243.175 89.9643 241.247 90.7871 239.554 91.9836C237.861 93.1801 236.442 94.723 235.39 96.5099C234.674 97.7223 234.147 99.0376 233.83 100.41C233.701 100.905 233.61 101.41 233.56 101.92C233.501 102.287 233.471 102.658 233.47 103.03V103.72C233.458 103.793 233.458 103.867 233.47 103.94Z" fill="white"/>
<path d="M227.2 99.57C228.313 99.2638 229.466 99.1289 230.62 99.17C231.758 99.3758 232.859 99.7464 233.89 100.27C233.89 100.27 233.68 99.89 233.12 99.51C232.386 99.0358 231.55 98.7412 230.68 98.65C229.805 98.5509 228.919 98.6676 228.1 98.99C227.48 99.24 227.17 99.51 227.2 99.57Z" fill="white"/>
<path d="M236.34 61.6503C238.34 79.7203 251.78 95.9903 269.12 101.47C263.53 109.53 267.05 124.87 266.91 137.67C266.77 149.57 266.78 152.97 274.49 159.04C280.86 160.57 284.49 143.12 289.27 138.24C294.05 133.36 298.54 127.35 298.19 120.57C298.02 117.39 296.78 114.35 296.61 111.18C296.41 107.66 297.54 104.18 298.16 100.75C300.92 85.4003 293 68.8903 279.59 60.8603C266.18 52.8303 248.37 53.3703 235.1 61.5803" fill="#263238"/>
<path d="M274.61 135.94C276.272 130.103 279.13 124.675 283 120L282.71 120.62C283.906 117.893 285.707 115.474 287.976 113.546C290.245 111.617 292.923 110.23 295.807 109.49C298.691 108.75 301.706 108.675 304.624 109.272C307.541 109.869 310.284 111.122 312.646 112.936C315.007 114.75 316.925 117.077 318.254 119.742C319.583 122.407 320.289 125.339 320.317 128.316C320.345 131.294 319.696 134.239 318.418 136.928C317.14 139.618 315.267 141.982 312.94 143.84C315.19 143.34 317.47 145.28 317.94 147.53C318.115 148.675 318.055 149.843 317.764 150.964C317.474 152.084 316.959 153.134 316.25 154.05C311.56 160.91 300.93 162.72 294.25 157.8C288.95 161.39 281.12 159.3 277.19 154.25C273.26 149.2 272.8 142.08 274.61 135.94Z" fill="#263238"/>
<path d="M296.08 109.47C296.289 109.274 296.479 109.06 296.65 108.83C297.116 108.161 297.455 107.412 297.65 106.62C298.26 104.55 297.97 101.28 296.33 97.8201C295.439 95.9257 294.213 94.2081 292.71 92.7501C291.065 91.0196 289.242 89.4677 287.27 88.1201C285.089 86.6177 282.71 85.4262 280.2 84.5801C277.61 83.6901 274.86 83.0001 272.06 82.3001C269.26 81.6001 266.52 80.9101 263.96 80.0101C261.492 79.1595 259.095 78.1163 256.79 76.8901C252.892 74.8145 249.268 72.2615 246 69.2901C243.798 67.2766 241.765 65.086 239.92 62.7401C239.26 61.9101 238.78 61.2401 238.45 60.7401C238.294 60.5042 238.117 60.2833 237.92 60.0801C238.05 60.33 238.197 60.5705 238.36 60.8001C238.67 61.2701 239.12 61.9601 239.76 62.8001C241.554 65.2102 243.562 67.4527 245.76 69.5001C249.031 72.5351 252.673 75.1426 256.6 77.2601C258.923 78.5049 261.341 79.5648 263.83 80.4301C266.42 81.3401 269.17 82.0401 271.97 82.7501C274.77 83.4601 277.51 84.1301 280.08 85.0001C282.56 85.8251 284.915 86.9859 287.08 88.4501C289.028 89.7782 290.837 91.2992 292.48 92.9901C293.944 94.4361 295.136 96.133 296 98.0001C297.65 101.37 298 104.56 297.45 106.59C297.196 107.634 296.729 108.614 296.08 109.47Z" fill="#455A64"/>
<path d="M237.94 60.1299C238.084 60.3304 238.241 60.5209 238.41 60.6999C238.73 61.0699 239.22 61.5899 239.85 62.2599C241.664 64.1265 243.591 65.8798 245.62 67.5099C248.621 69.9767 251.962 71.9976 255.54 73.5099C257.689 74.3038 259.905 74.9028 262.16 75.2999C264.49 75.7699 266.92 76.1299 269.4 76.5099C274.073 77.0684 278.687 78.0354 283.19 79.3999C286.844 80.5925 290.238 82.4692 293.19 84.9299C295.175 86.5941 296.813 88.6329 298.01 90.9299C298.322 91.5609 298.599 92.2086 298.84 92.8699C298.911 93.1068 299.008 93.3349 299.13 93.5499C299.084 93.3091 299.02 93.0718 298.94 92.8399C298.741 92.1554 298.49 91.4868 298.19 90.8399C297.046 88.4741 295.426 86.3701 293.43 84.6599C290.475 82.1244 287.055 80.1884 283.36 78.9599C278.839 77.5474 274.201 76.5434 269.5 75.9599C267.01 75.5899 264.59 75.2199 262.28 74.7699C260.05 74.3837 257.858 73.8014 255.73 73.0299C252.187 71.5575 248.868 69.595 245.87 67.1999C243.824 65.6091 241.865 63.91 240 62.1099L238.49 60.6299C238.324 60.4451 238.14 60.2776 237.94 60.1299Z" fill="#455A64"/>
<path d="M212.55 40.3501C212.55 40.4601 214.5 40.5301 217.55 41.3501C218.377 41.5653 219.191 41.8257 219.99 42.1301C220.86 42.4201 221.74 42.8501 222.69 43.2701C226.734 45.2231 230.293 48.0514 233.11 51.5501C233.73 52.3801 234.35 53.1401 234.83 53.9301C235.308 54.6343 235.746 55.3655 236.14 56.1201C237.61 58.8801 238.14 60.7801 238.22 60.7401C238.153 60.2893 238.039 59.8468 237.88 59.4201C237.736 58.9013 237.555 58.3934 237.34 57.9001C237.086 57.2166 236.792 56.5488 236.46 55.9001C236.087 55.1196 235.662 54.3646 235.19 53.6401C234.72 52.8401 234.11 52.0501 233.49 51.2001C232.059 49.4268 230.447 47.808 228.68 46.3701C226.882 44.9742 224.942 43.7741 222.89 42.7901C221.992 42.3679 221.07 41.9973 220.13 41.6801C218.642 41.1581 217.109 40.7765 215.55 40.5401C215.022 40.4377 214.487 40.3742 213.95 40.3501C213.485 40.2954 213.015 40.2954 212.55 40.3501Z" fill="#455A64"/>
<path d="M196.439 126.69C196.439 126.69 196.439 126.62 196.289 126.49L195.819 125.94C195.399 125.45 194.769 124.74 194.059 123.75C193.165 122.583 192.488 121.266 192.059 119.86C191.815 118.985 191.744 118.072 191.849 117.17C191.991 116.163 192.331 115.195 192.849 114.32C193.929 112.45 195.699 110.82 197.319 108.8C200.962 104.242 203.302 98.7817 204.089 93C204.411 89.7605 204.491 86.5015 204.329 83.25C204.168 80.0273 204.468 76.7981 205.219 73.66C206.019 70.9233 207.402 68.3922 209.273 66.2412C211.144 64.0902 213.459 62.3704 216.059 61.2C218.215 60.2337 220.538 59.6971 222.899 59.62C227.293 59.4427 231.623 60.7185 235.219 63.25L235.819 63.67C235.949 63.76 236.019 63.81 236.029 63.8C235.094 62.9381 234.048 62.205 232.919 61.62C229.849 59.9725 226.402 59.1555 222.919 59.25C220.508 59.3094 218.131 59.8358 215.919 60.8C213.244 61.9814 210.86 63.7326 208.932 65.9315C207.005 68.1303 205.58 70.7236 204.759 73.53C203.994 76.7135 203.688 79.9899 203.849 83.26C204.01 86.488 203.933 89.7234 203.619 92.94C202.859 98.6385 200.571 104.025 196.999 108.53C195.419 110.53 193.639 112.19 192.539 114.14C192.006 115.062 191.666 116.083 191.539 117.14C191.439 118.085 191.528 119.04 191.799 119.95C192.259 121.381 192.982 122.713 193.929 123.88C194.501 124.628 195.116 125.342 195.769 126.02L196.289 126.54C196.333 126.596 196.383 126.646 196.439 126.69Z" fill="#455A64"/>
<path d="M198.76 100.41C198.854 99.2312 199.038 98.0611 199.31 96.9102C200.132 93.7827 201.986 91.024 204.57 89.0802C206.469 87.6517 208.695 86.7204 211.046 86.3711C213.397 86.0218 215.798 86.2656 218.03 87.0802C220.665 88.0672 222.953 89.8056 224.61 92.0802C226.397 94.5088 227.361 97.4451 227.361 100.46C227.361 103.475 226.397 106.412 224.61 108.84C223.778 109.995 222.765 111.008 221.61 111.84C220.521 112.66 219.314 113.311 218.03 113.77C216.16 114.45 214.168 114.732 212.182 114.597C210.196 114.463 208.261 113.916 206.499 112.99C204.737 112.065 203.187 110.782 201.949 109.224C200.711 107.666 199.813 105.866 199.31 103.94C199.038 102.789 198.854 101.619 198.76 100.44C198.745 100.52 198.745 100.601 198.76 100.68C198.76 100.86 198.76 101.09 198.76 101.36C198.76 101.735 198.79 102.11 198.85 102.48C198.902 102.99 198.992 103.494 199.12 103.99C199.437 105.362 199.963 106.678 200.68 107.89C201.626 109.502 202.872 110.917 204.35 112.06C206.29 113.557 208.577 114.539 210.998 114.917C213.419 115.294 215.896 115.055 218.2 114.22C219.536 113.751 220.792 113.076 221.92 112.22C223.115 111.351 224.165 110.298 225.03 109.1C226.894 106.59 227.9 103.547 227.9 100.42C227.9 97.2938 226.894 94.2504 225.03 91.7402C224.168 90.5428 223.118 89.4926 221.92 88.6302C220.788 87.7793 219.534 87.1049 218.2 86.6302C215.734 85.7422 213.075 85.5316 210.5 86.0202C208.459 86.419 206.526 87.25 204.832 88.4573C203.139 89.6647 201.723 91.2205 200.68 93.0202C199.962 94.2283 199.436 95.5406 199.12 96.9102C198.992 97.406 198.902 97.9108 198.85 98.4202C198.79 98.7905 198.76 99.1651 198.76 99.5402C198.76 99.8102 198.76 100.04 198.76 100.23C198.751 100.29 198.751 100.351 198.76 100.41Z" fill="white"/>
<path d="M274.63 159.41C274.807 159.322 274.972 159.211 275.12 159.08C275.43 158.85 275.87 158.5 276.45 158.08C278.067 156.785 279.584 155.371 280.99 153.85C283.16 151.605 284.644 148.788 285.27 145.73C285.477 143.924 285.558 142.107 285.51 140.29C285.476 138.387 286.02 136.518 287.07 134.93C288.247 133.405 289.555 131.986 290.98 130.69C292.301 129.41 293.391 127.911 294.2 126.26C294.916 124.765 295.441 123.186 295.76 121.56C296.061 120.15 296.199 118.711 296.17 117.27C296.17 115.94 295.86 114.78 295.74 113.76C295.623 112.888 295.603 112.006 295.68 111.13C295.85 109.69 296.13 108.92 296.08 108.9C295.988 109.075 295.914 109.259 295.86 109.45C295.693 109.99 295.566 110.541 295.48 111.1C295.373 111.993 295.373 112.896 295.48 113.79C295.57 114.79 295.81 115.99 295.84 117.28C295.825 120.315 295.142 123.309 293.84 126.05C293.044 127.647 291.979 129.095 290.69 130.33C289.229 131.639 287.89 133.078 286.69 134.63C286.109 135.465 285.679 136.396 285.42 137.38C285.191 138.327 285.067 139.296 285.05 140.27C285.1 142.066 285.03 143.863 284.84 145.65C284.26 148.645 282.85 151.417 280.77 153.65C279.397 155.182 277.924 156.622 276.36 157.96L275 159C274.864 159.124 274.74 159.262 274.63 159.41Z" fill="#455A64"/>
<path d="M286 136.12C285.983 136.256 285.983 136.394 286 136.53C286 136.8 286 137.19 286.08 137.7C286.249 139.137 286.585 140.55 287.08 141.91C288.66 146.474 291.797 150.336 295.941 152.818C300.085 155.299 304.97 156.242 309.74 155.48C311.169 155.264 312.568 154.885 313.91 154.35C314.39 154.17 314.74 153.97 314.98 153.86C315.22 153.75 315.34 153.67 315.33 153.65C313.503 154.325 311.614 154.817 309.69 155.12C307.599 155.39 305.48 155.353 303.4 155.01C298.249 154.221 293.611 151.446 290.48 147.28C289.198 145.609 288.167 143.76 287.42 141.79C286.768 139.949 286.292 138.051 286 136.12Z" fill="#455A64"/>
<path d="M289.85 131.42C289.892 131.887 289.989 132.346 290.14 132.79C290.494 134.016 290.967 135.205 291.55 136.34C293.496 140.109 296.444 143.268 300.07 145.47C303.705 147.647 307.835 148.859 312.07 148.99C313.343 149.029 314.618 148.962 315.88 148.79C316.346 148.748 316.805 148.654 317.25 148.51C315.53 148.634 313.804 148.67 312.08 148.62C307.929 148.391 303.897 147.155 300.33 145.02C296.783 142.858 293.866 139.803 291.87 136.16C291.094 134.626 290.419 133.042 289.85 131.42Z" fill="#455A64"/>
<path d="M319.1 121.46C318.825 121.246 318.522 121.071 318.2 120.94C317.842 120.747 317.471 120.58 317.09 120.44C316.59 120.231 316.08 120.051 315.56 119.9C314.213 119.496 312.83 119.228 311.43 119.1C309.714 118.95 307.988 118.984 306.28 119.2C304.574 119.441 302.898 119.86 301.28 120.45C299.965 120.955 298.706 121.591 297.52 122.35C297.064 122.636 296.627 122.95 296.21 123.29C295.878 123.527 295.567 123.792 295.28 124.08C295.013 124.304 294.775 124.559 294.57 124.84C294.64 124.92 295.69 123.84 297.72 122.66C298.907 121.961 300.155 121.372 301.45 120.9C303.043 120.355 304.683 119.96 306.35 119.72C308.008 119.512 309.682 119.462 311.35 119.57C312.724 119.677 314.087 119.908 315.42 120.26C317.74 120.86 319 121.55 319.1 121.46Z" fill="#455A64"/>
<path d="M296.08 119.61C296.17 119.72 302.48 114.36 310.16 107.61C317.84 100.86 324 95.37 323.91 95.26C323.82 95.15 317.51 100.52 309.82 107.26C302.13 114 296 119.51 296.08 119.61Z" fill="#E91E63"/>
<path d="M267.271 108.66C266.793 107.723 266.084 106.925 265.211 106.34C264.448 105.614 263.511 105.097 262.491 104.84C263.236 105.539 264.039 106.175 264.891 106.74C265.633 107.44 266.429 108.082 267.271 108.66Z" fill="white"/>
<path d="M295.35 114.29C295.4 114.228 295.444 114.161 295.48 114.09C295.57 113.92 295.68 113.72 295.82 113.48C296.208 112.671 296.471 111.808 296.6 110.92C296.97 107.594 296.022 104.256 293.96 101.62C293.309 100.736 292.561 99.9275 291.73 99.2098C290.82 98.4468 289.835 97.7768 288.79 97.2098C286.473 95.9957 283.984 95.1393 281.41 94.6698C276 93.5398 269.91 93.8098 263.71 92.8898C260.677 92.4886 257.732 91.5792 255 90.1998C252.505 88.8431 250.248 87.0864 248.32 84.9998C245.049 81.4457 242.429 77.343 240.58 72.8798C238.94 69.0898 237.91 65.8798 237.16 63.7198L236.31 61.1898L236.08 60.5398C236.057 60.464 236.027 60.3904 235.99 60.3198C235.99 60.3198 235.99 60.3998 235.99 60.5498L236.17 61.2198L237 63.8198C237.926 66.9554 239.018 70.0398 240.27 73.0598C242.091 77.5922 244.709 81.7615 248 85.3698C249.967 87.4942 252.271 89.2784 254.82 90.6498C257.589 92.0644 260.579 92.9977 263.66 93.4098C269.94 94.3498 276 94.0498 281.35 95.1498C286.7 96.2498 291.29 98.4798 293.7 101.84C295.723 104.382 296.696 107.603 296.42 110.84C296.248 112.039 295.887 113.203 295.35 114.29Z" fill="#FAFAFA"/>
<path d="M289 154C289.209 155.383 289.613 156.73 290.2 158C290.875 159.527 291.753 160.957 292.81 162.25C294.211 163.978 295.928 165.424 297.87 166.51C300.248 167.799 302.905 168.486 305.61 168.51C308.732 168.582 311.799 167.684 314.39 165.94C317.239 163.968 319.3 161.054 320.21 157.71C320.695 155.949 320.798 154.104 320.51 152.3C320.193 150.443 319.48 148.677 318.42 147.12C316.691 144.497 314.039 142.619 310.99 141.86V142.36C314.083 141.882 317.021 140.687 319.57 138.87C321.932 137.203 323.815 134.944 325.03 132.32C326.098 129.962 326.556 127.372 326.36 124.79C326.194 122.559 325.446 120.411 324.19 118.56C323.133 117.058 321.769 115.797 320.19 114.86C319.016 114.167 317.735 113.674 316.4 113.4C315.564 113.234 314.711 113.17 313.86 113.21L313.21 113.28C313.137 113.269 313.063 113.269 312.99 113.28C314.123 113.222 315.259 113.309 316.37 113.54C317.671 113.838 318.914 114.348 320.05 115.05C321.565 115.99 322.866 117.236 323.87 118.71C325.072 120.52 325.778 122.612 325.92 124.78C326.087 127.29 325.626 129.803 324.58 132.09C323.386 134.632 321.548 136.817 319.25 138.43C316.753 140.188 313.886 141.348 310.87 141.82L309.58 142.02L310.85 142.32C313.774 143.052 316.316 144.859 317.97 147.38C318.989 148.883 319.671 150.589 319.97 152.38C320.244 154.114 320.148 155.886 319.69 157.58C318.822 160.825 316.835 163.659 314.08 165.58C311.574 167.278 308.606 168.161 305.58 168.11C302.938 168.101 300.339 167.445 298.01 166.2C296.099 165.157 294.403 163.763 293.01 162.09C291.948 160.827 291.054 159.432 290.35 157.94C289.913 156.994 289.542 156.018 289.24 155.02C289.15 154.7 289.08 154.44 289.03 154.23L289 154Z" fill="#263238"/>
<path d="M294.89 110.75C294.975 110.725 295.056 110.688 295.13 110.64L295.83 110.27C296.705 109.769 297.538 109.197 298.32 108.56C301.225 106.187 303.442 103.08 304.74 99.5601C306.246 95.3882 306.379 90.8441 305.12 86.5912C303.861 82.3383 301.275 78.5993 297.74 75.9201C294.912 73.8356 291.731 72.2774 288.35 71.3201C284.97 70.3658 281.503 69.7527 278 69.4901C274.64 69.1701 271.4 69.0201 268.32 68.8101C265.405 68.6267 262.501 68.2929 259.62 67.8101C257.118 67.3801 254.664 66.7103 252.29 65.8101C248.844 64.539 245.704 62.5597 243.07 60.0001C242.377 59.2804 241.732 58.5154 241.14 57.7101L240.68 57.0801C240.633 57.0032 240.575 56.9326 240.51 56.8701C241.168 58.0625 241.982 59.1622 242.93 60.1401C245.544 62.7897 248.704 64.8373 252.19 66.1401C254.58 67.0693 257.055 67.7626 259.58 68.2101C262.474 68.6973 265.391 69.0311 268.32 69.2101C274.47 69.7001 281.32 69.7501 288.17 71.7801C291.489 72.7225 294.614 74.2461 297.4 76.2801C300.865 78.8962 303.409 82.5445 304.667 86.6996C305.925 90.8546 305.832 95.3017 304.4 99.4001C303.146 102.863 301.008 105.938 298.2 108.32C297.438 108.972 296.629 109.567 295.78 110.1L295.12 110.51C295.033 110.579 294.956 110.66 294.89 110.75Z" fill="#263238"/>
<path d="M183.45 95.9999C183.565 96.1367 183.707 96.2483 183.867 96.3275C184.027 96.4067 184.202 96.4517 184.38 96.4599C184.9 96.47 185.41 96.3238 185.845 96.0403C186.28 95.7568 186.62 95.349 186.82 94.8699C186.974 94.5221 187.042 94.1423 187.018 93.7627C186.993 93.3831 186.878 93.0151 186.68 92.6899C186.219 91.9211 185.515 91.3269 184.68 90.9999C183.661 90.6313 182.565 90.5297 181.495 90.7048C180.426 90.8798 179.419 91.3256 178.57 91.9999C177.548 92.738 176.76 93.7553 176.3 94.9299C175.815 96.2065 175.718 97.5981 176.02 98.9299C176.327 100.373 177.109 101.673 178.24 102.62C179.439 103.613 180.903 104.232 182.45 104.4C184.101 104.52 185.758 104.267 187.298 103.662C188.839 103.056 190.223 102.112 191.35 100.9C192.592 99.6713 193.563 98.1964 194.2 96.5699C194.851 94.8793 195.024 93.0422 194.7 91.2599C194.355 89.5171 193.811 87.8195 193.08 86.1999C192.41 84.5999 191.79 83.0199 191.27 81.4399C190.231 78.4045 189.559 75.2553 189.27 72.0599C189.002 69.1768 189.178 66.2697 189.79 63.4399C190.336 60.9617 191.3 58.5945 192.64 56.4399C194.571 53.3059 197.343 50.7767 200.64 49.1399C201.542 48.7311 202.475 48.3967 203.43 48.1399L204.19 47.9499C204.278 47.9324 204.362 47.9021 204.44 47.8599H204.18L203.41 47.9999C202.429 48.2231 201.471 48.5413 200.55 48.9499C197.179 50.5511 194.337 53.0843 192.36 56.2499C190.969 58.3954 189.955 60.7628 189.36 63.2499C188.717 66.1225 188.521 69.0774 188.78 72.0099C189.062 75.2455 189.733 78.4353 190.78 81.5099C191.3 83.1099 191.93 84.7099 192.6 86.2999C193.31 87.9032 193.84 89.5801 194.18 91.2999C194.479 92.9791 194.313 94.7081 193.7 96.2999C193.096 97.8647 192.166 99.2828 190.97 100.46C189.901 101.62 188.585 102.527 187.119 103.114C185.654 103.7 184.076 103.952 182.5 103.85C181.033 103.7 179.642 103.123 178.5 102.19C177.436 101.314 176.697 100.106 176.4 98.7599C176.107 97.5043 176.187 96.1906 176.63 94.9799C177.061 93.8694 177.796 92.9026 178.75 92.1899C179.548 91.5424 180.498 91.1105 181.51 90.9354C182.522 90.7603 183.562 90.8479 184.53 91.1899C185.314 91.479 185.979 92.0209 186.42 92.7299C186.611 93.0234 186.727 93.359 186.758 93.7076C186.79 94.0561 186.735 94.407 186.6 94.7299C186.419 95.1813 186.109 95.5696 185.709 95.8469C185.309 96.1241 184.837 96.2781 184.35 96.2899C184.03 96.2751 183.719 96.175 183.45 95.9999Z" fill="#263238"/>
<g opacity="0.2">
<path opacity="0.2" d="M189.83 322.32C184.97 320.95 179.93 325.32 175 324.19C172 323.49 169.74 320.81 168.38 318C167.02 315.19 166.29 312.09 164.85 309.31C163.41 306.53 161.01 303.98 157.91 303.55C155.07 303.17 151.7 304.5 149.59 302.55C147.96 301.05 148.18 298.27 149.48 296.48C150.78 294.69 152.84 293.64 154.83 292.66C157.013 291.468 159.333 290.548 161.74 289.92C164.171 289.301 166.745 289.6 168.97 290.76C173.13 293.18 173.97 298.67 175.18 303.33C175.918 306.608 177.306 309.706 179.26 312.44C181.245 315.182 184.185 317.08 187.5 317.76C188.777 317.806 190.028 318.127 191.17 318.7C192.22 319.42 192.63 321.22 191.54 321.89" fill="black"/>
</g>
<path d="M215.16 304.35L196.94 298L180.61 272.47C179.814 271.225 178.771 270.155 177.547 269.326C176.323 268.497 174.942 267.927 173.49 267.65L144.2 262.12C143.828 263.236 143.878 264.45 144.341 265.532C144.803 266.613 145.646 267.488 146.71 267.99C150.62 270.22 168.21 274.32 168.21 274.32L141.12 273.86C141.12 273.86 140.29 277.77 143.36 279.17C146.43 280.57 165.73 281.27 165.73 281.27L141 284.79C141 284.79 140.86 288.72 146.51 288.79C152.074 288.74 157.631 288.406 163.16 287.79C163.389 287.756 163.623 287.813 163.81 287.95C163.998 288.086 164.123 288.291 164.16 288.52C164.196 288.741 164.147 288.967 164.023 289.153C163.898 289.338 163.708 289.47 163.49 289.52L147.06 293.4C146.586 293.506 146.161 293.765 145.85 294.137C145.538 294.51 145.359 294.975 145.34 295.46C145.32 295.945 145.462 296.423 145.742 296.819C146.023 297.215 146.426 297.507 146.89 297.65C147.191 297.726 147.502 297.747 147.81 297.71C150.6 297.43 167.33 295.31 167.33 295.31C167.33 295.31 173.23 315.99 177.05 317.66C180.87 319.33 188.88 319.79 188.88 319.79L205.88 326.52L215.16 304.35Z" fill="#B78876"/>
<path d="M143 273.78C143.467 273.879 143.943 273.926 144.42 273.92L148.3 274.11C151.57 274.25 156.1 274.41 161.09 274.54L168.14 274.72C170.037 274.641 171.932 274.912 173.73 275.52C174.914 275.986 175.919 276.816 176.6 277.89C176.819 278.303 177.009 278.731 177.17 279.17C177.19 279.048 177.19 278.923 177.17 278.8C177.093 278.453 176.972 278.117 176.81 277.8C176.159 276.63 175.134 275.711 173.9 275.19C172.072 274.512 170.129 274.193 168.18 274.25L161.18 274.03C156.18 273.9 151.65 273.8 148.38 273.75H144.5C144 273.718 143.498 273.728 143 273.78Z" fill="#AA6550"/>
<path d="M142.59 284.86C143.029 284.877 143.468 284.847 143.9 284.77L147.44 284.32C150.44 283.93 154.56 283.32 159.11 282.66C161.38 282.34 163.55 281.93 165.51 281.76C167.229 281.553 168.971 281.866 170.51 282.66C171.536 283.23 172.421 284.023 173.1 284.98C173.58 285.66 173.77 286.09 173.81 286.07C173.794 285.955 173.761 285.844 173.71 285.74C173.588 285.435 173.441 285.14 173.27 284.86C172.627 283.823 171.741 282.959 170.69 282.34C169.102 281.454 167.278 281.083 165.47 281.28C163.47 281.43 161.3 281.83 159.02 282.14C154.47 282.82 150.35 283.47 147.38 283.96L143.86 284.57C143.428 284.625 143.003 284.722 142.59 284.86Z" fill="#AA6550"/>
<path d="M156.34 291.15C157.307 291.013 158.263 290.806 159.2 290.53C160.96 290.1 163.38 289.46 166.06 288.91C166.698 288.76 167.347 288.663 168 288.62C168.586 288.643 169.156 288.811 169.66 289.11C170.556 289.605 171.309 290.321 171.85 291.19C172.298 292.038 172.592 292.959 172.72 293.91C172.804 293.652 172.824 293.377 172.78 293.11C172.728 292.376 172.523 291.661 172.18 291.01C171.643 290.045 170.855 289.244 169.9 288.69C169.326 288.347 168.678 288.149 168.01 288.11C167.32 288.147 166.635 288.241 165.96 288.39C163.24 288.96 160.84 289.65 159.11 290.17C158.157 290.404 157.229 290.732 156.34 291.15Z" fill="#AA6550"/>
<path d="M350.41 318.08L295.76 311.36L199.91 295.78L187.54 326.87C223.54 339.35 260.48 350.61 296.72 360.51C299.682 361.101 302.701 361.356 305.72 361.27C317.82 361.32 347.66 356.46 350.41 318.08Z" fill="#E91E63"/>
<path d="M187.54 326.87C187.633 326.692 187.717 326.508 187.79 326.32C187.96 325.93 188.18 325.39 188.48 324.69C189.07 323.23 189.93 321.13 191.02 318.45L200.11 295.85L199.88 295.98L246.45 303.76C257.45 305.65 268 306.88 277.56 308.15C282.35 308.78 286.89 309.41 291.12 310.15C293.24 310.49 295.28 310.824 297.24 311.15C299.118 311.451 300.978 311.859 302.81 312.37C308.328 314.109 312.977 317.885 315.81 322.93C316.586 324.287 317.226 325.717 317.72 327.2C317.89 327.71 318 328.11 318.07 328.37C318.104 328.508 318.151 328.641 318.21 328.77C318.117 328.229 317.986 327.694 317.82 327.17C317.364 325.663 316.751 324.208 315.99 322.83C314.788 320.641 313.241 318.659 311.41 316.96C308.959 314.719 306.053 313.034 302.89 312.02C301.045 311.495 299.172 311.071 297.28 310.75C295.28 310.39 293.28 310.02 291.16 309.67C286.92 308.97 282.38 308.31 277.6 307.67C268.03 306.38 257.49 305.14 246.51 303.24L199.92 295.57H199.75L199.69 295.73C195.97 305.17 192.91 312.95 190.77 318.39L188.33 324.67C188.06 325.38 187.86 325.93 187.7 326.32C187.54 326.71 187.54 326.87 187.54 326.87Z" fill="#263238"/>
<path d="M321 359.62C320.851 359.636 320.703 359.666 320.56 359.71L319.29 360.02C318.17 360.26 316.52 360.64 314.36 360.9C308.258 361.652 302.072 361.355 296.07 360.02C294.17 359.62 292.21 359.08 290.16 358.5L283.78 356.7L269.78 352.7C259.89 349.82 249.04 346.59 237.69 343.06C218.69 337.16 201.23 331.38 187.69 326.71L187.81 326.98C191.55 317.48 194.62 309.71 196.75 304.28C197.8 301.59 198.61 299.48 199.18 298.02C199.45 297.32 199.65 296.78 199.8 296.38C199.95 295.98 199.99 295.82 199.99 295.82C199.99 295.82 199.9 296 199.74 296.36C199.58 296.72 199.36 297.29 199.07 297.98L196.54 304.19L187.43 326.83L187.35 327.03L187.55 327.1C201.11 331.84 218.55 337.65 237.55 343.56C248.9 347.09 259.76 350.31 269.66 353.17L283.74 357.17L290.13 358.93C292.13 359.5 294.13 360.04 296.06 360.43C302.105 361.739 308.331 361.986 314.46 361.16C316.684 360.859 318.875 360.343 321 359.62Z" fill="#263238"/>
<path d="M299.82 311.36C300.268 311.478 300.727 311.549 301.19 311.57L304.94 311.94L317.3 313.15L329.66 314.47L333.41 314.86C333.866 314.938 334.328 314.965 334.79 314.94C334.345 314.809 333.89 314.715 333.43 314.66C332.55 314.52 331.28 314.33 329.7 314.11C326.55 313.67 322.19 313.11 317.36 312.64C312.53 312.17 308.14 311.79 304.97 311.58C303.38 311.47 302.09 311.4 301.2 311.36C300.741 311.321 300.279 311.321 299.82 311.36Z" fill="#263238"/>
<path d="M395.31 411.61C398.07 415.56 403.45 414.25 405.94 411.84C408.43 409.43 409.48 405.94 410.44 402.61C412.63 395 414.84 387.02 413.21 379.27C412.811 376.918 411.773 374.721 410.21 372.92C409.421 372.032 408.412 371.368 407.285 370.994C406.158 370.62 404.952 370.55 403.79 370.79C401.08 371.5 399.4 374.15 398.18 376.68C394.594 384.132 392.715 392.29 392.68 400.56C392.68 404.4 393.12 408.44 395.29 411.61" fill="#E91E63"/>
<g opacity="0.2">
<path opacity="0.2" d="M395.31 411.61C398.07 415.56 403.45 414.25 405.94 411.84C408.43 409.43 409.48 405.94 410.44 402.61C412.63 395 414.84 387.02 413.21 379.27C412.811 376.918 411.773 374.721 410.21 372.92C409.421 372.032 408.412 371.368 407.285 370.994C406.158 370.62 404.952 370.55 403.79 370.79C401.08 371.5 399.4 374.15 398.18 376.68C394.594 384.132 392.715 392.29 392.68 400.56C392.68 404.4 393.12 408.44 395.29 411.61" fill="black"/>
</g>
<path d="M405.67 431.6C410.19 429.27 415.51 428.97 420.53 429.8C423.22 430.24 426.04 431.05 427.87 433.08C429.7 435.11 430.05 438.67 427.95 440.41C426.588 441.325 424.952 441.738 423.32 441.58C419.39 441.53 415.03 440.84 411.89 443.21C410.1 444.55 408.89 446.8 406.77 447.46C405.7 447.71 404.578 447.606 403.573 447.162C402.568 446.718 401.735 445.959 401.2 445C400.178 443.033 399.953 440.749 400.57 438.62C400.819 437.135 401.41 435.729 402.295 434.511C403.18 433.293 404.335 432.297 405.67 431.6Z" fill="#E91E63"/>
<path d="M387.72 417.28C390.72 413.71 391.29 408.52 389.95 404.06C388.61 399.6 385.6 395.8 382.13 392.7C378.044 389.061 373.289 386.252 368.13 384.43C366.134 383.616 363.983 383.25 361.83 383.36C360.753 383.42 359.708 383.743 358.786 384.301C357.864 384.859 357.092 385.635 356.54 386.56C355.06 389.37 356.48 392.79 358.01 395.56C360.705 400.463 363.785 405.144 367.22 409.56C369.98 413.12 373.14 416.63 377.34 418.24C381.54 419.85 385.92 419.66 388.15 416.74" fill="#E91E63"/>
<path d="M395.119 471.16C395.269 470.574 395.352 469.974 395.369 469.37C395.499 468.07 395.659 466.43 395.849 464.48C396.095 462.066 396.462 459.667 396.949 457.29C397.591 454.401 398.464 451.569 399.559 448.82C400.634 446.072 402.092 443.49 403.889 441.15C405.353 439.247 407.222 437.693 409.359 436.6C410.82 435.879 412.386 435.396 413.999 435.17C414.6 435.144 415.196 435.057 415.779 434.91C415.178 434.845 414.571 434.845 413.969 434.91C412.304 435.036 410.675 435.46 409.159 436.16C406.908 437.225 404.933 438.796 403.389 440.75C401.513 443.12 400 445.755 398.899 448.57C397.793 451.365 396.927 454.248 396.309 457.19C395.829 459.591 395.495 462.019 395.309 464.46C395.149 466.54 395.089 468.22 395.069 469.38C395.023 469.973 395.04 470.57 395.119 471.16Z" fill="#263238"/>
<path d="M395.46 467.4C395.511 467.127 395.528 466.848 395.51 466.57C395.51 465.94 395.51 465.15 395.51 464.18C395.51 462.12 395.51 459.13 395.62 455.44C395.8 448.06 396.44 437.86 397.62 426.66C398.8 415.46 400.53 405.38 402 398.15C402.36 396.33 402.71 394.7 403 393.27C403.29 391.84 403.59 390.61 403.85 389.61C404.11 388.61 404.26 387.9 404.41 387.29C404.488 387.023 404.539 386.748 404.56 386.47C404.43 386.717 404.333 386.979 404.27 387.25C404.08 387.85 403.86 388.61 403.57 389.53C403.28 390.45 402.95 391.75 402.57 393.18C402.19 394.61 401.8 396.23 401.41 398.04C399.372 407.465 397.839 416.992 396.82 426.58C395.59 437.81 395.03 448.03 394.98 455.43C394.98 459.13 394.98 462.13 395.11 464.19C395.17 465.19 395.22 465.95 395.26 466.57C395.29 466.854 395.358 467.133 395.46 467.4Z" fill="#263238"/>
<path d="M395.51 447.68C395.573 446.855 395.573 446.026 395.51 445.2C395.42 443.6 395.2 441.29 394.75 438.46C394.205 435.152 393.474 431.876 392.56 428.65C391.468 424.685 390.097 420.803 388.46 417.03C385.608 410.096 381.521 403.736 376.4 398.26C375.514 397.323 374.569 396.445 373.57 395.63C373.13 395.26 372.75 394.89 372.36 394.63L371.26 393.87C370.593 393.373 369.891 392.925 369.16 392.53C369.04 392.7 372.16 394.53 376.02 398.66C380.975 404.179 384.953 410.503 387.78 417.36C389.406 421.098 390.783 424.94 391.9 428.86C392.842 432.059 393.623 435.303 394.24 438.58C394.75 441.38 395.05 443.67 395.24 445.25C395.264 446.066 395.354 446.879 395.51 447.68Z" fill="#263238"/>
<path d="M104.42 130.6C105.42 122.67 112.11 115.28 120.1 115.28C124.81 115.28 129.3 117.74 132.52 121.19C133.665 122.35 134.718 123.597 135.67 124.92C136.347 123.436 137.136 122.005 138.03 120.64C140.51 116.64 144.42 113.33 149.03 112.4C156.87 110.84 164.89 116.76 167.42 124.34C169.95 131.92 167.84 140.42 163.69 147.24C159.54 154.06 152.39 162.99 139.22 167.41C130.15 166.25 117.99 158.2 112.58 152.32C107.17 146.44 103.44 138.53 104.42 130.6Z" fill="#E91E63"/>
<path d="M107.3 144.83H107.56L108.33 144.78L111.33 144.53L122.19 143.53L122 143.41L126.52 155.21L126.8 155.92L126.98 155.18C128.35 149.45 129.9 143.04 131.53 136.28L133 130.13L132.54 130.23L140.83 141.63L140.91 141.73H141L160.09 139.73L165.49 139.13L166.92 138.95L167.41 138.86C167.243 138.844 167.076 138.844 166.91 138.86L165.48 138.97L160.06 139.44L140.96 141.24L141.17 141.34L132.92 129.91L132.59 129.46L132.46 130C131.98 132 131.46 134.07 130.98 136.17C129.37 142.93 127.84 149.35 126.47 155.08H126.93L122.31 143.31L122.26 143.18H122.12L111.27 144.34L108.32 144.69L107.56 144.79L107.3 144.83Z" fill="#FAFAFA"/>
<path d="M405.527 286.3L389.352 291.091L392.107 300.391C392.442 301.523 393.213 302.475 394.25 303.038C395.287 303.601 396.506 303.73 397.637 303.394L405.308 301.122C406.439 300.787 407.391 300.016 407.955 298.979C408.518 297.942 408.646 296.723 408.311 295.592L405.556 286.291L405.527 286.3Z" fill="#E91E63"/>
<path opacity="0.3" d="M405.527 286.299L389.352 291.091L392.109 300.401C392.443 301.527 393.211 302.475 394.243 303.036C395.276 303.596 396.489 303.724 397.615 303.39L405.286 301.118C405.843 300.953 406.363 300.679 406.815 300.313C407.267 299.947 407.643 299.496 407.921 298.984C408.198 298.473 408.372 297.912 408.433 297.334C408.494 296.755 408.44 296.17 408.275 295.612L405.517 286.302L405.527 286.299Z" fill="black"/>
<path d="M391.881 300.39C394.656 299.847 397.395 299.129 400.081 298.24C402.799 297.517 405.471 296.629 408.081 295.58C405.306 296.131 402.567 296.853 399.881 297.74C397.163 298.463 394.492 299.347 391.881 300.39Z" fill="#263238"/>
<path d="M403 297C402.931 296.744 402.813 296.505 402.651 296.295C402.49 296.086 402.289 295.91 402.059 295.779C401.829 295.648 401.576 295.564 401.313 295.531C401.051 295.499 400.784 295.519 400.53 295.59L397.29 296.59C397.038 296.669 396.805 296.798 396.604 296.968C396.402 297.137 396.237 297.345 396.116 297.58C395.995 297.814 395.922 298.069 395.9 298.332C395.878 298.595 395.909 298.859 395.99 299.11L403 297Z" fill="#263238"/>
<path d="M390.07 207.73L408.07 282.14C408.482 283.71 408.275 285.379 407.491 286.801C406.708 288.223 405.408 289.289 403.86 289.78L392.07 293.28C390.548 293.7 388.923 293.534 387.517 292.816C386.11 292.098 385.023 290.879 384.47 289.4L356.2 217.75L390.07 207.73Z" fill="#E91E63"/>
<path d="M358.531 223.65C358.531 223.79 365.991 221.71 375.101 219.01C384.211 216.31 391.571 214.01 391.531 213.87C391.491 213.73 384.071 215.81 374.951 218.51C365.831 221.21 358.491 223.51 358.531 223.65Z" fill="#263238"/>
<path d="M388.93 214.72C388.88 213.648 388.657 212.591 388.27 211.59C388.045 210.536 387.657 209.524 387.12 208.59C387.164 209.662 387.384 210.719 387.77 211.72C387.991 212.776 388.383 213.79 388.93 214.72Z" fill="#263238"/>
<path d="M386.24 215.51C385.98 213.387 385.369 211.322 384.43 209.4C384.48 210.472 384.703 211.529 385.09 212.53C385.315 213.577 385.703 214.583 386.24 215.51Z" fill="#263238"/>
<path d="M383.56 216.31C383.509 215.238 383.286 214.181 382.9 213.18C382.679 212.125 382.291 211.112 381.75 210.18C381.794 211.252 382.013 212.309 382.4 213.31C382.621 214.367 383.012 215.38 383.56 216.31Z" fill="#263238"/>
<path d="M380.87 217.1C380.611 214.977 379.999 212.912 379.06 210.99C379.332 213.111 379.943 215.174 380.87 217.1Z" fill="#263238"/>
<path d="M378.19 217.9C378.139 216.828 377.916 215.771 377.53 214.77C377.309 213.715 376.921 212.702 376.38 211.77C376.424 212.842 376.644 213.899 377.03 214.9C377.251 215.956 377.643 216.97 378.19 217.9Z" fill="#263238"/>
<path d="M375.5 218.69C375.241 216.567 374.629 214.502 373.69 212.58C373.962 214.701 374.573 216.764 375.5 218.69Z" fill="#263238"/>
<path d="M372.82 219.49C372.769 218.418 372.546 217.361 372.16 216.36C371.939 215.305 371.551 214.292 371.01 213.36C371.054 214.432 371.273 215.489 371.66 216.49C371.881 217.546 372.273 218.56 372.82 219.49Z" fill="#263238"/>
<path d="M370.14 220.28C370.084 219.209 369.861 218.153 369.48 217.15C369.261 216.093 368.869 215.079 368.32 214.15C368.377 215.221 368.599 216.277 368.98 217.28C369.199 218.337 369.591 219.351 370.14 220.28Z" fill="#263238"/>
<path d="M367.45 221.08C367.407 220.008 367.187 218.951 366.8 217.95C366.574 216.895 366.182 215.883 365.64 214.95C365.691 216.022 365.914 217.079 366.3 218.08C366.521 219.135 366.909 220.148 367.45 221.08Z" fill="#263238"/>
<path d="M364.77 221.87C364.498 219.749 363.887 217.686 362.96 215.76C363.219 217.883 363.831 219.948 364.77 221.87Z" fill="#263238"/>
<path d="M362.08 222.67C362.036 221.598 361.817 220.541 361.43 219.54C361.209 218.484 360.817 217.47 360.27 216.54C360.32 217.612 360.543 218.669 360.93 219.67C361.15 220.725 361.538 221.738 362.08 222.67Z" fill="#263238"/>
<path d="M359.4 223.46C359.128 221.34 358.517 219.277 357.59 217.35C357.849 219.473 358.461 221.538 359.4 223.46Z" fill="#263238"/>
<path d="M385.72 246.63L384.45 242.37L380.24 243.62L381.42 247.61L377.98 248.62L379.22 252.81L383.03 251.69L384.11 255.34L387.63 254.29L386.47 250.37L390.62 249.14L389.52 245.43L385.72 246.63Z" fill="white"/>
<path d="M375.54 251.44C375.6 251.44 375.32 250.64 375.25 249.17C375.167 247.097 375.764 245.053 376.95 243.35C377.758 242.184 378.835 241.231 380.09 240.57C381.536 239.828 383.161 239.506 384.78 239.64C386.57 239.805 388.27 240.501 389.66 241.64C391.156 242.857 392.249 244.497 392.797 246.345C393.345 248.194 393.322 250.165 392.73 252C392.186 253.709 391.141 255.214 389.73 256.32C388.443 257.31 386.906 257.923 385.29 258.09C383.878 258.222 382.455 258.012 381.14 257.48C379.211 256.689 377.598 255.283 376.55 253.48C375.8 252.21 375.61 251.4 375.55 251.42C375.57 251.619 375.617 251.814 375.69 252C375.86 252.549 376.088 253.079 376.37 253.58C377.396 255.465 379.027 256.948 381 257.79C382.465 258.417 384.07 258.644 385.652 258.447C387.233 258.25 388.733 257.637 390 256.67C391.501 255.515 392.617 253.932 393.2 252.13C393.836 250.203 393.87 248.129 393.298 246.182C392.727 244.235 391.576 242.508 390 241.23C388.531 240.031 386.731 239.309 384.84 239.16C383.135 239.022 381.426 239.368 379.91 240.16C378.606 240.869 377.491 241.88 376.66 243.11C375.473 244.876 374.913 246.989 375.07 249.11C375.11 249.685 375.207 250.255 375.36 250.81C375.387 251.028 375.447 251.241 375.54 251.44Z" fill="white"/>
</svg>
