<svg width="500" height="500" viewBox="0 0 500 500" fill="none" xmlns="http://www.w3.org/2000/svg">
<path d="M83.5901 414.71L88.1501 406.51L80.7401 399.51L76.8901 394.06L65.5701 399.34L60.2901 408.9L54.1401 412.25L54.6401 418.56L62.5601 424.84L68.8101 428.25L75.3001 425.52C75.3001 425.52 83.3001 428.31 83.5501 427.96C83.8001 427.61 88.2601 422.32 88.2601 422.32L87.0001 417.86L84.2301 415" fill="#F5F5F5"/>
<path d="M84.2299 415L84.4299 415.18L84.9699 415.72L86.9999 417.8C87.3599 419.01 87.8099 420.52 88.3399 422.27V422.34V422.4L83.8299 427.86L83.6699 428.06C83.623 428.108 83.5644 428.142 83.4999 428.16H83.2499L82.7299 428.06L81.7299 427.8C81.0399 427.61 80.3499 427.39 79.6399 427.17C78.2199 426.73 76.7499 426.24 75.2199 425.72H75.3799L68.8899 428.46L68.7899 428.51L68.6899 428.45L62.4299 425.05L54.5099 418.78L54.4199 418.71V418.6C54.2599 416.6 54.0999 414.46 53.9199 412.29V412.13L54.0699 412.05L54.6899 411.71L60.2199 408.71L60.1099 408.81L65.3999 399.26V399.18H65.4699L76.8099 393.92L76.9699 393.84L77.0799 393.99L80.9099 399.46L88.2899 406.46L88.3699 406.54V406.64L84.9499 412.64L84.0199 414.23C83.9245 414.417 83.8106 414.595 83.6799 414.76C83.7564 414.564 83.8466 414.373 83.9499 414.19C84.1699 413.79 84.4499 413.25 84.8099 412.57C85.5999 411.13 86.7099 409.07 88.1199 406.49V406.66L80.6699 399.74L76.8099 394.29L77.0799 394.37L65.6699 399.6L65.7899 399.49L60.5199 409.06V409.13H60.4499L54.9299 412.13L54.3099 412.46L54.4399 412.21C54.6099 414.37 54.7799 416.51 54.9399 418.52L54.8399 418.34L62.7499 424.62L68.9999 428.04H68.7899L75.2899 425.33H75.3699H75.4399C76.9599 425.86 78.4399 426.33 79.8399 426.81C80.5399 427.04 81.2299 427.26 81.9099 427.45L82.9099 427.72L83.3899 427.81H83.5299C83.5299 427.81 83.5299 427.81 83.5299 427.87V427.92L83.4099 427.83L83.5799 427.64L88.1699 422.21V422.34L86.9099 417.84L84.9099 415.64L84.4099 415.07C84.2799 415 84.2199 415 84.2299 415Z" fill="#263238"/>
<path d="M65.3999 399.32C65.413 401.484 65.6849 403.64 66.2099 405.74C66.7548 407.853 68.0436 409.7 69.8399 410.94C71.9799 412.27 74.6399 412.3 77.1399 412.63C77.6692 412.641 78.1901 412.764 78.669 412.99C79.1479 413.215 79.5741 413.539 79.9199 413.94C80.2675 414.664 80.4519 415.456 80.4599 416.26C80.7626 418.015 81.6958 419.6 83.0842 420.715C84.4725 421.831 86.2206 422.402 87.9999 422.32" fill="#F5F5F5"/>
<path d="M87.9999 422.32C87.9999 422.32 87.8798 422.32 87.6298 422.38C87.2708 422.417 86.9089 422.417 86.5499 422.38C84.8876 422.144 83.354 421.353 82.1991 420.134C81.0442 418.916 80.336 417.342 80.1899 415.67C80.17 415.143 80.0333 414.627 79.7899 414.16C79.496 413.716 79.058 413.388 78.5499 413.23C77.3756 412.937 76.1775 412.749 74.9699 412.67C73.7227 412.555 72.492 412.303 71.2999 411.92C70.1582 411.539 69.1279 410.883 68.2999 410.01C66.9754 408.518 66.0955 406.686 65.7599 404.72C65.5197 403.423 65.3892 402.108 65.3699 400.79C65.3181 400.311 65.3181 399.828 65.3699 399.35C65.4644 399.821 65.5213 400.299 65.5399 400.78C65.6364 402.077 65.8201 403.367 66.0898 404.64C66.4642 406.503 67.3348 408.23 68.6099 409.64C69.3824 410.442 70.3355 411.049 71.3899 411.41C72.5457 411.781 73.7401 412.019 74.9498 412.12C76.1965 412.198 77.4325 412.399 78.6399 412.72C79.2576 412.918 79.7876 413.325 80.1399 413.87C80.412 414.404 80.5655 414.991 80.5898 415.59C80.6528 416.532 80.9059 417.452 81.3338 418.294C81.7617 419.136 82.3557 419.883 83.0799 420.49C84.0564 421.331 85.235 421.903 86.4999 422.15C87.4299 422.31 87.9999 422.26 87.9999 422.32Z" fill="#263238"/>
<path d="M78.4297 413C78.3713 413.365 78.2566 413.72 78.0897 414.05C77.7349 415.007 77.1593 415.867 76.4097 416.56C75.8474 417.046 75.149 417.346 74.4097 417.42C73.6041 417.391 72.8064 417.249 72.0397 417C71.6653 416.916 71.2753 416.933 70.9097 417.05C70.5231 417.206 70.18 417.453 69.9097 417.77C69.6097 418.09 69.3397 418.46 69.0097 418.77C68.671 419.129 68.2918 419.448 67.8797 419.72C66.3107 420.721 64.453 421.172 62.5997 421C61.1114 420.839 59.6591 420.437 58.2997 419.81C57.3886 419.406 56.5006 418.952 55.6397 418.45C55.3101 418.288 55.0012 418.086 54.7197 417.85C54.7197 417.76 56.1297 418.52 58.4397 419.47C59.7802 420.027 61.1953 420.384 62.6397 420.53C64.3879 420.693 66.1418 420.286 67.6397 419.37C68.0008 419.113 68.3357 418.822 68.6397 418.5L69.5497 417.5C69.8669 417.133 70.2683 416.848 70.7197 416.67C71.1651 416.521 71.6432 416.501 72.0997 416.61C72.828 416.853 73.5839 417.004 74.3497 417.06C74.9994 417.014 75.6183 416.766 76.1197 416.35C76.8836 415.709 77.495 414.907 77.9097 414C78.0499 413.65 78.2241 413.315 78.4297 413Z" fill="#263238"/>
<path d="M73.93 412.21C73.8951 411.386 73.9555 410.56 74.11 409.75C74.6472 405.83 75.6544 401.989 77.11 398.31C77.3701 397.529 77.7261 396.783 78.17 396.09C77.9995 396.89 77.7586 397.673 77.45 398.43C76.98 399.87 76.35 401.85 75.76 404.07C75.17 406.29 74.76 408.33 74.44 409.81C74.3471 410.624 74.1764 411.428 73.93 412.21Z" fill="#263238"/>
<path d="M479.65 428.3C479.65 428.44 380.29 428.56 257.75 428.56C135.21 428.56 35.8301 428.44 35.8301 428.3C35.8301 428.16 135.17 428.04 257.75 428.04C380.33 428.04 479.65 428.16 479.65 428.3Z" fill="#263238"/>
<path d="M384.18 310.56C376.48 308.36 373.46 312.49 373.46 312.49C373.46 312.49 375.92 297.7 368.04 261.23C360.16 224.76 323.17 192.49 317.77 182.5C312.57 172.88 306.66 133.01 303.85 112.22C303.192 107.236 301.378 102.475 298.553 98.3172C295.728 94.159 291.971 90.7185 287.58 88.2701C280.695 84.5539 273.6 81.2416 266.33 78.3501C267.4 77.7001 258.46 63.8101 250.45 63.8001C243.18 63.8001 205.57 49.8001 183.8 71.8001C180.8 74.8601 176.26 89.2101 176.26 89.2101C176.26 89.2101 168.71 97.1601 162.26 103.13C155.81 109.1 132.04 171.06 122.61 187.27C113.18 203.48 115.32 237.97 115.32 237.97C93.2101 243.36 75.4901 253.66 68.8801 278.97C62.2701 304.28 83.8801 322.5 83.8801 322.5L392.28 322.34C391.76 316.35 388.06 311.67 384.18 310.56Z" fill="#E91E63"/>
<g opacity="0.5">
<path opacity="0.5" d="M243.01 71.4198C244.09 71.0998 258.58 71.7198 262.55 91.6398L247.37 92.4198L243.01 71.4198Z" fill="black"/>
</g>
<g opacity="0.5">
<path opacity="0.5" d="M357.69 274.91C347.57 252.91 310.49 263.22 302.45 257.99C298.95 255.71 293.76 254.16 289.02 249.37L290.02 261.8L294.24 322.8L365.47 322.49C365.47 322.49 367.84 296.91 357.69 274.91Z" fill="black"/>
</g>
<g opacity="0.5">
<path opacity="0.5" d="M177.38 200.68C176.11 201.63 149.86 212.07 149.86 213.02C149.86 213.97 146.38 249.07 146.38 249.07L101.47 255.4L82.4702 265.53L75.0802 280.27L70.4702 295.62L81.5302 315.27L87.6202 322.57L197.3 322.88V240.54C197.3 240.54 180.39 200.68 178.84 200.68" fill="black"/>
</g>
<g opacity="0.5">
<path opacity="0.5" d="M177.05 98.8501C177.05 98.8501 181.7 88.5001 182.45 87.8501C182.8 87.5301 183.52 84.3201 184.17 81.0201C184.621 78.471 185.617 76.0493 187.09 73.9201C188.486 72.1624 190.224 70.7064 192.2 69.6401L201.03 89.8101L194.09 99.7101L177.05 98.8501Z" fill="black"/>
</g>
<path d="M269.29 92.4199L248.37 89.1699L186.84 94.3999C186.84 94.3999 164.84 144.94 166.17 146.34C166.83 147.05 184.28 202.68 184.28 202.68L183.06 248.47C183.06 248.47 176.83 256.17 175.76 261.67C172.41 279.01 287.44 283.16 290.26 272.86V104.86L269.29 92.4199Z" fill="#455A64"/>
<path d="M186.84 94.3999C186.84 94.3999 167.45 96.3999 162.15 109.4C156.85 122.4 140.55 196.58 140.55 196.58C140.55 196.58 138.13 212.7 144.9 221.36C150.67 228.73 168.31 227.15 178.9 222.36C196.51 214.36 210.46 160.93 210.46 160.93L218.07 142.43L189.49 133.07L176.49 161.17L186.84 94.3999Z" fill="#455A64"/>
<path d="M256.62 90.6401C257.68 90.9001 291.24 95.6401 297.34 101.17C303.44 106.7 302.7 156.27 302.7 156.27C302.7 156.27 297.35 218.78 292.31 222.84C287.27 226.9 265.22 241.89 252.85 213.55C249.24 205.28 241.32 195.17 236.37 184.7C230.306 171.671 224.964 158.317 220.37 144.7L248.56 131.51L270.42 168.51L266.42 115.38L256.62 90.6401Z" fill="#455A64"/>
<path d="M183.9 50.3601C182.618 42.9185 184.19 35.2671 188.301 28.9332C192.412 22.5993 198.761 18.0489 206.08 16.1901L207.58 15.8101C224.08 12.6101 236.01 24.8101 238.75 41.4001L252.42 107.17C252.549 107.714 252.524 108.283 252.347 108.813C252.171 109.343 251.849 109.813 251.42 110.17L219.26 136.54L211.74 102.1C211.74 102.1 195.5 103.66 191.32 88.1001C189.26 80.5401 186.36 64.7101 183.9 50.3601Z" fill="#FFBE9D"/>
<path d="M211.57 102.07C218.824 100.225 225.395 96.3335 230.5 90.8599C230.5 90.8599 228.56 103.33 212.62 105.86L211.57 102.07Z" fill="#EB996E"/>
<path d="M198.91 59.6001C198.6 59.3301 196.99 60.7901 194.52 61.0301C192.05 61.2701 190.13 60.2101 189.89 60.5401C189.77 60.6901 190.12 61.2001 190.96 61.6901C192.1 62.3279 193.411 62.5936 194.71 62.4501C195.99 62.3287 197.198 61.8034 198.16 60.9501C198.84 60.2701 199.06 59.7201 198.91 59.6001Z" fill="#263238"/>
<path d="M222.47 56.9099C222.11 56.7099 220.82 58.4499 218.47 59.1699C216.12 59.8899 214 59.2399 213.83 59.6099C213.74 59.7799 214.18 60.2099 215.11 60.5299C216.353 60.9246 217.687 60.9246 218.93 60.5299C220.163 60.1555 221.245 59.3992 222.02 58.3699C222.55 57.5899 222.64 56.9999 222.47 56.9099Z" fill="#263238"/>
<path d="M209.35 74.0702C209.35 73.9302 207.76 74.0701 205.27 74.3601C204.64 74.4601 204.03 74.4802 203.82 74.0902C203.605 73.4712 203.584 72.8013 203.76 72.1701C203.96 70.5401 204.17 68.8302 204.38 67.0402C205.2 59.7502 205.63 53.8202 205.38 53.7902C205.13 53.7602 204.18 59.6502 203.38 66.9302C203.19 68.7302 203.01 70.4402 202.84 72.0702C202.646 72.9097 202.752 73.7909 203.14 74.5601C203.286 74.7525 203.473 74.9098 203.688 75.0205C203.902 75.1312 204.139 75.1926 204.38 75.2001C204.741 75.2068 205.1 75.1664 205.45 75.0801C207.84 74.5901 209.37 74.2102 209.35 74.0702Z" fill="#263238"/>
<path d="M221.03 47.87C220.51 47.39 218.45 48.8 215.71 49.87C212.97 50.94 210.51 51.25 210.44 51.96C210.44 52.3 211.07 52.68 212.21 52.82C213.7 52.957 215.202 52.7516 216.6 52.2196C217.999 51.6875 219.258 50.8428 220.28 49.75C221.04 48.83 221.27 48.11 221.03 47.87Z" fill="#263238"/>
<path d="M198.11 53.6601C197.67 53.0301 195.53 53.3101 193.06 52.9901C190.59 52.6701 188.57 51.9901 188 52.4801C187.75 52.7401 188 53.3401 188.84 54.0001C190.011 54.8207 191.366 55.3411 192.785 55.5155C194.205 55.6899 195.645 55.5129 196.98 55.0001C197.93 54.5001 198.3 53.9601 198.11 53.6601Z" fill="#263238"/>
<path d="M239.34 53.5599C239.58 53.3799 249.27 47.6499 251.65 58.4099C254.03 69.1699 242.74 69.3499 242.65 69.0499C242.56 68.7499 239.34 53.5599 239.34 53.5599Z" fill="#FFBE9D"/>
<path d="M244.09 64.4802C244.09 64.4802 244.31 64.5702 244.66 64.6502C245.15 64.739 245.655 64.6351 246.07 64.3602C247.07 63.6902 247.67 61.6802 247.29 59.7202C247.113 58.7937 246.73 57.9187 246.17 57.1602C245.997 56.844 245.748 56.5754 245.447 56.3783C245.145 56.1812 244.799 56.0616 244.44 56.0302C244.211 56.0235 243.988 56.0953 243.806 56.2336C243.624 56.3719 243.495 56.5683 243.44 56.7902C243.36 57.1202 243.44 57.3202 243.44 57.3502C243.44 57.3802 243.17 57.2202 243.15 56.7602C243.153 56.4792 243.252 56.2077 243.43 55.9902C243.554 55.8431 243.706 55.7228 243.878 55.6368C244.05 55.5508 244.238 55.5009 244.43 55.4902C244.891 55.4781 245.348 55.585 245.756 55.8004C246.164 56.0158 246.51 56.3325 246.76 56.7202C247.425 57.5524 247.878 58.5339 248.08 59.5802C248.49 61.7602 247.83 64.0402 246.37 64.8302C246.1 64.9791 245.799 65.0654 245.491 65.0827C245.183 65.1 244.875 65.0479 244.59 64.9302C244.17 64.7402 244.06 64.5102 244.09 64.4802Z" fill="#EB996E"/>
<path d="M210.31 53.32C210.31 53.38 209.89 53.53 209.18 53.44C208.243 53.3212 207.384 52.8577 206.77 52.14C206.157 51.4223 205.829 50.5038 205.85 49.56C205.85 48.84 206.08 48.45 206.14 48.47C206.2 48.49 206.14 48.9 206.21 49.55C206.298 50.3772 206.629 51.16 207.16 51.8C207.712 52.4273 208.44 52.8734 209.25 53.08C209.84 53.27 210.3 53.27 210.31 53.32Z" fill="#EB996E"/>
<path d="M243.44 36.3502C243.44 36.5702 243.56 36.7802 243.6 36.9902C245.52 46.2702 243.01 58.3202 243.01 58.3202C236.16 59.9802 234.86 46.6602 234.86 46.6602C225.69 45.3102 225.97 31.9702 223.43 30.5302C220.89 29.0902 215.43 25.6402 199.85 38.6602C193.79 43.7202 184.65 45.6602 179.42 45.6602H178.84H178.68C176.977 45.6274 175.29 45.327 173.68 44.7702C171.809 44.1953 170.172 43.0351 169.01 41.4602C168.444 40.6695 168.121 39.731 168.08 38.7594C168.039 37.7879 168.282 36.8255 168.78 35.9902C167.051 34.696 165.734 32.9278 164.99 30.9002C164.631 29.8878 164.535 28.8011 164.71 27.7414C164.885 26.6818 165.325 25.6837 165.99 24.8402C166.694 24.0275 167.666 23.4932 168.729 23.3336C169.793 23.1741 170.878 23.3999 171.79 23.9702C171.471 23.304 171.297 22.5782 171.278 21.8401C171.258 21.102 171.394 20.368 171.677 19.6861C171.96 19.0041 172.384 18.3893 172.92 17.8817C173.456 17.3742 174.093 16.9852 174.79 16.7402C177.49 15.9502 180.3 17.4902 183.11 17.6202C185.881 17.5756 188.562 16.6315 190.75 14.9302C193.01 13.3702 195.02 11.4602 197.33 9.93016C202.228 6.82498 208.142 5.74896 213.82 6.93016C219.43 8.11016 223.91 9.52016 227.06 14.3102C230.48 12.3102 235.22 14.0302 238.37 16.4102C238.37 16.4102 242.71 18.8802 243.06 27.5002C243.47 35.1402 243.44 36.3502 243.44 36.3502Z" fill="#263238"/>
<path d="M172.55 21.2702C172.55 21.2202 173.13 21.8002 174.28 22.5802C175.926 23.6635 177.761 24.4268 179.69 24.8302C182.554 25.4007 185.498 25.4481 188.38 24.9702C191.903 24.316 195.361 23.3454 198.71 22.0702C202.091 20.7959 205.569 19.7928 209.11 19.0702C212.036 18.545 215.033 18.545 217.96 19.0702C219.936 19.4212 221.825 20.155 223.52 21.2302C223.978 21.5297 224.413 21.864 224.82 22.2302C224.964 22.3488 225.098 22.4793 225.22 22.6202C225.22 22.6702 224.61 22.1402 223.42 21.4202C221.716 20.4257 219.845 19.7481 217.9 19.4202C215.012 18.9731 212.069 19.0272 209.2 19.5802C205.689 20.3202 202.24 21.323 198.88 22.5802C195.501 23.8665 192.009 24.8341 188.45 25.4702C185.513 25.9342 182.515 25.846 179.61 25.2102C177.649 24.768 175.796 23.9384 174.16 22.7702C173.723 22.4489 173.312 22.0945 172.93 21.7102C172.787 21.5786 172.659 21.431 172.55 21.2702Z" fill="#455A64"/>
<path d="M224.59 25.8201C224.59 25.8201 223.94 25.3801 222.67 24.7701C220.861 23.9688 218.908 23.5467 216.93 23.5301C213.99 23.5137 211.072 24.0357 208.32 25.0701C205.19 26.1701 201.92 27.8501 198.32 29.3401C196.581 30.0789 194.789 30.6873 192.96 31.1601C191.249 31.5806 189.5 31.8285 187.74 31.9001C184.753 32.0222 181.767 31.654 178.9 30.8101C176.976 30.2412 175.124 29.4527 173.38 28.4601C172.77 28.1201 172.31 27.8101 172 27.6001C171.837 27.5005 171.686 27.3831 171.55 27.2501C171.55 27.2501 172.23 27.6401 173.48 28.2501C175.243 29.1553 177.092 29.8822 179 30.4201C181.832 31.2122 184.772 31.5497 187.71 31.4201C189.44 31.3356 191.158 31.0845 192.84 30.6701C194.64 30.1927 196.405 29.5878 198.12 28.8601C201.66 27.3801 204.95 25.7101 208.12 24.6201C210.93 23.5925 213.908 23.0974 216.9 23.1601C218.92 23.2129 220.905 23.7007 222.72 24.5901C223.208 24.8379 223.673 25.1291 224.11 25.4601C224.284 25.5598 224.445 25.6807 224.59 25.8201Z" fill="#455A64"/>
<path d="M243.34 26.5802C242.796 27.1457 242.129 27.577 241.39 27.8402C239.637 28.5972 237.71 28.8567 235.82 28.5902C233.992 28.1721 232.231 27.4988 230.59 26.5902C229.3 26.0102 228.43 25.9102 228.44 25.8302C229.223 25.7706 230.007 25.9117 230.72 26.2402C232.09 26.7102 233.79 27.7702 235.9 28.0602C237.703 28.316 239.541 28.1201 241.25 27.4902C242.57 27.0202 243.29 26.5002 243.34 26.5802Z" fill="#455A64"/>
<path d="M243.59 29.4C242.989 29.8506 242.311 30.1894 241.59 30.4C239.852 31.0226 238.016 31.3242 236.17 31.29C234.324 31.2591 232.5 30.8861 230.79 30.19C230.06 29.9489 229.381 29.5724 228.79 29.08C228.79 29.01 229.59 29.4 230.9 29.85C234.311 31.0083 237.998 31.0782 241.45 30.05C242.151 29.7952 242.866 29.5782 243.59 29.4Z" fill="#455A64"/>
<path d="M202.26 50.27C202.42 50.699 202.477 51.1595 202.426 51.6145C202.376 52.0695 202.22 52.5063 201.97 52.89C201.26 54.27 200.03 54.77 199.97 54.63C199.91 54.49 200.87 53.87 201.49 52.63C201.805 51.8637 202.063 51.0749 202.26 50.27Z" fill="#EB996E"/>
<path d="M170.99 173.27C171.123 173.037 171.243 172.797 171.35 172.55L172.35 170.44L176.06 162.32L189.35 132.88L189.43 132.7L189.61 132.77L218.33 142.5L218.57 142.58L218.48 142.82L204.61 177.82C201.77 185.04 198.93 192.05 196.32 198.89C195.053 202.262 193.57 205.549 191.88 208.73C190.249 211.791 188.184 214.6 185.75 217.07C183.454 219.445 180.818 221.467 177.93 223.07C175.189 224.549 172.222 225.563 169.15 226.07C166.284 226.526 163.376 226.664 160.48 226.48C157.798 226.386 155.141 225.931 152.58 225.13C150.245 224.381 148.113 223.105 146.35 221.4C144.821 219.843 143.612 218.002 142.79 215.98C141.512 212.75 140.73 209.345 140.47 205.88C140.276 203.702 140.239 201.513 140.36 199.33C140.45 197.84 140.58 197.06 140.58 197.06C140.58 197.06 140.58 197.26 140.58 197.64C140.58 198.02 140.51 198.59 140.49 199.34C140.409 201.516 140.476 203.694 140.69 205.86C140.984 209.293 141.786 212.663 143.07 215.86C143.891 217.839 145.09 219.64 146.6 221.16C148.336 222.82 150.43 224.058 152.72 224.78C155.25 225.559 157.874 225.992 160.52 226.07C163.384 226.252 166.259 226.108 169.09 225.64C172.116 225.125 175.036 224.111 177.73 222.64C180.571 221.048 183.165 219.05 185.43 216.71C187.818 214.265 189.84 211.486 191.43 208.46C193.107 205.295 194.576 202.025 195.83 198.67C198.43 191.84 201.28 184.81 204.12 177.59C209.02 165.25 213.72 153.4 218.01 142.59L218.16 142.91L189.47 133.11L189.72 133C184.14 145.29 179.52 155.37 176.26 162.37C174.63 165.87 173.35 168.6 172.45 170.44C172 171.36 171.65 172.06 171.45 172.53C171.332 172.797 171.177 173.046 170.99 173.27Z" fill="#263238"/>
<path d="M179.29 156.03C179.316 155.634 179.383 155.242 179.49 154.86L180.2 151.72C180.83 149.07 181.72 145.43 182.73 141.4C184.54 134.22 185.78 129.34 186.41 126.85C186.72 126.85 185.24 133.48 183.23 141.53C182.23 145.53 181.28 149.19 180.56 151.81C180.2 153.12 179.9 154.18 179.68 154.91C179.601 155.299 179.47 155.676 179.29 156.03Z" fill="#263238"/>
<path d="M202.09 74.0901C202.09 74.0901 199.04 70.9201 196.33 74.0901C193.62 77.2601 193.92 84.9301 199.06 92.7201C204.2 100.51 202.16 129.79 202.16 129.79L232.56 118.43L234.65 127.75C238.687 125.425 242.165 122.244 244.84 118.43C248.74 112.51 242.84 104.95 241.62 100.22C240.4 95.4901 229.42 87.9501 226.2 83.0001C222.98 78.0501 214.97 67.9501 202.09 74.0901Z" fill="#FAFAFA"/>
<path d="M222.34 143.12C222.34 143.12 213.79 124.86 212.6 121.51C211.41 118.16 206.36 106.98 207.01 104.79C207.66 102.6 210.59 104.79 210.59 104.79C210.59 104.79 204.64 93.2901 206.46 90.8501C206.634 90.5939 206.864 90.3805 207.132 90.2258C207.4 90.0712 207.7 89.9794 208.009 89.9572C208.318 89.9351 208.628 89.9832 208.916 90.098C209.203 90.2128 209.461 90.3913 209.67 90.6201C209.67 90.6201 205.95 84.0001 209.1 82.0101C210.73 81.0101 213.49 85.0101 213.49 85.0101C213.49 85.0101 216.1 82.1301 218.49 85.7601C220.88 89.3901 230.73 105.6 230.73 105.6C230.73 105.6 230.15 97.9201 231.54 93.2901C232.48 90.1701 237.02 88.4001 237.29 97.8801C237.47 104.02 244.62 132.88 244.62 132.88L222.34 143.12Z" fill="#FFBE9D"/>
<path d="M222.34 143.12L222.73 142.91L223.88 142.36L228.29 140.28L244.53 132.68L244.43 132.88C242.61 125.48 240.43 116.63 238.43 106.63C237.95 104.12 237.43 101.55 237.14 98.86C237.01 97.49 237.01 96.18 236.77 94.86L236.55 93.86C236.47 93.54 236.34 93.23 236.23 92.86C236.013 92.2467 235.628 91.7064 235.12 91.3C234.872 91.1178 234.577 91.0114 234.27 90.9936C233.963 90.9759 233.657 91.0476 233.39 91.2C232.817 91.5346 232.358 92.0325 232.07 92.63C231.791 93.2704 231.59 93.9418 231.47 94.63C231.323 95.3305 231.213 96.0381 231.14 96.75C230.843 99.6673 230.796 102.605 231 105.53C231.003 105.598 230.98 105.665 230.935 105.717C230.891 105.769 230.828 105.802 230.76 105.81C230.712 105.811 230.665 105.799 230.623 105.776C230.581 105.753 230.545 105.72 230.52 105.68L224.32 95.63L219.67 88.09L218.49 86.27C218.159 85.6611 217.714 85.1214 217.18 84.68C216.932 84.4729 216.64 84.3234 216.328 84.2421C216.015 84.1608 215.688 84.1499 215.37 84.21C214.726 84.356 214.139 84.686 213.68 85.16C213.656 85.1845 213.627 85.2039 213.595 85.2172C213.563 85.2305 213.529 85.2373 213.495 85.2373C213.46 85.2373 213.426 85.2305 213.395 85.2172C213.363 85.2039 213.334 85.1845 213.31 85.16C212.61 84.122 211.729 83.2177 210.71 82.49C210.21 82.19 209.62 81.99 209.21 82.32C208.726 82.6456 208.373 83.1304 208.21 83.69C207.994 84.8743 208.09 86.0945 208.49 87.23C208.835 88.3809 209.298 89.4933 209.87 90.55C209.885 90.5781 209.895 90.6091 209.899 90.6411C209.902 90.6731 209.899 90.7054 209.89 90.7362C209.88 90.767 209.865 90.7956 209.844 90.8203C209.824 90.845 209.798 90.8653 209.77 90.88C209.727 90.9088 209.677 90.9242 209.625 90.9242C209.573 90.9242 209.523 90.9088 209.48 90.88C209.229 90.6144 208.908 90.4255 208.554 90.3352C208.2 90.2449 207.827 90.257 207.48 90.37C207.15 90.5233 206.865 90.7571 206.65 91.05C206.45 91.3453 206.342 91.6933 206.34 92.05C206.377 93.5931 206.678 95.1183 207.23 96.56C208.221 99.376 209.4 102.122 210.76 104.78C210.773 104.806 210.782 104.835 210.784 104.864C210.786 104.894 210.783 104.923 210.773 104.951C210.764 104.979 210.749 105.005 210.73 105.027C210.71 105.049 210.686 105.067 210.66 105.08C210.626 105.098 210.588 105.107 210.55 105.107C210.512 105.107 210.474 105.098 210.44 105.08C209.785 104.603 209.022 104.298 208.22 104.19C208.048 104.177 207.876 104.209 207.72 104.283C207.564 104.357 207.429 104.469 207.33 104.61C207.233 104.76 207.175 104.932 207.16 105.11V105.38V105.68C207.395 107.246 207.801 108.782 208.37 110.26C209.37 113.2 210.52 115.95 211.56 118.53C213.48 123.76 215.56 128.14 217.17 131.79L220.99 140.22C221.423 141.167 221.757 141.907 221.99 142.44C222.1 142.68 222.18 142.86 222.24 143.01L222.32 143.21C222.32 143.21 222.32 143.21 222.21 143.02L221.93 142.47L220.87 140.27L216.94 131.89C215.3 128.27 213.18 123.89 211.23 118.67C210.23 116.09 209.04 113.35 207.99 110.39C207.408 108.875 206.989 107.303 206.74 105.7C206.705 105.481 206.705 105.259 206.74 105.04C206.766 104.806 206.845 104.58 206.97 104.38C207.104 104.173 207.293 104.005 207.514 103.896C207.736 103.787 207.983 103.74 208.23 103.76C209.123 103.874 209.971 104.219 210.69 104.76L210.37 105.04C208.986 102.37 207.79 99.6064 206.79 96.77C206.207 95.2698 205.892 93.679 205.86 92.07C205.87 91.622 206.013 91.1871 206.27 90.82C206.529 90.4615 206.872 90.1729 207.27 89.98C207.699 89.804 208.177 89.7828 208.62 89.92C209.05 90.0576 209.446 90.2861 209.78 90.59L209.39 90.89C208.801 89.8001 208.322 88.6545 207.96 87.47C207.537 86.2461 207.437 84.9338 207.67 83.66C207.859 82.9921 208.268 82.4073 208.83 82C208.985 81.8899 209.16 81.8127 209.346 81.7732C209.532 81.7336 209.724 81.7325 209.91 81.77C210.266 81.8323 210.606 81.9649 210.91 82.16C211.986 82.9261 212.917 83.8776 213.66 84.97H213.26C213.799 84.4048 214.496 84.0146 215.26 83.85C215.648 83.7786 216.046 83.7926 216.428 83.891C216.809 83.9895 217.165 84.17 217.47 84.42C218.058 84.8892 218.548 85.4704 218.91 86.13C219.3 86.75 219.68 87.37 220.06 87.99L224.72 95.53L230.92 105.6L230.44 105.75C230.239 102.791 230.289 99.8205 230.59 96.87C230.68 96.14 230.78 95.42 230.94 94.71C231.063 93.9823 231.278 93.2732 231.58 92.6C231.916 91.9108 232.453 91.3392 233.12 90.96C233.47 90.7691 233.866 90.6801 234.263 90.703C234.661 90.726 235.045 90.8601 235.37 91.09C235.949 91.5572 236.391 92.1722 236.65 92.87C236.76 93.21 236.9 93.54 236.98 93.87L237.22 94.87C237.45 96.24 237.46 97.64 237.58 98.94C237.85 101.58 238.37 104.16 238.84 106.66C240.84 116.66 242.98 125.51 244.76 132.92C244.768 132.96 244.763 133.001 244.745 133.037C244.727 133.074 244.697 133.103 244.66 133.12L228.25 140.59L223.84 142.59L222.71 143.09L222.34 143.12Z" fill="#EB996E"/>
<path d="M224.38 107.12C224.25 107.18 221.71 102.28 218.7 96.1702C215.69 90.0602 213.36 85.0502 213.49 84.9802C213.62 84.9102 216.16 89.8202 219.17 95.9802C222.18 102.14 224.51 107.05 224.38 107.12Z" fill="#EB996E"/>
<path d="M219.32 111.71C219.19 111.77 216.92 107.1 214.26 101.28C211.6 95.4602 209.53 90.7002 209.67 90.6402C209.81 90.5802 212.06 95.2502 214.73 101.06C217.4 106.87 219.45 111.65 219.32 111.71Z" fill="#EB996E"/>
<path d="M216.46 117.94C215.959 117.431 215.534 116.851 215.2 116.22C213.402 113.315 211.981 110.194 210.97 106.93C210.718 106.262 210.56 105.562 210.5 104.85C210.65 104.85 211.61 107.85 213.26 111.5C214.91 115.15 216.59 117.86 216.46 117.94Z" fill="#EB996E"/>
<path d="M201.53 90.5298C201.236 90.0063 200.774 89.5972 200.219 89.3686C199.663 89.14 199.047 89.1052 198.47 89.2698C195.78 90.0098 191.25 91.3898 190.01 92.5098C188.21 94.1298 184.32 98.4198 184.33 101.31C184.33 102.19 183.44 103.79 183.13 105.31C182.96 106.303 182.96 107.317 183.13 108.31C183.638 109.725 184.502 110.986 185.64 111.97C186.79 112.97 191.21 123.48 191.21 123.48L193.79 134.02L205.47 138.12L215.09 141.41L210.09 127.09L202.22 129.85L203.02 111.53L205.32 107.19L204.69 104.44L202.8 103.85C203.253 103.461 203.54 102.913 203.599 102.319C203.659 101.725 203.487 101.131 203.12 100.66L201.48 99.2698C203.48 98.5198 204.37 97.1898 203.31 94.9198C202.9 94.598 202.423 94.3709 201.915 94.2551C201.407 94.1393 200.879 94.1375 200.37 94.2498C200.864 93.7801 201.23 93.1917 201.433 92.5406C201.636 91.8895 201.67 91.1973 201.53 90.5298Z" fill="#FFBE9D"/>
<path d="M201 124.56C201 124.56 200.87 124.44 200.66 124.19C200.45 123.94 200.15 123.56 199.79 123.04C199.346 122.414 198.967 121.744 198.66 121.04C198.238 120.1 198.066 119.066 198.16 118.04C198.341 116.804 198.825 115.633 199.57 114.63C200.403 113.506 201.308 112.437 202.28 111.43C203.326 110.348 204.136 109.061 204.66 107.65C204.922 106.93 204.947 106.145 204.73 105.41C204.628 105.061 204.418 104.752 204.131 104.528C203.844 104.303 203.494 104.175 203.13 104.16C202.35 104.312 201.644 104.724 201.13 105.33L199.3 106.95L195.86 110.01C193.64 111.93 191.68 113.72 190.71 115.71C189.9 117.246 189.69 119.028 190.12 120.71C190.42 121.9 190.75 122.52 190.7 122.54C190.65 122.56 190.6 122.4 190.45 122.11C190.233 121.678 190.058 121.226 189.93 120.76C189.702 120.026 189.601 119.258 189.63 118.49C189.67 117.465 189.926 116.46 190.38 115.54C191.38 113.46 193.38 111.54 195.54 109.65C196.63 108.65 197.78 107.65 198.97 106.57L200.78 104.94C201.372 104.257 202.18 103.798 203.07 103.64C203.545 103.651 204.005 103.811 204.384 104.099C204.763 104.386 205.041 104.785 205.18 105.24C205.428 106.079 205.404 106.976 205.11 107.8C204.566 109.296 203.71 110.66 202.6 111.8C201.63 112.783 200.722 113.825 199.88 114.92C199.168 115.864 198.692 116.965 198.49 118.13C198.382 119.102 198.52 120.085 198.89 120.99C199.158 121.688 199.493 122.357 199.89 122.99C200.62 123.97 201.03 124.53 201 124.56Z" fill="#EB996E"/>
<path d="M192.84 112.53C192.84 112.53 192.84 112.53 192.72 112.37C192.619 112.203 192.529 112.029 192.45 111.85C192.316 111.557 192.222 111.248 192.17 110.93C192.119 110.702 192.113 110.466 192.155 110.236C192.196 110.006 192.283 109.786 192.41 109.59L200.41 105.07C201.347 104.663 202.178 104.047 202.84 103.27C203.135 102.869 203.299 102.387 203.31 101.89C203.305 101.643 203.25 101.4 203.149 101.175C203.048 100.95 202.902 100.747 202.72 100.58C202.309 100.239 201.82 100.006 201.296 99.901C200.772 99.7962 200.231 99.8234 199.72 99.98C198.571 100.339 197.453 100.794 196.38 101.34L187.26 105.48C186.606 105.771 186.036 106.222 185.6 106.79C185.238 107.351 185.066 108.014 185.11 108.68C185.249 109.926 185.586 111.141 186.11 112.28C186.786 113.995 187.571 115.665 188.46 117.28C189.09 118.42 189.46 119.03 189.46 119.05C189.46 119.07 189.33 118.92 189.13 118.64C188.93 118.36 188.65 117.94 188.31 117.38C187.338 115.804 186.495 114.152 185.79 112.44C185.231 111.271 184.869 110.017 184.72 108.73C184.664 107.971 184.853 107.213 185.26 106.57C185.73 105.93 186.352 105.418 187.07 105.08C189.88 103.75 192.96 102.37 196.21 100.89C197.312 100.334 198.46 99.8718 199.64 99.51C200.24 99.3237 200.877 99.2939 201.491 99.4234C202.106 99.5529 202.677 99.8375 203.15 100.25C203.381 100.463 203.567 100.721 203.694 101.008C203.821 101.295 203.888 101.606 203.89 101.92C203.872 102.515 203.673 103.091 203.32 103.57C202.631 104.381 201.765 105.024 200.79 105.45L192.65 109.79C192.427 110.129 192.341 110.54 192.41 110.94C192.45 111.247 192.524 111.549 192.63 111.84C192.716 112.065 192.786 112.295 192.84 112.53Z" fill="#EB996E"/>
<path d="M184.34 103.95C184.458 103.568 184.622 103.202 184.83 102.86C185.319 101.876 185.902 100.942 186.57 100.07C187.593 98.7664 188.922 97.7358 190.44 97.0698C192.273 96.3069 194.162 95.6851 196.09 95.2098L199.04 94.3898C199.965 94.04 200.953 93.89 201.94 93.9498C202.43 94.0119 202.891 94.2132 203.27 94.5298C203.612 94.8439 203.85 95.2559 203.95 95.7098C204.041 96.1067 204.041 96.5192 203.949 96.916C203.857 97.3128 203.676 97.6835 203.42 97.9998C203.057 98.432 202.612 98.7879 202.111 99.0471C201.61 99.3063 201.062 99.4636 200.5 99.5098C200.103 99.5772 199.697 99.5772 199.3 99.5098C199.684 99.4107 200.075 99.3405 200.47 99.2998C201.515 99.1352 202.462 98.5903 203.13 97.7698C203.342 97.4879 203.489 97.1617 203.558 96.8155C203.627 96.4692 203.618 96.1118 203.53 95.7698C203.437 95.3943 203.227 95.0581 202.931 94.81C202.634 94.5619 202.266 94.4147 201.88 94.3898C200.959 94.3572 200.041 94.5102 199.18 94.8398L196.18 95.6698C194.279 96.1409 192.411 96.739 190.59 97.4598C189.135 98.0863 187.85 99.0494 186.84 100.27C186.154 101.103 185.535 101.989 184.99 102.92C184.818 103.289 184.599 103.636 184.34 103.95Z" fill="#EB996E"/>
<path d="M196.23 94.9701C196.653 94.8328 197.083 94.7226 197.52 94.6401C198.687 94.4312 199.765 93.8814 200.62 93.0601C200.899 92.7867 201.116 92.4572 201.257 92.0934C201.399 91.7296 201.461 91.3398 201.44 90.9501C201.42 90.519 201.261 90.1059 200.987 89.7725C200.713 89.4391 200.339 89.2032 199.92 89.1001C198.898 89.1105 197.891 89.357 196.98 89.8201C195.98 90.1901 194.85 90.5401 193.74 90.9101C192.667 91.2521 191.616 91.6561 190.59 92.1201C189.723 92.6647 188.974 93.379 188.39 94.2201C187.78 95.0201 187.24 95.8201 186.7 96.5501C186.153 97.1658 185.67 97.836 185.26 98.5501C184.761 99.635 184.479 100.807 184.43 102C184.38 102.85 184.43 103.32 184.43 103.32C184.296 102.89 184.242 102.439 184.27 101.99C184.242 100.754 184.481 99.526 184.97 98.3901C185.14 98.0091 185.355 97.6499 185.61 97.3201C185.87 96.9801 186.13 96.6701 186.39 96.3201C186.91 95.5901 187.39 94.7801 188.05 93.9601C188.666 93.0504 189.467 92.2804 190.4 91.7001C191.445 91.2148 192.521 90.7973 193.62 90.4501L196.85 89.3701C197.839 88.8745 198.934 88.6307 200.04 88.6601C200.592 88.761 201.084 89.073 201.41 89.5301C201.706 89.9439 201.879 90.4325 201.91 90.9401C201.926 91.3886 201.845 91.8353 201.673 92.2496C201.5 92.6639 201.24 93.0359 200.91 93.3401C199.987 94.1849 198.822 94.7199 197.58 94.8701C197.137 94.9677 196.682 95.0014 196.23 94.9701Z" fill="#EB996E"/>
<path d="M260.4 152.76L260.17 152.4L259.52 151.32L257.08 147.15C254.95 143.49 251.9 138.22 248.08 131.69L248.31 131.76L220.16 145.01L220.28 144.72C223.48 153.91 227.37 163.88 232.02 174.05C237.02 184.99 242.34 195.14 247.45 204.23C250.01 208.77 252.45 213.08 254.85 217.04C256.944 220.778 259.711 224.097 263.01 226.83C264.488 227.959 266.14 228.84 267.9 229.44C269.499 229.948 271.162 230.227 272.84 230.27C275.509 230.376 278.168 229.895 280.63 228.86C282.188 228.211 283.599 227.256 284.78 226.05C285.59 225.23 285.92 224.71 285.95 224.73C285.98 224.75 285.87 224.86 285.7 225.1C285.445 225.453 285.164 225.788 284.86 226.1C283.693 227.347 282.28 228.337 280.71 229.01C278.228 230.093 275.537 230.612 272.83 230.53C271.132 230.487 269.449 230.204 267.83 229.69C266.031 229.092 264.342 228.203 262.83 227.06C259.63 224.67 256.95 221.15 254.52 217.21C252.09 213.27 249.64 208.94 247.07 204.4C241.94 195.38 236.58 185.27 231.59 174.27C226.93 164.08 223.05 154.09 219.87 144.87L219.79 144.67L219.99 144.57L248.2 131.43L248.35 131.36L248.43 131.51C252.16 138.07 255.16 143.37 257.25 147.05C258.25 148.87 259.06 150.28 259.61 151.27C259.87 151.74 260.07 152.1 260.21 152.37C260.291 152.491 260.354 152.622 260.4 152.76Z" fill="#263238"/>
<path d="M204.18 86.0201C203.657 86.147 203.108 86.1192 202.6 85.9401C201.334 85.6225 200.197 84.9245 199.34 83.9401C198.486 82.9584 197.958 81.7352 197.83 80.4401C197.718 79.9146 197.767 79.3676 197.97 78.8701C198.05 78.8701 197.97 79.4701 198.19 80.3901C198.416 81.5775 198.951 82.6846 199.74 83.6001C200.548 84.5173 201.583 85.2068 202.74 85.6001C203.228 85.7123 203.709 85.8525 204.18 86.0201Z" fill="#E0E0E0"/>
<path d="M221.23 80.6499C221.471 80.8884 221.679 81.1574 221.85 81.4499C222.22 81.9799 222.72 82.7699 223.29 83.7799C224.786 86.4016 226.019 89.1651 226.97 92.0299C227.922 94.8944 228.592 97.8451 228.97 100.84C229.11 101.99 229.19 102.92 229.21 103.57C229.252 103.902 229.252 104.238 229.21 104.57C229.12 104.57 228.99 103.15 228.62 100.88C228.13 97.9295 227.415 95.0209 226.48 92.1799C225.519 89.3488 224.346 86.5943 222.97 83.9399C221.91 81.9099 221.16 80.6999 221.23 80.6499Z" fill="#E0E0E0"/>
<path d="M206.17 89.33C205.627 89.4532 205.063 89.4532 204.52 89.33C201.856 88.9292 199.443 87.5316 197.77 85.42C197.391 85.0145 197.107 84.5293 196.94 84C198.126 85.3829 199.507 86.5855 201.04 87.57C202.654 88.4059 204.383 88.999 206.17 89.33Z" fill="#E0E0E0"/>
<path d="M233.98 333.2L268.27 348.75C268.27 348.75 277.76 352.25 280.27 351.68C283.06 351.04 287.6 349.32 286.19 340.86C284.78 332.4 268.52 322.11 268.52 322.11L233.98 333.2Z" fill="#E91E63"/>
<path d="M229.47 306.8L180.31 322.8C177.37 323.8 173.89 326.89 174.93 330.8L194.13 386.1C194.13 386.1 200.05 387.99 198.95 352.1L240.61 338.38L229.47 306.8Z" fill="#E91E63"/>
<path d="M198.89 369.15C198.82 369.34 196.59 368.02 193.58 368.08C190.57 368.14 188.37 369.51 188.3 369.32C188.704 368.947 189.18 368.661 189.7 368.48C190.918 367.924 192.232 367.612 193.57 367.56C194.908 367.54 196.237 367.799 197.47 368.32C197.992 368.502 198.475 368.784 198.89 369.15Z" fill="white"/>
<path d="M183.91 322.14C183.91 322.14 184.26 322.14 184.8 322.46C185.546 322.943 186.128 323.64 186.47 324.46C186.947 325.653 187.198 326.925 187.21 328.21C187.314 329.769 187.223 331.334 186.94 332.87C186.65 334.417 186.059 335.892 185.2 337.21C184.489 338.285 183.562 339.201 182.48 339.9C181.756 340.373 180.953 340.712 180.11 340.9C179.805 340.99 179.486 341.02 179.17 340.99C180.27 340.687 181.315 340.215 182.27 339.59C183.272 338.874 184.131 337.975 184.8 336.94C185.599 335.661 186.152 334.243 186.43 332.76C186.708 331.264 186.809 329.74 186.73 328.22C186.738 326.988 186.536 325.764 186.13 324.6C185.839 323.83 185.341 323.155 184.69 322.65C184.22 322.27 183.89 322.18 183.91 322.14Z" fill="white"/>
<path d="M213.47 347.68C213.202 347.337 212.974 346.964 212.79 346.57C212.38 345.84 211.79 344.77 211.11 343.45C209.72 340.8 207.87 337.1 205.93 332.97C203.99 328.84 202.32 325.05 201.16 322.29C200.58 320.92 200.16 319.79 199.82 319.01C199.641 318.614 199.5 318.202 199.4 317.78C199.64 318.143 199.844 318.528 200.01 318.93C200.4 319.79 200.9 320.86 201.5 322.15L206.4 332.75L211.4 343.28L212.93 346.48C213.149 346.861 213.33 347.263 213.47 347.68Z" fill="white"/>
<path d="M342.61 266.35C335.54 260.35 334.13 259.28 320.34 258.22C306.55 257.16 283.84 260.13 283.84 260.13C283.84 260.13 240.84 273.42 220.29 270.95C199.74 268.48 181 256.95 181 256.95C181 256.95 132.25 255.7 125.54 257.47C118.83 259.24 106.09 263.84 103.62 271.61C101.15 279.38 99.3702 288.61 106.44 297.42C113.51 306.23 149.13 322.53 149.13 322.53L182.64 322.01L204.95 315.01L219.6 346.12C219.6 346.12 323.17 313.35 327.76 313C332.35 312.65 352.84 300.27 352.84 293.93C352.84 287.59 349.68 272.36 342.61 266.35Z" fill="#263238"/>
<path d="M227.15 304.02L226.9 303.96L226.18 303.74L223.44 302.85C221.05 302.07 217.63 300.85 213.44 299.37C205 296.37 193.44 291.86 180.95 286.27C168.46 280.68 157.43 275.02 149.55 270.74C145.61 268.6 142.45 266.83 140.28 265.57L137.79 264.12L137.15 263.73C137.003 263.643 136.933 263.593 136.94 263.58L137.17 263.68L137.84 264.03L140.38 265.4C142.57 266.6 145.77 268.32 149.73 270.4C157.64 274.59 168.73 280.18 181.17 285.77C193.61 291.36 205.17 295.88 213.56 299C217.76 300.56 221.17 301.8 223.56 302.64L226.28 303.64L226.98 303.91C227.08 303.97 227.16 304.01 227.15 304.02Z" fill="#455A64"/>
<path d="M305.1 269.55C305.095 269.668 305.078 269.785 305.05 269.9C304.99 270.16 304.92 270.5 304.83 270.9C304.62 271.83 304.32 273.15 303.94 274.9H303.88C295.34 278.29 276.22 285.73 253.99 294.3C231.76 302.87 212.59 310.2 203.99 313.42L204.04 313.27L206.09 316.75L206.61 317.66C206.72 317.87 206.77 317.97 206.77 317.98C206.69 317.891 206.619 317.794 206.56 317.69L206 316.81L203.84 313.42L203.77 313.31L203.89 313.26C212.43 309.87 231.55 302.43 253.79 293.86C276.03 285.29 295.18 277.96 303.79 274.74L303.73 274.82C304.157 273.126 304.49 271.816 304.73 270.89L305 269.89C305.025 269.774 305.058 269.66 305.1 269.55Z" fill="#455A64"/>
<path d="M371.26 303.4L363.69 259L343.03 220L317.33 195.91L309.64 163.81L305.64 125.52L302.93 110.73C302.298 107.375 300.762 104.256 298.489 101.708C296.216 99.16 293.292 97.28 290.03 96.2701L261.98 87.5801C261.98 87.5801 262.55 94.5201 260.21 109.69C257.87 124.86 258.71 149.6 258.71 149.6C258.71 149.6 277.55 187.07 277.52 206.04C277.52 231.84 282.88 243.51 289.03 249.73C293.78 254.52 298.97 256.08 302.47 258.35C310.47 263.59 347.59 253.27 357.7 275.27C363.769 288.573 366.515 303.151 365.7 317.75L374.79 317.58L371.26 303.4Z" fill="#E91E63"/>
<path d="M187.49 70.52C187.49 70.52 184.3 79.1 184.59 86.43C184.72 89.89 182.69 92.78 180.73 95.36C178.37 98.48 174.42 102.78 170.33 109.82C168.98 112.15 168.96 115.35 167.74 118.52C162.74 131.52 178.48 156.2 177.98 157.73C177.48 159.26 147.89 209.73 153.58 231.31C159.27 252.89 150.74 258.31 150.74 258.31C150.74 258.31 133.4 260.31 121.02 259.31C108.64 258.31 77.2198 262.1 74.1998 284.41C71.1798 306.72 87.3098 322.41 87.3098 322.41H84.1898C84.1898 322.41 65.3998 303.96 67.8698 289.41C70.3398 274.86 78.0798 259.65 78.0798 259.65L105.62 248.27L123.34 246.27L121.34 217.18L126.03 190.44L147.76 136.77L157.76 114.51L161.76 103.91L178.26 90.91L183.46 75.28L187.49 70.52Z" fill="#E91E63"/>
<path d="M299.05 208.11C298.975 207.862 298.925 207.608 298.9 207.35C298.82 206.8 298.71 206.07 298.57 205.15C298.3 203.25 297.91 200.49 297.35 197.1C296.79 193.71 296.04 189.68 294.84 185.27C293.593 180.509 291.822 175.901 289.56 171.53C287.24 167.194 284.215 163.274 280.61 159.93C277.672 157.198 274.29 154.986 270.61 153.39C268.136 152.313 265.518 151.599 262.84 151.27C260.94 151.06 259.84 151.07 259.84 151.01C260.096 150.984 260.354 150.984 260.61 151.01C261.351 150.998 262.092 151.028 262.83 151.1C265.56 151.358 268.234 152.032 270.76 153.1C274.509 154.665 277.957 156.872 280.95 159.62C284.618 162.962 287.695 166.901 290.05 171.27C292.336 175.675 294.108 180.329 295.33 185.14C296.34 189.05 297.134 193.013 297.71 197.01C298.23 200.42 298.56 203.18 298.77 205.1L299.01 207.3C299.047 207.568 299.061 207.839 299.05 208.11Z" fill="#263238"/>
<path d="M303.04 169.6C303.04 169.6 302.71 168.93 302.12 167.72C301.279 166.03 300.306 164.408 299.21 162.87C295.615 157.747 290.649 153.74 284.881 151.31C279.113 148.88 272.777 148.124 266.6 149.13C264.731 149.417 262.888 149.855 261.09 150.44C260.436 150.693 259.769 150.907 259.09 151.08C259.24 150.982 259.401 150.901 259.57 150.84C259.9 150.7 260.37 150.47 261.01 150.25C262.794 149.58 264.64 149.085 266.52 148.77C272.775 147.644 279.222 148.357 285.079 150.822C290.937 153.288 295.953 157.4 299.52 162.66C300.606 164.235 301.54 165.909 302.31 167.66C302.6 168.27 302.76 168.77 302.89 169.1C302.962 169.259 303.013 169.428 303.04 169.6Z" fill="#263238"/>
<path d="M322.71 202.92C322.726 203.086 322.726 203.254 322.71 203.42C322.71 203.75 322.71 204.23 322.65 204.84C322.58 206.08 322.44 207.84 322.17 210.06C321.592 215.822 320.015 221.439 317.51 226.66C316.051 229.505 314.158 232.106 311.9 234.37C310.055 236.221 307.933 237.773 305.61 238.97C304.047 239.779 302.382 240.371 300.66 240.73C300.195 240.834 299.724 240.91 299.25 240.96C299.087 240.986 298.922 240.986 298.76 240.96C301.082 240.487 303.33 239.7 305.44 238.62C307.699 237.395 309.762 235.838 311.56 234C313.759 231.755 315.61 229.193 317.05 226.4C319.522 221.231 321.139 215.696 321.84 210.01C322.15 207.83 322.34 206.01 322.47 204.83C322.54 204.26 322.59 203.83 322.64 203.41C322.639 203.244 322.662 203.079 322.71 202.92Z" fill="#263238"/>
<path d="M367.54 274.41C367.49 274.41 367.37 273.47 366.97 271.81C366.377 269.465 365.462 267.213 364.25 265.12C362.444 262.021 360.136 259.243 357.42 256.9C354.098 254.026 350.333 251.71 346.27 250.04C342.182 248.423 337.93 247.256 333.59 246.56C329.59 245.88 325.94 245.56 322.88 245.33C319.82 245.1 317.33 245 315.61 244.9L313.61 244.79C313.378 244.784 313.147 244.757 312.92 244.71C313.153 244.684 313.387 244.684 313.62 244.71H315.62C317.34 244.71 319.83 244.81 322.9 244.98C326.507 245.16 330.102 245.53 333.67 246.09C338.053 246.77 342.346 247.937 346.47 249.57C350.588 251.264 354.396 253.629 357.74 256.57C360.477 258.962 362.787 261.802 364.57 264.97C365.767 267.102 366.64 269.401 367.16 271.79C367.311 272.449 367.417 273.117 367.48 273.79C367.521 273.994 367.542 274.202 367.54 274.41Z" fill="#263238"/>
<path d="M260.29 151.72C260.386 151.158 260.533 150.606 260.73 150.07C261.07 148.93 261.52 147.42 262.07 145.6C263.2 141.82 264.71 136.6 266.22 130.78C267.73 124.96 268.95 119.66 269.79 115.78C270.2 113.92 270.53 112.38 270.79 111.22C270.889 110.657 271.03 110.102 271.21 109.56C271.188 110.132 271.114 110.701 270.99 111.26C270.82 112.35 270.54 113.92 270.16 115.85C269.41 119.73 268.25 125.05 266.74 130.85C265.23 136.65 263.66 141.9 262.43 145.65C261.82 147.52 261.31 149.03 260.93 150.07C260.766 150.638 260.552 151.19 260.29 151.72Z" fill="#263238"/>
<path d="M142.71 239.17C142.675 239.1 142.648 239.026 142.63 238.95C142.63 238.78 142.52 238.57 142.45 238.31C142.31 237.73 142.04 236.9 141.82 235.8C141.137 232.701 140.679 229.556 140.45 226.39C139.697 215.888 141.366 205.354 145.33 195.6C149.357 185.876 155.567 177.209 163.48 170.27C165.86 168.166 168.398 166.247 171.07 164.53C172 163.9 172.77 163.53 173.27 163.18L173.86 162.85C173.99 162.78 174.06 162.74 174.07 162.75C174.014 162.809 173.95 162.859 173.88 162.9L173.33 163.27C172.84 163.61 172.09 164.04 171.18 164.7C164.684 169.125 158.97 174.6 154.27 180.9C147.365 190.12 142.921 200.947 141.36 212.36C140.284 220.146 140.507 228.057 142.02 235.77C142.21 236.87 142.44 237.71 142.55 238.29C142.55 238.56 142.65 238.77 142.68 238.95C142.702 239.021 142.712 239.096 142.71 239.17Z" fill="#263238"/>
<path d="M174.5 160.54C174.226 160.629 173.945 160.696 173.66 160.74C173.11 160.86 172.28 160.99 171.24 161.24C168.27 161.871 165.341 162.683 162.47 163.67C158.209 165.112 154.107 166.988 150.23 169.27C145.472 172.029 141.143 175.469 137.38 179.48C133.661 183.536 130.649 188.187 128.47 193.24C126.679 197.376 125.523 201.759 125.04 206.24C124.695 209.25 124.695 212.29 125.04 215.3C125.12 216.37 125.33 217.19 125.39 217.75C125.452 218.033 125.489 218.321 125.5 218.61C125.407 218.336 125.337 218.055 125.29 217.77C125.19 217.21 124.95 216.4 124.83 215.33C124.397 212.306 124.333 209.24 124.64 206.2C125.075 201.687 126.205 197.268 127.99 193.1C130.17 187.976 133.214 183.264 136.99 179.17C140.791 175.119 145.172 171.655 149.99 168.89C153.909 166.627 158.055 164.783 162.36 163.39C165.251 162.43 168.205 161.668 171.2 161.11C172.2 160.89 173.08 160.8 173.64 160.71C173.92 160.624 174.208 160.567 174.5 160.54Z" fill="#263238"/>
<path d="M147.1 167.61C146.46 167.271 145.889 166.813 145.42 166.26C144.219 164.984 143.293 163.473 142.701 161.823C142.11 160.173 141.864 158.419 141.98 156.67C141.984 155.943 142.137 155.225 142.43 154.56C142.51 154.56 142.36 155.39 142.35 156.69C142.32 160.1 143.508 163.409 145.7 166.02C146.195 166.525 146.662 167.055 147.1 167.61Z" fill="#263238"/>
<path d="M84.1899 254.58C84.3094 254.415 84.4433 254.261 84.5899 254.12L85.8099 252.88L86.6999 251.99C87.0299 251.68 87.4199 251.36 87.8199 250.99C88.6399 250.29 89.5299 249.45 90.6299 248.67L92.3299 247.4C92.9199 246.96 93.5799 246.57 94.2399 246.13C95.5499 245.22 97.0499 244.42 98.6099 243.54C102.047 241.743 105.638 240.257 109.34 239.1C113.066 238.009 116.88 237.249 120.74 236.83C122.52 236.7 124.21 236.53 125.81 236.56C126.6 236.56 127.37 236.56 128.11 236.56L130.22 236.67C131.58 236.67 132.78 236.91 133.85 237.04C134.38 237.11 134.85 237.16 135.33 237.23L136.56 237.48L138.26 237.84C138.463 237.865 138.662 237.919 138.85 238C138.645 237.994 138.442 237.974 138.24 237.94L136.53 237.68L135.29 237.48C134.84 237.42 134.34 237.38 133.81 237.33C132.75 237.23 131.55 237.06 130.2 237.04L128.1 236.96C127.37 236.96 126.6 236.96 125.81 236.96C124.23 236.96 122.56 237.13 120.81 237.28C116.987 237.716 113.21 238.482 109.52 239.57C105.84 240.732 102.267 242.207 98.8399 243.98C97.2899 244.84 95.8399 245.62 94.4899 246.51C93.8299 246.94 93.1599 247.32 92.5699 247.75L90.8399 248.99C89.7299 249.74 88.8399 250.56 87.9999 251.23C87.5899 251.57 87.1899 251.87 86.8499 252.23L85.9399 253.08C85.4099 253.55 84.9399 253.94 84.6599 254.25C84.5161 254.377 84.3584 254.488 84.1899 254.58Z" fill="#263238"/>
<path d="M161.19 131.59C161.128 131.395 161.085 131.194 161.06 130.99C160.958 130.421 160.885 129.847 160.84 129.27C160.656 127.083 160.72 124.883 161.03 122.71C161.72 117.2 164.34 109.82 168.81 102.64C170.97 99.0202 173.11 95.6402 174.75 92.3702C176.182 89.4806 177.467 86.5201 178.6 83.5002C179.6 80.9202 180.38 78.8302 180.97 77.4002C181.26 76.6802 181.5 76.1302 181.66 75.7602C181.737 75.566 181.831 75.3786 181.94 75.2002C181.908 75.4076 181.847 75.6095 181.76 75.8002C181.61 76.2302 181.41 76.8002 181.16 77.4702L178.94 83.6202C177.856 86.6881 176.6 89.6928 175.18 92.6202C173.55 95.9102 171.41 99.3202 169.25 102.94C164.81 110.08 162.18 117.35 161.4 122.79C161.06 124.936 160.939 127.11 161.04 129.28C161.1 130.74 161.25 131.59 161.19 131.59Z" fill="#263238"/>
<path d="M251.48 63.9599C251.625 63.952 251.771 63.9689 251.91 64.0099C252.316 64.0857 252.716 64.1858 253.11 64.3099C254.569 64.7749 255.954 65.4485 257.22 66.3099C260.48 68.3999 264.12 72.5099 266.83 77.7299C269.085 82.225 270.588 87.0589 271.28 92.0399C271.57 93.9399 271.72 95.4799 271.81 96.5499C271.877 97.1039 271.897 97.6625 271.87 98.2199C271.739 97.6807 271.649 97.1325 271.6 96.5799C271.46 95.5199 271.25 93.9799 270.92 92.0999C270.127 87.1868 268.593 82.4225 266.37 77.9699C263.69 72.8099 260.16 68.7399 257.01 66.6099C255.311 65.4519 253.447 64.5584 251.48 63.9599Z" fill="#263238"/>
<path d="M259.05 121.19C259.022 120.994 259.022 120.796 259.05 120.6C259.05 120.21 259.05 119.6 259.05 118.9C259.12 117.44 259.27 115.32 259.52 112.7C259.77 110.08 260.11 106.98 260.52 103.53C260.74 101.81 260.99 100.013 261.27 98.1398C261.587 96.234 261.698 94.2994 261.6 92.3698C261.396 88.9808 260.471 85.6744 258.886 82.6719C257.301 79.6694 255.093 77.0401 252.41 74.9598C250.775 73.705 248.905 72.7904 246.91 72.2698C245.5 71.9198 244.68 71.8798 244.69 71.8198C244.886 71.7977 245.084 71.7977 245.28 71.8198C245.845 71.8582 246.407 71.9384 246.96 72.0598C249.009 72.5208 250.94 73.4028 252.63 74.6498C255.404 76.7276 257.691 79.3864 259.33 82.4403C260.969 85.4942 261.922 88.8694 262.12 92.3298C262.223 94.2934 262.105 96.2623 261.77 98.1998C261.503 100.073 261.247 101.87 261 103.59C260.52 107.02 260.14 110.12 259.84 112.73C259.54 115.34 259.35 117.45 259.22 118.91L259.07 120.59C259.085 120.79 259.078 120.991 259.05 121.19Z" fill="#263238"/>
<path d="M179.66 159.04C179.61 158.976 179.563 158.909 179.52 158.84L179.14 158.24L177.74 155.88C176.55 153.83 174.81 150.88 172.92 147.03C170.65 142.585 168.917 137.885 167.76 133.03C166.318 127.031 166.411 120.764 168.03 114.81C168.502 113.248 169.108 111.729 169.84 110.27C170.558 108.883 171.37 107.546 172.27 106.27C174.02 103.74 175.93 101.48 177.65 99.2702C179.323 97.2164 180.815 95.0215 182.11 92.7102C183.236 90.7035 184.033 88.5292 184.47 86.2702C184.695 84.3784 184.812 82.4753 184.82 80.5702C184.928 79.1163 185.266 77.6887 185.82 76.3402C186.14 75.4715 186.625 74.6733 187.25 73.9902C187.466 73.7489 187.737 73.5636 188.04 73.4502C187.776 73.6239 187.535 73.8288 187.32 74.0602C186.751 74.7621 186.308 75.5572 186.01 76.4102C185.484 77.7471 185.167 79.1569 185.07 80.5902C185.11 82.4865 185.033 84.3834 184.84 86.2702C184.423 88.5761 183.632 90.7986 182.5 92.8502C181.212 95.197 179.72 97.4256 178.04 99.5102C176.32 101.73 174.42 103.99 172.7 106.51C170.875 109.061 169.483 111.896 168.58 114.9C166.982 120.781 166.879 126.969 168.28 132.9C169.4 137.745 171.077 142.443 173.28 146.9C175.12 150.73 176.81 153.73 177.95 155.81C178.5 156.81 178.95 157.63 179.26 158.21L179.6 158.85C179.64 158.96 179.67 159.03 179.66 159.04Z" fill="#263238"/>
<g opacity="0.3">
<path opacity="0.3" d="M171.2 163.9C161.431 167.54 152.955 173.987 146.84 182.43C140.765 190.881 136.848 200.689 135.43 211C135.18 212.73 135.34 215 137.01 215.52C137.556 215.621 138.12 215.547 138.621 215.308C139.122 215.069 139.535 214.678 139.8 214.19C140.3 213.202 140.599 212.124 140.68 211.02C142.15 201.455 145.676 192.322 151.016 184.251C156.356 176.181 163.382 169.363 171.61 164.27" fill="black"/>
</g>
<path d="M262.84 72.3199C261.404 72.5108 260.015 72.9615 258.74 73.6499C257.55 74.4768 256.517 75.5097 255.69 76.6999C255.63 76.6999 255.75 76.1799 256.18 75.4699C256.753 74.5452 257.538 73.7704 258.47 73.2099C259.395 72.6425 260.439 72.2999 261.52 72.2099C261.962 72.1247 262.419 72.1627 262.84 72.3199Z" fill="#FAFAFA"/>
<path d="M268.6 118.53C267.265 117.555 265.85 116.695 264.37 115.96C262.816 115.386 261.217 114.941 259.59 114.63C261.304 114.424 263.041 114.719 264.59 115.48C266.194 116.086 267.588 117.145 268.6 118.53Z" fill="#FAFAFA"/>
<path d="M303.44 113.19C303.39 113.19 303.24 112.74 302.79 112C302.145 110.957 301.299 110.052 300.3 109.34C298.823 108.283 297.145 107.538 295.37 107.15C293.177 106.688 290.955 106.374 288.72 106.21C283.95 105.72 279.63 105.21 276.51 104.89L272.82 104.43C272.364 104.393 271.911 104.313 271.47 104.19C271.926 104.144 272.385 104.144 272.84 104.19L276.55 104.49C279.68 104.76 284 105.17 288.77 105.66C291.029 105.82 293.273 106.155 295.48 106.66C297.309 107.082 299.029 107.883 300.53 109.01C301.538 109.776 302.367 110.752 302.96 111.87C303.123 112.17 303.256 112.485 303.36 112.81C303.409 112.931 303.437 113.059 303.44 113.19Z" fill="#FAFAFA"/>
<path d="M309.05 162.44C309.05 162.44 308.76 161.74 308.22 160.44C307.444 158.674 306.479 156.997 305.34 155.44C303.66 153.12 301.656 151.052 299.39 149.3C296.618 147.161 293.531 145.464 290.24 144.27C284.184 142.189 277.76 141.396 271.38 141.94C268.93 142.12 266.96 142.38 265.6 142.6L264.04 142.84C263.857 142.886 263.669 142.907 263.48 142.9C263.653 142.825 263.834 142.771 264.02 142.74C264.37 142.66 264.89 142.52 265.57 142.4C267.48 142.019 269.41 141.742 271.35 141.57C277.792 140.909 284.3 141.663 290.42 143.78C293.764 145.012 296.892 146.763 299.69 148.97C301.973 150.765 303.978 152.888 305.64 155.27C306.765 156.874 307.695 158.606 308.41 160.43C308.605 160.924 308.775 161.428 308.92 161.94C308.984 162.101 309.027 162.269 309.05 162.44Z" fill="#FAFAFA"/>
<path d="M303.33 240.27C303.286 240.1 303.269 239.925 303.28 239.75C303.28 239.35 303.28 238.86 303.23 238.26C303.18 237.66 303.18 236.83 303.13 235.91C303.08 234.99 303.02 233.91 302.93 232.8C302.59 228.2 301.77 221.87 300.61 214.92C299.45 207.97 298.24 201.7 297.41 197.15C296.99 194.88 296.67 193.03 296.46 191.76C296.36 191.17 296.29 190.68 296.23 190.29C296.195 190.119 296.179 189.945 296.18 189.77C296.255 189.928 296.305 190.097 296.33 190.27L296.66 191.72C296.94 193.06 297.31 194.87 297.77 197.08C298.7 201.61 299.96 207.87 301.13 214.84C302.168 220.777 302.889 226.766 303.29 232.78C303.37 233.94 303.41 234.98 303.42 235.9C303.43 236.82 303.42 237.61 303.42 238.26C303.42 238.91 303.42 239.35 303.42 239.75C303.418 239.927 303.387 240.103 303.33 240.27Z" fill="#FAFAFA"/>
<g opacity="0.3">
<path opacity="0.3" d="M298.89 203.65C298.99 206.34 299.76 208.92 300.17 211.58C300.58 214.24 302.17 217.15 304.82 217.47C307.06 217.74 309.16 215.94 309.92 213.81C310.535 211.622 310.556 209.309 309.98 207.11C308.11 197.5 303.57 188.65 298.87 180.11C294.73 172.56 290.33 164.97 283.97 159.18C277.61 153.39 268.91 149.56 260.42 150.98C260.42 150.98 273.08 151.37 281.08 159.23C289.08 167.09 298.72 199.19 298.89 203.65Z" fill="black"/>
</g>
<g opacity="0.3">
<path opacity="0.3" d="M261.49 149.27C268.33 129.05 274.49 105.27 270.07 87.1602C277.79 95.9902 279.46 109.81 276.56 120.75C273.66 131.69 266.56 141.48 260.42 150.98" fill="black"/>
</g>
<path d="M336.28 262.27C336.19 262.27 336.14 261.13 335.75 259.34C335.229 257.011 334.334 254.783 333.1 252.74C331.857 250.706 330.289 248.889 328.46 247.36C327.05 246.19 326.05 245.62 326.1 245.54C326.363 245.61 326.613 245.721 326.84 245.87C327.486 246.222 328.105 246.623 328.69 247.07C332.609 250.059 335.259 254.415 336.11 259.27C336.241 259.993 336.312 260.725 336.32 261.46C336.349 261.73 336.336 262.004 336.28 262.27Z" fill="#FAFAFA"/>
<path d="M371.42 284.97C371.508 285.588 371.45 286.219 371.25 286.81C370.883 288.273 370.2 289.639 369.25 290.81C368.291 291.976 367.085 292.915 365.72 293.56C365.174 293.858 364.571 294.036 363.95 294.08C364.47 293.766 365.008 293.483 365.56 293.23C366.812 292.517 367.926 291.586 368.85 290.48C369.764 289.367 370.465 288.096 370.92 286.73C371.054 286.135 371.221 285.547 371.42 284.97Z" fill="#FAFAFA"/>
<path d="M333.2 202.42C333.286 202.572 333.357 202.733 333.41 202.9C333.52 203.23 333.72 203.7 333.9 204.33C334.441 206.095 334.816 207.906 335.02 209.74C335.758 215.848 334.739 222.04 332.082 227.589C329.425 233.138 325.241 237.815 320.02 241.07C318.461 242.062 316.814 242.909 315.1 243.6C314.5 243.86 314.01 243.99 313.69 244.11C313.528 244.182 313.356 244.229 313.18 244.25C313.779 243.939 314.393 243.659 315.02 243.41C316.687 242.653 318.292 241.767 319.82 240.76C325.638 236.901 330.101 231.317 332.583 224.793C335.065 218.268 335.442 211.13 333.66 204.38C333.473 203.735 333.319 203.081 333.2 202.42Z" fill="#FAFAFA"/>
<g opacity="0.3">
<path opacity="0.3" d="M341.64 244.4C340.067 243.145 338.231 242.26 336.27 241.81C334.124 241.341 332.02 240.696 329.98 239.88C328.963 239.463 328.047 238.836 327.29 238.04C326.533 237.244 325.954 236.296 325.59 235.26C325.08 233.45 325.54 231.53 325.84 229.67C326.817 223.667 326.193 217.514 324.03 211.83C323.938 211.465 323.718 211.146 323.41 210.93C323.164 210.827 322.89 210.815 322.636 210.898C322.383 210.981 322.168 211.152 322.03 211.38C321.76 211.84 321.602 212.357 321.57 212.89C320.64 219.52 318.57 226.15 314.44 231.43C310.31 236.71 304.7 241.1 298 240.99L297.63 242.08C301.003 244.001 304.818 245.011 308.7 245.01C312.55 245.15 316.41 244.76 320.26 244.76C328.376 244.762 336.402 246.465 343.82 249.76C343.938 248.755 343.8 247.737 343.419 246.8C343.038 245.863 342.426 245.037 341.64 244.4Z" fill="black"/>
</g>
<path d="M127.27 260.34C127.17 260.34 127.01 258.82 126.34 256.45C125.937 255.066 125.436 253.713 124.84 252.4C124.096 250.803 123.22 249.271 122.22 247.82C121.192 246.398 120.052 245.06 118.81 243.82C117.781 242.814 116.681 241.881 115.52 241.03C113.52 239.59 112.13 238.92 112.18 238.83C112.529 238.929 112.865 239.07 113.18 239.25C113.566 239.422 113.94 239.619 114.3 239.84C114.72 240.1 115.22 240.36 115.73 240.73C116.941 241.55 118.082 242.47 119.14 243.48C121.745 245.966 123.832 248.943 125.28 252.24C125.868 253.577 126.34 254.962 126.69 256.38C126.838 256.923 126.954 257.474 127.04 258.03C127.125 258.446 127.185 258.867 127.22 259.29C127.272 259.637 127.289 259.989 127.27 260.34Z" fill="#FAFAFA"/>
<path d="M153.33 220.17C152.661 220.414 151.951 220.526 151.24 220.5C147.765 220.601 144.374 219.423 141.71 217.19C141.135 216.77 140.648 216.239 140.28 215.63C142.038 217.226 144.099 218.451 146.342 219.231C148.584 220.011 150.961 220.33 153.33 220.17Z" fill="#FAFAFA"/>
<path d="M144.61 196.12C144.53 196.12 144.07 195.32 143.02 194.22C142.418 193.576 141.747 192.999 141.02 192.5C140.112 191.901 139.139 191.408 138.12 191.03C137.093 190.675 136.03 190.437 134.95 190.32C134.069 190.223 133.181 190.223 132.3 190.32C130.79 190.5 129.89 190.87 129.86 190.77C129.83 190.67 130.06 190.63 130.46 190.46C131.033 190.226 131.63 190.055 132.24 189.95C133.147 189.788 134.071 189.737 134.99 189.8C136.118 189.894 137.23 190.129 138.3 190.5C139.363 190.889 140.371 191.413 141.3 192.06C142.04 192.601 142.711 193.228 143.3 193.93C143.688 194.398 144.024 194.908 144.3 195.45C144.55 195.88 144.65 196.1 144.61 196.12Z" fill="#FAFAFA"/>
<path d="M124.77 211.13C122.972 210.946 121.158 210.986 119.37 211.25C117.625 211.699 115.944 212.372 114.37 213.25C114.711 212.832 115.137 212.491 115.62 212.25C116.749 211.558 117.992 211.07 119.29 210.81C120.588 210.546 121.923 210.519 123.23 210.73C123.766 210.751 124.292 210.887 124.77 211.13Z" fill="#FAFAFA"/>
<path d="M144.84 171.05C144.243 171.177 143.627 171.177 143.03 171.05C140.087 170.663 137.377 169.246 135.38 167.05C134.948 166.627 134.607 166.12 134.38 165.56C137.079 168.606 140.8 170.559 144.84 171.05Z" fill="#FAFAFA"/>
<path d="M164.78 167.63C164.65 167.7 164 166.57 162.78 165.63C161.56 164.69 160.3 164.34 160.34 164.19C161.342 164.248 162.303 164.606 163.098 165.218C163.893 165.83 164.486 166.667 164.8 167.62L164.78 167.63Z" fill="#FAFAFA"/>
<path d="M176.02 160.39C175.864 160.412 175.706 160.412 175.55 160.39C175.24 160.39 174.78 160.33 174.21 160.22C172.568 159.961 170.954 159.546 169.39 158.98C164.165 157.136 159.598 153.794 156.26 149.372C152.922 144.949 150.961 139.641 150.62 134.11C150.499 132.443 150.539 130.769 150.74 129.11C150.8 128.52 150.9 128.11 150.95 127.77C150.967 127.612 151.007 127.457 151.07 127.31C151.057 127.919 151.014 128.526 150.94 129.13C150.811 130.768 150.811 132.413 150.94 134.05C151.376 139.48 153.351 144.673 156.633 149.021C159.915 153.369 164.368 156.692 169.47 158.6C171.007 159.19 172.589 159.655 174.2 159.99C175.38 160.27 176.03 160.35 176.02 160.39Z" fill="#FAFAFA"/>
<path d="M167.22 115.55C167.22 115.6 166.85 115.46 166.43 115.05C165.876 114.497 165.479 113.807 165.28 113.05C165.062 112.309 165.035 111.525 165.2 110.77C165.35 110.2 165.56 109.9 165.61 109.92C165.522 110.923 165.58 111.933 165.78 112.92C166.128 113.863 166.613 114.749 167.22 115.55Z" fill="#FAFAFA"/>
<path d="M182.96 89.6902C182.96 89.7402 182.55 89.9702 181.78 90.0002C180.769 89.9947 179.786 89.6641 178.978 89.0572C178.169 88.4503 177.577 87.5994 177.29 86.6302C177.153 86.2349 177.153 85.8054 177.29 85.4102C177.38 85.4102 177.42 85.8602 177.68 86.5202C178.031 87.3617 178.601 88.0939 179.331 88.6407C180.061 89.1876 180.923 89.5292 181.83 89.6302C182.49 89.7002 182.94 89.6002 182.96 89.6902Z" fill="#FAFAFA"/>
<path d="M81.3201 271.02C80.7829 270.929 80.2792 270.698 79.8601 270.35C78.7721 269.607 77.88 268.612 77.2601 267.45C76.631 266.291 76.2881 264.998 76.2601 263.68C76.213 263.137 76.2988 262.592 76.5101 262.09C76.5946 262.609 76.6348 263.134 76.6301 263.66C76.7561 264.899 77.123 266.101 77.7101 267.2C78.3 268.3 79.1021 269.272 80.0701 270.06C80.8401 270.66 81.3601 270.94 81.3201 271.02Z" fill="#FAFAFA"/>
<path d="M73.42 297.52C72.2091 297.664 70.9828 297.441 69.9 296.88C68.746 296.479 67.7369 295.745 67 294.77C67.1 294.66 68.34 295.65 70.1 296.4C71.86 297.15 73.43 297.37 73.42 297.52Z" fill="#FAFAFA"/>
<path d="M227.97 0C227.165 2.33664 226.566 4.73911 226.18 7.18C225.97 9.64553 225.97 12.1245 226.18 14.59C225.902 13.9037 225.734 13.1783 225.68 12.44C225.456 10.6737 225.456 8.88628 225.68 7.12C225.897 5.35265 226.334 3.61928 226.98 1.96C227.201 1.25701 227.535 0.594918 227.97 0Z" fill="#263238"/>
<path d="M235.92 5.77979C233.838 6.87216 231.875 8.17568 230.06 9.66978C228.364 11.2978 226.845 13.1012 225.53 15.0498C225.72 14.3712 226.028 13.7315 226.44 13.1598C228.251 10.2604 230.853 7.9392 233.94 6.46978C234.559 6.13621 235.227 5.9033 235.92 5.77979Z" fill="#263238"/>
<path d="M189.3 3.53007C188.652 3.09059 187.882 2.86663 187.1 2.89007C186.19 2.94193 185.318 3.26983 184.6 3.83006C184.121 4.17425 183.728 4.62374 183.451 5.14388C183.173 5.66401 183.019 6.24089 183 6.83006C183.002 8.28847 183.568 9.6895 184.58 10.7401C185.135 11.3217 185.793 11.7963 186.52 12.1401C187.306 12.4884 188.144 12.7047 189 12.7801C190.861 12.8959 192.722 12.5525 194.42 11.7801C196.251 10.9535 197.996 9.94866 199.63 8.78007C201.286 7.57538 203.027 6.49253 204.84 5.54006C206.562 4.65454 208.455 4.15302 210.39 4.07007C212.126 4.02147 213.861 4.22355 215.54 4.67007C217.009 5.0155 218.439 5.50798 219.81 6.14007C220.954 6.67408 221.963 7.46042 222.76 8.44007C223.352 9.18805 223.751 10.0709 223.92 11.0101C224.024 11.6044 224.004 12.214 223.86 12.8001C223.816 13.0002 223.742 13.1925 223.64 13.3701C223.842 12.6128 223.87 11.8194 223.72 11.0501C223.522 10.1569 223.114 9.32388 222.53 8.62007C221.743 7.69965 220.758 6.96824 219.65 6.48007C218.298 5.87389 216.887 5.40811 215.44 5.09007C213.807 4.67542 212.124 4.49031 210.44 4.54006C208.573 4.64361 206.75 5.14119 205.09 6.00007C203.3 6.94316 201.582 8.01603 199.95 9.21007C198.288 10.4151 196.509 11.4503 194.64 12.3001C192.863 13.0913 190.92 13.4346 188.98 13.3001C188.074 13.2127 187.189 12.9762 186.36 12.6001C185.582 12.2263 184.882 11.7069 184.3 11.0701C183.219 9.93814 182.629 8.42483 182.66 6.86006C182.687 6.17629 182.883 5.50985 183.23 4.92007C183.543 4.40459 183.958 3.95873 184.45 3.61006C185.227 3.03563 186.164 2.71756 187.13 2.70007C187.734 2.68622 188.33 2.84212 188.85 3.15006C188.982 3.23153 189.106 3.32529 189.22 3.43007C189.27 3.49007 189.31 3.52007 189.3 3.53007Z" fill="#263238"/>
<path d="M183.84 47.27C183.84 47.21 184.47 47.36 185.59 47.41C187.17 47.4571 188.747 47.2477 190.26 46.79C192.501 46.0812 194.615 45.0177 196.52 43.64C198.826 41.9094 200.999 40.0073 203.02 37.95C205.058 35.8683 207.248 33.9397 209.57 32.18C211.5 30.7645 213.648 29.6735 215.93 28.95C217.475 28.4685 219.093 28.2587 220.71 28.33C221.146 28.3581 221.581 28.4149 222.01 28.5C222.162 28.5162 222.311 28.5567 222.45 28.62C220.289 28.3994 218.106 28.631 216.04 29.3C213.82 30.0639 211.732 31.167 209.85 32.57C207.564 34.3367 205.403 36.2579 203.38 38.32C201.345 40.4022 199.141 42.3121 196.79 44.03C194.839 45.425 192.665 46.4768 190.36 47.14C188.804 47.5825 187.182 47.7417 185.57 47.61C185.135 47.5719 184.704 47.5017 184.28 47.4C184.129 47.3722 183.982 47.3286 183.84 47.27Z" fill="#263238"/>
<path d="M244.38 20.01C243.926 19.118 243.415 18.2562 242.85 17.43C241.429 15.4769 239.371 14.08 237.032 13.4795C234.692 12.8791 232.216 13.1126 230.03 14.14C229.134 14.5897 228.269 15.0974 227.44 15.66C227.44 15.66 227.61 15.41 228 15.05C228.571 14.5604 229.199 14.1408 229.87 13.8C232.123 12.6473 234.722 12.364 237.171 13.0039C239.62 13.6438 241.748 15.1622 243.15 17.27C243.567 17.8916 243.903 18.5636 244.15 19.27C244.272 19.5001 244.35 19.7511 244.38 20.01Z" fill="#263238"/>
<path d="M306 116.15C305.911 115.702 305.874 115.246 305.89 114.79C305.89 113.79 305.82 112.58 305.78 111.1C305.74 109.62 305.71 107.65 305.68 105.62C305.696 104.552 305.619 103.484 305.45 102.43C305.378 101.884 305.194 101.359 304.911 100.888C304.627 100.416 304.249 100.008 303.8 99.6898C303.289 99.3667 302.816 98.9877 302.39 98.5598C301.963 98.0799 301.744 97.4508 301.78 96.8098C301.78 96.2098 301.91 95.6698 301.89 95.1698C301.89 94.938 301.843 94.7085 301.752 94.4953C301.661 94.2822 301.528 94.0898 301.36 93.9298C300.546 93.414 299.698 92.9562 298.82 92.5598C298.108 92.0232 297.55 91.3095 297.2 90.4898C296.924 89.8615 296.561 89.2756 296.12 88.7498C295.767 88.3771 295.327 88.0986 294.84 87.9398C294.417 87.8221 293.966 87.8612 293.57 88.0498C293.742 87.8845 293.955 87.7685 294.187 87.7139C294.42 87.6594 294.662 87.6683 294.89 87.7398C295.429 87.8756 295.922 88.1516 296.32 88.5398C296.814 89.0637 297.22 89.6649 297.52 90.3198C297.863 91.0655 298.394 91.7097 299.06 92.1898C299.968 92.58 300.844 93.0414 301.68 93.5698C301.899 93.7714 302.075 94.0154 302.197 94.287C302.319 94.5586 302.385 94.8521 302.39 95.1498C302.39 95.7298 302.3 96.2798 302.29 96.8098C302.272 97.0649 302.306 97.3209 302.388 97.563C302.471 97.805 302.6 98.0283 302.77 98.2198C303.181 98.6123 303.63 98.964 304.11 99.2698C304.629 99.6283 305.06 100.1 305.37 100.65C305.652 101.179 305.847 101.749 305.95 102.34C306.121 103.418 306.191 104.509 306.16 105.6C306.16 107.6 306.16 109.5 306.16 111.1C306.16 112.7 306.16 113.82 306.11 114.8C306.111 115.252 306.074 115.704 306 116.15Z" fill="#263238"/>
<path d="M309.68 120.86C309.447 120.57 309.293 120.226 309.23 119.86C308.993 118.874 308.993 117.846 309.23 116.86C309.47 115.62 310.07 114.23 310.5 112.68C310.93 111.13 311.16 109.23 310.03 107.76C309.76 107.39 309.45 107.02 309.2 106.61C308.94 106.187 308.777 105.713 308.72 105.22C308.712 104.342 308.785 103.465 308.94 102.6C309.053 101.185 308.679 99.7734 307.88 98.6001C307.342 97.796 306.64 97.1145 305.82 96.6001C305.497 96.4454 305.183 96.2718 304.88 96.0801C305.232 96.133 305.571 96.2517 305.88 96.4301C306.782 96.8848 307.56 97.5503 308.15 98.3701C309.052 99.5957 309.492 101.101 309.39 102.62C309.253 103.453 309.189 104.296 309.2 105.14C309.376 106.008 309.8 106.807 310.42 107.44C311.003 108.231 311.318 109.188 311.32 110.17C311.326 111.058 311.198 111.941 310.94 112.79C310.46 114.39 309.83 115.73 309.56 116.93C309.289 117.855 309.221 118.827 309.36 119.78C309.55 120.49 309.73 120.84 309.68 120.86Z" fill="#263238"/>
<path d="M130.53 145.04C130.53 145.04 130.53 144.91 130.53 144.64C130.547 144.258 130.584 143.878 130.64 143.5C130.85 142.104 131.216 140.735 131.73 139.42C132.36 137.74 133.23 135.83 134.27 133.7C134.812 132.566 135.546 131.534 136.44 130.65C137.38 129.76 138.54 129.03 138.93 127.82C139.32 126.61 139.15 125.19 139.68 123.94C140.193 122.806 140.819 121.727 141.55 120.72C142.84 118.78 144.01 117.03 145 115.52L147.37 112.05C147.644 111.614 147.952 111.199 148.29 110.81C148.079 111.281 147.828 111.733 147.54 112.16L145.31 115.73L141.96 120.98C141.255 121.963 140.652 123.015 140.16 124.12C139.67 125.25 139.86 126.59 139.43 127.98C139 129.37 137.66 130.18 136.79 130.98C135.931 131.823 135.224 132.807 134.7 133.89C133.65 135.97 132.7 137.89 132.07 139.51C131.538 140.803 131.127 142.142 130.84 143.51C130.62 144.5 130.57 145.05 130.53 145.04Z" fill="#263238"/>
<path d="M107.84 225.27C108.053 225.268 108.263 225.218 108.453 225.122C108.644 225.027 108.81 224.889 108.94 224.72C109.237 224.327 109.389 223.843 109.37 223.35C109.278 222.691 109.017 222.067 108.61 221.54C108.089 220.872 107.633 220.155 107.25 219.4C106.839 218.501 106.592 217.536 106.52 216.55C106.44 215.455 106.572 214.355 106.91 213.31C107.295 212.211 107.882 211.194 108.64 210.31C108.993 209.876 109.295 209.403 109.54 208.9C109.756 208.415 109.872 207.891 109.88 207.36C109.845 206.319 109.708 205.284 109.47 204.27C109.276 203.302 109.246 202.308 109.38 201.33C109.509 200.482 109.769 199.659 110.15 198.89C110.687 197.776 111.478 196.803 112.46 196.05C112.718 195.84 112.996 195.655 113.29 195.5C113.5 195.4 113.61 195.35 113.62 195.37C113.63 195.39 113.22 195.65 112.62 196.2C111.721 196.988 111.001 197.96 110.51 199.05C109.772 200.655 109.582 202.457 109.97 204.18C110.229 205.228 110.38 206.301 110.42 207.38C110.415 207.976 110.289 208.564 110.05 209.11C109.772 209.648 109.437 210.154 109.05 210.62C108.32 211.46 107.757 212.43 107.39 213.48C107.069 214.446 106.933 215.464 106.99 216.48C107.044 217.41 107.261 218.324 107.63 219.18C107.991 219.924 108.419 220.634 108.91 221.3C109.336 221.886 109.592 222.578 109.65 223.3C109.654 223.857 109.451 224.395 109.08 224.81C108.853 225.081 108.531 225.253 108.18 225.29C108.067 225.314 107.949 225.307 107.84 225.27Z" fill="#263238"/>
<path d="M342.84 196.27C342.78 196.27 342.9 195.73 342.78 194.77C342.587 193.424 341.967 192.176 341.01 191.21C340.357 190.552 339.554 190.061 338.67 189.78C338.154 189.614 337.65 189.413 337.16 189.18C336.609 188.913 336.15 188.488 335.84 187.96C335.24 186.79 335.53 185.47 335.53 184.27C335.566 183.67 335.46 183.071 335.22 182.52C334.933 181.983 334.476 181.558 333.92 181.31C331.58 180.23 328.84 181.31 326.55 180.25C325.996 179.997 325.517 179.604 325.16 179.11C324.847 178.642 324.636 178.114 324.54 177.56C324.402 176.606 324.349 175.643 324.38 174.68C324.394 173.913 324.255 173.152 323.97 172.44C323.728 171.914 323.334 171.472 322.84 171.17C322.413 170.925 321.921 170.817 321.43 170.86C321.674 170.758 321.938 170.717 322.201 170.74C322.464 170.763 322.718 170.848 322.94 170.99C323.493 171.282 323.941 171.74 324.22 172.3C324.551 173.039 324.725 173.84 324.73 174.65C324.732 175.591 324.806 176.53 324.95 177.46C325.029 177.968 325.235 178.449 325.547 178.858C325.86 179.266 326.27 179.59 326.74 179.8C327.849 180.193 329.027 180.35 330.2 180.26C331.54 180.142 332.889 180.337 334.14 180.83C334.796 181.127 335.334 181.633 335.67 182.27C335.954 182.896 336.077 183.584 336.03 184.27C336.03 185.55 335.76 186.78 336.26 187.73C336.76 188.68 337.86 189.01 338.81 189.38C339.744 189.698 340.588 190.236 341.27 190.95C342.247 191.99 342.846 193.328 342.97 194.75C343 195.13 342.983 195.513 342.92 195.89C342.915 196.02 342.888 196.149 342.84 196.27Z" fill="#263238"/>
<path d="M257.65 221.53C249.65 211.87 244.65 199.63 235.91 183.75C235.91 183.75 219.38 255.56 240.46 257.25C250.24 258.04 255.97 251.86 252.83 234.57C250.74 223.05 257.65 221.53 257.65 221.53Z" fill="#E91E63"/>
<path d="M245.26 200.74C245.289 200.919 245.289 201.101 245.26 201.28C245.2 201.69 245.13 202.2 245.05 202.82L244.25 208.46C243.61 213.22 242.81 219.82 242.25 227.14C241.69 234.46 241.44 241.14 242.37 245.84C242.692 247.704 243.243 249.521 244.01 251.25C244.55 252.47 245.01 253.1 244.92 253.13C244.792 252.996 244.685 252.845 244.6 252.68C244.312 252.249 244.055 251.798 243.83 251.33C242.976 249.616 242.364 247.792 242.01 245.91C241.01 241.15 241.21 234.42 241.73 227.1C242.25 219.78 243.14 213.16 243.87 208.4C244.23 206.02 244.58 204.11 244.87 202.78C244.99 202.17 245.09 201.67 245.18 201.26C245.188 201.085 245.215 200.91 245.26 200.74Z" fill="#263238"/>
<path d="M242.39 246.9C240.791 247.794 239.02 248.34 237.195 248.502C235.37 248.664 233.532 248.438 231.8 247.84C233.578 248.004 235.365 248.05 237.15 247.98C238.919 247.739 240.67 247.378 242.39 246.9Z" fill="#FAFAFA"/>
<path d="M253.15 224.46C253.09 224.6 250.76 223.63 247.74 223.01C244.72 222.39 242.2 222.34 242.2 222.19C244.086 221.925 246.005 222.031 247.85 222.5C249.728 222.8 251.529 223.466 253.15 224.46Z" fill="#FAFAFA"/>
<path d="M244.23 200.56C242.747 199.42 241.175 198.4 239.53 197.51C237.808 196.774 236.029 196.179 234.21 195.73C236.127 195.762 238.015 196.211 239.741 197.045C241.468 197.879 242.993 199.078 244.21 200.56H244.23Z" fill="#FAFAFA"/>
<g opacity="0.3">
<path opacity="0.3" d="M245.15 201.35C245.15 201.35 236.84 253.13 247.15 254.43C247.15 254.43 250.25 255.43 251.99 249.59C253.73 243.75 251.5 236.84 250.99 232.96C250.786 231.322 250.914 229.66 251.366 228.073C251.817 226.485 252.584 225.005 253.62 223.72C254.618 222.415 256.071 221.533 257.69 221.25C257.48 221.6 245.26 201.56 245.15 201.35Z" fill="black"/>
</g>
<path d="M197.63 67.88C197.63 68.59 195.89 69.24 193.68 69.06C191.47 68.88 189.84 67.97 189.96 67.27C190.08 66.57 191.84 66.27 193.88 66.47C195.92 66.67 197.61 67.16 197.63 67.88Z" fill="#EB996E"/>
<path d="M229.68 63.38C230 64 227.18 66.07 223.14 67.38C219.1 68.69 215.6 68.62 215.5 67.92C215.4 67.22 218.5 66.12 222.35 64.92C226.2 63.72 229.35 62.72 229.68 63.38Z" fill="#EB996E"/>
<path d="M372.79 132.14C372.806 131.982 372.832 131.825 372.87 131.67C372.94 131.33 373.03 130.87 373.16 130.29C373.43 129.05 373.83 127.29 374.33 124.99C375.38 120.37 376.88 113.72 378.74 105.51L393.52 41.1102L393.78 39.9702L394.04 41.1102L394.36 42.5402C400.11 68.0902 405.36 91.2102 409.09 107.97C410.95 116.33 412.45 123.1 413.5 127.81C414 130.13 414.4 131.95 414.67 133.21C414.79 133.81 414.89 134.28 414.96 134.62C415.03 134.96 415.04 135.1 415.04 135.1C415.04 135.1 414.99 134.94 414.91 134.63C414.83 134.32 414.71 133.83 414.56 133.23C414.27 131.98 413.84 130.17 413.3 127.85C412.21 123.15 410.65 116.39 408.73 108.05C404.91 91.3002 399.65 68.1902 393.84 42.6602L393.52 41.2302H394C388.16 66.4102 382.88 89.1302 379.06 105.59C377.14 113.79 375.57 120.42 374.49 125.03C373.94 127.31 373.49 129.08 373.22 130.31C373.08 130.89 372.96 131.31 372.88 131.68C372.8 132.05 372.79 132.14 372.79 132.14Z" fill="#263238"/>
<path d="M372.77 151.27V135.1H415.91V151.27C415.907 156.261 413.924 161.046 410.395 164.575C406.866 168.104 402.081 170.087 397.09 170.09H391.6C386.608 170.09 381.82 168.108 378.289 164.578C374.758 161.049 372.773 156.262 372.77 151.27Z" fill="#455A64"/>
<path d="M372.77 135.1C372.958 135.308 373.123 135.536 373.26 135.78L374.58 137.78L379.33 145.2L394.85 169.77L394.96 169.95H394.5L409.55 145.24L414.16 137.79L415.43 135.79C415.567 135.548 415.728 135.32 415.91 135.11C415.797 135.365 415.667 135.612 415.52 135.85L414.33 137.91L409.87 145.45C406.03 151.82 400.77 160.57 394.96 170.23L394.74 170.6L394.51 170.24L394.4 170.06L379 145.4C377.08 142.26 375.51 139.71 374.39 137.89L373.16 135.83C373.016 135.594 372.886 135.351 372.77 135.1Z" fill="#263238"/>
<path d="M398.62 41C398.62 41.9316 398.344 42.8422 397.826 43.6168C397.309 44.3913 396.573 44.995 395.713 45.3515C394.852 45.708 393.905 45.8013 392.991 45.6195C392.078 45.4378 391.238 44.9892 390.58 44.3305C389.921 43.6718 389.472 42.8326 389.291 41.9189C389.109 41.0053 389.202 40.0582 389.559 39.1976C389.915 38.337 390.519 37.6014 391.293 37.0838C392.068 36.5663 392.979 36.29 393.91 36.29C395.159 36.29 396.357 36.7863 397.241 37.6696C398.124 38.5529 398.62 39.7509 398.62 41Z" fill="#263238"/>
<path d="M396.36 171.84C396.36 172.235 396.243 172.622 396.023 172.951C395.804 173.28 395.491 173.536 395.126 173.688C394.76 173.839 394.358 173.879 393.97 173.801C393.582 173.724 393.226 173.534 392.946 173.254C392.666 172.974 392.476 172.618 392.399 172.23C392.322 171.842 392.361 171.44 392.513 171.074C392.664 170.709 392.92 170.397 393.249 170.177C393.578 169.957 393.965 169.84 394.36 169.84C394.891 169.84 395.399 170.051 395.775 170.426C396.15 170.801 396.36 171.309 396.36 171.84Z" fill="#263238"/>
<path d="M393.45 172.6L393.77 172.44C393.207 172.808 392.734 173.299 392.388 173.875C392.041 174.452 391.83 175.1 391.77 175.77C391.651 177.113 391.766 178.467 392.11 179.77C392.2 180.19 392.42 180.71 392.85 180.68C393.28 180.65 393.42 180.2 393.48 179.82C393.618 179.021 393.642 178.206 393.55 177.4C393.505 178.432 393.835 179.444 394.48 180.25C394.61 180.41 394.79 180.57 394.98 180.52C395.17 180.47 395.25 180.26 395.29 180.07C395.469 179.394 395.573 178.699 395.6 178C395.649 178.613 395.871 179.199 396.24 179.69C396.338 179.805 396.458 179.899 396.592 179.966C396.727 180.034 396.874 180.073 397.024 180.082C397.174 180.092 397.325 180.071 397.467 180.021C397.609 179.97 397.739 179.892 397.85 179.79C398.058 179.434 398.119 179.011 398.02 178.61C397.676 176.195 396.703 173.912 395.2 171.99" fill="#263238"/>
<path d="M375.49 135.1C375.49 135.1 356.11 112.76 358.26 112C360.41 111.24 377.64 123.58 377.64 123.58C377.64 123.58 362.84 90.4198 365.8 87.9998C368.76 85.5798 384.37 117.34 384.37 117.34C384.37 117.34 381.95 71.0398 384.37 70.5098C386.79 69.9798 395.67 116.8 395.67 116.8C395.67 116.8 408.86 73.9998 412.67 73.9998C416.48 73.9998 408.67 115.18 408.67 115.18C408.67 115.18 424.28 88.8098 426.67 92.3098C429.06 95.8098 415.67 124.31 415.67 124.31C415.67 124.31 435.32 107.9 436.13 110.05C436.94 112.2 414.86 135.05 414.86 135.05L375.49 135.1Z" fill="#E91E63"/>
<path d="M372.79 101.46C372.92 101.4 376.36 108.77 380.46 117.91C384.56 127.05 387.79 134.53 387.65 134.59C387.51 134.65 384.08 127.28 379.98 118.13C375.88 108.98 372.65 101.52 372.79 101.46Z" fill="#263238"/>
<path d="M388.44 105.57C388.59 105.57 389.16 112.06 389.72 120.08C390.28 128.1 390.61 134.61 390.46 134.62C390.31 134.63 389.74 128.14 389.18 120.12C388.62 112.1 388.29 105.58 388.44 105.57Z" fill="#263238"/>
<path d="M410 84.8398C409.99 85.0209 409.953 85.1995 409.89 85.3699C409.77 85.7599 409.63 86.2498 409.46 86.8398C409.06 88.1898 408.51 90.0099 407.84 92.2299C406.48 96.7799 404.64 103.09 402.77 110.1C400.9 117.11 399.35 123.49 398.27 128.1C397.74 130.35 397.27 132.21 396.99 133.58L396.62 135.07C396.589 135.246 396.535 135.417 396.46 135.58C396.453 135.401 396.474 135.222 396.52 135.05C396.59 134.64 396.68 134.14 396.78 133.54C397.02 132.23 397.4 130.34 397.9 128.01C398.9 123.36 400.38 117.01 402.25 109.94C404.12 102.87 406.02 96.6298 407.48 92.0998C408.21 89.8398 408.82 88.0098 409.27 86.7498C409.48 86.1798 409.65 85.7498 409.79 85.3098C409.847 85.1475 409.917 84.9902 410 84.8398Z" fill="#263238"/>
<path d="M419.37 108.7C419.49 108.79 415.71 114.43 410.92 121.3C406.13 128.17 402.16 133.68 402.04 133.59C401.92 133.5 405.7 127.87 410.49 120.99C415.28 114.11 419.25 108.62 419.37 108.7Z" fill="#263238"/>
<path d="M382 134.63C381.38 134.304 380.808 133.894 380.3 133.41C379.014 132.343 377.786 131.208 376.62 130.01C375.449 128.814 374.344 127.556 373.31 126.24C372.838 125.724 372.444 125.141 372.14 124.51C372.26 124.42 374.27 126.86 377 129.64C379.73 132.42 382.13 134.5 382 134.63Z" fill="#263238"/>
<path d="M393.8 125.75C394.197 127.257 394.429 128.803 394.49 130.36C394.719 131.899 394.77 133.459 394.64 135.01C394.244 133.507 394.016 131.964 393.96 130.41C393.726 128.868 393.672 127.304 393.8 125.75Z" fill="#263238"/>
<path d="M415.91 145.17C415.365 145.334 414.806 145.451 414.24 145.52C413.16 145.71 411.6 145.95 409.66 146.22C404.607 146.932 399.52 147.386 394.42 147.58C389.311 147.769 384.196 147.555 379.12 146.94C377.18 146.69 375.61 146.43 374.54 146.2C373.978 146.109 373.424 145.979 372.88 145.81C373.448 145.822 374.014 145.886 374.57 146C375.65 146.16 377.22 146.36 379.16 146.56C384.224 147.065 389.315 147.226 394.4 147.04C400.4 146.84 405.73 146.29 409.61 145.85L414.21 145.31C414.773 145.224 415.341 145.177 415.91 145.17Z" fill="white"/>
<path d="M415.91 150C415.362 150.151 414.804 150.264 414.24 150.34C413.16 150.53 411.6 150.78 409.66 151.04C404.607 151.752 399.52 152.206 394.42 152.4C389.311 152.589 384.196 152.375 379.12 151.76C377.18 151.51 375.61 151.25 374.54 151.02C373.977 150.936 373.422 150.805 372.88 150.63C373.448 150.642 374.014 150.706 374.57 150.82C375.65 150.99 377.22 151.18 379.16 151.39C384.224 151.891 389.315 152.051 394.4 151.87C400.4 151.66 405.73 151.11 409.61 150.67L414.21 150.14C414.772 150.041 415.341 149.994 415.91 150Z" fill="white"/>
<path d="M394.22 9.54004C394.301 9.90425 394.335 10.2773 394.32 10.65C394.32 11.36 394.38 12.38 394.4 13.65C394.45 16.19 394.48 19.65 394.48 23.57C394.48 27.49 394.48 30.95 394.4 33.49C394.4 34.76 394.4 35.79 394.32 36.49C394.335 36.8595 394.302 37.2293 394.22 37.59C394.139 37.2293 394.106 36.8595 394.12 36.49C394.12 35.78 394.06 34.75 394.04 33.49C393.99 30.95 393.96 27.49 393.96 23.57C393.96 19.65 393.96 16.19 394.04 13.65C394.04 12.38 394.04 11.36 394.12 10.65C394.106 10.2773 394.14 9.90425 394.22 9.54004Z" fill="#263238"/>
</svg>
