<svg width="500" height="500" viewBox="0 0 500 500" fill="none" xmlns="http://www.w3.org/2000/svg">
<path d="M249.79 475.64C382.388 475.64 489.88 413.152 489.88 336.07C489.88 258.988 382.388 196.5 249.79 196.5C117.192 196.5 9.69995 258.988 9.69995 336.07C9.69995 413.152 117.192 475.64 249.79 475.64Z" fill="#F5F5F5"/>
<path d="M310.17 466L465.17 376.54C467.61 375.13 467.61 372.84 465.17 371.43L212.27 225.43C210.897 224.735 209.379 224.373 207.84 224.373C206.301 224.373 204.783 224.735 203.41 225.43L48.4101 314.9C45.9701 316.31 45.9701 318.6 48.4101 320.01L301.31 466C302.683 466.695 304.201 467.057 305.74 467.057C307.279 467.057 308.797 466.695 310.17 466Z" fill="#E0E0E0"/>
<path d="M170.27 434.46C195.554 434.46 216.05 422.626 216.05 408.03C216.05 393.433 195.554 381.6 170.27 381.6C144.986 381.6 124.49 393.433 124.49 408.03C124.49 422.626 144.986 434.46 170.27 434.46Z" fill="#E0E0E0"/>
<path d="M64.75 297.41L71.2 291.81C71.2 291.81 72.04 273.01 67.2 257.18C60.37 234.92 43.76 229.27 38.45 232.33C33.14 235.39 32.78 242.33 44.81 254.04C51.89 261 61.94 276.26 64.75 297.41Z" fill="#E91E63"/>
<g opacity="0.15">
<path opacity="0.15" d="M64.75 297.41L71.2 291.81C71.2 291.81 72.04 273.01 67.2 257.18C60.37 234.92 43.76 229.27 38.45 232.33C33.14 235.39 32.78 242.33 44.81 254.04C51.89 261 61.94 276.26 64.75 297.41Z" fill="black"/>
</g>
<path d="M68 287.16H67.93C67.7937 287.165 67.6607 287.117 67.5597 287.025C67.4587 286.934 67.3977 286.806 67.39 286.67C66.24 265 53.29 243.45 42 235.94C41.9432 235.903 41.8942 235.856 41.8559 235.8C41.8175 235.745 41.7906 235.682 41.7766 235.616C41.7627 235.55 41.762 235.482 41.7746 235.416C41.7872 235.349 41.8128 235.286 41.85 235.23C41.9288 235.118 42.0477 235.041 42.1818 235.015C42.316 234.989 42.4551 235.016 42.57 235.09C54.12 242.73 67.3 264.61 68.45 286.63C68.4536 286.758 68.4096 286.883 68.3266 286.981C68.2435 287.079 68.1272 287.143 68 287.16Z" fill="white"/>
<path d="M57.35 312.05C56.77 313.23 52.69 312.98 51.61 312.99C49.7463 312.985 47.9148 312.503 46.29 311.59C44.455 310.552 42.9927 308.964 42.11 307.05C41.6341 306.042 41.2363 304.999 40.92 303.93C40.57 302.93 40.23 301.85 39.92 300.82C39.6539 299.77 39.1739 298.786 38.51 297.93C37.07 296.3 34.64 296.13 32.51 296.03C30.11 295.92 27.38 295.48 25.93 293.33C24.9135 291.581 24.5022 289.546 24.76 287.54C24.9 285.54 25.33 283.54 25.33 281.54C25.405 280.088 24.9855 278.653 24.14 277.47C23.5411 276.797 22.809 276.255 21.99 275.88C20.2155 275.142 18.5033 274.262 16.87 273.25C15.32 272.1 14.13 270.19 14.57 268.31C14.8266 267.563 15.2294 266.876 15.7548 266.287C16.2802 265.698 16.9177 265.22 17.63 264.88C18.9514 264.199 20.4049 263.813 21.89 263.75C26.59 263.33 31.28 266.04 35.89 265.03C37.6302 264.506 39.3339 263.868 40.99 263.12C41.8232 262.751 42.7241 262.561 43.635 262.561C44.546 262.561 45.4469 262.751 46.28 263.12C49.42 264.87 49.18 269.81 52.03 271.99C54.55 273.92 57.62 273.22 60.5 274.54C61.7299 275.155 62.7317 276.146 63.36 277.37C64.5374 279.353 65.3407 281.536 65.73 283.81C66.0534 286.207 66.2271 288.621 66.25 291.04L57.35 312.05Z" fill="#E91E63"/>
<path d="M62.8101 300.5C62.7532 300.537 62.6895 300.562 62.6228 300.573C62.5561 300.585 62.4876 300.584 62.4215 300.569C62.3554 300.554 62.293 300.526 62.2378 300.487C62.1826 300.447 62.1358 300.397 62.1001 300.34C51.3301 283.02 30.7301 269.83 21.2801 268.34C21.2141 268.33 21.1507 268.307 21.0936 268.273C21.0365 268.238 20.987 268.192 20.9478 268.138C20.9087 268.084 20.8807 268.023 20.8657 267.958C20.8506 267.893 20.8487 267.826 20.8601 267.76C20.8699 267.693 20.8927 267.63 20.9271 267.572C20.9616 267.515 21.0071 267.464 21.0609 267.425C21.1148 267.385 21.176 267.356 21.2411 267.339C21.3062 267.323 21.3738 267.32 21.4401 267.33C31.0701 268.85 52.0001 282.24 63.0001 299.81C63.0654 299.927 63.082 300.065 63.0465 300.194C63.0109 300.323 62.926 300.433 62.8101 300.5Z" fill="white"/>
<path d="M46.09 281.76C46.0474 281.788 45.9999 281.809 45.95 281.82C41.2092 283.441 36.659 285.574 32.38 288.18C32.2646 288.25 32.1261 288.272 31.9948 288.24C31.8636 288.208 31.7504 288.125 31.68 288.01C31.6419 287.953 31.6157 287.89 31.6031 287.823C31.5905 287.756 31.5917 287.687 31.6067 287.62C31.6217 287.554 31.6501 287.491 31.6902 287.436C31.7303 287.381 31.7813 287.335 31.84 287.3C36.1957 284.653 40.8262 282.487 45.65 280.84C45.7143 280.82 45.782 280.813 45.8491 280.819C45.9162 280.825 45.9814 280.845 46.0409 280.877C46.1004 280.908 46.153 280.951 46.1958 281.003C46.2386 281.055 46.2706 281.115 46.29 281.18C46.3225 281.285 46.3206 281.398 46.2846 281.503C46.2487 281.607 46.1805 281.697 46.09 281.76Z" fill="white"/>
<path d="M337.5 217.95L329.25 213.19L337.5 210.81V217.95Z" fill="#E91E63"/>
<path opacity="0.6" d="M337.5 217.95L329.25 213.19L337.5 210.81V217.95Z" fill="black"/>
<path d="M296.18 234.67V242.26L248.62 214.74V207.15L296.18 234.67Z" fill="#E91E63"/>
<path opacity="0.6" d="M296.18 234.67V242.26L248.62 214.74V207.15L296.18 234.67Z" fill="black"/>
<path d="M244.49 147.61L292.05 175.13V237.05L244.49 209.53V147.61Z" fill="#E91E63"/>
<path opacity="0.55" d="M244.49 147.61L292.05 175.13V237.05L244.49 209.53V147.61Z" fill="black"/>
<path d="M292.05 175.13L345.75 144.13V206.05L292.05 237.05V175.13Z" fill="#E91E63"/>
<path opacity="0.45" d="M292.05 175.13L345.75 144.13V206.05L292.05 237.05V175.13Z" fill="black"/>
<path d="M345.75 144.13L298.18 116.61L244.49 147.61L292.05 175.13L345.75 144.13Z" fill="#E91E63"/>
<path opacity="0.3" d="M345.75 144.13L298.18 116.61L244.49 147.61L292.05 175.13L345.75 144.13Z" fill="black"/>
<path d="M296.18 177.51L341.62 151.27V165.56L296.18 191.8V177.51Z" fill="#E91E63"/>
<path opacity="0.2" d="M296.18 177.51L341.62 151.27V165.56L296.18 191.8V177.51Z" fill="black"/>
<path opacity="0.2" d="M296.18 196.56L341.62 170.32V203.66L296.18 229.91V196.56Z" fill="black"/>
<path d="M296.18 242.26L300.3 239.88V232.29L296.18 234.67V242.26Z" fill="#E91E63"/>
<path opacity="0.55" d="M296.18 242.26L300.3 239.88V232.29L296.18 234.67V242.26Z" fill="black"/>
<path d="M337.5 217.95L341.62 215.57V208.43L337.5 210.81V217.95Z" fill="#E91E63"/>
<path opacity="0.55" d="M337.5 217.95L341.62 215.57V208.43L337.5 210.81V217.95Z" fill="black"/>
<path d="M310.26 172.39C310.26 173.05 312.26 172.44 314.66 171.04L322.36 166.59C324.79 165.19 326.76 163.52 326.76 162.86V161.67L310.26 171.2V172.39Z" fill="#37474F"/>
<path opacity="0.2" d="M341.62 203.66L312.94 186.88L296.18 196.56V229.91L341.62 203.66Z" fill="black"/>
<path d="M311.63 132.64C311.63 132.358 311.6 132.076 311.54 131.8C310.86 128.698 309.03 125.969 306.42 124.16H295.71C293.106 125.975 291.279 128.702 290.59 131.8C290.529 132.076 290.502 132.358 290.51 132.64C290.51 132.69 290.51 132.79 290.51 132.79C290.61 134.27 291.63 135.73 293.59 136.86C295.905 138.034 298.464 138.646 301.06 138.646C303.656 138.646 306.215 138.034 308.53 136.86C310.53 135.73 311.53 134.27 311.6 132.79C311.613 132.741 311.623 132.691 311.63 132.64Z" fill="#263238"/>
<path d="M296 124C293.2 125.62 293.2 128.24 296 129.86C297.574 130.659 299.315 131.075 301.08 131.075C302.845 131.075 304.586 130.659 306.16 129.86C308.96 128.24 308.96 125.62 306.16 124C304.586 123.202 302.845 122.786 301.08 122.786C299.315 122.786 297.574 123.202 296 124Z" fill="#37474F"/>
<path d="M302.53 88.2603H299.61V125.8C299.604 125.941 299.641 126.081 299.716 126.2C299.791 126.32 299.901 126.414 300.03 126.47C300.349 126.633 300.702 126.717 301.06 126.717C301.418 126.717 301.771 126.633 302.09 126.47C302.219 126.414 302.329 126.32 302.404 126.2C302.479 126.081 302.516 125.941 302.51 125.8L302.53 88.2603Z" fill="#263238"/>
<path d="M321.9 87L312.1 62H290L280.19 87C278.79 90.91 280.71 95.14 285.97 98.18C294.28 102.98 307.76 102.98 316.07 98.18C321.37 95.14 323.3 90.91 321.9 87Z" fill="#E91E63"/>
<path opacity="0.4" d="M321.9 87L312.1 62H290L280.19 87C278.79 90.91 280.71 95.14 285.97 98.18C294.28 102.98 307.76 102.98 316.07 98.18C321.37 95.14 323.3 90.91 321.9 87Z" fill="white"/>
<path d="M301.07 69.8901C307.305 69.8901 312.36 66.971 312.36 63.3701C312.36 59.7692 307.305 56.8501 301.07 56.8501C294.834 56.8501 289.78 59.7692 289.78 63.3701C289.78 66.971 294.834 69.8901 301.07 69.8901Z" fill="#E91E63"/>
<path opacity="0.7" d="M301.07 69.8901C307.305 69.8901 312.36 66.971 312.36 63.3701C312.36 59.7692 307.305 56.8501 301.07 56.8501C294.834 56.8501 289.78 59.7692 289.78 63.3701C289.78 66.971 294.834 69.8901 301.07 69.8901Z" fill="white"/>
<path d="M301.07 68.28C298.661 68.3358 296.278 67.7711 294.15 66.64C292.54 65.71 291.65 64.55 291.65 63.36C291.65 62.17 292.54 61.02 294.15 60.09C296.296 59.0118 298.664 58.4502 301.065 58.4502C303.466 58.4502 305.834 59.0118 307.98 60.09C309.6 61.02 310.48 62.18 310.48 63.36C310.48 64.54 309.6 65.71 307.98 66.64C305.856 67.7715 303.476 68.3364 301.07 68.28Z" fill="#E91E63"/>
<path opacity="0.4" d="M301.07 68.28C298.661 68.3358 296.278 67.7711 294.15 66.64C292.54 65.71 291.65 64.55 291.65 63.36C291.65 62.17 292.54 61.02 294.15 60.09C296.296 59.0118 298.664 58.4502 301.065 58.4502C303.466 58.4502 305.834 59.0118 307.98 60.09C309.6 61.02 310.48 62.18 310.48 63.36C310.48 64.54 309.6 65.71 307.98 66.64C305.856 67.7715 303.476 68.3364 301.07 68.28Z" fill="white"/>
<path opacity="0.2" d="M301.07 68.28C298.661 68.3358 296.278 67.7711 294.15 66.64C292.54 65.71 291.65 64.55 291.65 63.36C291.65 62.17 292.54 61.02 294.15 60.09C296.296 59.0118 298.664 58.4502 301.065 58.4502C303.466 58.4502 305.834 59.0118 307.98 60.09C309.6 61.02 310.48 62.18 310.48 63.36C310.48 64.54 309.6 65.71 307.98 66.64C305.856 67.7715 303.476 68.3364 301.07 68.28Z" fill="black"/>
<path opacity="0.1" d="M280.7 149.63C280.7 152.24 276.7 154.36 271.79 154.36C266.88 154.36 262.89 152.24 262.89 149.63C262.89 147.02 266.89 144.9 271.79 144.9C276.69 144.9 280.7 147 280.7 149.63Z" fill="black"/>
<path d="M262.16 134.48C258.68 134.48 255.45 134.48 255.08 136.63C254.71 138.78 256.08 145.29 258.01 146.96C259.94 148.63 264.49 147.96 264.49 147.96V145.84C263.015 145.969 261.528 145.854 260.09 145.5C258.57 144.94 257.5 138.42 257.5 137.66C257.5 136.9 262.5 137.06 262.5 137.06L262.16 134.48Z" fill="#E6E6E6"/>
<path d="M261.82 131.18C262.05 130.18 263.01 129.28 264.71 128.55C269.283 126.845 274.317 126.845 278.89 128.55C280.59 129.29 281.54 130.22 281.77 131.19H281.83C282.49 137.52 281.35 144.86 279.09 148.92C279.092 148.947 279.092 148.973 279.09 149V149.07C278.637 149.803 277.999 150.403 277.24 150.81C275.573 151.656 273.73 152.097 271.86 152.097C269.99 152.097 268.147 151.656 266.48 150.81C265.718 150.402 265.079 149.798 264.63 149.06V149.01V148.91C262.38 144.85 261.26 137.51 261.93 131.18H261.82Z" fill="#F5F5F5"/>
<path d="M264.71 128.55C260.79 130.25 260.79 133 264.71 134.71C269.287 136.41 274.323 136.41 278.9 134.71C282.82 133.01 282.82 130.25 278.9 128.55C274.324 126.842 269.286 126.842 264.71 128.55Z" fill="#FAFAFA"/>
<path d="M266.08 129.62C262.92 130.73 262.91 132.53 266.08 133.62C269.815 134.736 273.795 134.736 277.53 133.62C280.69 132.51 280.69 130.71 277.53 129.62C273.795 128.504 269.815 128.504 266.08 129.62Z" fill="#E6E6E6"/>
<path d="M266.07 132.05C265.509 132.237 264.977 132.503 264.49 132.84C264.974 133.185 265.506 133.454 266.07 133.64C269.805 134.756 273.785 134.756 277.52 133.64C278.083 133.457 278.616 133.191 279.1 132.85C278.618 132.504 278.085 132.234 277.52 132.05C273.785 130.934 269.805 130.934 266.07 132.05Z" fill="#37474F"/>
<path d="M270.26 125.89C267.11 123.45 265.41 119.35 267.43 115.26C269.45 111.17 273.3 108.41 271.37 105.41C271.37 105.41 275.72 107.6 274.64 111.97C273.2 117.76 268.34 118.72 270.26 125.89Z" fill="#E0E0E0"/>
<path d="M272.58 125.89C272.58 125.89 271.58 122.18 273.26 119.72C274.94 117.26 277.26 115.9 277.32 113.1C277.32 113.1 279.69 115.95 278.04 119.1C276.39 122.25 273.21 122.55 272.58 125.89Z" fill="#E0E0E0"/>
<path d="M288 159.38L287.94 159.24C287.923 159.2 287.899 159.163 287.87 159.13C287.758 158.958 287.612 158.812 287.44 158.7V159.14L287.07 158.92V158.48C286.5 158.235 285.883 158.118 285.263 158.137C284.642 158.156 284.034 158.311 283.48 158.59C283.146 158.755 282.883 159.036 282.74 159.38C282.744 159.407 282.744 159.434 282.74 159.46C282.73 159.533 282.73 159.607 282.74 159.68V160.55C282.739 160.762 282.806 160.969 282.93 161.14C283.089 161.349 283.29 161.523 283.52 161.65C284.106 161.946 284.753 162.101 285.41 162.101C286.066 162.101 286.714 161.946 287.3 161.65C287.517 161.553 287.705 161.401 287.844 161.207C287.983 161.014 288.068 160.787 288.09 160.55V159.68C288.076 159.576 288.045 159.475 288 159.38Z" fill="#F0F0F0"/>
<path d="M286.19 158.21C285.263 158.025 284.301 158.159 283.46 158.59C283.126 158.755 282.863 159.036 282.72 159.38C282.725 159.407 282.725 159.434 282.72 159.46C282.71 159.533 282.71 159.607 282.72 159.68V160.55C282.719 160.762 282.786 160.969 282.91 161.14C283.069 161.349 283.27 161.523 283.5 161.65C284.342 162.078 285.304 162.208 286.23 162.02L286.19 158.21Z" fill="#E6E6E6"/>
<path d="M283.46 158.59C282.46 159.15 282.46 160.05 283.28 160.66L287.05 158.48C286.48 158.235 285.863 158.118 285.243 158.137C284.623 158.156 284.014 158.311 283.46 158.59Z" fill="#F5F5F5"/>
<path d="M283.28 160.43C283.28 160.43 282.28 159.63 283.4 158.63C283.206 158.709 283.038 158.841 282.915 159.011C282.793 159.182 282.722 159.383 282.709 159.592C282.696 159.802 282.743 160.01 282.844 160.194C282.945 160.377 283.096 160.529 283.28 160.63L287.05 158.45L283.28 160.43Z" fill="white"/>
<path d="M287.42 158.7L283.66 160.88C284.228 161.125 284.844 161.242 285.462 161.223C286.081 161.204 286.688 161.049 287.24 160.77C288.23 160.21 288.29 159.31 287.42 158.7Z" fill="#F5F5F5"/>
<path d="M283.66 160.88C284.228 161.125 284.844 161.242 285.462 161.223C286.081 161.204 286.688 161.049 287.24 160.77C287.35 160.711 287.454 160.64 287.55 160.56C287.023 160.845 286.442 161.017 285.844 161.065C285.247 161.113 284.646 161.037 284.08 160.84L287.42 158.7L283.66 160.88Z" fill="white"/>
<path d="M287.05 158.92L283.28 161.11V160.66L287.05 158.48V158.92Z" fill="#E0E0E0"/>
<path opacity="0.2" d="M283.66 160.88V161.32L283.28 161.11L283.66 160.88Z" fill="black"/>
<path d="M291.37 163.89L291.3 163.75C291.286 163.711 291.266 163.674 291.24 163.64C291.126 163.471 290.98 163.325 290.81 163.21V163.65L290.43 163.43V163C289.861 162.756 289.246 162.639 288.628 162.658C288.009 162.677 287.402 162.831 286.85 163.11C286.513 163.272 286.25 163.554 286.11 163.9C286.11 163.9 286.11 163.95 286.11 163.98C286.1 164.053 286.1 164.127 286.11 164.2V165.08C286.114 165.29 286.184 165.493 286.31 165.66C286.466 165.872 286.668 166.046 286.9 166.17C287.486 166.467 288.133 166.621 288.79 166.621C289.446 166.621 290.094 166.467 290.68 166.17C290.895 166.074 291.082 165.922 291.22 165.731C291.359 165.54 291.445 165.315 291.47 165.08V164.2C291.454 164.092 291.42 163.988 291.37 163.89Z" fill="#F0F0F0"/>
<path d="M289.58 162.721C288.653 162.536 287.691 162.67 286.85 163.101C286.513 163.263 286.25 163.544 286.11 163.891C286.11 163.891 286.11 163.941 286.11 163.971C286.1 164.044 286.1 164.118 286.11 164.191V165.071C286.114 165.28 286.184 165.483 286.31 165.651C286.466 165.862 286.668 166.036 286.9 166.161C287.742 166.588 288.704 166.718 289.63 166.531L289.58 162.721Z" fill="#E6E6E6"/>
<path d="M286.85 163.1C285.85 163.66 285.85 164.56 286.67 165.17L290.43 162.99C289.861 162.745 289.246 162.628 288.628 162.648C288.009 162.667 287.402 162.821 286.85 163.1Z" fill="#F5F5F5"/>
<path d="M286.67 164.94C286.67 164.94 285.67 164.14 286.78 163.14C286.586 163.22 286.419 163.353 286.298 163.524C286.176 163.695 286.106 163.897 286.094 164.106C286.083 164.315 286.131 164.523 286.233 164.706C286.335 164.889 286.486 165.04 286.67 165.14L290.43 162.96L286.67 164.94Z" fill="white"/>
<path d="M290.81 163.21L287.05 165.39C287.618 165.635 288.234 165.752 288.852 165.733C289.471 165.714 290.078 165.56 290.63 165.28C291.61 164.72 291.67 163.82 290.81 163.21Z" fill="#F5F5F5"/>
<path d="M287.05 165.39C287.618 165.635 288.234 165.752 288.852 165.733C289.471 165.714 290.078 165.56 290.63 165.28C290.74 165.221 290.844 165.151 290.94 165.07C290.413 165.355 289.832 165.527 289.235 165.575C288.637 165.624 288.036 165.547 287.47 165.35L290.81 163.21L287.05 165.39Z" fill="white"/>
<path d="M290.43 163.43L286.67 165.62V165.17L290.43 162.99V163.43Z" fill="#E0E0E0"/>
<path opacity="0.2" d="M287.05 165.39V165.84L286.67 165.62L287.05 165.39Z" fill="black"/>
<path opacity="0.1" d="M306.63 162.13C305.019 162.949 303.237 163.375 301.43 163.375C299.623 163.375 297.841 162.949 296.23 162.13C293.36 160.47 293.36 157.78 296.23 156.13C297.841 155.311 299.623 154.885 301.43 154.885C303.237 154.885 305.019 155.311 306.63 156.13C309.5 157.78 309.5 160.47 306.63 162.13Z" fill="black"/>
<path d="M295.39 148C295.441 147.444 295.64 146.912 295.965 146.459C296.29 146.005 296.73 145.647 297.24 145.42C298.626 144.715 300.159 144.347 301.715 144.347C303.27 144.347 304.804 144.715 306.19 145.42C306.692 145.652 307.124 146.013 307.442 146.466C307.76 146.919 307.952 147.449 308 148V158.75C307.949 159.306 307.75 159.838 307.425 160.291C307.1 160.744 306.66 161.103 306.15 161.33C304.764 162.035 303.23 162.403 301.675 162.403C300.119 162.403 298.586 162.035 297.2 161.33C296.69 161.103 296.25 160.744 295.925 160.291C295.6 159.838 295.401 159.306 295.35 158.75L295.39 148Z" fill="#E91E63"/>
<path opacity="0.4" d="M297.82 145.09V161.6C297.62 161.5 297.43 161.41 297.24 161.3C296.874 161.092 296.538 160.837 296.24 160.54V146.15C296.538 145.854 296.874 145.598 297.24 145.39C297.428 145.28 297.621 145.18 297.82 145.09Z" fill="white"/>
<path opacity="0.4" d="M299.48 162.13C299.171 162.068 298.867 161.984 298.57 161.88V144.81C298.867 144.706 299.171 144.622 299.48 144.56V162.13Z" fill="white"/>
<path opacity="0.1" d="M295.5 147.3C295.896 146.76 296.409 146.315 297 146C298.376 145.304 299.887 144.917 301.428 144.867C302.969 144.817 304.502 145.105 305.92 145.71V145.21L306.22 145.37C306.724 145.611 307.154 145.981 307.467 146.443C307.78 146.906 307.964 147.443 308 148V150.47V155.21V158.75C307.949 159.306 307.75 159.838 307.425 160.291C307.1 160.744 306.66 161.103 306.15 161.33C304.764 162.035 303.23 162.403 301.675 162.403C300.119 162.403 298.586 162.035 297.2 161.33C296.779 161.099 296.397 160.802 296.07 160.45C297.25 161.55 300.18 162.15 302.35 161.73C304.52 161.31 305.85 159.91 305.85 158.92V157.97C304.491 158.65 302.989 158.993 301.47 158.97V154.15C302.981 154.205 304.483 153.896 305.85 153.25V151.85C304.43 152.451 302.897 152.735 301.357 152.684C299.816 152.632 298.306 152.245 296.93 151.55C296.285 151.21 295.74 150.706 295.35 150.09V148C295.361 147.76 295.412 147.524 295.5 147.3Z" fill="black"/>
<path opacity="0.1" d="M307 159.17V145.94C307.312 146.176 307.569 146.477 307.754 146.823C307.939 147.168 308.047 147.549 308.07 147.94V158.69C308.019 159.246 307.82 159.778 307.495 160.231C307.17 160.684 306.73 161.043 306.22 161.27C305.469 161.689 304.655 161.982 303.81 162.14C306.16 161.52 307 159.9 307 159.17Z" fill="black"/>
<path d="M295 145.08C295.057 144.486 295.273 143.918 295.625 143.436C295.977 142.954 296.452 142.576 297 142.34C298.471 141.596 300.096 141.208 301.745 141.208C303.394 141.208 305.019 141.596 306.49 142.34C307.038 142.576 307.513 142.954 307.865 143.436C308.217 143.918 308.433 144.486 308.49 145.08V148.08C308.435 148.675 308.22 149.243 307.868 149.726C307.516 150.208 307.04 150.586 306.49 150.82C305.019 151.564 303.394 151.952 301.745 151.952C300.096 151.952 298.471 151.564 297 150.82C296.45 150.586 295.974 150.208 295.622 149.726C295.27 149.243 295.055 148.675 295 148.08V145.08Z" fill="#E0E0E0"/>
<g opacity="0.2">
<path opacity="0.2" d="M295.17 144.81H294.85V149.43H295.17V144.81Z" fill="black"/>
<path opacity="0.2" d="M295.91 146.05H295.59V150.7H295.91V146.05Z" fill="black"/>
<path opacity="0.2" d="M297.02 146.91H296.7V151.58H297.02V146.91Z" fill="black"/>
<path opacity="0.2" d="M298.3 147.45H297.98V152.15H298.3V147.45Z" fill="black"/>
<path opacity="0.2" d="M299.71 147.8H299.39V152.52H299.71V147.8Z" fill="black"/>
<path opacity="0.2" d="M301.19 147.98H300.87V152.73H301.19V147.98Z" fill="black"/>
<path opacity="0.2" d="M302.7 147.98H302.38V152.75H302.7V147.98Z" fill="black"/>
<path opacity="0.2" d="M304.18 147.78H303.86V152.58H304.18V147.78Z" fill="black"/>
<path opacity="0.2" d="M305.56 147.38H305.24V152.2H305.56V147.38Z" fill="black"/>
<path opacity="0.2" d="M306.81 146.771H306.49V151.62H306.81V146.771Z" fill="black"/>
<path opacity="0.2" d="M307.8 145.91H307.48V150.78H307.8V145.91Z" fill="black"/>
<path opacity="0.2" d="M308.58 144.53H308.26V149.43H308.58V144.53Z" fill="black"/>
</g>
<path opacity="0.1" d="M300.11 151.81C303.43 151.81 305.18 150.75 305.71 149.87C306.113 148.879 306.278 147.807 306.19 146.74C306.19 146.74 306.56 143.95 306.49 143.95C306.42 143.95 307.28 143.76 307.93 143.62C308.242 144.043 308.414 144.554 308.42 145.08V148.08C308.365 148.675 308.15 149.243 307.798 149.726C307.445 150.208 306.969 150.586 306.42 150.82C304.474 151.81 302.265 152.156 300.11 151.81Z" fill="black"/>
<path d="M306.46 147.82C304.989 148.564 303.363 148.952 301.715 148.952C300.066 148.952 298.441 148.564 296.97 147.82C294.35 146.31 294.35 143.82 296.97 142.34C298.441 141.596 300.066 141.208 301.715 141.208C303.363 141.208 304.989 141.596 306.46 142.34C309.08 143.85 309.08 146.31 306.46 147.82Z" fill="#EBEBEB"/>
<path d="M296.61 147.59C294.36 146.07 294.48 143.78 296.97 142.34C298.388 141.585 299.973 141.196 301.58 141.21C302.44 141.341 303.27 141.626 304.03 142.05C306.3 143.34 306.3 145.92 304.03 147.22C302.885 147.79 301.635 148.117 300.359 148.18C299.082 148.244 297.805 148.043 296.61 147.59Z" fill="#F5F5F5"/>
<path opacity="0.1" d="M305.82 161C304.525 161.564 303.127 161.855 301.715 161.855C300.302 161.855 298.905 161.564 297.61 161C295.34 159.86 295.34 158 297.61 156.88C298.905 156.316 300.302 156.025 301.715 156.025C303.127 156.025 304.525 156.316 305.82 156.88C308.09 158 308.09 159.87 305.82 161Z" fill="black"/>
<path d="M308 150.75C307.948 151.307 307.75 151.84 307.425 152.295C307.1 152.75 306.66 153.111 306.15 153.34C304.77 154.067 303.229 154.432 301.67 154.4V159.14C303.229 159.172 304.77 158.807 306.15 158.08C306.66 157.851 307.1 157.49 307.425 157.035C307.75 156.58 307.948 156.047 308 155.49V150.75Z" fill="white"/>
<path d="M307.91 146.57C306.126 148.065 303.832 148.811 301.51 148.65C297.3 148.53 295.61 146.23 295.39 145.52C295.278 145.1 295.272 144.658 295.371 144.234C295.47 143.81 295.673 143.417 295.96 143.09C295.672 143.34 295.439 143.647 295.276 143.991C295.112 144.335 295.022 144.709 295.01 145.09V148.09C295.01 148.34 294.88 149.21 296.24 150.33C295.8 149.831 295.522 149.211 295.44 148.55V146.55C295.44 146.55 296.93 149.04 301.51 149.04C306.09 149.04 307.68 146.94 307.91 146.57Z" fill="white"/>
<path d="M138 404.13C137.81 405.299 137.81 406.491 138 407.66C138.73 409.93 142.36 413.03 148 413.56C153.21 414.05 157.85 412.92 161.36 410.34C164.87 407.76 169.98 402.86 172.75 400.66C176.05 398.03 178.75 395.72 179.42 394.66C180.09 393.6 179.66 391.05 179.66 391.05L138 404.13Z" fill="#263238"/>
<path d="M160.71 408.5C164.1 405.64 173.39 398.16 176.56 395.38C179.73 392.6 181.28 390.29 177.28 388.08C175.102 386.911 172.645 386.362 170.176 386.492C167.708 386.622 165.322 387.428 163.28 388.82C158.91 391.89 141.82 403.41 141.82 403.41L160.71 408.5Z" fill="#37474F"/>
<path d="M146.65 396C151.79 396.07 154.8 397.9 158.11 401.25C159.069 402.177 159.803 403.312 160.254 404.567C160.704 405.822 160.861 407.165 160.71 408.49C158.696 409.896 156.41 410.867 153.999 411.338C151.588 411.81 149.106 411.773 146.71 411.23C139.03 409.59 137.94 404.7 137.94 404.7C137.94 404.7 138.74 397.14 146.65 396Z" fill="#455A64"/>
<path d="M158.82 418C158.629 419.172 158.629 420.368 158.82 421.54C159.56 423.81 163.19 426.91 168.82 427.44C174.02 427.92 178.67 426.79 182.18 424.22C185.69 421.65 190.79 416.74 193.56 414.53C196.87 411.91 199.56 409.59 200.23 408.53C200.9 407.47 200.47 404.92 200.47 404.92L158.82 418Z" fill="#263238"/>
<path d="M181.55 422.36C184.94 419.5 194.23 412.02 197.4 409.24C200.57 406.46 202.12 404.15 198.11 401.93C195.931 400.763 193.473 400.216 191.005 400.348C188.537 400.481 186.152 401.287 184.11 402.68C179.75 405.74 162.65 417.26 162.65 417.26L181.55 422.36Z" fill="#37474F"/>
<path d="M167.48 409.86C172.62 409.94 175.64 411.77 178.95 415.11C179.91 416.039 180.643 417.175 181.094 418.432C181.545 419.689 181.701 421.033 181.55 422.36C179.535 423.764 177.249 424.732 174.838 425.202C172.427 425.672 169.945 425.634 167.55 425.09C159.86 423.46 158.77 418.56 158.77 418.56C158.77 418.56 159.58 411 167.48 409.86Z" fill="#455A64"/>
<path d="M66.0001 318.05L60.0001 314.58C59.0872 313.985 58.3272 313.183 57.7816 312.24C57.2361 311.297 56.9204 310.238 56.8601 309.15V215.49C56.922 214.404 57.2384 213.347 57.7838 212.406C58.3293 211.464 59.0885 210.664 60.0001 210.07L203.78 127C204.75 126.507 205.822 126.25 206.91 126.25C207.998 126.25 209.07 126.507 210.04 127L216.1 130.47C217.012 131.063 217.77 131.864 218.314 132.805C218.858 133.747 219.172 134.804 219.23 135.89V229.55C219.175 230.641 218.862 231.703 218.318 232.65C217.775 233.597 217.014 234.403 216.1 235L72.2601 318.05C71.2882 318.536 70.2166 318.789 69.1301 318.789C68.0436 318.789 66.972 318.536 66.0001 318.05Z" fill="#E91E63"/>
<path opacity="0.3" d="M66.0001 318.05L60.0001 314.58C59.0872 313.985 58.3272 313.183 57.7816 312.24C57.2361 311.297 56.9204 310.238 56.8601 309.15V215.49C56.922 214.404 57.2384 213.347 57.7838 212.406C58.3293 211.464 59.0885 210.664 60.0001 210.07L203.78 127C204.75 126.507 205.822 126.25 206.91 126.25C207.998 126.25 209.07 126.507 210.04 127L216.1 130.47C217.012 131.063 217.77 131.864 218.314 132.805C218.858 133.747 219.172 134.804 219.23 135.89V229.55C219.175 230.641 218.862 231.703 218.318 232.65C217.775 233.597 217.014 234.403 216.1 235L72.2601 318.05C71.2882 318.536 70.2166 318.789 69.1301 318.789C68.0436 318.789 66.972 318.536 66.0001 318.05Z" fill="black"/>
<path d="M219.23 135.89V229.55C219.175 230.641 218.862 231.703 218.318 232.65C217.775 233.597 217.014 234.402 216.1 235L72.2601 318.05C70.5301 319.05 69.1301 318.23 69.1301 316.24V222.58C69.1885 221.492 69.5024 220.434 70.0462 219.491C70.59 218.547 71.3485 217.745 72.2601 217.15L216.1 134.08C217.83 133.08 219.23 133.89 219.23 135.89Z" fill="#E91E63"/>
<path opacity="0.45" d="M219.23 135.89V229.55C219.175 230.641 218.862 231.703 218.318 232.65C217.775 233.597 217.014 234.402 216.1 235L72.2601 318.05C70.5301 319.05 69.1301 318.23 69.1301 316.24V222.58C69.1885 221.492 69.5024 220.434 70.0462 219.491C70.59 218.547 71.3485 217.745 72.2601 217.15L216.1 134.08C217.83 133.08 219.23 133.89 219.23 135.89Z" fill="black"/>
<path d="M71.5401 318.38C70.6396 318.698 69.6835 318.828 68.7308 318.763C67.778 318.698 66.8487 318.438 66.0001 318L59.9401 314.54C59.0308 313.943 58.2747 313.14 57.7328 312.197C57.1908 311.254 56.8782 310.196 56.8201 309.11V215.49C56.8531 214.402 57.1666 213.341 57.7301 212.41L70.0501 219.49C69.4866 220.421 69.1731 221.482 69.1401 222.57V316.23C69.1401 317.94 70.1601 318.78 71.5401 318.38Z" fill="#E91E63"/>
<path opacity="0.55" d="M71.5401 318.38C70.6396 318.698 69.6835 318.828 68.7308 318.763C67.778 318.698 66.8487 318.438 66.0001 318L59.9401 314.54C59.0308 313.943 58.2747 313.14 57.7328 312.197C57.1908 311.254 56.8782 310.196 56.8201 309.11V215.49C56.8531 214.402 57.1666 213.341 57.7301 212.41L70.0501 219.49C69.4866 220.421 69.1731 221.482 69.1401 222.57V316.23C69.1401 317.94 70.1601 318.78 71.5401 318.38Z" fill="black"/>
<path d="M320.3 417.36L305.8 409C305.315 408.753 304.779 408.625 304.235 408.625C303.691 408.625 303.155 408.753 302.67 409L288.17 417.37C287.704 417.656 287.322 418.06 287.06 418.54C287.009 418.633 286.965 418.73 286.93 418.83C286.731 419.218 286.618 419.644 286.6 420.08V443.6C286.63 444.117 286.776 444.621 287.027 445.075C287.278 445.528 287.628 445.92 288.05 446.22C288.088 446.253 288.128 446.283 288.17 446.31L302.67 454.69C302.72 454.69 302.8 454.69 302.85 454.76C303.027 454.846 303.211 454.916 303.4 454.97C303.673 455.03 303.951 455.06 304.23 455.06C304.776 455.068 305.315 454.941 305.8 454.69L320.3 446.31C320.756 446.013 321.136 445.613 321.408 445.142C321.681 444.671 321.839 444.143 321.87 443.6V420.07C321.839 419.527 321.681 418.998 321.408 418.528C321.136 418.057 320.756 417.657 320.3 417.36Z" fill="#455A64"/>
<path d="M305.8 454.69L320.3 446.31C320.756 446.013 321.135 445.613 321.408 445.142C321.681 444.671 321.839 444.143 321.87 443.6V420.07C321.87 419.07 321.16 418.67 320.3 419.17L305.8 427.54C305.344 427.837 304.965 428.237 304.692 428.708C304.419 429.178 304.261 429.707 304.23 430.25V453.78C304.23 454.78 304.93 455.18 305.8 454.69Z" fill="#37474F"/>
<path d="M452.94 340.74L438.44 332.37C437.955 332.123 437.419 331.995 436.875 331.995C436.331 331.995 435.795 332.123 435.31 332.37L420.8 340.74C420.34 341.03 419.961 341.433 419.7 341.91C419.647 342.005 419.603 342.106 419.57 342.21C419.369 342.594 419.256 343.017 419.24 343.45V368.11C419.27 368.627 419.416 369.132 419.667 369.585C419.918 370.038 420.268 370.43 420.69 370.73C420.724 370.763 420.761 370.793 420.8 370.82L435.31 378.07C435.36 378.07 435.43 378.07 435.49 378.14C435.667 378.226 435.851 378.297 436.04 378.35C436.313 378.41 436.591 378.44 436.87 378.44C437.416 378.453 437.957 378.325 438.44 378.07L452.94 369.69C453.392 369.394 453.768 368.997 454.039 368.53C454.31 368.063 454.468 367.539 454.5 367V343.45C454.47 342.908 454.314 342.38 454.043 341.909C453.772 341.439 453.394 341.038 452.94 340.74Z" fill="#455A64"/>
<path d="M438.44 378.07L452.94 369.69C453.392 369.395 453.768 368.997 454.039 368.53C454.31 368.063 454.468 367.539 454.5 367V343.45C454.5 342.45 453.79 342.05 452.93 342.55L438.43 350.92C437.974 351.217 437.595 351.617 437.322 352.088C437.049 352.559 436.891 353.087 436.86 353.63V377.16C436.87 378.16 437.57 378.57 438.44 378.07Z" fill="#37474F"/>
<path d="M219 199.29L75.3901 282.29C73.5646 283.477 72.0453 285.079 70.9557 286.964C69.8662 288.85 69.2372 290.966 69.1201 293.14V299.09C69.2469 301.258 69.8812 303.366 70.9721 305.243C72.0629 307.121 73.5797 308.716 75.4001 309.9L298 438.4C299.941 439.386 302.088 439.9 304.265 439.9C306.442 439.9 308.589 439.386 310.53 438.4L454.15 355.4C455.973 354.211 457.489 352.608 458.577 350.723C459.664 348.838 460.293 346.723 460.41 344.55V338.6C460.293 336.427 459.664 334.312 458.577 332.427C457.489 330.542 455.973 328.94 454.15 327.75L231.54 199.29C229.598 198.302 227.449 197.787 225.27 197.787C223.091 197.787 220.943 198.302 219 199.29Z" fill="#455A64"/>
<path d="M460.38 338.65V344.59C460.265 346.764 459.638 348.879 458.55 350.765C457.462 352.65 455.944 354.252 454.12 355.44L310.5 438.44C308.574 439.462 306.42 439.975 304.24 439.93V419.48C306.419 419.528 308.573 419.018 310.5 418L454.12 335C457.34 333.12 457.56 330.18 454.75 328.17C456.4 329.396 457.76 330.971 458.734 332.782C459.707 334.593 460.269 336.597 460.38 338.65Z" fill="#263238"/>
<path d="M75.4001 289.49C72.1101 287.59 71.9501 284.57 74.9201 282.58C73.231 283.79 71.8343 285.363 70.8324 287.184C69.8305 289.004 69.2489 291.026 69.1301 293.1V299.05C69.2496 301.224 69.8796 303.339 70.9689 305.224C72.0582 307.109 73.5763 308.711 75.4001 309.9L298 438.4C299.928 439.426 302.086 439.943 304.27 439.9V419.48C302.088 419.529 299.93 419.02 298 418L75.4001 289.49Z" fill="#37474F"/>
<path d="M219 165.41L75.3901 248.41C73.5663 249.599 72.0482 251.201 70.9589 253.086C69.8695 254.971 69.2396 257.086 69.1201 259.26V271.9C69.2396 274.074 69.8695 276.189 70.9589 278.074C72.0482 279.959 73.5663 281.561 75.3901 282.75L298 411.25C299.941 412.237 302.088 412.751 304.265 412.751C306.442 412.751 308.589 412.237 310.53 411.25L454.15 328.25C455.974 327.062 457.492 325.461 458.58 323.575C459.668 321.69 460.295 319.574 460.41 317.4V304.76C460.293 302.587 459.664 300.472 458.577 298.587C457.489 296.702 455.973 295.1 454.15 293.91L231.54 165.41C229.598 164.422 227.449 163.907 225.27 163.907C223.091 163.907 220.943 164.422 219 165.41Z" fill="#E91E63"/>
<path opacity="0.8" d="M75.3902 255.61L298 384.11C299.941 385.096 302.088 385.61 304.265 385.61C306.443 385.61 308.589 385.096 310.53 384.11L454.15 301.16C457.61 299.16 457.61 295.92 454.15 293.92L231.54 165.42C229.599 164.434 227.452 163.919 225.275 163.919C223.098 163.919 220.951 164.434 219.01 165.42L75.3902 248.42C71.9302 250.38 71.9302 253.62 75.3902 255.61Z" fill="white"/>
<path opacity="0.5" d="M460.38 304.77V317.45C460.262 319.623 459.634 321.738 458.547 323.623C457.459 325.509 455.943 327.111 454.12 328.3L310.5 411.25C308.575 412.275 306.42 412.792 304.24 412.75V385.6C306.42 385.645 308.574 385.132 310.5 384.11L454.12 301.11C457.34 299.23 457.56 296.29 454.75 294.28C456.402 295.508 457.762 297.084 458.736 298.897C459.709 300.71 460.27 302.715 460.38 304.77Z" fill="white"/>
<path opacity="0.6" d="M75.4001 255.61C72.1101 253.71 71.9501 250.7 74.9201 248.7C73.231 249.91 71.8343 251.483 70.8324 253.304C69.8305 255.124 69.2489 257.146 69.1301 259.22V271.9C69.2496 274.074 69.8796 276.189 70.9689 278.074C72.0582 279.959 73.5763 281.561 75.4001 282.75L298 411.25C299.928 412.277 302.086 412.793 304.27 412.75V385.6C302.087 385.646 299.929 385.133 298 384.11L75.4001 255.61Z" fill="white"/>
<path d="M253.16 191.7C255.16 184.26 252.16 180.37 248.08 173.46C244 166.55 234.45 153.18 230.54 147.46C226.63 141.74 222.28 136.11 219.94 135.32C217.6 134.53 216.02 133.59 209.83 135.83C203.64 138.07 190.78 145.7 174.83 154.47C158.88 163.24 152.39 167.28 151.41 175.87C150.8 181.18 178.82 227.94 185.64 228.64C200.79 230.19 202.07 227.31 210.51 222.22C224.59 213.74 234.66 207.47 244.41 200.86C248.86 197.86 252.21 195.15 253.16 191.7Z" fill="#F0F0F0"/>
<path d="M158.81 194.61C162.52 200.61 173.33 216.95 177.08 221.78C180.83 226.61 187.35 232.1 188.87 225.91C190.39 219.72 184.58 211.91 180.64 205.76C176.7 199.61 165.7 185.13 162.13 180.4C158.56 175.67 152.61 171.05 151.21 176.58C149.81 182.11 155.11 188.59 158.81 194.61Z" fill="#E0E0E0"/>
<path d="M182.94 232.83C184.94 225.39 181.94 221.5 177.86 214.59C173.78 207.68 164.23 194.31 160.32 188.59C156.41 182.87 152.06 177.24 149.72 176.45C147.38 175.66 145.8 174.72 139.61 176.96C133.42 179.2 120.56 186.83 104.61 195.6C88.66 204.37 77.47 211.08 76.49 219.67C75.88 224.98 103.9 271.75 110.72 272.44C125.87 274 131.86 268.44 140.3 263.35C154.37 254.87 164.44 248.6 174.19 241.99C178.64 239 182 236.28 182.94 232.83Z" fill="#F0F0F0"/>
<path d="M83.9 238.42C87.6 244.42 98.41 260.75 102.16 265.59C105.91 270.43 112.43 275.9 113.95 269.71C115.47 263.52 109.66 255.71 105.73 249.56C101.8 243.41 90.73 228.93 87.21 224.2C83.69 219.47 77.69 214.85 76.29 220.39C74.89 225.93 80.19 232.4 83.9 238.42Z" fill="#E0E0E0"/>
<path d="M176.09 239.8C178.68 249.34 179.78 258.92 192.3 269.8C204.82 280.68 263.75 311.85 263.75 311.85L302.13 267.42L244.93 231.96L225.26 223.86L176.09 239.8Z" fill="#455A64"/>
<path d="M139.36 291V338.44L304.98 434.44V384.86C302.801 384.901 300.647 384.388 298.72 383.37L139.36 291Z" fill="#E91E63"/>
<path opacity="0.3" d="M139.36 291V338.44L304.98 434.44V384.86C302.801 384.901 300.647 384.388 298.72 383.37L139.36 291Z" fill="black"/>
<path d="M454.13 300.24C457.35 298.36 457.57 295.43 454.76 293.42C456.404 294.643 457.759 296.212 458.73 298.016C459.701 299.819 460.264 301.815 460.38 303.86V344.07L305 434.42V384.86C307.179 384.9 309.333 384.388 311.26 383.37L454.13 300.24Z" fill="#E91E63"/>
<path opacity="0.45" d="M454.13 300.24C457.35 298.36 457.57 295.43 454.76 293.42C456.404 294.643 457.759 296.212 458.73 298.016C459.701 299.819 460.264 301.815 460.38 303.86V344.07L305 434.42V384.86C307.179 384.9 309.333 384.388 311.26 383.37L454.13 300.24Z" fill="black"/>
<path d="M454.13 293L294.76 200.62L244.52 229.89C226.4 227.25 192.71 249.36 184.89 264.32L139.36 291L298.72 383.39C300.661 384.372 302.805 384.883 304.98 384.883C307.155 384.883 309.299 384.372 311.24 383.39L454.13 300.26C457.58 298.24 457.58 295 454.13 293Z" fill="#E91E63"/>
<path opacity="0.2" d="M454.13 293L294.76 200.62L244.52 229.89C226.4 227.25 192.71 249.36 184.89 264.32L139.36 291L298.72 383.39C300.661 384.372 302.805 384.883 304.98 384.883C307.155 384.883 309.299 384.372 311.24 383.39L454.13 300.26C457.58 298.24 457.58 295 454.13 293Z" fill="black"/>
<path opacity="0.1" d="M170.31 273.63C174.55 279.1 183.73 282.48 190.17 284.18C194.412 285.303 198.783 285.861 203.17 285.84C202.976 289.368 202.303 292.853 201.17 296.2C200.29 298.77 196.86 302.87 200.76 304.1C203.76 305.04 208.97 303.56 212.04 303.1C215.964 302.51 219.853 301.709 223.69 300.7C225.79 300.15 228.02 299.44 229.33 297.7C230.8 295.7 230.67 293.06 231.05 290.63C231.4 288.35 232.74 285.7 235.29 285.46C232.52 283.9 228.44 283.1 225.35 282.06C220.71 280.5 216.01 279.11 211.35 277.54C201.897 274.347 192.534 270.907 183.26 267.22C182.61 266.96 181.93 266.69 181.26 266.44L169.94 273.07C170.05 273.26 170.17 273.45 170.31 273.63Z" fill="black"/>
<path opacity="0.1" d="M454.13 293L294.76 200.62L244.52 229.89C258.17 238.57 271.52 243.55 285.44 251.55C292.15 255.41 299.93 261.71 316.93 273.31C322.51 277.11 329.18 281.53 336.23 280.83C341.57 280.3 346.23 277.09 351.37 275.51C352.471 275.112 353.641 274.941 354.81 275.01C359.9 275.54 359.53 281.66 359.61 285.36C359.735 291.082 358.128 296.707 355 301.5C354.276 302.518 353.772 303.676 353.52 304.9C352.88 308.72 354.76 311.63 358.4 313.23C362.04 314.83 401.12 331.09 408.08 327.08L454.08 300.24C457.57 298.25 457.57 295 454.13 293Z" fill="black"/>
<path opacity="0.1" d="M303.22 327.73C300.347 325.99 297.517 324.183 294.73 322.31C293.64 321.58 288.73 318.36 287.47 317.26C291.1 318.86 294.69 320.52 298.27 322.21C302.2 324.07 306.17 325.84 310.21 327.43C315.64 329.56 324.66 333.58 329.34 327.86C332.13 324.45 331.34 319.48 332.34 315.18C333.34 310.88 340.76 296.7 331.34 295.73C330.172 295.663 329.003 295.829 327.9 296.22C322.77 297.81 318.1 301.01 312.76 301.54C305.7 302.24 298.59 298.41 293.46 294.02C287.364 288.98 280.824 284.502 273.92 280.64C273.35 280.32 273.4 280.55 272.92 280.1C275.904 281.244 278.79 282.629 281.55 284.24C283.66 285.48 285.68 286.84 287.79 288.07C291.74 290.429 295.816 292.569 300 294.48C304.139 296.457 308.71 297.358 313.29 297.1C318.65 296.62 323.55 294.02 328.55 292.04C330.459 291.126 332.567 290.709 334.68 290.83C338.02 291.26 340.82 295.45 340.68 298.69C340.68 298.79 340.68 298.89 340.68 298.99C340.05 304.46 339.13 309.88 338.62 315.36C338.317 316.985 338.494 318.664 339.13 320.19C339.647 320.99 340.328 321.672 341.128 322.189C341.928 322.706 342.828 323.047 343.77 323.19C345.61 323.61 347.54 323.68 349.34 324.26C349.58 324.316 349.797 324.446 349.96 324.63C350.24 325.03 349.96 325.57 349.67 325.96C347.928 328.071 345.692 329.72 343.16 330.76C340.68 331.9 338.06 332.7 335.55 333.76C333.632 334.721 331.622 335.485 329.55 336.04C328.212 336.26 326.856 336.36 325.5 336.34C323.15 336.34 318.56 336.34 311.5 332.48C308.62 331 305.9 329.36 303.22 327.73Z" fill="black"/>
<path opacity="0.2" d="M162.84 304.53V352.06L165.78 353.67L165.77 306.23L162.84 304.53Z" fill="black"/>
<path opacity="0.1" d="M162.84 304.53L204.84 279.92C214.27 268.49 249.46 240.77 268.9 242.92L318.26 214.15L321.32 215.94L272.18 244.53C252.71 245.53 224.63 263.53 207.95 281.53L165.78 306.2L162.84 304.53Z" fill="black"/>
<path d="M265 218.19C260.43 219.7 251.9 219.74 243.84 213.98C234.47 207.29 218.94 195.98 218.94 195.98C218.94 195.98 202.51 171.05 207.6 170.18C211.415 169.65 215.298 169.909 219.008 170.941C222.718 171.973 226.177 173.756 229.17 176.18C235.17 181.24 263.1 209.29 263.1 209.29L265 218.19Z" fill="#FFA8A7"/>
<path d="M218.9 195.93C218.9 195.93 234.43 207.29 243.8 213.93C251.86 219.69 260.39 219.65 264.96 218.14L263.06 209.14C263.06 209.14 235.19 181 229.22 176C226.23 173.525 222.744 171.722 218.996 170.713C215.249 169.704 211.328 169.512 207.5 170.15C202.44 171.14 218.9 195.93 218.9 195.93Z" fill="#E91E63"/>
<path opacity="0.1" d="M218.9 195.93C218.9 195.93 234.43 207.29 243.8 213.93C251.86 219.69 260.39 219.65 264.96 218.14L263.06 209.14C263.06 209.14 235.19 181 229.22 176C226.23 173.525 222.744 171.722 218.996 170.713C215.249 169.704 211.328 169.512 207.5 170.15C202.44 171.14 218.9 195.93 218.9 195.93Z" fill="black"/>
<path opacity="0.2" d="M230.67 177.51L217.57 177.11L216.91 183.81C216.91 183.81 221.84 184.37 225.44 185.02C229.202 185.635 232.603 187.619 234.99 190.59C237.99 194.04 242.29 201.77 246.53 207.71C248.981 211.312 252.172 214.35 255.89 216.62L257.31 203.46C252.31 198.46 244.93 191.16 238.83 185.23C238.51 185.33 230.67 177.51 230.67 177.51Z" fill="black"/>
<path d="M231.22 226.28L224.07 218.4L223.22 208.91C225.955 206.528 227.734 203.237 228.228 199.644C228.723 196.052 227.899 192.402 225.91 189.37C222 183.02 219.64 181.07 216.52 177.89C211.67 172.97 209.33 170.94 207.52 170.13C204.457 170.3 201.407 170.664 198.39 171.22L183.64 173.33L172.44 176.4C169.71 190.59 167.44 203.71 169.55 218.74C172.4 238.55 174.66 244.53 182.05 257.57C183.29 246.98 201.79 235.99 209.51 232.46C222.76 226.41 231.22 226.28 231.22 226.28Z" fill="#455A64"/>
<path d="M202.5 113.32L196 114C189.29 114.66 182.71 115 176.86 118.72C171.759 121.958 168.094 127.03 166.62 132.89C164.62 141.17 167.83 150.16 172.7 156.15C174.349 158.401 176.197 160.499 178.22 162.42C180.22 164.18 182.13 165.64 183.45 165.81L183.11 160.25C186.042 161.644 189.28 162.27 192.52 162.07L197.52 161.82C199.754 161.694 201.939 161.112 203.941 160.112C205.943 159.111 207.719 157.712 209.16 156C210.676 154.23 211.996 152.302 213.1 150.25C213.87 148.86 213.64 147.35 214.26 145.94C214.966 144.459 215.767 143.026 216.66 141.65C217.852 139.855 218.728 137.87 219.25 135.78C219.78 133.637 219.495 131.374 218.45 129.43C217.388 127.923 215.813 126.857 214.02 126.43C217.82 122.91 218.7 115.31 213.02 113.09C211.366 112.598 209.62 112.498 207.92 112.8L202.5 113.32Z" fill="#263238"/>
<path d="M207.24 125C210.24 126.51 215.34 133.46 215.93 148.52C216.42 161.29 212.48 164.7 210.46 165.74C208.44 166.78 204.41 166.47 200.46 166.06L200.57 172.27C206.76 179.27 195.91 180.65 187.75 177.27C186.58 176.78 183.7 174.34 183.66 173.34L183 157.74C181.964 158.257 180.788 158.424 179.649 158.217C178.509 158.009 177.468 157.439 176.68 156.59C173.75 153.36 172.75 148.5 175.09 145.81C177.43 143.12 181.5 143.97 183.52 146.6C183.52 146.6 185.84 144.19 193.82 139.14C201.8 134.09 206.09 130.74 207.24 125Z" fill="#FFA8A7"/>
<path d="M183.47 146.6L183.52 152.6C184.083 152.596 184.639 152.481 185.158 152.262C185.676 152.042 186.146 151.723 186.541 151.322C186.936 150.92 187.248 150.445 187.459 149.923C187.669 149.401 187.775 148.843 187.77 148.28L187.71 141.07L183.47 146.6Z" fill="#263238"/>
<path d="M212.29 144.32C212.06 145.26 211.29 145.2 210.29 144.97C209.29 144.74 208.63 144.42 208.86 143.48C208.902 143.242 208.992 143.016 209.125 142.815C209.258 142.614 209.43 142.442 209.632 142.31C209.834 142.178 210.061 142.09 210.299 142.049C210.537 142.009 210.78 142.018 211.014 142.075C211.249 142.133 211.468 142.238 211.66 142.385C211.852 142.531 212.012 142.715 212.13 142.925C212.247 143.136 212.32 143.368 212.345 143.608C212.369 143.848 212.343 144.09 212.27 144.32H212.29Z" fill="#263238"/>
<path d="M200 144.75C200.38 145.68 199.83 146.09 198.9 146.47C197.97 146.85 197.01 147.07 196.63 146.14C196.539 145.918 196.492 145.681 196.492 145.442C196.493 145.203 196.54 144.966 196.632 144.745C196.724 144.524 196.859 144.323 197.028 144.154C197.198 143.985 197.399 143.851 197.62 143.76C197.841 143.668 198.078 143.622 198.318 143.622C198.557 143.622 198.794 143.67 199.015 143.762C199.236 143.854 199.437 143.988 199.606 144.158C199.775 144.327 199.909 144.528 200 144.75Z" fill="#263238"/>
<path d="M209.69 136.63L213.02 138.76C212.893 138.983 212.721 139.179 212.515 139.333C212.31 139.488 212.075 139.599 211.825 139.66C211.575 139.721 211.315 139.73 211.062 139.687C210.808 139.644 210.566 139.55 210.35 139.41C209.906 139.118 209.59 138.668 209.467 138.151C209.344 137.634 209.424 137.09 209.69 136.63Z" fill="#263238"/>
<path d="M194.71 140L197.94 137.72C198.099 137.922 198.215 138.155 198.281 138.404C198.346 138.654 198.36 138.913 198.322 139.168C198.284 139.423 198.194 139.667 198.057 139.886C197.921 140.104 197.742 140.293 197.53 140.44C197.092 140.74 196.557 140.862 196.033 140.78C195.508 140.698 195.035 140.419 194.71 140Z" fill="#263238"/>
<path d="M204.57 142.75L204.71 153.22L210.59 151.25L204.57 142.75Z" fill="#F28F8F"/>
<path opacity="0.15" d="M208.11 148.6C205.48 149.84 204.71 153.22 204.71 153.22L210.59 151.22L208.59 148.4C208.424 148.451 208.263 148.518 208.11 148.6Z" fill="black"/>
<path d="M191.23 151.56C191.56 153.17 193.45 154.15 195.45 153.75C197.45 153.35 198.8 151.75 198.45 150.09C198.1 148.43 196.23 147.5 194.23 147.9C192.23 148.3 190.91 149.94 191.23 151.56Z" fill="#F28F8F"/>
<path d="M212.15 147.76C212 149.4 213.52 150.89 215.55 151.08C217.58 151.27 219.35 150.08 219.55 148.46C219.75 146.84 218.18 145.33 216.15 145.14C214.12 144.95 212.31 146.12 212.15 147.76Z" fill="#F28F8F"/>
<path d="M207.44 159.51C207 161.19 205.6 160.99 203.91 160.51C202.22 160.03 200.91 159.57 201.35 157.88C201.589 157.104 202.118 156.45 202.827 156.055C203.536 155.659 204.371 155.553 205.157 155.758C205.942 155.964 206.618 156.464 207.044 157.156C207.469 157.847 207.611 158.676 207.44 159.47V159.51Z" fill="#B16668"/>
<path d="M202.75 156.94C202.389 156.938 202.03 156.999 201.69 157.12C201.54 157.37 201.426 157.639 201.35 157.92C200.91 159.61 202.23 160.11 203.91 160.55C204.412 160.688 204.923 160.785 205.44 160.84C205.529 160.582 205.583 160.313 205.6 160.04C205.627 159.253 205.344 158.486 204.81 157.906C204.277 157.326 203.537 156.979 202.75 156.94Z" fill="#F28F8F"/>
<path d="M200.48 166.08C196.34 165.8 187.76 163.9 186.23 160.64C186.864 162.298 187.991 163.722 189.46 164.72C192.11 166.72 200.55 168.78 200.55 168.78L200.48 166.08Z" fill="#F28F8F"/>
<path d="M264 199.34C257.05 190.5 243.44 179.45 241.61 176.22C240.119 173.389 238.318 170.733 236.24 168.3C235.33 167.3 234.24 166.54 233.46 165.46L230.38 161.46L230.26 161.29C229.94 160.88 229.53 160.41 229.01 160.44C228.828 160.465 228.655 160.535 228.507 160.643C228.359 160.751 228.239 160.894 228.16 161.06C228.015 161.398 227.943 161.762 227.95 162.13C227.938 163.395 228.155 164.652 228.59 165.84C228.96 166.95 230.46 168.92 229.26 169.17C223.96 170.27 217.49 168.17 212.08 167.97C211.311 167.868 210.53 168.004 209.84 168.36C209.547 168.584 209.305 168.869 209.132 169.195C208.96 169.521 208.86 169.881 208.84 170.25C208.794 171.211 208.906 172.174 209.17 173.1C210.002 175.792 211.7 178.133 214 179.76C216.42 181.46 220.75 182.22 223.6 183.01C226.45 183.8 229.69 184.38 232.19 186.21C234.96 188.21 237.19 191.33 239.19 194.05C243.19 199.27 246.87 205.33 250.52 210.77C256.15 219.17 261.4 219.49 264.98 218.23C268.56 216.97 271 208.18 264 199.34Z" fill="#FFA8A7"/>
<path d="M182.1 182.2C184.36 186.88 191.86 197.99 194.35 210.81C195.602 217.083 196.461 223.429 196.92 229.81C197.19 232.08 214 227.06 214.3 224.72C214.6 222.38 212.94 211.3 210.53 203.72C208.12 196.14 204.79 185.27 200.53 181.35L182.1 182.2Z" fill="#E91E63"/>
<path opacity="0.1" d="M182.1 182.2C184.36 186.88 191.86 197.99 194.35 210.81C195.602 217.083 196.461 223.429 196.92 229.81C197.19 232.08 214 227.06 214.3 224.72C214.6 222.38 212.94 211.3 210.53 203.72C208.12 196.14 204.79 185.27 200.53 181.35L182.1 182.2Z" fill="black"/>
<path d="M183.22 163.57C181.52 164.12 180.55 164.32 179.57 167.37C178.71 170.04 177.42 174.67 177.57 176.37C177.84 179 180.92 182.37 186.21 184.15C191.5 185.93 200.21 184.53 203.41 182.74C208.25 180.08 208.95 177.1 208.25 173.6C207.714 171.161 206.998 168.764 206.11 166.43C203.97 166.43 202.11 166.22 200.46 166.05L200.51 167.96C200.51 167.96 199.16 169.12 194.51 169.44C185.16 170.1 183.37 167.14 183.37 167.14L183.22 163.57Z" fill="#E91E63"/>
<path opacity="0.1" d="M190.43 173.3C192.554 173.904 194.784 174.038 196.966 173.692C199.147 173.347 201.226 172.53 203.06 171.3C203.461 170.988 203.775 170.576 203.969 170.107C204.163 169.637 204.232 169.125 204.169 168.62C204.105 168.116 203.911 167.637 203.606 167.23C203.302 166.823 202.896 166.502 202.43 166.3H202.15L200.48 166.14L200.53 168.05C200.53 168.05 199.18 169.21 194.53 169.53C185.18 170.19 183.39 167.23 183.39 167.23C182.94 167.5 184.19 171.65 190.43 173.3Z" fill="black"/>
<path d="M205.82 271.73C207.25 266.98 211.23 268.23 219.22 272.22C227.21 276.21 237.97 277.3 239.45 277.34C241.13 277.34 243.23 282.34 237.45 285.06C231.67 287.78 230.89 288.62 229.54 292.46C227.63 297.9 224.79 297.51 220.63 297.52C217.884 297.348 215.148 297.984 212.76 299.35C206.39 302.45 203.09 300.01 203.09 300.01C203.09 300.01 206.39 290.8 206 282.24C205.61 273.68 204.89 274.8 205.82 271.73Z" fill="#FAFAFA"/>
<path d="M212.18 282.42C214.6 279.75 215.11 277.42 213.73 274.87L205.59 276.44C205.72 277.65 205.88 279.44 206.01 282.24C206.06 283.4 206.01 284.57 206.01 285.72C208 285.09 210.76 284 212.18 282.42Z" fill="#E6E6E6"/>
<path d="M230.72 289.75C231.78 287.97 233.37 286.98 237.46 285.06C233.34 285.35 225.66 280.7 220.6 277.06C220.6 277 225.74 286.55 230.72 289.75Z" fill="#E6E6E6"/>
<path d="M212.77 299.35C214.24 298.522 215.845 297.96 217.51 297.69C217.735 292.411 216.631 287.161 214.3 282.42C214.96 289.15 213.54 296.7 211.24 300C211.761 299.81 212.272 299.593 212.77 299.35Z" fill="#E6E6E6"/>
<path d="M173.74 176.06C163.04 177.89 158.24 178.72 154.25 197.68C150.4 216 144.25 235.88 146.86 243.4C149.47 250.92 171.73 271.72 180.46 276.77C189.19 281.82 196.29 283.47 203.32 283.53C212.16 283.6 217.26 275.14 212.43 272.46C210.86 271.58 209.13 271.67 206.34 270.85C203.29 269.96 199.74 269.27 196.34 267.85C198.481 267.62 200.562 267 202.48 266.02C203.71 265.45 207.4 263.43 204.7 262.31C204.205 262.143 203.68 262.085 203.16 262.14L191.02 262.47C189.07 262.52 187.39 262.69 185.57 261.98C183.789 261.191 182.229 259.975 181.03 258.44C179.73 256.91 178.5 255.3 177.21 253.74C171.13 246.36 164.96 237.31 164.96 237.31L172.96 204.85C172.96 204.85 179.32 188.29 173.74 176.06Z" fill="#FFA8A7"/>
<path d="M174.55 175.83C169.1 175.83 162.55 177.36 159.25 182.14C155.95 186.92 154.43 194.48 150.43 211.48C146.43 228.48 145.51 236.64 145.54 240.93C145.57 245.22 153.9 253.26 153.9 253.26C158.03 248.635 163.282 245.153 169.15 243.15L165.48 237.3C165.48 237.3 172.56 208.15 174.55 202.48C176.54 196.81 179.56 183 174.55 175.83Z" fill="#E91E63"/>
<path opacity="0.1" d="M174.55 175.83C169.1 175.83 162.55 177.36 159.25 182.14C155.95 186.92 154.43 194.48 150.43 211.48C146.43 228.48 145.51 236.64 145.54 240.93C145.57 245.22 153.9 253.26 153.9 253.26C158.03 248.635 163.282 245.153 169.15 243.15L165.48 237.3C165.48 237.3 172.56 208.15 174.55 202.48C176.54 196.81 179.56 183 174.55 175.83Z" fill="black"/>
<path opacity="0.2" d="M165.48 237.3C162.48 235.86 157.64 238.4 157.64 238.4C157.64 238.4 160.35 235.4 165.94 235.4L165.48 237.3Z" fill="black"/>
<path d="M143.77 227.72C143.651 227.723 143.534 227.684 143.44 227.61L140.18 225.1C140.11 225.047 140.055 224.977 140.02 224.897C139.985 224.816 139.971 224.728 139.98 224.64C139.985 224.551 140.012 224.465 140.059 224.39C140.106 224.315 140.172 224.253 140.25 224.21L143.56 222.33L140.56 219.44C140.496 219.379 140.448 219.304 140.42 219.22C140.392 219.136 140.385 219.047 140.4 218.96C140.417 218.874 140.454 218.793 140.508 218.724C140.562 218.655 140.631 218.599 140.71 218.56L144.24 216.95L141.3 214.72C141.226 214.664 141.167 214.589 141.13 214.503C141.094 214.417 141.08 214.323 141.09 214.23C141.1 214.137 141.135 214.047 141.192 213.972C141.248 213.896 141.323 213.837 141.41 213.8L145.31 212.07L142.43 209.26C142.369 209.198 142.323 209.122 142.297 209.039C142.271 208.956 142.265 208.868 142.28 208.782C142.294 208.696 142.329 208.615 142.381 208.545C142.434 208.475 142.502 208.419 142.58 208.38L147.01 206.38C147.143 206.322 147.293 206.319 147.428 206.371C147.563 206.424 147.672 206.528 147.73 206.66C147.788 206.793 147.792 206.943 147.739 207.078C147.687 207.213 147.583 207.322 147.45 207.38L143.74 209L146.62 211.82C146.684 211.879 146.732 211.953 146.76 212.035C146.788 212.117 146.795 212.205 146.78 212.29C146.766 212.377 146.73 212.46 146.676 212.53C146.622 212.599 146.551 212.655 146.47 212.69L142.67 214.38L145.6 216.6C145.674 216.657 145.732 216.732 145.767 216.818C145.802 216.904 145.814 216.998 145.8 217.09C145.791 217.181 145.758 217.269 145.706 217.344C145.653 217.419 145.582 217.48 145.5 217.52L141.87 219.17L144.87 222.01C144.931 222.068 144.977 222.139 145.005 222.217C145.033 222.296 145.042 222.38 145.031 222.463C145.021 222.546 144.99 222.625 144.943 222.694C144.896 222.763 144.833 222.82 144.76 222.86L141.52 224.7L144.13 226.7C144.186 226.743 144.234 226.796 144.269 226.856C144.305 226.917 144.328 226.984 144.337 227.054C144.347 227.124 144.342 227.195 144.324 227.263C144.305 227.331 144.273 227.395 144.23 227.45C144.186 227.533 144.119 227.603 144.038 227.65C143.957 227.698 143.864 227.722 143.77 227.72Z" fill="#E91E63"/>
<path d="M271.75 207.48C271.677 207.494 271.603 207.494 271.53 207.48C271.401 207.421 271.299 207.314 271.247 207.182C271.195 207.049 271.196 206.902 271.25 206.77L272.86 203.03L268.86 202.9C268.772 202.896 268.687 202.871 268.61 202.828C268.534 202.784 268.469 202.723 268.42 202.65C268.381 202.573 268.36 202.487 268.36 202.4C268.36 202.313 268.381 202.227 268.42 202.15L270 198.3L266.34 198.63C266.249 198.641 266.156 198.627 266.072 198.59C265.987 198.553 265.914 198.494 265.86 198.42C265.802 198.346 265.766 198.257 265.755 198.164C265.745 198.07 265.76 197.975 265.8 197.89L267.35 194.22L263.26 194.12C263.175 194.118 263.092 194.096 263.018 194.056C262.943 194.016 262.879 193.959 262.83 193.89C262.784 193.822 262.754 193.744 262.742 193.663C262.73 193.582 262.736 193.499 262.76 193.42L263.91 189.87L260.62 190.15C260.478 190.161 260.338 190.116 260.229 190.024C260.121 189.932 260.053 189.802 260.04 189.66C260.033 189.59 260.041 189.519 260.062 189.451C260.083 189.383 260.117 189.321 260.163 189.267C260.208 189.213 260.264 189.168 260.328 189.136C260.391 189.104 260.459 189.085 260.53 189.08L264.63 188.74C264.717 188.732 264.805 188.746 264.886 188.781C264.966 188.816 265.036 188.871 265.09 188.94C265.146 189.009 265.183 189.091 265.199 189.179C265.215 189.266 265.208 189.356 265.18 189.44L264 193.07L268.17 193.17C268.258 193.174 268.344 193.199 268.42 193.243C268.496 193.286 268.562 193.347 268.61 193.42C268.65 193.497 268.67 193.583 268.67 193.67C268.67 193.757 268.65 193.843 268.61 193.92L267.09 197.48L270.76 197.15C270.854 197.142 270.948 197.158 271.034 197.196C271.12 197.235 271.194 197.295 271.25 197.37C271.304 197.446 271.338 197.535 271.346 197.628C271.355 197.721 271.339 197.815 271.3 197.9L269.59 201.81L273.59 201.95C273.676 201.953 273.761 201.977 273.836 202.019C273.911 202.062 273.975 202.123 274.021 202.196C274.067 202.269 274.095 202.352 274.102 202.438C274.109 202.524 274.094 202.611 274.06 202.69L272.15 207.16C272.115 207.242 272.06 207.315 271.99 207.37C271.921 207.426 271.838 207.464 271.75 207.48Z" fill="#E91E63"/>
<path d="M154.84 266.52C154.697 266.518 154.561 266.461 154.46 266.36C154.397 266.297 154.35 266.219 154.326 266.133C154.301 266.048 154.299 265.957 154.32 265.87L155.11 262.14L150.95 262.48C150.863 262.483 150.777 262.467 150.697 262.432C150.618 262.398 150.547 262.346 150.49 262.28C150.437 262.212 150.401 262.131 150.385 262.046C150.369 261.961 150.375 261.873 150.4 261.79L151.53 258.08L147.91 258.8C147.819 258.817 147.725 258.81 147.638 258.78C147.55 258.751 147.472 258.699 147.41 258.63C147.347 258.561 147.303 258.477 147.284 258.385C147.264 258.294 147.27 258.199 147.3 258.11L148.59 254.04L144.59 254.33C144.503 254.336 144.415 254.322 144.335 254.287C144.255 254.252 144.185 254.198 144.13 254.13C144.075 254.062 144.038 253.982 144.022 253.897C144.007 253.811 144.013 253.723 144.04 253.64L145.47 249C145.481 248.924 145.508 248.852 145.55 248.787C145.592 248.723 145.647 248.669 145.712 248.628C145.776 248.587 145.849 248.561 145.925 248.55C146.001 248.54 146.078 248.547 146.151 248.57C146.225 248.592 146.292 248.631 146.349 248.682C146.406 248.733 146.451 248.796 146.481 248.866C146.512 248.937 146.526 249.013 146.524 249.09C146.522 249.166 146.504 249.241 146.47 249.31L145.27 253.2L149.27 252.91C149.357 252.905 149.444 252.92 149.524 252.955C149.604 252.989 149.675 253.043 149.73 253.11C149.783 253.18 149.819 253.262 149.835 253.349C149.851 253.436 149.845 253.526 149.82 253.61L148.56 257.61L152.17 256.89C152.261 256.873 152.354 256.879 152.442 256.908C152.529 256.937 152.608 256.989 152.67 257.057C152.732 257.125 152.776 257.208 152.797 257.298C152.818 257.388 152.816 257.481 152.79 257.57L151.62 261.39L155.71 261.06C155.792 261.051 155.876 261.063 155.953 261.094C156.03 261.126 156.097 261.176 156.15 261.24C156.207 261.301 156.248 261.374 156.271 261.454C156.294 261.534 156.297 261.619 156.28 261.7L155.5 265.35L158.75 264.72C158.821 264.703 158.895 264.701 158.967 264.713C159.039 264.725 159.108 264.752 159.169 264.792C159.231 264.832 159.283 264.883 159.324 264.944C159.365 265.005 159.393 265.073 159.407 265.145C159.42 265.217 159.419 265.291 159.403 265.362C159.387 265.434 159.357 265.501 159.314 265.56C159.272 265.62 159.217 265.67 159.155 265.708C159.092 265.745 159.022 265.77 158.95 265.78L154.95 266.55L154.84 266.52Z" fill="#E91E63"/>
<path d="M163.87 133.65L159.33 131.22L161.94 128.99L152.51 124.57L156.63 122.19L146.47 116.79L152.51 122.11L147.6 124.57L158.68 129.38L155.94 132.11L163.87 133.65Z" fill="#F28F8F"/>
<path d="M166.19 127.67L163.23 124.84L164.84 123.64L162.24 120.57L164.74 119.72L163.87 115.82L165.62 120.03L163.87 120.79L166.67 123.87L164.78 125.22L166.19 127.67Z" fill="#F28F8F"/>
<path d="M164.46 138.12L158.89 142.47L156.83 139.44L151.96 142.09L149.95 138.34L142.41 140.27L151.15 136.1L153.65 139.54L157.7 137.37L159.39 140.27L164.46 138.12Z" fill="#F28F8F"/>
<path opacity="0.1" d="M241.92 332.46C241.858 332.921 241.694 333.361 241.44 333.75C240.68 335.49 241.93 337.49 243.44 338.59C244.751 339.457 246.228 340.044 247.777 340.312C249.326 340.581 250.913 340.525 252.44 340.15C255.501 339.357 258.319 337.818 260.64 335.67C262.8 333.77 264.81 330.96 263.89 328.24C263.09 325.89 260.32 324.71 257.89 324.87C255.46 325.03 253.14 326.22 250.89 327.26C248.704 328.288 246.303 328.775 243.89 328.68C243.04 328.68 241.89 328.74 241.32 329.57C240.59 330.85 241.88 331.26 241.92 332.46Z" fill="black"/>
<path opacity="0.1" d="M269.71 347.71C269.18 348.99 270.15 350.48 271.42 351.03C272.738 351.467 274.147 351.557 275.51 351.29C277.511 351.193 279.479 350.739 281.32 349.95C282.196 349.401 283.119 348.932 284.08 348.55C286.03 347.96 288.16 348.8 290.16 348.41C291.301 348.156 292.323 347.524 293.059 346.616C293.796 345.709 294.205 344.579 294.22 343.41L276.72 343.48C272.13 343.48 267.86 344.69 263.29 344.9C264.24 347.19 267.38 348.33 269.71 347.71Z" fill="black"/>
<path d="M244.93 326C244.76 326.04 244.593 326.09 244.43 326.15C243.961 326.299 243.534 326.558 243.186 326.906C242.838 327.254 242.579 327.681 242.43 328.15C242.306 328.63 242.334 329.137 242.51 329.6C242.7 329.92 243.18 329.85 243.12 330.4C243.054 330.763 242.858 331.09 242.57 331.32C242.287 331.548 242.052 331.83 241.88 332.15C241.782 332.527 241.808 332.926 241.956 333.287C242.104 333.648 242.365 333.95 242.7 334.15C243.365 334.523 244.001 334.948 244.6 335.42C245.36 336.18 245.7 337.42 246.73 337.77C247.29 337.86 247.863 337.829 248.41 337.68C249.69 337.51 250.56 338.51 251.88 337.78C252.4 337.5 252.8 337.01 253.32 336.78C254.04 336.537 254.779 336.356 255.53 336.24C256.263 335.948 256.964 335.579 257.62 335.14C258.98 334.273 260.167 333.161 261.12 331.86C263.059 329.283 263.955 326.069 263.63 322.86C263.486 320.937 262.643 319.134 261.26 317.79C258.74 315.56 254.6 315.84 252.26 313.39C252.49 315.45 253.09 317.46 253.26 319.54C253.39 320.577 253.301 321.63 253 322.63C252.37 324.25 251.13 322.82 249.94 322.56C249.55 322.459 249.141 322.446 248.745 322.522C248.349 322.598 247.975 322.762 247.65 323C247.262 323.345 247.017 323.824 246.966 324.34C246.914 324.857 247.058 325.375 247.37 325.79C246.551 325.769 245.733 325.84 244.93 326Z" fill="#FAFAFA"/>
<path d="M253 322.59C252.71 323.34 252.29 323.43 251.8 323.29C251.8 323.29 255.51 325.9 256.2 328.29C257.11 324.51 253.26 319.46 253.26 319.46C253.396 320.51 253.307 321.577 253 322.59Z" fill="#E6E6E6"/>
<path d="M247.36 331C247.36 331 244.76 331.07 244.01 335C244.224 335.13 244.422 335.284 244.6 335.46C245.17 336.03 245.51 336.9 246.08 337.46C245.26 336.28 245.42 331.89 247.36 331Z" fill="#E6E6E6"/>
<path d="M254.06 336.46C254.557 336.403 255.049 336.306 255.53 336.17C255.998 335.989 256.45 335.768 256.88 335.51C257.247 334.125 257.156 332.659 256.62 331.33C256.667 332.333 256.456 333.33 256.008 334.228C255.56 335.126 254.889 335.895 254.06 336.46Z" fill="#E6E6E6"/>
<path d="M251.79 327.92C250.93 324.84 247.04 323.92 247.03 323.92C246.94 324.23 246.923 324.556 246.98 324.874C247.037 325.191 247.167 325.491 247.36 325.75C248.065 325.92 248.726 326.236 249.301 326.678C249.875 327.119 250.351 327.677 250.696 328.315C251.041 328.952 251.248 329.655 251.304 330.378C251.36 331.101 251.263 331.827 251.02 332.51C251.02 332.51 252.64 331 251.79 327.92Z" fill="#E6E6E6"/>
<path d="M267.61 342C266.56 342.144 265.497 342.177 264.44 342.1C264.98 343.37 264.99 344.04 266.03 344.93C266.675 345.477 267.446 345.854 268.274 346.029C269.101 346.204 269.959 346.17 270.77 345.93C270.94 347.29 271.29 348.68 272.77 349.16C273.474 349.345 274.222 349.267 274.873 348.942C275.525 348.616 276.035 348.065 276.31 347.39C276.928 348.124 277.788 348.612 278.736 348.764C279.683 348.917 280.653 348.724 281.47 348.22C283.29 347 283.76 345.87 286.15 346.33C287.94 346.67 289.56 346.83 291.05 345.54C292.211 344.381 293.078 342.962 293.58 341.4C293.597 341.366 293.605 341.328 293.605 341.29C293.605 341.252 293.597 341.214 293.58 341.18C293.58 341.1 293.44 341.09 293.36 341.08C290.23 340.73 285.83 340.85 283.98 337.72C283.584 336.941 283.269 336.123 283.04 335.28C282.804 334.432 282.303 333.683 281.61 333.14C281.258 332.881 280.825 332.756 280.389 332.787C279.953 332.818 279.542 333.004 279.23 333.31C278.843 332.746 278.278 332.328 277.626 332.121C276.974 331.915 276.271 331.932 275.63 332.17C275.063 332.328 274.538 332.608 274.092 332.992C273.646 333.376 273.29 333.853 273.05 334.39C272.36 335.69 272.39 337.27 271.79 338.63C271.452 339.447 270.925 340.172 270.252 340.746C269.579 341.319 268.78 341.725 267.92 341.93L267.61 342Z" fill="#FAFAFA"/>
<path d="M289.39 346.44C286.93 345.81 282.81 342.32 281.34 339.44C281.213 342.039 282.022 344.597 283.62 346.65C284.005 346.431 284.429 346.289 284.868 346.234C285.307 346.18 285.753 346.212 286.18 346.33C287.229 346.599 288.325 346.637 289.39 346.44Z" fill="#E6E6E6"/>
<path d="M278.56 348.74C276.96 346.63 277.09 339.45 277.09 339.45C276.3 342.021 276.044 344.727 276.34 347.4C276.902 348.091 277.687 348.564 278.56 348.74Z" fill="#E6E6E6"/>
<path d="M270.59 343.89C269.654 344.779 268.503 345.41 267.25 345.72C268.367 346.181 269.605 346.258 270.77 345.94C271.31 343.83 274.77 339.94 274.77 339.94C273.174 341.024 271.763 342.358 270.59 343.89Z" fill="#E6E6E6"/>
<path opacity="0.1" d="M283.66 245.13L306.36 232.13C306.981 231.819 307.666 231.657 308.36 231.657C309.054 231.657 309.739 231.819 310.36 232.13L348.36 254.13C348.605 254.21 348.818 254.365 348.969 254.574C349.121 254.782 349.202 255.033 349.202 255.29C349.202 255.548 349.121 255.799 348.969 256.007C348.818 256.215 348.605 256.371 348.36 256.45L325.65 269.45C325.029 269.759 324.344 269.92 323.65 269.92C322.956 269.92 322.271 269.759 321.65 269.45L283.65 247.45C283.41 247.365 283.203 247.207 283.057 246.998C282.911 246.79 282.833 246.541 282.834 246.287C282.835 246.032 282.915 245.784 283.063 245.577C283.211 245.37 283.42 245.214 283.66 245.13Z" fill="black"/>
<path d="M286.05 233.11L308.93 219.91L347.05 241.92L324.18 255.13L286.05 233.11Z" fill="#455A64"/>
<path d="M286.05 246.32L324.18 268.33V255.13L286.05 233.11V246.32Z" fill="#37474F"/>
<path d="M347.05 241.92L324.18 255.13V268.33L347.05 255.13V241.92Z" fill="#263238"/>
<path d="M305.36 235.46L320.11 244C321.32 244.641 322.663 244.989 324.032 245.015C325.401 245.041 326.757 244.745 327.99 244.15C330.09 242.93 329.99 240.9 327.74 239.6L313 231.06C311.79 230.419 310.447 230.071 309.078 230.045C307.709 230.019 306.353 230.315 305.12 230.91C303 232.13 303.12 234.16 305.36 235.46Z" fill="#263238"/>
<path d="M308.39 234.72C308.39 234.72 306 218.51 311 211.89C311 211.89 311.89 216.63 314.15 217.52C317.85 218.97 321.54 217.86 323.64 220.29C325.74 222.72 324.8 224.42 327.46 226.29C329.08 227.4 333.82 225.96 336.35 228.16C336.35 228.16 326.86 233.67 323.64 243.57L308.39 234.72Z" fill="#FAFAFA"/>
<path d="M320.43 218.68C319.07 218.43 317.53 218.38 315.93 218.04C313.93 223.26 314.93 232.14 314.93 232.14C315.26 226.65 318.53 219.87 320.43 218.68Z" fill="#E6E6E6"/>
<path d="M327.46 226.25C327.129 226.024 326.821 225.766 326.54 225.48C322.96 229.12 320.71 236.48 320.71 236.48C322.17 233.86 329.65 227.01 331.95 226.83C330.11 226.71 328.33 226.85 327.46 226.25Z" fill="#E6E6E6"/>
</svg>
