<svg width="500" height="500" viewBox="0 0 500 500" fill="none" xmlns="http://www.w3.org/2000/svg">
<path d="M500 382.4H0V382.65H500V382.4Z" fill="#EBEBEB"/>
<path d="M357.68 389.21H324.56V389.46H357.68V389.21Z" fill="#EBEBEB"/>
<path d="M437.26 391.4H428.57V391.65H437.26V391.4Z" fill="#EBEBEB"/>
<path d="M377.87 398.49H358.68V398.74H377.87V398.49Z" fill="#EBEBEB"/>
<path d="M250 395.11H206.81V395.36H250V395.11Z" fill="#EBEBEB"/>
<path d="M197.9 395.11H191.57V395.36H197.9V395.11Z" fill="#EBEBEB"/>
<path d="M170.99 390.89H77.3101V391.14H170.99V390.89Z" fill="#EBEBEB"/>
<path d="M237 337.8H43.91C42.3973 337.797 40.9475 337.195 39.8788 336.124C38.8102 335.053 38.21 333.603 38.21 332.09V60.66C38.2231 59.156 38.8292 57.718 39.8964 56.6582C40.9637 55.5985 42.4059 55.0026 43.91 55H237C238.514 55 239.967 55.6016 241.038 56.6724C242.108 57.7433 242.71 59.1956 242.71 60.71V332.09C242.71 333.604 242.108 335.057 241.038 336.128C239.967 337.198 238.514 337.8 237 337.8ZM43.91 55.2C42.4636 55.2026 41.0774 55.7791 40.0556 56.8027C39.0338 57.8264 38.46 59.2136 38.46 60.66V332.09C38.46 333.536 39.0338 334.924 40.0556 335.947C41.0774 336.971 42.4636 337.547 43.91 337.55H237C238.447 337.547 239.834 336.971 240.858 335.948C241.881 334.924 242.457 333.537 242.46 332.09V60.66C242.457 59.2127 241.881 57.8255 240.858 56.8021C239.834 55.7787 238.447 55.2026 237 55.2H43.91Z" fill="#EBEBEB"/>
<path d="M453.31 337.8H260.21C258.696 337.797 257.246 337.195 256.175 336.125C255.105 335.054 254.503 333.604 254.5 332.09V60.66C254.516 59.1551 255.124 57.7171 256.193 56.6576C257.262 55.5981 258.705 55.0025 260.21 55H453.31C454.812 55.0052 456.252 55.6022 457.317 56.6617C458.382 57.7212 458.987 59.1578 459 60.66V332.09C459 333.601 458.401 335.05 457.335 336.121C456.268 337.191 454.821 337.795 453.31 337.8ZM260.21 55.2C258.763 55.2026 257.375 55.7787 256.352 56.8021C255.329 57.8255 254.753 59.2127 254.75 60.66V332.09C254.753 333.537 255.329 334.924 256.352 335.948C257.375 336.971 258.763 337.547 260.21 337.55H453.31C454.757 337.547 456.145 336.971 457.168 335.948C458.191 334.924 458.767 333.537 458.77 332.09V60.66C458.767 59.2127 458.191 57.8255 457.168 56.8021C456.145 55.7787 454.757 55.2026 453.31 55.2H260.21Z" fill="#EBEBEB"/>
<path d="M398.97 86.47H249.96V274.38H398.97V86.47Z" fill="#E6E6E6"/>
<path d="M406.4 86.47H253.43V274.38H406.4V86.47Z" fill="#F0F0F0"/>
<path d="M395.99 265.92V210.56H263.82V265.92H395.99Z" fill="#F5F5F5"/>
<path d="M392.54 207.54V97.96L267.28 97.96V207.54H392.54Z" fill="#FAFAFA"/>
<path d="M392.54 207.54V97.96H391.23V207.54H392.54Z" fill="#E6E6E6"/>
<path d="M287.28 207.54L331.05 97.96H358.35L314.58 207.54H287.28Z" fill="white"/>
<path d="M320.45 207.54L364.22 97.96H374.86L331.09 207.54H320.45Z" fill="white"/>
<path d="M395.99 265.92V212.21H393.5V265.92H395.99Z" fill="#E6E6E6"/>
<path d="M403.1 205.58H256.73V215.54H403.1V205.58Z" fill="#F0F0F0"/>
<path d="M210.73 80.21H447.23C447.937 80.2074 448.615 79.9252 449.115 79.4251C449.615 78.9249 449.897 78.2473 449.9 77.54C449.897 76.8327 449.615 76.1551 449.115 75.6549C448.615 75.1548 447.937 74.8726 447.23 74.87H210.73C210.023 74.8726 209.345 75.1548 208.845 75.6549C208.345 76.1551 208.063 76.8327 208.06 77.54C208.063 78.2473 208.345 78.9249 208.845 79.4251C209.345 79.9252 210.023 80.2074 210.73 80.21Z" fill="#EBEBEB"/>
<path d="M237.06 351.67H256.73L256.73 67.76H237.06L237.06 351.67Z" fill="#FAFAFA"/>
<path d="M243.24 351.67H248.25L248.25 67.76H243.24L243.24 351.67Z" fill="#F0F0F0"/>
<path d="M224.75 351.67H244.42L244.42 67.76H224.75L224.75 351.67Z" fill="#FAFAFA"/>
<path d="M230.93 351.67H235.94L235.94 67.76H230.93L230.93 351.67Z" fill="#F0F0F0"/>
<path d="M212.61 351.67H232.28L232.28 67.76H212.61L212.61 351.67Z" fill="#FAFAFA"/>
<path d="M221.29 351.67H223.8L223.8 67.76H221.29L221.29 351.67Z" fill="#F0F0F0"/>
<path d="M423.41 351.67H443.08L443.08 67.76H423.41L423.41 351.67Z" fill="#FAFAFA"/>
<path d="M429.59 351.67H434.6L434.6 67.76H429.59L429.59 351.67Z" fill="#F0F0F0"/>
<path d="M411.1 351.67H430.77L430.77 67.76H411.1L411.1 351.67Z" fill="#FAFAFA"/>
<path d="M417.27 351.67H422.28L422.28 67.76H417.27L417.27 351.67Z" fill="#F0F0F0"/>
<path d="M398.96 351.67H418.63L418.63 67.76H398.96L398.96 351.67Z" fill="#FAFAFA"/>
<path d="M407.64 351.67H410.15L410.15 67.76H407.64L407.64 351.67Z" fill="#F0F0F0"/>
<path d="M61.6199 349.11H194.63V255.5H61.6199V349.11Z" fill="#F5F5F5"/>
<path d="M188.17 342.65V261.95H68.0699V342.65H188.17Z" fill="#EBEBEB"/>
<path d="M113.89 342.65V261.95H68.0702V342.65H113.89Z" fill="#E6E6E6"/>
<path d="M113.89 342.64V261.94H85.1501V342.64H113.89Z" fill="#E0E0E0"/>
<path d="M180.56 320.42V284.18H178.53V320.42H180.56Z" fill="#E0E0E0"/>
<path d="M188.17 267.21V261.95H68.0699V267.21H188.17Z" fill="#E0E0E0"/>
<path d="M61.6199 255.49H29.1099V349.1H61.6199V255.49Z" fill="#E6E6E6"/>
<path d="M64.7701 382.4H61.6201V349.1H67.0601L64.7701 382.4Z" fill="#F5F5F5"/>
<path d="M191.48 382.4H194.63V349.1H189.19L191.48 382.4Z" fill="#F5F5F5"/>
<path d="M32.2599 382.4H29.1099V349.1H34.5499L32.2599 382.4Z" fill="#E6E6E6"/>
<path d="M158.97 382.4H162.12V349.1H156.69L158.97 382.4Z" fill="#E6E6E6"/>
<path d="M105.81 180.06C114.6 168.57 135.52 164.3 142.75 157.06C152.22 147.56 152.17 133.31 144.11 128.17C137.11 123.7 113.9 153.92 111.29 157.29C102.29 168.9 99.69 177.52 98 185.86C98.19 178.77 98.38 172.25 98.53 167.23C99.02 150.83 99.63 145.56 99.91 143.94C100.91 143.14 102.03 142.22 102.69 141.73C108.31 137.54 120.76 132.55 126.99 126.47C136.08 117.58 134.61 106.94 128.23 102.98C121.57 98.84 109.78 108.63 103.52 118.33C97.26 128.03 99.94 137.33 98.19 145.33C97.82 146.91 97.44 152.91 97.09 161.24C95.6106 153.037 91.0758 145.701 84.4 140.71C75.78 133.83 68.34 125.46 61.24 126.54C54.14 127.62 58 138.7 63.58 146.48C68.58 153.41 93.27 160.32 96.9 165.89C96.47 177.17 96.09 191.46 95.82 204.77C93.87 197.9 95.21 197.32 87.24 186.77C82.5 180.51 63.06 172.77 60.75 177.09C58.44 181.41 61.95 189.52 69.29 195.21C75.21 199.8 88.29 199.79 91.38 202.64C92.09 203.3 94.43 205.85 95.77 207.32C95.45 223.56 95.31 237.9 95.47 242.79L96.74 242.84C96.68 241.58 96.83 233.32 97.08 222.38C100.27 216.56 121.74 213.16 128.37 207.11C135.31 200.78 140.29 193.39 137.32 188.44C134.84 184.31 115.32 189.92 107.32 196.76C102.03 201.31 98.8 206.17 97.32 212.7C97.5 205.25 97.71 197.25 97.91 189.7C99.5 187.84 103.17 183.5 105.81 180.06Z" fill="#E6E6E6"/>
<path d="M107.68 255.49H85.3898C84.1698 255.49 83.1198 253.91 82.8798 251.7L81.2998 237.28H111.77L110.19 251.7C109.94 253.91 108.9 255.49 107.68 255.49Z" fill="#F0F0F0"/>
<path d="M112.41 242.87H80.6602C79.9002 242.87 79.2602 241.82 79.1802 240.42L78.5302 229.76C78.4302 228.12 79.1202 226.69 80.0102 226.69H113.06C113.95 226.69 114.64 228.12 114.54 229.76L113.89 240.42C113.81 241.82 113.17 242.87 112.41 242.87Z" fill="#F0F0F0"/>
<path d="M250 427.56C357.082 427.56 443.89 422.492 443.89 416.24C443.89 409.988 357.082 404.92 250 404.92C142.917 404.92 56.1099 409.988 56.1099 416.24C56.1099 422.492 142.917 427.56 250 427.56Z" fill="#F5F5F5"/>
<path d="M185.28 408.83H193.25L193.16 390.37H185.19L185.28 408.83Z" fill="#FF8B7B"/>
<path d="M114.32 403.36L121.95 405.66L130.29 388.89L122.65 386.59L114.32 403.36Z" fill="#FF8B7B"/>
<path d="M122.72 404.93L114.14 402.34C113.992 402.291 113.831 402.297 113.688 402.358C113.544 402.418 113.428 402.529 113.36 402.67L110.12 409.1C110.045 409.261 110.006 409.437 110.005 409.615C110.004 409.793 110.041 409.969 110.114 410.131C110.187 410.293 110.294 410.438 110.428 410.555C110.562 410.672 110.72 410.759 110.89 410.81C113.89 411.66 115.4 411.93 119.17 413.07C121.49 413.77 126.31 415.49 129.52 416.46C132.73 417.43 133.95 414.34 132.71 413.65C127.15 410.57 125.29 408.07 123.84 405.78C123.575 405.376 123.18 405.076 122.72 404.93Z" fill="#263238"/>
<path d="M193.15 407.91H184.44C184.285 407.908 184.134 407.961 184.015 408.06C183.896 408.159 183.816 408.297 183.79 408.45L182.56 415.54C182.531 415.715 182.54 415.895 182.588 416.066C182.635 416.237 182.72 416.396 182.835 416.531C182.95 416.667 183.093 416.775 183.255 416.849C183.417 416.923 183.592 416.961 183.77 416.96C186.91 416.9 191.44 416.72 195.39 416.72C200 416.72 199.9 416.97 205.31 416.97C208.59 416.97 209.31 413.66 207.95 413.36C201.65 412 200.65 411.85 195.1 408.53C194.518 408.151 193.844 407.937 193.15 407.91Z" fill="#263238"/>
<path d="M188.7 161.53L198.57 155.92C198.57 155.92 216.57 181.48 220.01 183.73C224.72 186.79 230.53 194.35 238.38 199.96C238.25 201.31 236.87 204.6 235.89 205.32C226.27 201.61 213.79 194.61 210.62 190.52C203.39 181.21 188.7 161.53 188.7 161.53Z" fill="#FF8B7B"/>
<path d="M184.34 157.45C182.93 164.88 195.24 177.01 195.24 177.01L209.46 166.36C205.97 160.167 201.852 154.349 197.17 149C190.15 141.41 185.9 149.31 184.34 157.45Z" fill="#E91E63"/>
<path opacity="0.5" d="M184.34 157.45C182.93 164.88 195.24 177.01 195.24 177.01L209.46 166.36C205.97 160.167 201.852 154.349 197.17 149C190.15 141.41 185.9 149.31 184.34 157.45Z" fill="black"/>
<path d="M235.35 198.46L244.35 200.46L239.78 209.64C239.78 209.64 237.6 208.85 234.21 204.09L235.35 198.46Z" fill="#FF8B7B"/>
<path d="M249.56 209L248.23 210.78C247.791 211.371 247.161 211.793 246.448 211.975C245.734 212.157 244.979 212.088 244.31 211.78L239.74 209.68L244.31 200.5L249.09 204.65C249.704 205.181 250.094 205.925 250.181 206.733C250.268 207.54 250.046 208.35 249.56 209Z" fill="#FF8B7B"/>
<path opacity="0.2" d="M193.16 390.37L193.21 399.89H185.23L185.18 390.37H193.16Z" fill="black"/>
<path opacity="0.2" d="M122.65 386.59L130.29 388.9L125.98 397.54L118.35 395.23L122.65 386.59Z" fill="black"/>
<path d="M192.88 146.11C192.88 146.11 203.52 166.43 196.72 211.28H154.07C153.46 204.73 155.98 176.55 148.19 145.7C152.876 144.793 157.616 144.192 162.38 143.9C168.418 143.55 174.472 143.55 180.51 143.9C184.683 144.323 188.818 145.062 192.88 146.11Z" fill="#E91E63"/>
<path opacity="0.4" d="M192.88 146.11C192.88 146.11 203.52 166.43 196.72 211.28H154.07C153.46 204.73 155.98 176.55 148.19 145.7C152.876 144.793 157.616 144.192 162.38 143.9C168.418 143.55 174.472 143.55 180.51 143.9C184.683 144.323 188.818 145.062 192.88 146.11Z" fill="black"/>
<path opacity="0.2" d="M157.82 153.32C158.82 158.4 157.75 170.54 153.58 184.58C153.083 172.53 151.527 160.547 148.93 148.77V148.71C151.72 148.42 156.91 148.56 157.82 153.32Z" fill="black"/>
<path d="M163.94 127C165.36 132.83 166.28 140.06 162.38 144C162.38 144 168.05 150.68 175.99 151C183.1 151.28 180.51 144 180.51 144C173.93 142.45 173.89 134.4 174.8 129.87L163.94 127Z" fill="#FF8B7B"/>
<path opacity="0.2" d="M174.81 129.78C174.26 132.43 174.05 136.29 175.31 139.35C174.289 139.197 173.295 138.898 172.36 138.46C168.61 136.73 166.67 134.01 164.6 129.97C164.41 128.97 164.19 127.97 163.94 126.97L174.81 129.78Z" fill="black"/>
<path d="M162.3 116.41C162.6 124.41 162.38 129.15 166.22 133.5C171.99 140.05 181.68 136.97 183.72 129.1C185.55 122.01 184.72 110.1 177.21 106.41C169.7 102.72 162 108.38 162.3 116.41Z" fill="#FF8B7B"/>
<path d="M162.82 125.56C165.49 125.56 168.32 120.35 166.99 117.84C167.39 117.523 167.719 117.126 167.955 116.674C168.192 116.222 168.33 115.725 168.362 115.216C168.394 114.707 168.319 114.196 168.141 113.718C167.963 113.24 167.687 112.804 167.33 112.44C170.71 114 174.04 113.61 175.12 111.89C178.6 113.06 183.12 113.72 183.93 110.56C188.88 111.33 189.01 105.02 186.79 102.17C184.14 98.75 176.79 99.75 173.59 101.42C170.39 103.09 165.49 97.94 161.96 100.75C158.79 103.27 159.82 105.83 159.82 105.83C154.46 105.33 151.27 110.39 155.21 113.67C160.74 118.26 160.54 123.18 162.82 125.56Z" fill="#263238"/>
<path d="M160.15 107.11C159.929 107.109 159.714 107.035 159.54 106.9C158.698 106.168 158.059 105.231 157.684 104.18C157.31 103.129 157.212 102 157.4 100.9C157.441 100.635 157.586 100.397 157.802 100.238C158.019 100.08 158.29 100.014 158.555 100.055C158.82 100.096 159.058 100.241 159.217 100.458C159.375 100.674 159.441 100.945 159.4 101.21C159.26 101.962 159.316 102.738 159.561 103.462C159.806 104.187 160.232 104.837 160.8 105.35C160.904 105.431 160.991 105.532 161.056 105.647C161.121 105.762 161.163 105.888 161.179 106.02C161.194 106.151 161.184 106.284 161.148 106.411C161.112 106.538 161.052 106.656 160.97 106.76C160.87 106.878 160.743 106.971 160.601 107.031C160.459 107.092 160.304 107.119 160.15 107.11Z" fill="#263238"/>
<path d="M176.48 128.85C175.746 128.709 175.047 128.423 174.424 128.009C173.8 127.595 173.266 127.062 172.85 126.44C172.838 126.418 172.83 126.394 172.826 126.37C172.823 126.345 172.825 126.32 172.831 126.295C172.838 126.271 172.849 126.249 172.864 126.229C172.88 126.209 172.899 126.192 172.92 126.18C172.941 126.168 172.964 126.16 172.988 126.157C173.012 126.153 173.037 126.155 173.06 126.162C173.084 126.168 173.105 126.179 173.124 126.195C173.143 126.21 173.159 126.229 173.17 126.25C173.628 126.921 174.232 127.479 174.937 127.883C175.642 128.286 176.43 128.525 177.24 128.58C177.265 128.581 177.29 128.587 177.312 128.598C177.335 128.609 177.355 128.624 177.372 128.643C177.388 128.661 177.401 128.683 177.41 128.707C177.418 128.73 177.422 128.755 177.42 128.78C177.42 128.805 177.415 128.831 177.405 128.854C177.395 128.877 177.38 128.898 177.361 128.915C177.342 128.932 177.319 128.945 177.295 128.953C177.271 128.96 177.246 128.963 177.22 128.96C176.971 128.94 176.724 128.903 176.48 128.85Z" fill="#263238"/>
<path d="M159 126.06C160.057 127.663 161.69 128.798 163.56 129.23C166 129.76 166.97 127.49 166.07 125.23C165.27 123.23 163.07 120.47 160.67 120.96C158.27 121.45 157.75 124.07 159 126.06Z" fill="#FF8B7B"/>
<path d="M168.69 211.28C168.69 211.28 169.77 228.38 171.16 241.97C172.75 257.37 174.73 277.36 175.98 292.6C175.98 292.68 175.98 292.74 175.98 292.81C176.22 295.7 176.43 298.41 176.61 300.89C178.4 325.74 182.61 398.05 182.61 398.05H196.11C196.11 398.05 201.2 324.26 200.9 298.97C200.61 274.65 196.74 211.28 196.74 211.28H168.69Z" fill="#263238"/>
<path d="M181.47 392.76C181.41 392.76 181.7 398.32 181.7 398.32H197.27L197.67 392.21L181.47 392.76Z" fill="#E91E63"/>
<path opacity="0.2" d="M171.16 242C172.75 257.4 174.73 277.39 175.98 292.63C175.98 292.71 175.98 292.77 175.98 292.84C178.98 278.4 179.87 260.43 178.72 230.84L171.16 242Z" fill="black"/>
<path d="M181.59 211.28C181.59 211.28 175.82 274.37 170.34 296.87C164.34 321.5 129.99 396.87 129.99 396.87L115.99 392.64C115.99 392.64 142.74 322.04 146.41 297.48C150.41 270.83 154.05 211.32 154.05 211.32L181.59 211.28Z" fill="#263238"/>
<path d="M117.25 387.8C117.19 387.8 115.25 392.66 115.25 392.66L130.61 397.3L133.42 392.06L117.25 387.8Z" fill="#E91E63"/>
<path d="M174.62 119.38C174.62 120.03 174.93 120.58 175.34 120.61C175.75 120.64 176.11 120.12 176.12 119.47C176.13 118.82 175.81 118.27 175.4 118.25C174.99 118.23 174.63 118.73 174.62 119.38Z" fill="#263238"/>
<path d="M182.925 121.053C183.34 121.051 183.673 120.521 183.67 119.87C183.668 119.218 183.33 118.691 182.916 118.693C182.501 118.694 182.168 119.224 182.17 119.876C182.173 120.528 182.511 121.054 182.925 121.053Z" fill="#263238"/>
<path d="M179.59 120C180.3 122.039 181.275 123.975 182.49 125.76C182.05 126.043 181.553 126.224 181.034 126.292C180.515 126.359 179.988 126.311 179.49 126.15L179.59 120Z" fill="#FF5652"/>
<path d="M172.53 117.84C172.588 117.838 172.644 117.823 172.695 117.795C172.745 117.767 172.788 117.728 172.82 117.68C173.07 117.289 173.412 116.964 173.817 116.736C174.221 116.508 174.676 116.382 175.14 116.37C175.189 116.374 175.239 116.368 175.286 116.352C175.332 116.335 175.375 116.309 175.411 116.275C175.447 116.241 175.475 116.2 175.494 116.154C175.513 116.109 175.522 116.059 175.52 116.01C175.52 115.909 175.482 115.811 175.414 115.737C175.345 115.663 175.251 115.618 175.15 115.61C174.554 115.603 173.965 115.748 173.44 116.031C172.915 116.315 172.471 116.727 172.15 117.23C172.095 117.314 172.075 117.416 172.094 117.515C172.112 117.614 172.168 117.702 172.25 117.76C172.288 117.793 172.333 117.818 172.381 117.831C172.429 117.845 172.48 117.848 172.53 117.84Z" fill="#263238"/>
<path d="M185 117.81C185.053 117.82 185.107 117.82 185.16 117.81C185.247 117.759 185.313 117.678 185.342 117.581C185.372 117.485 185.364 117.381 185.32 117.29C185.059 116.742 184.673 116.262 184.194 115.889C183.715 115.516 183.156 115.259 182.56 115.14C182.511 115.134 182.462 115.139 182.415 115.153C182.368 115.168 182.324 115.192 182.287 115.223C182.249 115.255 182.219 115.294 182.197 115.339C182.175 115.383 182.163 115.431 182.16 115.48C182.149 115.579 182.177 115.679 182.239 115.758C182.301 115.836 182.391 115.887 182.49 115.9C182.961 116.001 183.402 116.21 183.778 116.51C184.155 116.811 184.456 117.194 184.66 117.63C184.696 117.687 184.747 117.733 184.806 117.765C184.866 117.796 184.933 117.812 185 117.81Z" fill="#263238"/>
<path d="M143.46 156.59L153.54 162.68C153.54 162.68 144.91 182.85 141.89 190.12C141.49 197.67 141.54 211.81 142.89 218.35C142.18 219.46 139.5 221.67 138.29 221.83C132.86 209.58 129.88 195.18 130.4 190.19C131.59 178.83 143.46 156.59 143.46 156.59Z" fill="#FF8B7B"/>
<path d="M148.19 145.7C140.7 146.8 134.9 167.7 134.9 167.7L151.74 179C151.74 179 155.96 169.46 158.96 160.23C162.11 150.55 156.23 144.53 148.19 145.7Z" fill="#E91E63"/>
<path opacity="0.4" d="M148.19 145.7C140.7 146.8 134.9 167.7 134.9 167.7L151.74 179C151.74 179 155.96 169.46 158.96 160.23C162.11 150.55 156.23 144.53 148.19 145.7Z" fill="black"/>
<path d="M124.9 407.05C125.403 407.245 125.956 407.262 126.47 407.1C126.638 407.02 126.782 406.9 126.891 406.75C126.999 406.599 127.068 406.424 127.09 406.24C127.114 406.131 127.11 406.019 127.079 405.912C127.047 405.805 126.989 405.708 126.91 405.63C126.18 404.94 123.33 405.72 123 405.81C122.966 405.825 122.937 405.849 122.916 405.88C122.895 405.911 122.884 405.948 122.884 405.985C122.884 406.022 122.895 406.059 122.916 406.09C122.937 406.121 122.966 406.145 123 406.16C123.6 406.523 124.237 406.821 124.9 407.05ZM126.44 405.79C126.521 405.81 126.596 405.848 126.66 405.9C126.692 405.932 126.714 405.973 126.725 406.017C126.735 406.061 126.734 406.107 126.72 406.15C126.706 406.276 126.661 406.396 126.589 406.501C126.518 406.605 126.422 406.691 126.31 406.75C125.8 406.98 124.79 406.75 123.56 406.07C124.491 405.781 125.471 405.686 126.44 405.79Z" fill="#E91E63"/>
<path d="M123 406.18H123.1C124 405.98 125.95 404.75 126 403.83C126.009 403.687 125.969 403.545 125.887 403.427C125.806 403.309 125.687 403.222 125.55 403.18C125.42 403.121 125.278 403.09 125.135 403.09C124.992 403.09 124.85 403.121 124.72 403.18C123.65 403.65 122.9 405.83 122.87 405.92C122.855 405.949 122.847 405.982 122.847 406.015C122.847 406.048 122.855 406.081 122.87 406.11L123 406.18ZM125.33 403.51H125.41C125.64 403.61 125.63 403.73 125.63 403.77C125.63 404.31 124.3 405.3 123.37 405.67C123.62 405.04 124.19 403.81 124.88 403.51C125.028 403.453 125.192 403.453 125.34 403.51H125.33Z" fill="#E91E63"/>
<path d="M196.54 409.3C197.214 409.365 197.89 409.191 198.45 408.81C198.575 408.696 198.67 408.551 198.724 408.39C198.778 408.229 198.791 408.057 198.76 407.89C198.751 407.785 198.714 407.683 198.655 407.596C198.595 407.508 198.514 407.437 198.42 407.39C197.42 406.85 194.3 408.47 193.95 408.66C193.915 408.679 193.887 408.709 193.871 408.745C193.855 408.781 193.851 408.821 193.86 408.86C193.867 408.9 193.886 408.936 193.915 408.965C193.944 408.993 193.98 409.013 194.02 409.02C194.85 409.189 195.693 409.282 196.54 409.3ZM197.9 407.65C198.024 407.643 198.148 407.667 198.26 407.72C198.296 407.74 198.326 407.768 198.347 407.804C198.368 407.839 198.379 407.879 198.38 407.92C198.403 408.029 198.398 408.143 198.365 408.25C198.332 408.357 198.271 408.453 198.19 408.53C197.72 408.96 196.41 409.04 194.63 408.75C195.648 408.197 196.754 407.824 197.9 407.65Z" fill="#E91E63"/>
<path d="M194.05 409H194.13C195.07 408.57 196.9 406.85 196.71 405.94C196.66 405.73 196.5 405.47 195.98 405.42C195.8 405.401 195.618 405.419 195.446 405.475C195.274 405.53 195.115 405.62 194.98 405.74C193.98 406.57 193.89 408.74 193.88 408.81C193.879 408.844 193.887 408.877 193.903 408.907C193.919 408.936 193.942 408.962 193.97 408.98C193.994 408.994 194.022 409.001 194.05 409ZM195.84 405.77H196C196.34 405.77 196.37 405.94 196.38 405.98C196.49 406.53 195.26 407.88 194.3 408.47C194.348 407.572 194.676 406.711 195.24 406.01C195.41 405.873 195.621 405.796 195.84 405.79V405.77Z" fill="#E91E63"/>
<path d="M142.17 216.07L146.51 223.56L138.51 225.61C138.51 225.61 134.94 219.7 136.79 216.74L142.17 216.07Z" fill="#FF8B7B"/>
<path d="M147.28 229.29L140.57 231.74L138.53 225.61L146.51 223.56L147.28 229.29Z" fill="#FF8B7B"/>
<path d="M326.51 140.56C325.64 145.85 324.9 155.5 328.67 158.89C325.835 163.367 321.364 166.561 316.21 167.79C307.93 163.59 312.35 159.38 312.35 159.38C318.17 157.81 317.89 153.47 316.75 149.38L326.51 140.56Z" fill="#FFB573"/>
<path d="M331.43 159.62C330.13 157.05 333.99 155 331.76 154.69C329.53 154.38 321.95 151.69 314.95 152.58C307.95 153.47 302.57 155 307.59 163C312.61 171 334.3 165.28 331.43 159.62Z" fill="#E91E63"/>
<path d="M344.5 167.6C346.11 169.39 347.5 171.14 348.98 172.96C350.46 174.78 351.82 176.63 353.17 178.53C356.001 182.404 358.443 186.547 360.46 190.9C361.003 192.118 361.455 193.375 361.81 194.66C362.271 196.219 362.447 197.848 362.33 199.47C362.156 200.91 361.796 202.322 361.26 203.67C360.806 204.855 360.278 206.011 359.68 207.13C357.389 211.292 354.569 215.141 351.29 218.58L347.66 216C349.66 212.142 351.442 208.176 353 204.12C353.338 203.189 353.628 202.241 353.87 201.28C354.068 200.494 354.182 199.69 354.21 198.88C354.158 198.248 354.02 197.625 353.8 197.03C353.489 196.159 353.125 195.307 352.71 194.48C350.72 190.753 348.429 187.194 345.86 183.84C343.27 180.36 340.48 176.84 337.72 173.57L344.5 167.6Z" fill="#FFB573"/>
<path d="M339.78 159.8C346.36 160.51 353.55 172.89 353.55 172.89L342.66 185.67C342.66 185.67 334.06 178.55 332.3 173.98C330 168.06 335.51 159.33 339.78 159.8Z" fill="#263238"/>
<path d="M349.17 215.08L340 217.9L347.58 222.76C347.58 222.76 352.58 220.06 352.58 216.38L349.17 215.08Z" fill="#FFB573"/>
<path d="M335.78 224.01L342.35 227.74L347.61 222.76L340.03 217.9L335.78 224.01Z" fill="#FFB573"/>
<path d="M296.62 166.27C296.42 171.86 297.39 184.93 303.28 215.38L339.22 214.31C338.22 200.38 337.93 191.53 343.22 164.54C343.326 164.003 343.32 163.45 343.204 162.915C343.087 162.38 342.862 161.875 342.542 161.431C342.223 160.986 341.815 160.612 341.345 160.332C340.875 160.051 340.353 159.87 339.81 159.8C336.126 159.292 332.417 158.988 328.7 158.89C323.255 158.667 317.801 158.831 312.38 159.38C308.22 159.88 303.74 160.75 300.79 161.38C299.647 161.608 298.613 162.215 297.857 163.102C297.1 163.989 296.665 165.105 296.62 166.27Z" fill="#263238"/>
<path d="M303.46 171.39C300.816 176.726 297.809 181.875 294.46 186.8C292.766 189.315 290.94 191.738 288.99 194.06C286.944 196.555 284.611 198.801 282.04 200.75C281.68 201 281.33 201.25 280.94 201.49C280.55 201.73 280.19 201.97 279.7 202.22C278.865 202.642 278 203 277.11 203.29C275.579 203.77 274.019 204.154 272.44 204.44C269.485 204.973 266.504 205.353 263.51 205.58C257.655 206.033 251.779 206.156 245.91 205.95L245.7 201.47C248.51 201.05 251.37 200.63 254.19 200.18C257.01 199.73 259.82 199.27 262.6 198.74C265.38 198.21 268.12 197.63 270.74 196.94C271.984 196.615 273.206 196.214 274.4 195.74C274.879 195.557 275.34 195.333 275.78 195.07C275.988 194.945 276.188 194.808 276.38 194.66C276.61 194.503 276.83 194.332 277.04 194.15C278.97 192.474 280.72 190.6 282.26 188.56C283.9 186.42 285.49 184.17 287 181.83C288.51 179.49 289.94 177.09 291.36 174.66C292.78 172.23 294.14 169.73 295.42 167.33L303.46 171.39Z" fill="#FFB573"/>
<path d="M300.12 161.54C291.71 164.54 288.71 176.44 288.71 176.44L301.15 189.32C301.15 189.32 308 179.26 309 170.58C309.55 165.51 305.3 159.69 300.12 161.54Z" fill="#263238"/>
<path d="M248 201.41H238.41L243.53 208.52C243.53 208.52 248.48 207.65 249.44 204.19L248 201.41Z" fill="#FFB573"/>
<path d="M234.15 205.57L236.92 209.22C237.049 209.39 237.224 209.521 237.424 209.595C237.624 209.669 237.841 209.685 238.05 209.64L243.53 208.53L238.41 201.42L234.41 203.91C234.279 203.998 234.167 204.111 234.081 204.244C233.996 204.377 233.94 204.527 233.915 204.683C233.891 204.839 233.899 204.998 233.939 205.151C233.98 205.304 234.052 205.447 234.15 205.57Z" fill="#FFB573"/>
<path d="M306.6 131C306.54 131.71 306.11 132.26 305.6 132.22C305.09 132.18 304.8 131.57 304.86 130.86C304.92 130.15 305.35 129.6 305.81 129.64C306.27 129.68 306.66 130.26 306.6 131Z" fill="#263238"/>
<path d="M306.06 129.67L304.39 129.04C304.39 129.04 305.16 130.44 306.06 129.67Z" fill="#263238"/>
<path d="M305.86 132.5C305.093 134.073 304.114 135.533 302.95 136.84C303.293 137.128 303.693 137.338 304.125 137.456C304.557 137.573 305.009 137.595 305.45 137.52L305.86 132.5Z" fill="#ED893E"/>
<path d="M309.36 129.32C309.272 129.325 309.184 129.303 309.109 129.256C309.034 129.21 308.975 129.141 308.94 129.06C308.21 127.26 305.78 126.68 305.76 126.67C305.7 126.664 305.643 126.646 305.59 126.616C305.538 126.587 305.493 126.546 305.458 126.497C305.423 126.449 305.399 126.393 305.387 126.334C305.375 126.275 305.376 126.214 305.39 126.156C305.404 126.097 305.43 126.043 305.467 125.995C305.503 125.948 305.55 125.908 305.603 125.88C305.656 125.852 305.714 125.836 305.774 125.833C305.834 125.829 305.894 125.838 305.95 125.86C306.07 125.86 308.83 126.55 309.72 128.74C309.741 128.791 309.752 128.846 309.752 128.901C309.752 128.957 309.741 129.012 309.72 129.063C309.698 129.114 309.667 129.16 309.628 129.199C309.588 129.238 309.542 129.269 309.49 129.29C309.45 129.309 309.405 129.32 309.36 129.32Z" fill="#263238"/>
<path d="M330.9 130.34C329.64 139.04 329.3 142.75 324.51 146.87C317.32 153.08 306.91 149.63 305.51 140.74C304.28 132.74 306.51 119.85 315.38 117.07C317.329 116.446 319.405 116.33 321.41 116.733C323.416 117.137 325.286 118.047 326.841 119.377C328.396 120.707 329.585 122.412 330.296 124.331C331.006 126.25 331.214 128.318 330.9 130.34Z" fill="#FFB573"/>
<path d="M310.67 125.84C308.56 127.33 307.9 134.57 308.56 139.42C309.46 145.96 303.37 145.96 300.36 143.83C299.36 154 315.27 154.83 324.22 155.08C333.17 155.33 344.13 154 341.16 142C338.19 130 341.73 119.72 332.51 118C331.67 112.44 310.46 109.28 306.51 121C307.34 125.33 310.67 125.84 310.67 125.84Z" fill="#263238"/>
<path d="M311.73 135.24C311.397 136.047 310.895 136.774 310.259 137.373C309.623 137.971 308.866 138.427 308.04 138.71C306.44 139.23 306.5 136.61 306.92 134.11C307.3 131.86 308.6 128.88 310.21 129.49C311.82 130.1 312.45 133.05 311.73 135.24Z" fill="#FFB573"/>
<path d="M376.27 406.52C377.03 406.51 377.763 406.242 378.35 405.76C378.477 405.62 378.568 405.451 378.615 405.268C378.663 405.085 378.664 404.894 378.62 404.71C378.603 404.595 378.556 404.487 378.484 404.396C378.412 404.305 378.318 404.234 378.21 404.19C377.07 403.71 373.74 405.86 373.37 406.1C373.333 406.124 373.304 406.159 373.288 406.2C373.272 406.242 373.269 406.287 373.28 406.33C373.289 406.373 373.311 406.411 373.343 406.44C373.376 406.469 373.417 406.486 373.46 406.49C374.394 406.586 375.335 406.596 376.27 406.52ZM377.65 404.52C377.781 404.482 377.92 404.482 378.05 404.52C378.095 404.536 378.133 404.564 378.162 404.601C378.19 404.638 378.207 404.683 378.21 404.73C378.24 404.85 378.24 404.976 378.211 405.096C378.181 405.216 378.123 405.328 378.04 405.42C377.55 405.95 376.11 406.19 374.13 406.06C375.209 405.358 376.399 404.844 377.65 404.54V404.52Z" fill="#E91E63"/>
<path d="M373.5 406.49C373.529 406.499 373.561 406.499 373.59 406.49C374.59 405.91 376.47 403.8 376.21 402.82C376.15 402.59 375.95 402.31 375.37 402.31C375.16 402.307 374.952 402.348 374.759 402.431C374.566 402.514 374.393 402.636 374.25 402.79C373.25 403.79 373.25 406.21 373.25 406.31C373.253 406.347 373.264 406.382 373.283 406.413C373.302 406.445 373.329 406.471 373.36 406.49C373.406 406.502 373.454 406.502 373.5 406.49ZM375.24 402.7H375.37C375.75 402.7 375.79 402.85 375.8 402.9C375.96 403.49 374.7 405.12 373.7 405.9C373.679 404.891 373.977 403.901 374.55 403.07C374.725 402.864 374.972 402.732 375.24 402.7Z" fill="#E91E63"/>
<path d="M374.11 407.93H365.26L360.69 387.43H369.55L374.11 407.93Z" fill="#FFB573"/>
<path d="M374.08 405.94L364.23 404.57C364.152 404.554 364.071 404.555 363.993 404.574C363.915 404.592 363.842 404.627 363.779 404.677C363.716 404.726 363.665 404.789 363.629 404.86C363.593 404.932 363.573 405.01 363.57 405.09L362.92 412.94C362.918 413.37 363.069 413.787 363.346 414.116C363.622 414.446 364.006 414.667 364.43 414.74C367.86 415.16 369.5 415.18 373.83 415.79C377.409 416.433 381.027 416.837 384.66 417C388.3 417 387.84 413.33 386.23 413C379 411.47 378 409 375.58 406.7C375.17 406.299 374.646 406.034 374.08 405.94Z" fill="#263238"/>
<g opacity="0.2">
<path opacity="0.2" d="M360.69 387.43L363.05 398H371.9L369.55 387.43H360.69Z" fill="black"/>
</g>
<path d="M339.22 214.31C348.93 228.02 354.55 278.36 358.04 305.31C361.67 333.31 372.32 395.98 372.32 395.98H360.32C360.32 395.98 343.8 332.49 337.52 305.16C330.6 275 316.18 214.34 316.18 214.34L339.22 214.31Z" fill="#E91E63"/>
<path opacity="0.2" d="M329.21 237.61C335.06 255.29 335.31 277.61 334.64 292.61C331.04 277.08 326.56 258.07 322.92 242.67L329.21 237.61Z" fill="black"/>
<path d="M316.39 407.52C315.633 407.585 314.876 407.395 314.24 406.98C314.105 406.854 314.001 406.697 313.937 406.524C313.873 406.35 313.85 406.164 313.87 405.98C313.875 405.866 313.91 405.755 313.971 405.658C314.033 405.561 314.118 405.483 314.22 405.43C315.31 404.83 318.84 406.64 319.22 406.84C319.26 406.86 319.293 406.892 319.314 406.931C319.336 406.971 319.345 407.015 319.34 407.06C319.334 407.103 319.314 407.143 319.283 407.173C319.253 407.204 319.213 407.224 319.17 407.23C318.254 407.413 317.324 407.51 316.39 407.52ZM314.81 405.69C314.675 405.681 314.54 405.709 314.42 405.77C314.379 405.79 314.344 405.821 314.319 405.86C314.294 405.899 314.281 405.944 314.28 405.99C314.263 406.114 314.276 406.24 314.32 406.357C314.364 406.474 314.436 406.578 314.53 406.66C315.06 407.15 316.53 407.23 318.53 406.91C317.371 406.288 316.112 405.875 314.81 405.69Z" fill="#E91E63"/>
<path d="M319.14 407.21H319.05C318 406.73 315.91 404.82 316.05 403.82C316.05 403.58 316.26 403.29 316.84 403.23C317.048 403.208 317.258 403.229 317.457 403.291C317.657 403.353 317.841 403.454 318 403.59C319.11 404.52 319.32 406.9 319.33 407C319.332 407.037 319.325 407.073 319.309 407.106C319.294 407.14 319.27 407.168 319.24 407.19C319.209 407.206 319.175 407.213 319.14 407.21ZM317 403.62H316.87C316.49 403.62 316.46 403.81 316.46 403.86C316.36 404.46 317.78 405.96 318.85 406.61C318.766 405.605 318.371 404.651 317.72 403.88C317.519 403.711 317.263 403.619 317 403.62Z" fill="#E91E63"/>
<path d="M327.76 407.93H318.9L317.72 387.43H326.58L327.76 407.93Z" fill="#FFB573"/>
<path d="M318.24 406.91H328.19C328.361 406.906 328.528 406.965 328.659 407.075C328.79 407.186 328.876 407.34 328.9 407.51L330.03 415.38C330.051 415.579 330.03 415.781 329.968 415.971C329.907 416.162 329.806 416.337 329.672 416.486C329.538 416.635 329.374 416.754 329.191 416.836C329.008 416.917 328.81 416.96 328.61 416.96C325.14 416.9 323.47 416.69 319.1 416.69C316.4 416.69 310.25 416.97 306.53 416.97C302.81 416.97 302.62 413.3 304.17 412.97C311.11 411.48 314.42 409.42 316.76 407.46C317.174 407.11 317.698 406.916 318.24 406.91Z" fill="#263238"/>
<g opacity="0.2">
<path opacity="0.2" d="M317.73 387.43L318.33 398H327.19L326.58 387.43H317.73Z" fill="black"/>
</g>
<path d="M303.28 215.38C303.28 215.38 306.95 282.02 309.48 308.91C312.12 336.91 316.48 395.91 316.48 395.91H328.48C328.48 395.91 331.1 335.77 329.15 308.24C327.03 278.24 334.89 236.58 329.66 214.56C324.73 214.6 303.28 215.38 303.28 215.38Z" fill="#E91E63"/>
<path d="M329.46 396.38H315.41L314.71 390.86L330.03 391.95L329.46 396.38Z" fill="#263238"/>
<path d="M373.15 396.38H359.11L357.7 390.51L373.34 391.96L373.15 396.38Z" fill="#263238"/>
<path d="M339.7 212.19L340.7 215.38C340.84 215.62 340.55 215.89 340.13 215.9L303.13 217C302.8 217 302.53 216.86 302.5 216.65L302.08 213.45C302.08 213.22 302.33 213.03 302.69 213.02L339.08 211.93C339.197 211.917 339.315 211.934 339.424 211.979C339.532 212.025 339.628 212.097 339.7 212.19Z" fill="white"/>
<path d="M334.93 216.4H335.93C336.12 216.4 336.26 216.29 336.25 216.17L335.67 212C335.67 211.88 335.48 211.79 335.28 211.79H334.28C334.08 211.79 333.94 211.9 333.95 212.02L334.54 216.19C334.56 216.31 334.74 216.41 334.93 216.4Z" fill="#E91E63"/>
<path d="M305.9 217.27H306.9C307.1 217.27 307.24 217.16 307.23 217.03L306.64 212.87C306.64 212.75 306.45 212.65 306.26 212.66H305.26C305.07 212.66 304.93 212.77 304.94 212.89L305.52 217.05C305.53 217.18 305.7 217.27 305.9 217.27Z" fill="#E91E63"/>
<path d="M320.41 216.83H321.41C321.6 216.83 321.75 216.71 321.73 216.59L321.15 212.43C321.15 212.3 320.96 212.21 320.77 212.22H319.77C319.58 212.22 319.43 212.33 319.45 212.46L320.03 216.62C320.05 216.74 320.22 216.84 320.41 216.83Z" fill="#E91E63"/>
<path d="M250 137.55C277.288 137.55 299.41 115.428 299.41 88.14C299.41 60.8516 277.288 38.73 250 38.73C222.711 38.73 200.59 60.8516 200.59 88.14C200.59 115.428 222.711 137.55 250 137.55Z" fill="#E91E63"/>
<path d="M221.37 120L250 166.03L278.63 120H221.37Z" fill="#E91E63"/>
<path d="M250 132.47C274.483 132.47 294.33 112.623 294.33 88.14C294.33 63.6572 274.483 43.81 250 43.81C225.517 43.81 205.67 63.6572 205.67 88.14C205.67 112.623 225.517 132.47 250 132.47Z" fill="white"/>
<path d="M256.16 81.18C254.94 79.9 254.09 78.39 252.99 77.02C251.865 75.6004 250.36 74.5289 248.65 73.93C245.749 72.537 242.61 71.7057 239.4 71.48L237.46 71.36C232.14 70.25 223.76 60.96 219.55 55.94C212.79 62.3177 208.21 70.6624 206.46 79.79C211.81 83.9 218.46 89.37 221.69 93.58C222.566 95.2572 223.569 96.8651 224.69 98.39L224.84 98.27L235.5 88C240.85 90.42 248.1 86.6 256.66 90.64C260.42 92.42 265.38 92.83 266.33 88.64C266.72 87 259.81 85 256.16 81.18Z" fill="#FF8B7B"/>
<path d="M283 58.5C280.937 61.299 278.543 63.8375 275.87 66.06C272.298 68.9851 267.957 70.8153 263.37 71.33C262.73 71.4 262.11 71.43 261.54 71.44L260.49 71.51C259.651 71.5638 258.817 71.6639 257.99 71.81H257.81C254.865 72.2507 251.981 73.0361 249.22 74.15C249.6 74.32 249.91 74.49 250.22 74.65C253.43 76.35 253.48 78.29 256.22 81.16C259.87 85.01 266.78 86.97 266.39 88.65C265.44 92.79 260.48 92.38 256.72 90.65C248.16 86.65 240.91 90.43 235.56 88.01L224.85 98.27L224.7 98.39L223.2 99.66C222.775 100.017 222.424 100.453 222.168 100.945C221.912 101.437 221.756 101.975 221.707 102.527C221.659 103.08 221.72 103.636 221.887 104.165C222.054 104.694 222.323 105.185 222.68 105.61C223.036 106.035 223.473 106.385 223.965 106.641C224.457 106.897 224.995 107.054 225.547 107.102C226.1 107.151 226.656 107.09 227.185 106.923C227.714 106.756 228.205 106.487 228.63 106.13L228.34 106.38C227.878 106.765 227.504 107.245 227.242 107.787C226.981 108.328 226.838 108.92 226.824 109.521C226.81 110.122 226.924 110.72 227.16 111.273C227.395 111.827 227.747 112.323 228.19 112.73C228.945 113.427 229.928 113.825 230.955 113.849C231.983 113.873 232.983 113.521 233.77 112.86L235.25 111.62C234.801 111.969 234.427 112.405 234.15 112.901C233.874 113.398 233.7 113.946 233.64 114.511C233.579 115.076 233.634 115.648 233.799 116.192C233.965 116.736 234.238 117.241 234.604 117.676C234.969 118.112 235.418 118.47 235.925 118.728C236.431 118.986 236.984 119.14 237.552 119.179C238.119 119.219 238.688 119.144 239.226 118.958C239.763 118.773 240.258 118.481 240.68 118.1L243.08 116.1C242.631 116.449 242.257 116.885 241.98 117.382C241.704 117.878 241.53 118.426 241.47 118.991C241.409 119.556 241.464 120.128 241.629 120.672C241.795 121.216 242.068 121.721 242.434 122.156C242.799 122.592 243.248 122.95 243.755 123.208C244.261 123.466 244.814 123.62 245.382 123.659C245.949 123.699 246.518 123.624 247.056 123.438C247.593 123.253 248.088 122.961 248.51 122.58L250.16 121.2L246.53 118.2C246.184 117.91 245.903 117.55 245.707 117.143C245.511 116.737 245.404 116.293 245.393 115.842C245.381 115.391 245.466 114.942 245.641 114.527C245.817 114.111 246.079 113.737 246.41 113.43L247.41 112.53L247.99 111.99C248.149 111.849 248.319 111.722 248.5 111.61C249.068 111.269 249.728 111.112 250.389 111.163C251.05 111.213 251.679 111.467 252.19 111.89L252.95 112.53L254.37 113.73C254.024 113.439 253.745 113.079 253.55 112.672C253.354 112.265 253.248 111.821 253.238 111.37C253.227 110.919 253.313 110.47 253.489 110.055C253.665 109.639 253.928 109.266 254.26 108.96L255.82 107.52C256.389 106.997 257.128 106.699 257.901 106.681C258.673 106.663 259.426 106.925 260.02 107.42L261.29 108.49C260.943 108.201 260.662 107.842 260.466 107.436C260.27 107.029 260.163 106.586 260.153 106.135C260.143 105.684 260.229 105.236 260.406 104.821C260.583 104.406 260.847 104.034 261.18 103.73L262.74 102.29C263.305 101.764 264.044 101.464 264.816 101.445C265.588 101.427 266.34 101.692 266.93 102.19L266.42 101.76C266.076 101.469 265.798 101.109 265.604 100.703C265.409 100.297 265.304 99.8547 265.293 99.4048C265.283 98.9548 265.368 98.5078 265.543 98.0933C265.719 97.6787 265.98 97.3061 266.31 97L267.87 95.56C268.438 95.0355 269.178 94.7361 269.951 94.7177C270.724 94.6993 271.477 94.9632 272.07 95.46L275.63 98.46C276.865 96.7874 277.959 95.0146 278.9 93.16C282.624 86.6441 287.171 80.6347 292.43 75.28C290.559 69.0612 287.339 63.3317 283 58.5Z" fill="#FFB573"/>
<path d="M277.12 99.66L275.61 98.39L272.05 95.39C271.457 94.8932 270.704 94.6293 269.931 94.6477C269.158 94.6661 268.418 94.9655 267.85 95.49L266.29 96.93C265.96 97.2361 265.699 97.6087 265.523 98.0233C265.348 98.4378 265.263 98.8848 265.273 99.3348C265.284 99.7847 265.39 100.227 265.584 100.633C265.778 101.039 266.056 101.399 266.4 101.69L266.91 102.12C266.32 101.622 265.568 101.357 264.796 101.375C264.024 101.394 263.285 101.694 262.72 102.22L261.16 103.66C260.827 103.964 260.563 104.336 260.386 104.751C260.209 105.166 260.123 105.614 260.133 106.065C260.143 106.516 260.25 106.959 260.446 107.366C260.642 107.772 260.923 108.131 261.27 108.42L260 107.36C259.406 106.865 258.653 106.603 257.881 106.621C257.108 106.639 256.369 106.938 255.8 107.46L254.24 108.9C253.908 109.206 253.645 109.579 253.469 109.995C253.293 110.41 253.207 110.859 253.218 111.31C253.228 111.761 253.334 112.205 253.53 112.612C253.725 113.019 254.004 113.379 254.35 113.67L252.93 112.47L252.17 111.83C251.659 111.407 251.03 111.153 250.369 111.103C249.708 111.052 249.048 111.209 248.48 111.55C248.299 111.662 248.129 111.789 247.97 111.93L247.39 112.47L246.39 113.37C246.059 113.677 245.797 114.051 245.621 114.467C245.446 114.882 245.361 115.331 245.373 115.782C245.384 116.233 245.491 116.677 245.687 117.083C245.883 117.49 246.164 117.85 246.51 118.14L250.14 121.14L251.78 122.52C252.205 122.877 252.697 123.147 253.227 123.314C253.756 123.481 254.314 123.543 254.867 123.494C255.421 123.446 255.959 123.289 256.452 123.033C256.945 122.776 257.383 122.425 257.74 122C258.097 121.575 258.367 121.083 258.534 120.553C258.701 120.023 258.762 119.466 258.714 118.912C258.666 118.359 258.509 117.82 258.253 117.328C257.996 116.835 257.645 116.397 257.22 116.04L256.72 115.62L259.61 118.05C260.035 118.407 260.527 118.677 261.057 118.844C261.586 119.011 262.144 119.073 262.697 119.024C263.251 118.976 263.789 118.819 264.282 118.563C264.775 118.306 265.213 117.955 265.57 117.53C265.927 117.105 266.197 116.613 266.364 116.083C266.531 115.553 266.592 114.996 266.544 114.442C266.496 113.889 266.339 113.35 266.083 112.858C265.826 112.365 265.475 111.927 265.05 111.57L266.53 112.81C266.952 113.191 267.446 113.483 267.984 113.668C268.521 113.854 269.091 113.929 269.658 113.889C270.225 113.85 270.778 113.696 271.285 113.438C271.791 113.18 272.241 112.822 272.606 112.386C272.971 111.951 273.245 111.446 273.41 110.902C273.576 110.358 273.63 109.786 273.57 109.221C273.509 108.656 273.336 108.108 273.059 107.612C272.783 107.115 272.409 106.679 271.96 106.33L271.66 106.08C272.081 106.464 272.575 106.759 273.113 106.947C273.651 107.136 274.221 107.213 274.79 107.176C275.358 107.138 275.914 106.986 276.422 106.729C276.93 106.471 277.382 106.114 277.748 105.677C278.115 105.241 278.39 104.735 278.556 104.19C278.723 103.645 278.777 103.072 278.717 102.505C278.656 101.939 278.482 101.39 278.204 100.893C277.926 100.395 277.55 99.9588 277.1 99.61L277.12 99.66Z" fill="#FF8B7B"/>
<path d="M230.4 63.81C230.291 63.9156 230.151 63.9823 230 64C230.043 63.7623 230.066 63.5215 230.07 63.28C230.064 63.1224 230.047 62.9654 230.02 62.81C230.171 62.7854 230.325 62.8213 230.45 62.91C230.78 63.21 231.19 63.52 231.13 62.38C231.13 61.69 230.68 61.76 230.46 62.17C230.339 62.3272 230.165 62.4341 229.97 62.47C229.85 61.9447 229.614 61.4528 229.28 61.03C229.402 60.8793 229.578 60.7824 229.77 60.76C230.21 60.76 230.72 60.76 229.98 59.93C229.53 59.41 229.24 59.71 229.33 60.17C229.321 60.3984 229.229 60.6155 229.07 60.78C228.899 60.5958 228.708 60.4314 228.5 60.29C228.62 60.122 228.765 59.9736 228.93 59.85C229.21 59.72 229.37 59.69 228.93 59.45C228.65 59.31 228.62 59.45 228.66 59.67C228.7 59.89 228.53 60 228.39 60.21C228.169 60.0728 227.934 59.9589 227.69 59.87C227.731 59.7146 227.832 59.5816 227.97 59.5C228.39 59.35 228.85 59.12 227.81 58.66C227.17 58.39 227.05 58.78 227.32 59.17C227.389 59.364 227.389 59.576 227.32 59.77C227.011 59.6829 226.691 59.6359 226.37 59.63C226.149 59.6346 225.928 59.6547 225.71 59.69C225.64 59.5202 225.64 59.3298 225.71 59.16C225.94 58.78 226.17 58.32 225.06 58.6C224.39 58.77 224.54 59.16 224.99 59.3C225.15 59.3 225.3 59.56 225.41 59.77C224.906 59.9117 224.439 60.1607 224.04 60.5C223.85 60.33 223.57 60.04 223.61 59.81C223.67 59.37 223.7 58.86 222.79 59.55C222.24 59.98 222.53 60.28 223 60.22C223.25 60.22 223.61 60.51 223.8 60.69C223.599 60.9 223.421 61.1314 223.27 61.38C223.02 61.2855 222.79 61.1466 222.59 60.97C222.4 60.72 222.34 60.56 222.2 61.05C222.11 61.35 222.2 61.35 222.46 61.27C222.72 61.19 222.95 61.38 223.21 61.5C223.093 61.6985 222.999 61.9099 222.93 62.13C222.777 62.1078 222.638 62.0294 222.54 61.91C222.32 61.52 222.03 61.1 221.74 62.21C221.57 62.88 221.98 62.94 222.31 62.61C222.458 62.5046 222.639 62.455 222.82 62.47C222.687 63.0221 222.687 63.5979 222.82 64.15C222.72 64.1867 222.61 64.1867 222.51 64.15C222.15 63.9 221.7 63.65 221.92 64.77C222.05 65.45 222.45 65.32 222.61 64.88C222.681 64.7415 222.797 64.6319 222.94 64.57C223.034 64.8447 223.162 65.1067 223.32 65.35C223.176 65.4236 223.02 65.471 222.86 65.49C222.62 65.49 222.5 65.49 222.71 65.76C222.92 66.03 222.91 65.89 222.97 65.76C223.086 65.6423 223.226 65.5503 223.38 65.49C223.52 65.6781 223.673 65.8553 223.84 66.02C223.76 66.1273 223.642 66.1991 223.51 66.22C223.06 66.22 222.51 66.33 223.42 67.07C223.94 67.53 224.18 67.18 224.03 66.74C223.999 66.5712 224.031 66.3968 224.12 66.25C224.421 66.4889 224.759 66.6779 225.12 66.81C225.05 67.03 224.95 67.26 224.79 67.33C224.38 67.49 223.92 67.73 224.98 68.16C225.62 68.42 225.73 68.02 225.45 67.65C225.353 67.4095 225.353 67.1405 225.45 66.9C225.711 66.9714 225.979 67.0117 226.25 67.02C226.279 67.1854 226.279 67.3546 226.25 67.52C226.15 67.73 226.06 67.83 226.45 67.76C226.68 67.76 226.63 67.62 226.45 67.5C226.376 67.3548 226.342 67.1927 226.35 67.03C226.558 67.0254 226.765 67.0053 226.97 66.97C227.025 67.0659 227.061 67.172 227.075 67.2819C227.088 67.3918 227.08 67.5034 227.05 67.61C226.82 67.99 226.61 68.46 227.71 68.15C228.37 67.97 228.22 67.58 227.71 67.46C227.52 67.46 227.35 67.13 227.23 66.89C227.77 66.7442 228.269 66.4775 228.69 66.11C228.749 66.1616 228.797 66.2245 228.831 66.2949C228.866 66.3653 228.885 66.4418 228.89 66.52C228.89 66.96 228.89 67.47 229.72 66.72C230.24 66.26 229.93 65.98 229.47 66.07C229.276 66.0621 229.09 65.992 228.94 65.87C229.112 65.685 229.266 65.4841 229.4 65.27C229.574 65.357 229.73 65.4757 229.86 65.62C230.03 65.88 230.08 66.04 230.26 65.56C230.36 65.27 230.26 65.26 230.01 65.33C229.817 65.3132 229.631 65.2478 229.47 65.14C229.591 64.9211 229.688 64.6898 229.76 64.45C229.907 64.461 230.043 64.5292 230.14 64.64C230.39 65.01 230.71 65.41 230.92 64.29C231.13 63.49 230.71 63.46 230.4 63.81Z" fill="#E91E63"/>
<path d="M214.6 80.83C214.383 80.907 214.147 80.907 213.93 80.83C214.116 80.5533 214.273 80.2585 214.4 79.95C214.478 79.7482 214.542 79.541 214.59 79.33C214.692 79.3523 214.789 79.3947 214.875 79.4548C214.961 79.5148 215.034 79.5914 215.09 79.68C215.34 80.23 215.69 80.85 216.22 79.36C216.54 78.46 215.98 78.36 215.48 78.74C215.245 78.8776 214.967 78.9239 214.7 78.87C214.826 78.137 214.785 77.3849 214.58 76.67C214.695 76.6028 214.823 76.5594 214.955 76.5422C215.087 76.525 215.221 76.5345 215.35 76.57C215.88 76.86 216.53 77.12 216.05 75.63C215.76 74.72 215.23 74.96 215.05 75.63C215 75.86 214.7 76.1 214.41 76.27C214.289 75.9449 214.135 75.6332 213.95 75.34C214.186 75.1864 214.446 75.0748 214.72 75.01C215.14 75.01 215.37 75.01 214.93 74.5C214.66 74.17 214.55 74.32 214.48 74.64C214.48 74.76 214.14 74.99 213.84 75.18C213.637 74.8884 213.402 74.6201 213.14 74.38C213.278 74.2047 213.479 74.09 213.7 74.06C214.31 74.06 215.01 74.06 213.93 72.9C213.27 72.22 212.93 72.66 213.05 73.29C213.06 73.5759 212.968 73.8561 212.79 74.08C212.445 73.8069 212.065 73.5815 211.66 73.41C211.382 73.2979 211.094 73.2141 210.8 73.16C210.796 72.9053 210.889 72.6585 211.06 72.47C211.55 72.1 212.06 71.63 210.53 71.41C209.6 71.28 209.58 71.86 210.07 72.26C210.265 72.4915 210.365 72.7879 210.35 73.09C209.64 73.0083 208.92 73.08 208.24 73.3C208.1 72.99 207.9 72.48 208.06 72.2C208.37 71.67 208.67 71.03 207.16 71.45C206.25 71.7 206.45 72.24 207.07 72.45C207.4 72.54 207.69 73.13 207.84 73.45C207.486 73.6143 207.151 73.8154 206.84 74.05C206.571 73.799 206.351 73.5007 206.19 73.17C206.08 72.76 206.08 72.52 205.65 73.07C205.39 73.41 205.55 73.48 205.88 73.49C206.03 73.49 206.43 73.89 206.69 74.17C206.441 74.3701 206.214 74.5945 206.01 74.84C205.827 74.7289 205.692 74.5545 205.63 74.35C205.56 73.74 205.41 73.05 204.46 74.35C203.89 75.11 204.38 75.35 204.98 75.15C205.223 75.1 205.476 75.1317 205.7 75.24C205.475 75.549 205.291 75.8849 205.15 76.24C204.998 76.6188 204.894 77.0153 204.84 77.42C204.694 77.3874 204.564 77.3063 204.47 77.19C204.14 76.67 203.71 76.12 203.4 77.67C203.21 78.6 203.78 78.67 204.21 78.17C204.373 78.0331 204.577 77.9556 204.79 77.95C204.763 78.348 204.787 78.7479 204.86 79.14C204.645 79.1754 204.425 79.1754 204.21 79.14C203.91 78.99 203.77 78.88 203.88 79.4C203.94 79.72 204.06 79.66 204.23 79.47C204.442 79.3813 204.67 79.337 204.9 79.34C204.97 79.6525 205.07 79.9573 205.2 80.25C205.037 80.3443 204.845 80.3762 204.66 80.34C204.09 80.14 203.41 79.98 204.1 81.34C204.52 82.19 205.01 81.88 205.05 81.23C205.103 80.9975 205.238 80.7918 205.43 80.65C205.689 81.1242 206.027 81.5504 206.43 81.91C206.24 82.16 205.99 82.4 205.75 82.4C205.14 82.4 204.44 82.47 205.55 83.57C206.22 84.24 206.55 83.78 206.42 83.16C206.405 82.7961 206.527 82.4397 206.76 82.16C207.07 82.3858 207.405 82.5738 207.76 82.72C207.693 82.9431 207.589 83.1529 207.45 83.34C207.21 83.56 207.05 83.65 207.57 83.75C207.89 83.75 207.88 83.67 207.77 83.44C207.765 83.2174 207.805 82.996 207.89 82.79C208.159 82.8975 208.436 82.9811 208.72 83.04C208.737 83.1927 208.723 83.3473 208.68 83.4949C208.638 83.6424 208.566 83.7801 208.47 83.9C207.99 84.27 207.47 84.76 209.02 84.9C209.96 85 209.97 84.43 209.46 84.04C209.239 83.7551 209.129 83.3999 209.15 83.04C209.912 83.1367 210.685 83.0546 211.41 82.8C211.488 83.0028 211.488 83.2272 211.41 83.43C211.13 83.97 210.87 84.64 212.35 84.12C213.25 83.8 213.01 83.28 212.35 83.12C212.102 83.0228 211.899 82.8376 211.78 82.6C212.093 82.4525 212.391 82.275 212.67 82.07C212.847 82.2695 212.986 82.5 213.08 82.75C213.15 83.17 213.14 83.41 213.61 82.89C213.89 82.57 213.74 82.49 213.41 82.46C213.29 82.46 213.04 82.19 212.82 81.94C213.094 81.7192 213.345 81.4712 213.57 81.2C213.744 81.3025 213.878 81.4612 213.95 81.65C214.06 82.25 214.26 82.93 215.12 81.65C215.69 80.81 215.18 80.55 214.6 80.83Z" fill="#E91E63"/>
<path d="M232.6 78.16C232.82 78.34 233.1 78.54 233.03 77.8C233.03 77.35 232.72 77.4 232.59 77.68C232.505 77.7832 232.389 77.8568 232.26 77.89C232.212 77.6879 232.138 77.493 232.04 77.31C231.972 77.1857 231.891 77.0685 231.8 76.96C231.89 76.86 232 76.77 232.09 76.78C232.38 76.78 232.72 76.78 232.21 76.23C231.9 75.9 231.73 76.11 231.79 76.41C231.791 76.5525 231.741 76.6908 231.65 76.8C231.414 76.5573 231.127 76.3695 230.81 76.25C230.81 76.09 230.92 75.84 231.06 75.78C231.2 75.72 231.63 75.53 230.95 75.24C230.54 75.06 230.46 75.32 230.64 75.57C230.82 75.82 230.64 76 230.64 76.17C230.458 76.1182 230.269 76.0913 230.08 76.09C230.053 75.9177 230.053 75.7423 230.08 75.57C230.16 75.38 230.23 75.29 229.91 75.37C229.59 75.45 229.75 75.49 229.91 75.59C229.982 75.7466 230.016 75.9178 230.01 76.09C229.863 76.0801 229.716 76.0801 229.57 76.09C229.55 76.046 229.54 75.9983 229.54 75.95C229.54 75.9017 229.55 75.854 229.57 75.81C229.72 75.56 229.87 75.26 229.15 75.44C228.71 75.55 228.8 75.81 229.1 75.89C229.202 75.9452 229.283 76.0333 229.33 76.14C229.163 76.1876 229.002 76.2548 228.85 76.34C228.682 76.4369 228.525 76.5509 228.38 76.68C228.338 76.6257 228.317 76.5584 228.32 76.49C228.32 76.2 228.32 75.87 227.78 76.35C227.43 76.64 227.63 76.82 227.93 76.77C228.031 76.7742 228.129 76.809 228.21 76.87C228.08 77.0081 227.969 77.1628 227.88 77.33C227.794 77.2698 227.72 77.1954 227.66 77.11C227.59 76.97 227.58 76.89 227.46 77.11C227.34 77.33 227.46 77.27 227.57 77.25C227.68 77.23 227.75 77.32 227.85 77.39C227.789 77.5295 227.739 77.6732 227.7 77.82C227.61 77.8064 227.528 77.7602 227.47 77.69C227.32 77.45 227.12 77.18 226.96 77.91C226.86 78.35 227.14 78.38 227.34 78.15C227.432 78.0891 227.54 78.0577 227.65 78.06C227.605 78.3113 227.605 78.5687 227.65 78.82C227.522 78.8722 227.378 78.8722 227.25 78.82C227.03 78.64 226.75 78.45 226.83 79.19C226.89 79.64 227.15 79.58 227.28 79.3C227.33 79.18 227.52 79.1 227.69 79.04C227.729 79.2148 227.793 79.3831 227.88 79.54C227.788 79.5995 227.686 79.6434 227.58 79.67C227.42 79.67 227.34 79.67 227.51 79.86C227.68 80.05 227.64 79.92 227.67 79.81C227.7 79.7 227.8 79.67 227.9 79.6C227.971 79.7195 228.051 79.8332 228.14 79.94C228.04 80.06 227.91 80.19 227.79 80.18C227.5 80.18 227.17 80.18 227.69 80.73C228.01 81.05 228.18 80.84 228.11 80.54C228.111 80.3745 228.171 80.2147 228.28 80.09C228.53 80.3536 228.838 80.5556 229.18 80.68C229.18 80.78 229.09 80.89 229.02 80.92C228.75 81.04 228.46 81.21 229.16 81.46C229.59 81.61 229.65 81.35 229.45 81.11C229.41 80.9933 229.41 80.8667 229.45 80.75C229.611 80.7887 229.775 80.8121 229.94 80.82C229.94 80.9458 229.92 81.0708 229.88 81.19C229.79 81.37 229.71 81.45 230.04 81.4C230.37 81.35 230.2 81.29 230.04 81.18C229.991 81.0668 229.97 80.9431 229.98 80.82C230.14 80.8347 230.3 80.8347 230.46 80.82C230.479 80.8625 230.489 80.9085 230.489 80.955C230.489 81.0015 230.479 81.0475 230.46 81.09C230.32 81.35 230.2 81.66 230.91 81.43C231.33 81.29 231.22 81.04 230.91 80.97C230.83 80.97 230.75 80.86 230.68 80.76C230.827 80.7189 230.969 80.6584 231.1 80.58C231.187 80.5291 231.271 80.4723 231.35 80.41C231.414 80.4849 231.446 80.5817 231.44 80.68C231.37 80.96 231.32 81.3 231.95 80.9C232.33 80.67 232.17 80.45 231.86 80.46C231.734 80.4358 231.621 80.3686 231.54 80.27C231.797 80.0313 232.001 79.7418 232.14 79.42C232.27 79.42 232.41 79.52 232.45 79.62C232.56 79.88 232.73 80.17 232.99 79.48C233.15 79.05 232.88 78.99 232.64 79.18C232.501 79.2288 232.349 79.2288 232.21 79.18C232.265 79.0249 232.302 78.8638 232.32 78.7C232.452 78.7079 232.581 78.7419 232.7 78.8C232.86 78.92 232.94 79 232.93 78.67C232.92 78.34 232.84 78.5 232.72 78.59C232.592 78.6226 232.458 78.6226 232.33 78.59C232.35 78.4239 232.35 78.2561 232.33 78.09C232.425 78.0811 232.521 78.1058 232.6 78.16Z" fill="#E91E63"/>
<path d="M247.55 105.74C247.69 105.86 247.88 105.99 247.83 105.5C247.83 105.2 247.63 105.24 247.54 105.42C247.484 105.49 247.407 105.539 247.32 105.56C247.288 105.424 247.237 105.293 247.17 105.17C247.126 105.087 247.072 105.01 247.01 104.94C247.07 104.87 247.14 104.81 247.21 104.82C247.28 104.83 247.63 104.82 247.29 104.45C246.95 104.08 246.96 104.37 247.01 104.57C247.006 104.665 246.971 104.757 246.91 104.83C246.751 104.669 246.56 104.543 246.35 104.46C246.35 104.36 246.43 104.19 246.52 104.16C246.61 104.13 246.9 103.99 246.45 103.79C246.17 103.67 246.12 103.79 246.24 104.01C246.289 104.139 246.289 104.281 246.24 104.41C246.117 104.395 245.993 104.395 245.87 104.41C245.859 104.294 245.859 104.176 245.87 104.06C245.93 103.94 245.98 103.88 245.76 103.93C245.54 103.98 245.66 104.01 245.76 104.07C245.802 104.178 245.822 104.294 245.82 104.41H245.53C245.505 104.349 245.505 104.281 245.53 104.22C245.63 104.06 245.73 103.85 245.24 103.98C244.95 104.05 245.02 104.22 245.24 104.28C245.312 104.315 245.369 104.376 245.4 104.45C245.285 104.48 245.174 104.524 245.07 104.58C244.959 104.642 244.858 104.719 244.77 104.81C244.742 104.772 244.725 104.727 244.72 104.68C244.72 104.48 244.72 104.26 244.36 104.58C244 104.9 244.26 104.9 244.46 104.87C244.528 104.868 244.595 104.889 244.65 104.93C244.565 105.025 244.492 105.129 244.43 105.24C244.373 105.198 244.322 105.147 244.28 105.09C244.28 105 244.23 104.94 244.15 105.09C244.07 105.24 244.15 105.19 244.22 105.18C244.29 105.199 244.355 105.233 244.41 105.28C244.371 105.371 244.337 105.465 244.31 105.56C244.252 105.553 244.198 105.524 244.16 105.48C244.06 105.32 243.92 105.14 243.82 105.63C243.75 105.92 243.93 105.94 244.07 105.79C244.13 105.743 244.204 105.718 244.28 105.72C244.25 105.889 244.25 106.061 244.28 106.23C244.24 106.25 244.195 106.261 244.15 106.261C244.105 106.261 244.06 106.25 244.02 106.23C243.87 106.11 243.68 105.98 243.74 106.47C243.74 106.77 243.95 106.73 244.03 106.55C244.099 106.461 244.199 106.4 244.31 106.38C244.341 106.493 244.381 106.603 244.43 106.71L244.24 106.8C244.13 106.8 244.08 106.8 244.19 106.92C244.3 107.04 244.28 106.92 244.3 106.92C244.32 106.92 244.38 106.83 244.45 106.78C244.497 106.857 244.551 106.931 244.61 107C244.55 107.08 244.46 107.17 244.38 107.17C244.3 107.17 243.96 107.17 244.31 107.53C244.66 107.89 244.64 107.61 244.59 107.41C244.591 107.3 244.63 107.194 244.7 107.11C244.87 107.282 245.074 107.415 245.3 107.5C245.3 107.57 245.25 107.64 245.2 107.66C245.15 107.68 244.83 107.85 245.29 108.02C245.58 108.12 245.62 107.94 245.49 107.79C245.462 107.709 245.462 107.621 245.49 107.54C245.599 107.554 245.71 107.554 245.82 107.54C245.83 107.623 245.83 107.707 245.82 107.79C245.76 107.91 245.71 107.96 245.92 107.93C246.13 107.9 246.03 107.86 245.92 107.79C245.898 107.708 245.898 107.622 245.92 107.54C246.026 107.55 246.133 107.55 246.24 107.54C246.24 107.61 246.24 107.67 246.24 107.72C246.24 107.77 246.07 108.1 246.54 107.95C246.83 107.85 246.75 107.69 246.54 107.64C246.33 107.59 246.43 107.57 246.38 107.5C246.481 107.47 246.578 107.43 246.67 107.38C246.73 107.38 246.78 107.3 246.83 107.27C246.88 107.24 246.91 107.39 246.89 107.45C246.87 107.51 246.81 107.86 247.23 107.6C247.49 107.44 247.38 107.29 247.17 107.3C247.087 107.281 247.013 107.235 246.96 107.17C247.133 107.015 247.27 106.824 247.36 106.61C247.402 106.615 247.443 106.629 247.479 106.652C247.516 106.674 247.547 106.704 247.57 106.74C247.64 106.91 247.75 107.11 247.93 106.64C248.03 106.36 247.85 106.32 247.7 106.44C247.606 106.473 247.504 106.473 247.41 106.44C247.442 106.335 247.465 106.228 247.48 106.12C247.566 106.123 247.651 106.144 247.73 106.18C247.84 106.26 247.89 106.32 247.89 106.1C247.89 105.88 247.83 105.98 247.75 106.1C247.661 106.121 247.569 106.121 247.48 106.1C247.495 105.99 247.495 105.879 247.48 105.77C247.502 105.757 247.525 105.746 247.55 105.74Z" fill="#E91E63"/>
<path d="M274.05 90.41C274.16 90.51 274.29 90.6 274.26 90.23C274.23 89.86 274.11 90.04 274.04 90.23C274 90.2808 273.943 90.3162 273.88 90.33C273.854 90.2297 273.817 90.1325 273.77 90.04L273.65 89.87C273.667 89.8455 273.69 89.8249 273.716 89.8095C273.741 89.794 273.77 89.7839 273.8 89.78C273.94 89.78 274.11 89.78 273.85 89.51C273.59 89.24 273.61 89.45 273.64 89.59C273.67 89.73 273.64 89.72 273.57 89.79C273.453 89.6702 273.314 89.575 273.16 89.51C273.16 89.44 273.16 89.31 273.28 89.28C273.4 89.25 273.57 89.16 273.28 89.01C272.99 88.86 273.03 89.01 273.12 89.18C273.21 89.35 273.12 89.39 273.12 89.48C273.032 89.4537 272.941 89.4369 272.85 89.43C272.835 89.3474 272.835 89.2626 272.85 89.18C272.85 89.08 272.93 89.04 272.77 89.08C272.61 89.12 272.69 89.14 272.77 89.19C272.85 89.24 272.77 89.34 272.82 89.43H272.6C272.585 89.3846 272.585 89.3354 272.6 89.29C272.68 89.17 272.75 89.02 272.39 89.11C272.03 89.2 272.22 89.29 272.39 89.33C272.439 89.3614 272.477 89.4066 272.5 89.46C272.415 89.4804 272.334 89.5141 272.26 89.56C272.175 89.6042 272.097 89.6616 272.03 89.73C272.022 89.6971 272.022 89.6629 272.03 89.63C272.03 89.49 272.03 89.32 271.76 89.56C271.49 89.8 271.69 89.8 271.84 89.77C271.864 89.7693 271.888 89.7733 271.91 89.7819C271.932 89.7905 271.953 89.8034 271.97 89.82C271.909 89.8886 271.858 89.9662 271.82 90.05C271.776 90.0183 271.735 89.9813 271.7 89.94C271.7 89.87 271.7 89.83 271.6 89.94C271.5 90.05 271.6 90.02 271.66 90.01C271.72 90 271.75 90.01 271.8 90.08C271.769 90.1483 271.742 90.2184 271.72 90.29C271.678 90.2823 271.639 90.2613 271.61 90.23C271.53 90.11 271.43 89.97 271.36 90.34C271.31 90.55 271.44 90.57 271.55 90.46C271.569 90.4408 271.593 90.4263 271.619 90.4177C271.645 90.409 271.673 90.4064 271.7 90.41C271.68 90.5359 271.68 90.6641 271.7 90.79C271.638 90.8106 271.572 90.8106 271.51 90.79C271.39 90.7 271.26 90.6 271.3 90.97C271.3 91.19 271.46 91.16 271.52 90.97C271.58 90.78 271.64 90.87 271.72 90.85C271.74 90.9348 271.774 91.0158 271.82 91.09C271.773 91.12 271.723 91.1436 271.67 91.16C271.59 91.16 271.55 91.16 271.67 91.25C271.79 91.34 271.74 91.25 271.75 91.25C271.76 91.25 271.82 91.18 271.87 91.15C271.901 91.2096 271.941 91.2636 271.99 91.31C271.94 91.37 271.87 91.44 271.81 91.43C271.75 91.42 271.51 91.43 271.76 91.71C272.01 91.99 272.01 91.71 271.97 91.61C271.93 91.51 271.97 91.46 272.06 91.39C272.183 91.5189 272.333 91.6181 272.5 91.68C272.496 91.7046 272.487 91.7282 272.473 91.7489C272.459 91.7696 272.441 91.7871 272.42 91.8C272.29 91.86 272.15 91.94 272.49 92.07C272.83 92.2 272.74 92.01 272.64 91.9C272.623 91.8378 272.623 91.7722 272.64 91.71C272.72 91.7196 272.8 91.7196 272.88 91.71C272.892 91.7694 272.892 91.8306 272.88 91.89C272.83 91.98 272.79 92.02 272.96 92C273.13 91.98 273.04 91.94 272.96 91.89C272.945 91.831 272.945 91.769 272.96 91.71C273.04 91.7196 273.12 91.7196 273.2 91.71C273.209 91.7322 273.214 91.756 273.214 91.78C273.214 91.804 273.209 91.8278 273.2 91.85C273.13 91.98 273.07 92.13 273.42 92.02C273.77 91.91 273.58 91.82 273.42 91.79C273.371 91.7692 273.329 91.7344 273.3 91.69L273.51 91.6L273.64 91.51C273.657 91.5551 273.657 91.6049 273.64 91.65C273.64 91.79 273.58 91.95 273.89 91.76C274.2 91.57 274 91.53 273.89 91.54C273.827 91.5262 273.77 91.4908 273.73 91.44C273.858 91.3224 273.96 91.1793 274.03 91.02C274.09 91.02 274.16 91.02 274.18 91.12C274.2 91.22 274.32 91.39 274.45 91.05C274.58 90.71 274.4 90.81 274.28 90.9C274.212 90.9253 274.138 90.9253 274.07 90.9C274.092 90.8247 274.109 90.7478 274.12 90.67C274.183 90.6573 274.247 90.6573 274.31 90.67C274.39 90.73 274.42 90.77 274.42 90.6C274.42 90.43 274.42 90.52 274.32 90.6C274.254 90.6169 274.185 90.6169 274.12 90.6C274.13 90.517 274.13 90.433 274.12 90.35C274.102 90.3754 274.078 90.3961 274.05 90.41Z" fill="#E91E63"/>
<path d="M269.83 78C269.93 78.09 270.07 78.19 270.04 77.82C270.01 77.45 269.88 77.62 269.82 77.76C269.76 77.9 269.72 77.84 269.65 77.87C269.632 77.7688 269.598 77.6709 269.55 77.58L269.43 77.4C269.445 77.3758 269.466 77.3553 269.49 77.3397C269.514 77.3242 269.541 77.3141 269.57 77.31C269.72 77.31 269.88 77.31 269.63 77.04C269.38 76.77 269.39 76.98 269.42 77.13C269.422 77.2 269.397 77.2681 269.35 77.32C269.231 77.2008 269.088 77.1087 268.93 77.05C268.93 76.97 268.99 76.85 269.06 76.82C269.13 76.79 269.35 76.7 269.01 76.55C268.67 76.4 268.76 76.55 268.85 76.71C268.94 76.87 268.85 76.93 268.85 77.01C268.757 76.9996 268.663 76.9996 268.57 77.01C268.559 76.9237 268.559 76.8363 268.57 76.75C268.57 76.66 268.65 76.62 268.49 76.65C268.33 76.68 268.41 76.71 268.49 76.76C268.505 76.8426 268.505 76.9274 268.49 77.01H268.27C268.26 76.988 268.255 76.9641 268.255 76.94C268.255 76.9159 268.26 76.892 268.27 76.87C268.34 76.74 268.42 76.59 268.06 76.69C267.7 76.79 267.89 76.87 268.06 76.91C268.23 76.95 268.14 76.98 268.17 77.03L267.93 77.13C267.848 77.1785 267.77 77.2355 267.7 77.3C267.7 77.3 267.7 77.24 267.7 77.21C267.7 77.18 267.7 76.9 267.43 77.13C267.16 77.36 267.36 77.37 267.51 77.35C267.552 77.3338 267.598 77.3338 267.64 77.35C267.581 77.4226 267.527 77.4995 267.48 77.58C267.436 77.5513 267.399 77.5139 267.37 77.47C267.37 77.4 267.37 77.36 267.27 77.47C267.17 77.58 267.27 77.54 267.33 77.53L267.47 77.6C267.439 77.6683 267.412 77.7384 267.39 77.81C267.34 77.81 267.3 77.81 267.28 77.75C267.26 77.69 267.1 77.5 267.02 77.86C266.94 78.22 267.11 78.09 267.21 77.98C267.262 77.9673 267.317 77.9673 267.37 77.98C267.35 78.1059 267.35 78.2341 267.37 78.36C267.339 78.3751 267.305 78.3829 267.27 78.3829C267.235 78.3829 267.201 78.3751 267.17 78.36C267.06 78.27 266.92 78.18 266.97 78.55C267.02 78.92 267.12 78.74 267.19 78.6C267.26 78.46 267.31 78.5 267.39 78.47C267.409 78.5568 267.44 78.6408 267.48 78.72L267.34 78.79C267.26 78.79 267.22 78.79 267.34 78.88C267.46 78.97 267.41 78.88 267.42 78.88C267.454 78.8401 267.495 78.8062 267.54 78.78C267.571 78.8402 267.608 78.8972 267.65 78.95C267.632 78.981 267.607 79.0078 267.578 79.0285C267.549 79.0492 267.515 79.0634 267.48 79.07C267.34 79.07 267.17 79.07 267.43 79.34C267.69 79.61 267.67 79.4 267.64 79.25C267.61 79.1 267.64 79.1 267.72 79.02C267.843 79.1526 267.998 79.2522 268.17 79.31C268.17 79.37 268.17 79.42 268.09 79.44C268.01 79.46 267.81 79.58 268.16 79.7C268.51 79.82 268.4 79.7 268.31 79.53C268.288 79.4719 268.288 79.4081 268.31 79.35C268.39 79.3596 268.47 79.3596 268.55 79.35C268.558 79.4131 268.558 79.4769 268.55 79.54C268.5 79.63 268.46 79.67 268.62 79.64C268.78 79.61 268.71 79.64 268.62 79.54C268.605 79.4775 268.605 79.4125 268.62 79.35C268.7 79.3596 268.78 79.3596 268.86 79.35C268.87 79.372 268.875 79.3959 268.875 79.42C268.875 79.4441 268.87 79.468 268.86 79.49C268.79 79.61 268.73 79.77 269.08 79.65C269.43 79.53 269.23 79.46 269.08 79.43C268.93 79.4 269 79.37 268.96 79.32C269.033 79.2981 269.104 79.2679 269.17 79.23C269.215 79.207 269.259 79.1803 269.3 79.15C269.3 79.15 269.35 79.24 269.3 79.28C269.25 79.32 269.24 79.59 269.55 79.39C269.86 79.19 269.66 79.17 269.55 79.17C269.487 79.1604 269.431 79.1285 269.39 79.08C269.518 78.9647 269.617 78.8208 269.68 78.66C269.742 78.6704 269.799 78.7022 269.84 78.75C269.9 78.88 269.98 79.03 270.11 78.68C270.24 78.33 270.05 78.44 269.94 78.54C269.868 78.5611 269.792 78.5611 269.72 78.54C269.751 78.4636 269.768 78.3823 269.77 78.3C269.836 78.3053 269.9 78.3223 269.96 78.35C270.05 78.41 270.08 78.45 270.08 78.29C270.08 78.13 270.03 78.2 269.97 78.29C269.91 78.38 269.86 78.29 269.78 78.29C269.785 78.2067 269.785 78.1232 269.78 78.04C269.794 78.0239 269.811 78.0104 269.83 78Z" fill="#E91E63"/>
<path d="M252.69 73.82C252.91 74.01 253.18 74.2 253.11 73.46C253.11 73.01 252.81 73.07 252.68 73.34C252.596 73.4518 252.476 73.5299 252.34 73.56C252.298 73.3543 252.228 73.1556 252.13 72.97C252.058 72.8479 251.978 72.731 251.89 72.62C251.962 72.5272 252.065 72.4633 252.18 72.44C252.47 72.44 252.81 72.44 252.3 71.9C251.99 71.57 251.81 71.77 251.88 72.07C251.875 72.2115 251.826 72.3481 251.74 72.46C251.499 72.2228 251.213 72.0359 250.9 71.91C250.9 71.75 251.01 71.5 251.15 71.45C251.29 71.4 251.72 71.2 251.04 70.9C250.63 70.72 250.55 70.98 250.72 71.23C250.89 71.48 250.72 71.67 250.72 71.84C250.538 71.7849 250.35 71.7547 250.16 71.75C250.128 71.5781 250.128 71.4019 250.16 71.23C250.24 71.05 250.31 70.96 249.99 71.03C249.67 71.1 249.83 71.15 249.99 71.25C250.06 71.407 250.094 71.5779 250.09 71.75C249.943 71.7347 249.796 71.7347 249.65 71.75C249.63 71.7043 249.619 71.6549 249.619 71.605C249.619 71.5551 249.63 71.5057 249.65 71.46C249.8 71.21 249.94 70.91 249.22 71.1C248.79 71.21 248.88 71.46 249.22 71.55C249.3 71.55 249.38 71.68 249.45 71.8C249.279 71.8476 249.115 71.9147 248.96 72C248.792 72.0927 248.637 72.207 248.5 72.34C248.459 72.2808 248.435 72.2117 248.43 72.14C248.43 71.86 248.43 71.52 247.89 72C247.55 72.29 247.75 72.48 248.05 72.43C248.147 72.4293 248.242 72.4609 248.32 72.52C248.201 72.6644 248.094 72.8183 248 72.98C247.915 72.9231 247.84 72.8521 247.78 72.77C247.71 72.63 247.69 72.54 247.58 72.77C247.47 73 247.58 72.92 247.69 72.9C247.8 72.88 247.86 72.97 247.97 73.05C247.903 73.1836 247.853 73.3246 247.82 73.47C247.731 73.46 247.649 73.4172 247.59 73.35C247.44 73.1 247.23 72.84 247.08 73.57C246.98 74.01 247.25 74.03 247.46 73.81C247.547 73.74 247.658 73.7044 247.77 73.71C247.73 73.9651 247.73 74.2249 247.77 74.48C247.708 74.5061 247.642 74.5196 247.575 74.5196C247.508 74.5196 247.441 74.5061 247.38 74.48C247.15 74.3 246.87 74.11 246.96 74.85C247.01 75.3 247.28 75.24 247.4 74.96C247.505 74.8289 247.654 74.7402 247.82 74.71C247.86 74.8798 247.921 75.0443 248 75.2C247.91 75.2592 247.812 75.3062 247.71 75.34C247.55 75.34 247.47 75.34 247.63 75.52C247.79 75.7 247.77 75.59 247.8 75.52C247.83 75.45 247.92 75.39 248.03 75.32C248.098 75.4355 248.175 75.5458 248.26 75.65C248.17 75.77 248.04 75.9 247.92 75.9C247.63 75.9 247.3 75.9 247.82 76.45C248.14 76.77 248.31 76.56 248.23 76.26C248.23 76.13 248.31 75.95 248.41 75.81C248.661 76.0706 248.969 76.2691 249.31 76.39C249.285 76.4912 249.225 76.58 249.14 76.64C248.88 76.76 248.59 76.92 249.29 77.17C249.71 77.33 249.78 77.06 249.58 76.83C249.541 76.7096 249.541 76.5804 249.58 76.46C249.737 76.498 249.898 76.5214 250.06 76.53C250.068 76.6587 250.051 76.7877 250.01 76.91C249.92 77.08 249.84 77.17 250.17 77.11C250.5 77.05 250.33 77.01 250.17 76.9C250.119 76.7835 250.099 76.6564 250.11 76.53C250.269 76.5447 250.43 76.5447 250.59 76.53C250.619 76.6211 250.619 76.7189 250.59 76.81C250.45 77.06 250.33 77.37 251.03 77.14C251.46 77 251.35 76.75 251.03 76.69C250.931 76.6443 250.848 76.5714 250.79 76.48C250.939 76.4312 251.083 76.3675 251.22 76.29C251.309 76.2427 251.393 76.1857 251.47 76.12C251.532 76.1994 251.564 76.2989 251.56 76.4C251.48 76.68 251.43 77.01 252.07 76.62C252.45 76.38 252.28 76.17 251.98 76.17C251.88 76.17 251.76 76.08 251.65 75.98C251.914 75.7523 252.12 75.4642 252.25 75.14C252.39 75.14 252.52 75.23 252.56 75.33C252.68 75.6 252.84 75.89 253.1 75.19C253.26 74.77 253 74.7 252.76 74.89C252.621 74.9431 252.468 74.9431 252.33 74.89C252.38 74.7336 252.417 74.573 252.44 74.41C252.571 74.4236 252.699 74.4573 252.82 74.51C252.98 74.63 253.05 74.72 253.05 74.39C253.05 74.06 252.96 74.21 252.84 74.31C252.708 74.3369 252.572 74.3369 252.44 74.31C252.455 74.1437 252.455 73.9763 252.44 73.81C252.522 73.7842 252.61 73.7877 252.69 73.82Z" fill="#E91E63"/>
<path d="M221.28 86.9C221.324 87.0262 221.324 87.1638 221.28 87.29C221.119 87.1811 220.948 87.0874 220.77 87.01C220.653 86.9642 220.533 86.9275 220.41 86.9C220.423 86.8396 220.448 86.7826 220.484 86.7327C220.52 86.6827 220.567 86.6409 220.62 86.61C220.94 86.46 221.31 86.26 220.44 85.94C219.92 85.74 219.84 86.07 220.07 86.37C220.149 86.5094 220.174 86.6733 220.14 86.83C219.711 86.7561 219.27 86.7766 218.85 86.89C218.777 86.7517 218.759 86.5909 218.8 86.44C218.97 86.12 219.14 85.74 218.26 86.02C217.72 86.18 217.86 86.49 218.26 86.58C218.4 86.58 218.53 86.79 218.63 86.96C218.44 87.0324 218.256 87.1193 218.08 87.22C217.993 87.0809 217.929 86.929 217.89 86.77C217.89 86.52 217.89 86.39 217.6 86.65C217.31 86.91 217.49 86.87 217.68 86.91C217.87 86.95 217.88 87.11 217.99 87.29C217.814 87.4072 217.653 87.5448 217.51 87.7C217.411 87.6163 217.347 87.4986 217.33 87.37C217.33 87.01 217.33 86.6 216.65 87.23C216.25 87.61 216.5 87.83 216.87 87.75C217.039 87.7431 217.206 87.7962 217.34 87.9C217.174 88.1044 217.037 88.3297 216.93 88.57C216.862 88.7315 216.808 88.8988 216.77 89.07C216.696 89.0741 216.621 89.0619 216.552 89.0343C216.483 89.0067 216.421 88.9642 216.37 88.91C216.16 88.62 215.89 88.31 215.75 89.22C215.66 89.77 216 89.78 216.24 89.49C216.382 89.3866 216.554 89.3307 216.73 89.33C216.672 89.749 216.706 90.1755 216.83 90.58C216.65 90.66 216.35 90.78 216.19 90.68C216.03 90.58 215.51 90.31 215.74 91.2C215.88 91.74 216.19 91.62 216.3 91.26C216.36 91.07 216.71 90.9 216.9 90.82C216.995 91.0348 217.113 91.2392 217.25 91.43C217.097 91.5825 216.922 91.7107 216.73 91.81C216.48 91.81 216.34 91.81 216.66 92.12C216.98 92.43 216.9 92.18 216.91 91.99C216.92 91.8 217.15 91.67 217.32 91.51C217.431 91.6607 217.558 91.7982 217.7 91.92C217.632 92.0253 217.53 92.1032 217.41 92.14C217.05 92.14 216.65 92.26 217.41 92.83C217.85 93.17 218.02 92.83 217.88 92.53C217.852 92.3872 217.874 92.2393 217.94 92.11C218.119 92.2358 218.309 92.3431 218.51 92.43C218.73 92.5256 218.962 92.5895 219.2 92.62C219.183 92.7086 219.133 92.7874 219.06 92.84C218.76 93.03 218.43 93.28 219.33 93.47C219.88 93.59 219.91 93.25 219.63 93C219.553 92.9034 219.511 92.7836 219.51 92.66C219.743 92.6852 219.977 92.6852 220.21 92.66C220.23 92.7859 220.23 92.9141 220.21 93.04C220.12 93.22 220.05 93.3 220.36 93.24C220.67 93.18 220.52 93.13 220.36 93.03C220.301 92.9089 220.277 92.774 220.29 92.64C220.471 92.5985 220.648 92.5416 220.82 92.47C220.873 92.564 220.891 92.674 220.87 92.78C220.75 93.12 220.64 93.52 221.47 93.12C221.98 92.87 221.79 92.59 221.42 92.56C221.284 92.5234 221.164 92.4425 221.08 92.33C221.362 92.1772 221.615 91.9777 221.83 91.74C221.97 91.86 222.11 92.01 222.11 92.15C222.11 92.51 222.11 92.92 222.79 92.27C223.19 91.88 222.92 91.67 222.56 91.76C222.351 91.7599 222.149 91.6854 221.99 91.55C222.128 91.3793 222.242 91.191 222.33 90.99C222.462 91.028 222.584 91.0926 222.69 91.18C222.82 91.32 222.87 91.42 222.93 91.11C222.99 90.8 222.93 90.92 222.75 90.99C222.623 90.9871 222.497 90.96 222.38 90.91C222.439 90.753 222.489 90.5927 222.53 90.43C222.619 90.4191 222.71 90.4268 222.796 90.4526C222.882 90.4784 222.961 90.5218 223.03 90.58C223.24 90.87 223.52 91.17 223.64 90.26C223.71 89.7 223.38 89.7 223.14 90C222.975 90.1204 222.774 90.1836 222.57 90.18C222.632 89.73 222.591 89.2718 222.45 88.84C222.569 88.7955 222.701 88.7955 222.82 88.84C223.13 89.01 223.52 89.16 223.23 88.29C223.06 87.76 222.75 87.9 222.67 88.29C222.607 88.4317 222.497 88.548 222.36 88.62C222.258 88.4031 222.138 88.1957 222 88C222.119 87.8961 222.259 87.8179 222.41 87.77C222.65 87.77 222.79 87.77 222.49 87.46C222.19 87.15 222.26 87.38 222.24 87.57C222.22 87.76 222.08 87.79 221.93 87.91C221.803 87.7515 221.662 87.6042 221.51 87.47C221.564 87.3654 221.658 87.2864 221.77 87.25C222.12 87.19 222.52 87.07 221.77 86.56C221.27 86.26 221.12 86.56 221.28 86.9Z" fill="#E91E63"/>
<path d="M229.5 92.12C229.71 92.02 229.94 91.87 229.37 91.69C229.02 91.58 228.97 91.79 229.14 91.98C229.191 92.0748 229.208 92.184 229.19 92.29C229.024 92.2649 228.856 92.2649 228.69 92.29C228.575 92.3027 228.461 92.3261 228.35 92.36C228.318 92.2694 228.318 92.1706 228.35 92.08C228.45 91.87 228.55 91.61 227.98 91.82C227.64 91.94 227.74 92.14 227.98 92.19C228.07 92.19 228.16 92.31 228.23 92.42C227.972 92.5173 227.74 92.671 227.55 92.87C227.44 92.79 227.28 92.65 227.29 92.53C227.3 92.41 227.29 92.03 226.85 92.44C226.58 92.69 226.75 92.83 226.99 92.78C227.23 92.73 227.32 92.89 227.43 92.98C227.338 93.1025 227.258 93.2331 227.19 93.37C227.055 93.3281 226.927 93.2675 226.81 93.19C226.7 93.07 226.66 92.99 226.61 93.25C226.56 93.51 226.61 93.41 226.76 93.35C226.901 93.3507 227.041 93.3813 227.17 93.44C227.12 93.5495 227.079 93.6633 227.05 93.78C226.973 93.7705 226.9 93.7393 226.84 93.69C226.7 93.5 226.53 93.29 226.44 93.88C226.38 94.24 226.6 94.25 226.76 94.06C226.92 93.87 226.91 93.98 227.02 93.97C227 94.1093 227 94.2507 227.02 94.39C227.03 94.5452 227.067 94.6975 227.13 94.84C227.103 94.8532 227.074 94.8601 227.045 94.8601C227.015 94.8601 226.986 94.8532 226.96 94.84C226.76 94.73 226.51 94.62 226.68 95.2C226.79 95.55 226.99 95.46 227.05 95.2C227.085 95.126 227.14 95.0635 227.21 95.02C227.27 95.161 227.351 95.2923 227.45 95.41C227.377 95.4576 227.295 95.4915 227.21 95.51C227.09 95.51 227.02 95.51 227.15 95.66C227.28 95.81 227.26 95.66 227.29 95.66C227.32 95.66 227.4 95.55 227.49 95.49C227.566 95.5832 227.654 95.6671 227.75 95.74C227.716 95.8028 227.658 95.8495 227.59 95.87C227.36 95.87 227.09 95.97 227.59 96.32C227.88 96.53 227.99 96.32 227.89 96.11C227.861 96.0257 227.861 95.9342 227.89 95.85C228.066 95.9591 228.259 96.04 228.46 96.09C228.46 96.21 228.4 96.34 228.32 96.38C228.24 96.42 227.89 96.64 228.46 96.81C228.81 96.91 228.85 96.69 228.68 96.51C228.616 96.3906 228.598 96.2517 228.63 96.12C228.769 96.1352 228.91 96.1352 229.05 96.12C229.069 96.2056 229.069 96.2944 229.05 96.38C229.05 96.5 228.97 96.56 229.16 96.5C229.35 96.44 229.25 96.42 229.16 96.36C229.07 96.3 229.1 96.22 229.08 96.12C229.187 96.1058 229.294 96.0858 229.4 96.06C229.435 96.1064 229.461 96.1597 229.475 96.2165C229.488 96.2734 229.49 96.3325 229.48 96.39C229.38 96.6 229.29 96.86 229.85 96.64C230.19 96.5 230.09 96.31 229.85 96.27C229.75 96.27 229.65 96.12 229.57 96C229.842 95.8945 230.088 95.7306 230.29 95.52C230.356 95.5643 230.402 95.6323 230.42 95.71C230.42 95.95 230.42 96.22 230.87 95.78C231.12 95.51 230.94 95.38 230.7 95.45C230.597 95.4566 230.495 95.4284 230.41 95.37C230.491 95.2677 230.562 95.1571 230.62 95.04C230.715 95.0742 230.803 95.125 230.88 95.19C230.98 95.32 231.02 95.4 231.09 95.19C231.16 94.98 231.09 95.04 230.94 95.08C230.84 95.0822 230.741 95.0617 230.65 95.02C230.7 94.8969 230.74 94.7698 230.77 94.64C230.85 94.64 230.94 94.64 230.98 94.72C231.02 94.8 231.31 95.09 231.37 94.49C231.37 94.13 231.18 94.13 231.03 94.33C230.969 94.3935 230.887 94.4326 230.8 94.44C230.82 94.3175 230.82 94.1925 230.8 94.07C230.81 93.9903 230.81 93.9097 230.8 93.83C230.877 93.7989 230.963 93.7989 231.04 93.83C231.22 93.97 231.45 94.12 231.36 93.52C231.31 93.16 231.1 93.22 231 93.45C230.942 93.5346 230.857 93.5978 230.76 93.63C230.669 93.3599 230.519 93.1138 230.32 92.91C230.39 92.83 230.48 92.74 230.56 92.74C230.8 92.74 231.07 92.74 230.63 92.3C230.37 92.05 230.23 92.22 230.3 92.46C230.306 92.5189 230.3 92.5783 230.283 92.635C230.266 92.6916 230.237 92.7443 230.2 92.79L229.88 92.56C229.931 92.4684 229.995 92.3842 230.07 92.31C230.21 92.23 230.3 92.2 230.07 92.1C229.84 92 229.91 92.1 229.95 92.23C229.929 92.3367 229.888 92.4385 229.83 92.53C229.709 92.4687 229.581 92.4217 229.45 92.39C229.4 92.24 229.43 92.15 229.5 92.12Z" fill="#E91E63"/>
<path d="M241 86.83C241.21 86.73 241.44 86.59 240.87 86.4C240.52 86.29 240.48 86.51 240.64 86.69C240.694 86.7836 240.715 86.8928 240.7 87C240.53 86.9799 240.359 86.9799 240.19 87C240.078 87.0137 239.968 87.0371 239.86 87.07C239.839 87.0262 239.829 86.9784 239.829 86.93C239.829 86.8816 239.839 86.8338 239.86 86.79C239.96 86.58 240.05 86.33 239.49 86.53C239.15 86.66 239.24 86.85 239.49 86.9C239.593 86.9483 239.677 87.0291 239.73 87.13C239.472 87.2272 239.24 87.381 239.05 87.58C238.95 87.5 238.79 87.37 238.79 87.24C238.79 87.11 238.79 86.74 238.35 87.15C238.09 87.4 238.25 87.54 238.5 87.49C238.75 87.44 238.83 87.61 238.94 87.7C238.843 87.815 238.762 87.9429 238.7 88.08C238.562 88.0476 238.432 87.9862 238.32 87.9C238.21 87.78 238.17 87.71 238.12 87.97C238.07 88.23 238.12 88.12 238.27 88.07C238.408 88.0653 238.544 88.0927 238.67 88.15C238.623 88.2597 238.586 88.3735 238.56 88.49C238.478 88.4874 238.4 88.4555 238.34 88.4C238.21 88.21 238.03 88 237.94 88.6C237.88 88.96 238.1 88.97 238.26 88.78C238.331 88.7158 238.424 88.6802 238.52 88.68C238.504 88.8229 238.504 88.9671 238.52 89.11C238.542 89.2631 238.579 89.4138 238.63 89.56C238.578 89.5756 238.522 89.5756 238.47 89.56C238.26 89.44 238.01 89.34 238.19 89.91C238.29 90.26 238.5 90.17 238.55 89.91C238.586 89.8393 238.641 89.7804 238.71 89.74C238.775 89.8753 238.856 90.0027 238.95 90.12C238.881 90.1689 238.803 90.203 238.72 90.22C238.59 90.22 238.53 90.22 238.66 90.37C238.79 90.52 238.77 90.37 238.79 90.37C238.81 90.37 238.9 90.26 238.99 90.21C239.069 90.2975 239.156 90.3778 239.25 90.45C239.234 90.4818 239.211 90.5098 239.184 90.5322C239.156 90.5547 239.124 90.5709 239.09 90.58C238.86 90.58 238.6 90.69 239.09 91.03C239.39 91.24 239.49 91.03 239.39 90.83C239.361 90.7422 239.361 90.6478 239.39 90.56C239.562 90.6761 239.756 90.7576 239.96 90.8C239.96 90.92 239.9 91.05 239.81 91.09C239.72 91.13 239.38 91.35 239.96 91.52C240.31 91.62 240.35 91.4 240.18 91.22C240.116 91.1044 240.094 90.9698 240.12 90.84C240.263 90.8554 240.407 90.8554 240.55 90.84C240.565 90.926 240.565 91.014 240.55 91.1C240.55 91.22 240.47 91.27 240.67 91.21C240.87 91.15 240.76 91.13 240.67 91.07C240.624 90.9975 240.597 90.9152 240.59 90.83C240.701 90.8206 240.812 90.8005 240.92 90.77C240.954 90.8172 240.977 90.8709 240.989 90.9277C241.001 90.9845 241.002 91.0431 240.99 91.1C240.89 91.31 240.81 91.57 241.37 91.35C241.7 91.22 241.6 91.02 241.37 90.98C241.14 90.94 241.16 90.83 241.09 90.71C241.363 90.6062 241.609 90.4422 241.81 90.23C241.872 90.2823 241.917 90.3519 241.94 90.43C241.94 90.66 241.94 90.93 242.38 90.49C242.63 90.22 242.45 90.09 242.22 90.16C242.118 90.1729 242.015 90.148 241.93 90.09C242.01 89.9849 242.077 89.8708 242.13 89.75C242.228 89.7873 242.32 89.8414 242.4 89.91C242.5 90.03 242.54 90.12 242.6 89.91C242.66 89.7 242.6 89.75 242.46 89.8C242.356 89.7986 242.254 89.7747 242.16 89.73C242.215 89.6085 242.255 89.481 242.28 89.35C242.357 89.3495 242.432 89.378 242.49 89.43C242.64 89.61 242.83 89.8 242.88 89.2C242.88 88.84 242.69 88.85 242.55 89.05C242.484 89.1063 242.405 89.1443 242.32 89.16C242.33 89.0335 242.33 88.9065 242.32 88.78C242.308 88.699 242.291 88.6189 242.27 88.54C242.36 88.54 242.45 88.54 242.5 88.54C242.55 88.54 242.92 88.82 242.83 88.23C242.77 87.87 242.56 87.92 242.47 88.15C242.38 88.38 242.33 88.28 242.22 88.33C242.13 88.0647 241.983 87.8223 241.79 87.62C241.86 87.53 241.94 87.45 242.03 87.45C242.12 87.45 242.53 87.45 242.09 87C241.83 86.75 241.7 86.93 241.76 87.16C241.771 87.2819 241.735 87.4036 241.66 87.5C241.564 87.409 241.456 87.3316 241.34 87.27C241.389 87.174 241.457 87.089 241.54 87.02C241.68 86.93 241.76 86.91 241.54 86.81C241.32 86.71 241.38 86.81 241.41 86.94C241.393 87.0448 241.352 87.1442 241.29 87.23C241.168 87.1714 241.041 87.1245 240.91 87.09C240.904 86.9948 240.937 86.9013 241 86.83Z" fill="#E91E63"/>
</svg>
