<svg width="72" height="72" viewBox="0 0 72 72" fill="none" xmlns="http://www.w3.org/2000/svg">
<path d="M35.9098 71.2286C55.499 71.2286 71.3792 55.3484 71.3792 35.7592C71.3792 16.17 55.499 0.289795 35.9098 0.289795C16.3206 0.289795 0.44043 16.17 0.44043 35.7592C0.44043 55.3484 16.3206 71.2286 35.9098 71.2286Z" fill="#212121"/>
<path d="M35.9097 69.9296C54.7815 69.9296 70.0801 54.631 70.0801 35.7592C70.0801 16.8874 54.7815 1.58878 35.9097 1.58878C17.0379 1.58878 1.73926 16.8874 1.73926 35.7592C1.73926 54.631 17.0379 69.9296 35.9097 69.9296Z" fill="#757575"/>
<path fill-rule="evenodd" clip-rule="evenodd" d="M36.2125 37.2386C49.4735 37.2386 60.9061 43.3614 66.1436 52.1902C60.3341 62.7636 49.0923 69.9296 36.1764 69.9296C23.2863 69.9296 12.0638 62.7919 6.24414 52.2537C11.4645 43.3908 22.9196 37.2386 36.2125 37.2386ZM36.2486 10.6095C38.7392 10.6095 41.1739 11.3481 43.2448 12.7318C45.3157 14.1155 46.9298 16.0823 47.8829 18.3833C48.836 20.6844 49.0854 23.2164 48.5995 25.6591C48.1136 28.1019 46.9142 30.3458 45.1531 32.1069C43.3919 33.8681 41.1481 35.0674 38.7053 35.5533C36.2625 36.0392 33.7305 35.7898 31.4295 34.8367C29.1284 33.8836 27.1617 32.2695 25.778 30.1986C24.3942 28.1277 23.6557 25.693 23.6557 23.2024C23.6557 19.8626 24.9824 16.6595 27.3441 14.2979C29.7057 11.9362 32.9087 10.6095 36.2486 10.6095Z" fill="#F4F4F4"/>
</svg>
