<svg width="72" height="72" viewBox="0 0 72 72" fill="none" xmlns="http://www.w3.org/2000/svg">
<path d="M36.4567 71.4408C56.0459 71.4408 71.9261 55.5606 71.9261 35.9714C71.9261 16.3822 56.0459 0.502014 36.4567 0.502014C16.8675 0.502014 0.987305 16.3822 0.987305 35.9714C0.987305 55.5606 16.8675 71.4408 36.4567 71.4408Z" fill="#212121"/>
<path d="M36.4565 70.1418C55.3283 70.1418 70.6269 54.8432 70.6269 35.9714C70.6269 17.0996 55.3283 1.80096 36.4565 1.80096C17.5847 1.80096 2.28613 17.0996 2.28613 35.9714C2.28613 54.8432 17.5847 70.1418 36.4565 70.1418Z" fill="black"/>
<path fill-rule="evenodd" clip-rule="evenodd" d="M36.4937 37.4508C49.7547 37.4508 61.1874 43.5736 66.4249 52.4025C60.6153 62.9758 49.3736 70.1418 36.4577 70.1418C23.5676 70.1418 12.345 63.0042 6.52539 52.4659C11.7457 43.603 23.2008 37.4508 36.4937 37.4508ZM36.5298 10.8217C39.0205 10.8217 41.4552 11.5603 43.5261 12.944C45.597 14.3277 47.211 16.2945 48.1641 18.5955C49.1173 20.8966 49.3667 23.4286 48.8808 25.8714C48.3949 28.3141 47.1955 30.558 45.4343 32.3191C43.6732 34.0803 41.4294 35.2796 38.9866 35.7655C36.5438 36.2514 34.0118 36.0021 31.7107 35.0489C29.4097 34.0958 27.4429 32.4817 26.0592 30.4109C24.6755 28.34 23.9369 25.9053 23.9369 23.4146C23.9369 20.0748 25.2637 16.8717 27.6253 14.5101C29.9869 12.1485 33.19 10.8217 36.5298 10.8217Z" fill="#F4F4F4"/>
</svg>
