<svg width="72" height="72" viewBox="0 0 72 72" fill="none" xmlns="http://www.w3.org/2000/svg">
<path d="M35.8415 71.1511C55.4307 71.1511 71.3108 55.2709 71.3108 35.6817C71.3108 16.0925 55.4307 0.21228 35.8415 0.21228C16.2523 0.21228 0.37207 16.0925 0.37207 35.6817C0.37207 55.2709 16.2523 71.1511 35.8415 71.1511Z" fill="#212121"/>
<path d="M35.8403 69.852C54.7121 69.852 70.0107 54.5534 70.0107 35.6816C70.0107 16.8098 54.7121 1.51123 35.8403 1.51123C16.9685 1.51123 1.66992 16.8098 1.66992 35.6816C1.66992 54.5534 16.9685 69.852 35.8403 69.852Z" fill="#0F39CB"/>
<path fill-rule="evenodd" clip-rule="evenodd" d="M35.8766 37.161C49.1376 37.161 60.5702 43.2838 65.8077 52.1127C59.9981 62.686 48.7564 69.852 35.8405 69.852C22.9504 69.852 11.7279 62.7144 5.9082 52.1761C11.1285 43.3132 22.5837 37.161 35.8766 37.161ZM35.9126 10.5319C38.4033 10.5319 40.838 11.2705 42.9089 12.6542C44.9798 14.0379 46.5938 16.0047 47.547 18.3057C48.5001 20.6068 48.7495 23.1388 48.2636 25.5816C47.7777 28.0244 46.5783 30.2682 44.8172 32.0293C43.056 33.7905 40.8122 34.9898 38.3694 35.4757C35.9266 35.9616 33.3946 35.7123 31.0935 34.7591C28.7925 33.806 26.8258 32.1919 25.442 30.1211C24.0583 28.0502 23.3197 25.6155 23.3197 23.1248C23.3197 19.785 24.6465 16.5819 27.0081 14.2203C29.3697 11.8587 32.5728 10.5319 35.9126 10.5319Z" fill="#F4F4F4"/>
</svg>
