<svg width="72" height="72" viewBox="0 0 72 72" fill="none" xmlns="http://www.w3.org/2000/svg">
<path d="M36.2575 71.8735C55.8467 71.8735 71.7269 55.9933 71.7269 36.4041C71.7269 16.8149 55.8467 0.934692 36.2575 0.934692C16.6683 0.934692 0.788086 16.8149 0.788086 36.4041C0.788086 55.9933 16.6683 71.8735 36.2575 71.8735Z" fill="#212121"/>
<path d="M36.2563 70.5744C55.1281 70.5744 70.4267 55.2758 70.4267 36.404C70.4267 17.5323 55.1281 2.23364 36.2563 2.23364C17.3845 2.23364 2.08594 17.5323 2.08594 36.404C2.08594 55.2758 17.3845 70.5744 36.2563 70.5744Z" fill="#F48FB1"/>
<path fill-rule="evenodd" clip-rule="evenodd" d="M36.2926 37.8835C49.5536 37.8835 60.9862 44.0063 66.2237 52.8351C60.4141 63.4085 49.1724 70.5745 36.2565 70.5745C23.3664 70.5745 12.1439 63.4368 6.32422 52.8986C11.5445 44.0357 22.9997 37.8835 36.2926 37.8835ZM36.3287 11.2544C38.8193 11.2544 41.254 11.993 43.3249 13.3767C45.3958 14.7604 47.0098 16.7271 47.963 19.0282C48.9161 21.3292 49.1655 23.8613 48.6796 26.304C48.1937 28.7468 46.9943 30.9907 45.2332 32.7518C43.472 34.513 41.2282 35.7123 38.7854 36.1982C36.3426 36.6841 33.8106 36.4347 31.5096 35.4816C29.2085 34.5285 27.2418 32.9144 25.858 30.8435C24.4743 28.7726 23.7358 26.3379 23.7358 23.8473C23.7358 20.5074 25.0625 17.3044 27.4241 14.9428C29.7858 12.5811 32.9888 11.2544 36.3287 11.2544V11.2544Z" fill="#F4F4F4"/>
</svg>
