<svg width="72" height="72" viewBox="0 0 72 72" fill="none" xmlns="http://www.w3.org/2000/svg">
<path d="M36.2243 71.8613C55.8135 71.8613 71.6937 55.9811 71.6937 36.3919C71.6937 16.8027 55.8135 0.922485 36.2243 0.922485C16.6351 0.922485 0.754883 16.8027 0.754883 36.3919C0.754883 55.9811 16.6351 71.8613 36.2243 71.8613Z" fill="#212121"/>
<path d="M36.2241 70.5622C55.0959 70.5622 70.3945 55.2636 70.3945 36.3918C70.3945 17.52 55.0959 2.22137 36.2241 2.22137C17.3523 2.22137 2.05371 17.52 2.05371 36.3918C2.05371 55.2636 17.3523 70.5622 36.2241 70.5622Z" fill="#D7366F"/>
<path fill-rule="evenodd" clip-rule="evenodd" d="M36.2603 37.8712C49.5213 37.8712 60.954 43.9941 66.1915 52.8229C60.3819 63.3962 49.1402 70.5623 36.2243 70.5623C23.3342 70.5623 12.1116 63.4246 6.29199 52.8863C11.5123 44.0234 22.9674 37.8712 36.2603 37.8712ZM36.2964 11.2421C38.7871 11.2421 41.2218 11.9807 43.2927 13.3644C45.3636 14.7481 46.9776 16.7149 47.9307 19.0159C48.8839 21.317 49.1333 23.849 48.6474 26.2918C48.1615 28.7346 46.9621 30.9784 45.2009 32.7395C43.4398 34.5007 41.196 35.7001 38.7532 36.186C36.3104 36.6719 33.7784 36.4225 31.4773 35.4693C29.1763 34.5162 27.2095 32.9022 25.8258 30.8313C24.4421 28.7604 23.7035 26.3257 23.7035 23.835C23.7035 20.4952 25.0303 17.2921 27.3919 14.9305C29.7535 12.5689 32.9566 11.2421 36.2964 11.2421V11.2421Z" fill="#F4F4F4"/>
</svg>
