<svg width="72" height="72" viewBox="0 0 72 72" fill="none" xmlns="http://www.w3.org/2000/svg">
<path d="M35.6081 71.5715C55.1973 71.5715 71.0774 55.6913 71.0774 36.1021C71.0774 16.5129 55.1973 0.63269 35.6081 0.63269C16.0189 0.63269 0.138672 16.5129 0.138672 36.1021C0.138672 55.6913 16.0189 71.5715 35.6081 71.5715Z" fill="#212121"/>
<path d="M35.6079 70.2724C54.4797 70.2724 69.7783 54.9738 69.7783 36.102C69.7783 17.2302 54.4797 1.93158 35.6079 1.93158C16.7361 1.93158 1.4375 17.2302 1.4375 36.102C1.4375 54.9738 16.7361 70.2724 35.6079 70.2724Z" fill="#7159C1"/>
<path fill-rule="evenodd" clip-rule="evenodd" d="M35.6441 37.5814C48.9051 37.5814 60.3378 43.7043 65.5752 52.5331C59.7657 63.1064 48.524 70.2725 35.608 70.2725C22.718 70.2725 11.4954 63.1348 5.67578 52.5965C10.8961 43.7336 22.3512 37.5814 35.6441 37.5814ZM35.6802 10.9523C38.1709 10.9523 40.6056 11.6909 42.6765 13.0746C44.7473 14.4583 46.3614 16.4251 47.3145 18.7261C48.2677 21.0272 48.517 23.5592 48.0311 26.002C47.5452 28.4448 46.3459 30.6886 44.5847 32.4498C42.8236 34.2109 40.5798 35.4103 38.137 35.8962C35.6942 36.3821 33.1622 36.1327 30.8611 35.1795C28.5601 34.2264 26.5933 32.6124 25.2096 30.5415C23.8259 28.4706 23.0873 26.0359 23.0873 23.5452C23.0873 20.2054 24.4141 17.0023 26.7757 14.6407C29.1373 12.2791 32.3404 10.9523 35.6802 10.9523V10.9523Z" fill="#F4F4F4"/>
</svg>
