<svg width="709" height="709" viewBox="0 0 709 709" fill="none" xmlns="http://www.w3.org/2000/svg">
<path d="M256.088 346.39C256.088 346.39 240.278 348.872 249.807 383.429C259.336 417.985 267.191 435.809 267.191 435.809C267.191 435.809 268.524 443.651 262.186 443.509C255.847 443.367 242.83 438.475 238.562 445.381C234.152 452.556 238.278 460.979 248.374 469.799C258.471 478.619 279.897 498.528 281.896 500.343C283.895 502.158 285.271 505.944 280.946 506.554C276.621 507.163 245.624 504.086 245.028 518.848C244.432 533.609 276.607 553.404 280.081 555.63C283.555 557.857 284.122 559.658 283.385 561.657C282.647 563.656 272.367 561.657 263.533 561.147C254.699 560.636 244.376 561.586 244.759 570.122C245.141 578.659 262.214 599.9 311.192 615.144L334.362 620.703L351.109 603.616C384.701 564.876 387.977 537.778 383.723 530.319C379.469 522.861 370.266 527.483 363.034 532.588C355.802 537.693 348.131 544.825 346.443 543.507C344.756 542.188 344.302 540.373 346.075 536.643C347.847 532.914 364.721 499.123 356.44 486.9C348.159 474.677 323.528 493.593 319.572 495.408C315.616 497.223 314.822 493.139 315.488 490.629C316.155 488.12 323.798 459.76 327.754 446.983C331.71 434.207 330.746 424.82 323.202 421.062C315.928 417.375 307.42 428.436 302.159 431.896C296.898 435.356 293.836 427.982 293.836 427.982C293.836 427.982 291.141 408.754 281.074 374.382C271.006 340.009 255.776 346.475 255.776 346.475" fill="#EBEBEB"/>
<path d="M334.447 626.431C327.087 601.163 314.779 556.028 304.017 517.316C293.254 478.605 283.47 443.58 276.238 418.311C272.622 405.691 269.687 395.453 267.659 388.349L265.334 380.21L264.738 378.083C264.61 377.601 264.568 377.345 264.568 377.345C264.568 377.345 264.667 377.586 264.809 378.054C264.951 378.522 265.192 379.26 265.475 380.167C266.043 382.039 266.893 384.776 267.929 388.264C270.07 395.354 273.076 405.535 276.748 418.17C284.094 443.438 293.963 478.435 304.726 517.118C315.488 555.801 327.726 600.978 334.943 626.304" fill="#E0E0E0"/>
<path d="M256.5 452.924C257.036 453.135 257.549 453.401 258.031 453.719C258.995 454.257 260.356 455.136 262.044 456.129C265.405 458.214 269.985 461.206 274.962 464.637L287.724 473.386L291.595 476.009C292.103 476.298 292.578 476.64 293.013 477.03C292.473 476.833 291.959 476.571 291.482 476.25C290.517 475.712 289.142 474.833 287.469 473.826C284.122 471.713 279.599 468.65 274.607 465.318L261.845 456.668L257.96 454.059C257.426 453.746 256.935 453.365 256.5 452.924Z" fill="#E0E0E0"/>
<path d="M294.856 475.826C294.686 475.726 300.443 466.027 307.732 454.159C315.02 442.29 321.047 432.775 321.231 432.889C321.415 433.002 315.644 442.687 308.356 454.556C301.067 466.424 295.026 475.939 294.856 475.826Z" fill="#E0E0E0"/>
<path d="M308.71 535.991C309.084 535.535 309.502 535.117 309.958 534.743L313.503 531.539C316.481 528.816 320.593 525.058 324.96 520.734C329.328 516.409 333.185 512.382 335.936 509.39L339.211 505.901C339.584 505.444 340.008 505.03 340.473 504.668C340.173 505.175 339.822 505.651 339.424 506.086C338.715 506.965 337.666 508.227 336.333 509.744C333.667 512.779 329.881 516.834 325.485 521.216C321.089 525.597 316.977 529.27 313.843 531.879C312.297 533.184 311.007 534.233 310.142 534.928C309.712 535.342 309.231 535.699 308.71 535.991Z" fill="#E0E0E0"/>
<path d="M269.46 522.917C270.004 522.961 270.538 523.08 271.049 523.271L275.303 524.505C278.876 525.568 283.811 527.1 289.213 528.759C294.616 530.418 299.536 532.105 303.067 533.297L307.236 534.715C307.76 534.863 308.264 535.072 308.739 535.338C308.197 535.305 307.66 535.215 307.137 535.069L302.883 533.835C299.309 532.772 294.375 531.24 288.958 529.51C283.541 527.78 278.649 526.178 275.118 524.987L270.864 523.569C270.374 523.404 269.903 523.185 269.46 522.917Z" fill="#E0E0E0"/>
<path d="M274.947 577.609C275.631 577.703 276.306 577.86 276.961 578.077L282.406 579.637C287 580.984 293.325 582.884 300.287 585.04C307.249 587.195 313.559 589.18 318.111 590.712L323.485 592.484C324.153 592.68 324.803 592.931 325.428 593.236C324.741 593.134 324.063 592.978 323.4 592.768L317.955 591.208C313.375 589.861 307.051 587.961 300.074 585.805C293.098 583.65 286.802 581.665 282.25 580.133L276.876 578.361C276.211 578.171 275.565 577.92 274.947 577.609Z" fill="#E0E0E0"/>
<path d="M324.323 592.442C324.786 591.86 325.298 591.319 325.854 590.825L330.207 586.571C333.866 582.998 338.9 578.063 344.302 572.391C349.705 566.719 354.484 561.543 357.915 557.743L361.971 553.234C362.44 552.657 362.962 552.125 363.53 551.646C363.138 552.278 362.692 552.876 362.198 553.432C361.29 554.538 359.971 556.141 358.312 558.083C354.98 561.983 350.258 567.272 344.841 572.902C339.424 578.531 334.32 583.451 330.562 586.94C328.676 588.684 327.145 590.074 326.053 591.009C325.517 591.535 324.939 592.014 324.323 592.442Z" fill="#E0E0E0"/>
<path d="M350.615 294.419C349.777 294.401 348.954 294.198 348.204 293.824C348.99 293.545 349.828 293.444 350.657 293.526C352.075 293.526 353.096 293.767 353.068 294.107C353.04 294.448 351.948 294.575 350.615 294.419Z" fill="#E0E0E0"/>
<path d="M348.261 299.085C347.353 298.106 346.687 297.199 346.843 297.099C346.999 297 347.892 297.582 348.927 298.446C349.962 299.311 350.629 300.191 350.345 300.446C350.061 300.701 349.182 300.077 348.261 299.085Z" fill="#E0E0E0"/>
<path d="M343.454 301.169C343.321 300.34 343.375 299.493 343.61 298.688C344.024 299.418 344.271 300.232 344.333 301.07C344.588 302.388 344.517 303.509 344.177 303.537C343.836 303.565 343.51 302.516 343.454 301.169Z" fill="#E0E0E0"/>
<path d="M338.434 299.666C339.256 298.602 340.022 297.794 340.15 297.879C339.99 298.702 339.657 299.48 339.171 300.162C338.519 301.339 337.753 302.133 337.47 301.949C337.186 301.765 337.611 300.744 338.434 299.666Z" fill="#E0E0E0"/>
<path d="M335.555 295.299C336.348 295.028 337.19 294.936 338.023 295.029C337.374 295.556 336.619 295.938 335.811 296.149C334.549 296.631 333.443 296.759 333.343 296.433C333.244 296.107 334.237 295.596 335.555 295.299Z" fill="#E0E0E0"/>
<path d="M336.151 290.094C337.356 290.718 338.278 291.328 338.221 291.512C337.383 291.501 336.557 291.313 335.796 290.959C334.534 290.506 333.598 289.896 333.74 289.541C333.882 289.187 334.96 289.485 336.151 290.094Z" fill="#E0E0E0"/>
<path d="M339.951 286.436C340.357 287.17 340.599 287.982 340.66 288.818C340.518 288.889 339.852 287.996 339.157 286.833C338.462 285.67 338.15 284.621 338.462 284.465C338.774 284.309 339.427 285.259 339.951 286.436Z" fill="#E0E0E0"/>
<path d="M345.184 286.181C344.787 287.471 344.347 288.492 344.191 288.45C344.063 287.627 344.106 286.787 344.319 285.982C344.532 284.649 344.971 283.628 345.311 283.699C345.652 283.77 345.581 284.89 345.184 286.181Z" fill="#E0E0E0"/>
<path d="M349.395 289.272C348.261 290.009 347.268 290.506 347.169 290.378C347.07 290.25 347.835 289.442 348.856 288.563C349.877 287.684 350.87 287.145 351.083 287.457C351.295 287.769 350.529 288.563 349.395 289.272Z" fill="#E0E0E0"/>
<path d="M629.28 296.929C627.957 296.897 626.657 296.583 625.465 296.008C625.465 295.752 627.224 295.54 629.351 295.525C631.478 295.511 633.193 295.908 633.151 296.447C633.108 296.986 631.378 297.184 629.28 296.929Z" fill="#E0E0E0"/>
<path d="M625.565 304.303C624.147 302.743 623.083 301.325 623.253 301.155C623.423 300.985 624.884 301.935 626.529 303.282C628.174 304.629 629.223 306.118 628.854 306.43C628.486 306.742 627.011 305.863 625.565 304.303Z" fill="#E0E0E0"/>
<path d="M617.979 307.578C617.782 306.275 617.869 304.945 618.234 303.679C618.878 304.831 619.27 306.107 619.382 307.422C619.765 309.507 619.652 311.265 619.127 311.322C618.602 311.379 618.078 309.705 617.979 307.578Z" fill="#E0E0E0"/>
<path d="M610.066 305.225C611.356 303.523 612.561 302.261 612.76 302.389C612.521 303.687 611.998 304.917 611.229 305.99C610.193 307.848 608.974 309.11 608.534 308.826C608.095 308.543 608.775 306.912 610.066 305.225Z" fill="#E0E0E0"/>
<path d="M605.486 298.319C606.735 297.9 608.06 297.755 609.371 297.893C608.352 298.724 607.168 299.328 605.897 299.666C603.897 300.417 602.153 300.616 601.997 300.105C601.841 299.595 603.444 298.801 605.486 298.319Z" fill="#E0E0E0"/>
<path d="M606.464 290.109C607.689 290.6 608.799 291.339 609.726 292.278C608.405 292.268 607.103 291.968 605.911 291.399C603.898 290.704 602.437 289.726 602.65 289.229C602.863 288.733 604.578 289.144 606.464 290.109Z" fill="#E0E0E0"/>
<path d="M612.462 284.437C613.092 285.592 613.47 286.868 613.568 288.18C613.356 288.294 612.292 286.89 611.215 285.061C610.137 283.231 609.626 281.558 610.094 281.317C610.562 281.076 611.64 282.48 612.462 284.437Z" fill="#E0E0E0"/>
<path d="M620.715 283.94C620.455 285.233 619.924 286.456 619.156 287.528C618.93 286.225 618.993 284.889 619.34 283.614C619.68 281.515 620.389 279.899 620.914 280.027C621.439 280.154 621.339 281.898 620.715 283.94Z" fill="#E0E0E0"/>
<path d="M627.351 288.861C626.322 289.686 625.128 290.281 623.849 290.605C623.707 290.406 624.898 289.116 626.515 287.769C628.131 286.422 629.691 285.585 630.017 286.011C630.343 286.436 629.138 287.698 627.351 288.861Z" fill="#E0E0E0"/>
<path d="M338.363 404.811H337.895H336.477C335.3 404.811 333.641 404.811 331.5 404.811C327.246 404.811 321.461 404.641 315.065 404.102C308.67 403.563 302.899 402.684 298.744 401.932C296.674 401.549 295.001 401.223 293.852 400.982L292.533 400.684L292.08 400.571H292.548L293.88 400.812L298.787 401.691C302.927 402.386 308.713 403.208 315.08 403.776C321.446 404.343 327.289 404.499 331.5 404.555H336.477H337.895C338.059 404.626 338.215 404.712 338.363 404.811Z" fill="white"/>
<path d="M349.948 443.125C349.761 443.163 349.572 443.192 349.381 443.21L347.722 443.38C346.304 443.536 344.205 443.706 341.625 443.891C336.463 444.231 329.316 444.486 321.418 444.288C313.52 444.089 306.402 443.451 301.268 442.87C298.702 442.558 296.632 442.274 295.199 442.047L293.555 441.778C293.363 441.751 293.174 441.713 292.987 441.665H293.569L295.214 441.877C296.632 442.076 298.73 442.331 301.297 442.615C306.43 443.196 313.548 443.792 321.432 444.033C329.316 444.274 336.449 444.033 341.611 443.706C344.191 443.565 346.276 443.409 347.708 443.295L349.367 443.168L349.948 443.125Z" fill="white"/>
<path d="M350.09 529.581L349.395 529.807L347.41 530.403C345.666 530.928 343.156 531.651 340.022 532.487C333.755 534.161 325.048 536.245 315.321 538.032C305.593 539.818 296.688 540.953 290.25 541.605C287.017 541.931 284.408 542.158 282.607 542.286L280.523 542.428H279.8L280.523 542.343L282.593 542.158C284.394 542.002 287.003 541.733 290.222 541.392C296.66 540.683 305.536 539.507 315.264 537.734C324.991 535.962 333.698 533.891 339.966 532.275C343.099 531.452 345.638 530.772 347.382 530.275L349.381 529.722C349.849 529.623 350.09 529.581 350.09 529.581Z" fill="white"/>
<path d="M399.791 370.566C399.791 370.566 399.422 371.601 398.571 373.402C397.348 375.922 395.925 378.34 394.317 380.634C391.928 384.038 389.313 387.279 386.49 390.333C383.342 393.807 379.726 397.423 376.068 401.45C372.594 405.152 369.422 409.125 366.581 413.333C364.262 416.77 362.385 420.487 360.994 424.393C360.068 427.029 359.464 429.766 359.193 432.547C359.066 433.539 359.108 434.305 359.066 434.83C359.023 435.354 359.066 435.624 359.066 435.624C359.037 434.597 359.066 433.57 359.151 432.547C359.37 429.748 359.947 426.989 360.867 424.337C362.241 420.406 364.109 416.666 366.425 413.205C369.258 408.971 372.436 404.977 375.926 401.266C379.598 397.295 383.214 393.623 386.362 390.163C389.18 387.121 391.804 383.905 394.218 380.534C395.819 378.251 397.241 375.847 398.472 373.345C398.94 372.48 399.209 371.757 399.45 371.289C399.692 370.821 399.791 370.566 399.791 370.566Z" fill="white"/>
<path d="M339.937 392.956L340.377 392.644L341.667 391.765C342.801 391.014 344.404 389.865 346.318 388.39C348.232 386.916 350.473 385.058 352.827 382.888C355.365 380.509 357.774 377.995 360.044 375.359C362.282 372.692 364.384 369.914 366.34 367.035C368.113 364.355 369.602 361.888 370.75 359.747C371.899 357.605 372.778 355.847 373.331 354.613L373.997 353.195C374.153 352.869 374.238 352.713 374.238 352.713C373.259 355.136 372.146 357.503 370.906 359.803C369.574 362.323 368.117 364.775 366.539 367.149C364.6 370.05 362.498 372.838 360.243 375.501C357.971 378.149 355.552 380.667 352.997 383.044C350.629 385.214 348.388 387.057 346.446 388.518C344.361 390.118 342.188 391.6 339.937 392.956Z" fill="white"/>
<path d="M215.309 361.292C215.241 360.851 215.241 360.401 215.309 359.959C215.411 358.88 215.679 357.823 216.103 356.826C216.609 355.592 217.351 354.47 218.287 353.522V353.451V353.536C218.372 353.718 218.438 353.908 218.486 354.103C218.486 354.103 218.344 353.933 218.159 353.592H218.372C217.528 354.589 216.84 355.708 216.33 356.911C215.789 358.317 215.446 359.792 215.309 361.292Z" fill="#455A64"/>
<path d="M232.552 370.211C232.404 369.796 232.313 369.362 232.283 368.921C232.174 367.854 232.202 366.777 232.368 365.716C232.524 364.659 232.825 363.629 233.261 362.653C233.421 362.236 233.64 361.844 233.913 361.491C233.338 362.859 232.91 364.285 232.637 365.745C232.457 367.227 232.429 368.724 232.552 370.211Z" fill="#455A64"/>
<path d="M251.27 368.68C251.215 367.462 251.049 366.252 250.773 365.064C250.396 363.906 249.922 362.782 249.355 361.703C249.616 361.958 249.832 362.256 249.994 362.583C250.446 363.334 250.79 364.146 251.015 364.993C251.251 365.838 251.37 366.711 251.369 367.588C251.398 367.955 251.365 368.324 251.27 368.68Z" fill="#455A64"/>
<path d="M278.963 350.402C278.584 349.025 277.805 347.792 276.725 346.858C275.644 345.924 274.311 345.331 272.894 345.155H273.234C273.545 345.16 273.854 345.198 274.156 345.269C275.169 345.514 276.108 346 276.893 346.687C277.687 347.362 278.302 348.225 278.68 349.197C278.797 349.484 278.883 349.784 278.935 350.09C278.965 350.191 278.975 350.297 278.963 350.402Z" fill="#455A64"/>
<path d="M285.018 329.827C284.02 329.026 282.85 328.468 281.6 328.196C280.337 328.011 279.048 328.113 277.829 328.494C278.991 327.839 280.355 327.636 281.657 327.927C282.976 328.117 284.175 328.795 285.018 329.827Z" fill="#455A64"/>
<path d="M204.022 347.41C204.048 347.027 204.144 346.652 204.306 346.304C204.626 345.437 205.107 344.639 205.724 343.95C206.352 343.265 207.102 342.703 207.936 342.291C208.274 342.106 208.645 341.985 209.028 341.937C207.867 342.474 206.814 343.218 205.922 344.134C205.106 345.109 204.463 346.217 204.022 347.41Z" fill="#455A64"/>
<path d="M199.938 333.726C200.094 333.345 200.309 332.991 200.576 332.677C201.194 331.892 201.931 331.208 202.76 330.649C203.585 330.087 204.494 329.661 205.454 329.387C205.847 329.255 206.259 329.184 206.673 329.175C205.344 329.565 204.074 330.137 202.902 330.876C201.794 331.694 200.798 332.652 199.938 333.726Z" fill="#455A64"/>
<path d="M511.813 345.028C517.6 342.588 523.725 341.043 529.978 340.448C537.947 339.469 546.994 339.54 552.736 345.17C558.125 350.459 559.089 359.35 565.172 363.873C569.866 367.333 576.204 367.092 582.004 367.801C594.823 369.61 606.51 376.125 614.788 386.079C622.961 396.051 628.056 408.186 629.45 421.004C631.237 435.907 628.869 452.101 636.427 465.062C643.162 476.618 656.279 482.801 669.211 486.431C661.199 499.391 615.979 526.943 601.842 532.658L588.626 421.657C588.626 421.657 536.713 361.789 518.35 362.569L511.813 345.028Z" fill="#E91E63"/>
<g opacity="0.4">
<path opacity="0.4" d="M511.813 345.028C517.6 342.588 523.725 341.043 529.978 340.448C537.947 339.469 546.994 339.54 552.736 345.17C558.125 350.459 559.089 359.35 565.172 363.873C569.866 367.333 576.204 367.092 582.004 367.801C594.823 369.61 606.51 376.125 614.788 386.079C622.961 396.051 628.056 408.186 629.45 421.004C631.237 435.907 628.869 452.101 636.427 465.062C643.162 476.618 656.279 482.801 669.211 486.431C661.199 499.391 615.979 526.943 601.842 532.658L588.626 421.657C588.626 421.657 536.713 361.789 518.35 362.569L511.813 345.028Z" fill="black"/>
</g>
<path d="M628.415 414.737C628.377 414.876 628.32 415.01 628.245 415.134C628.061 415.517 627.843 415.882 627.593 416.226C626.698 417.502 625.59 418.615 624.317 419.515C622.412 420.846 620.255 421.773 617.979 422.238C615.209 422.73 612.394 422.92 609.584 422.805C606.62 422.805 603.798 422.635 601.26 422.805C599.009 422.896 596.777 423.253 594.61 423.869C592.63 424.507 590.753 425.429 589.037 426.605C589.037 426.605 589.122 426.463 589.335 426.265C589.644 425.98 589.97 425.714 590.313 425.471C591.579 424.565 592.975 423.858 594.454 423.372C596.645 422.666 598.919 422.247 601.218 422.124C603.813 421.94 606.649 422.054 609.598 422.124C612.359 422.235 615.123 422.069 617.851 421.628C620.051 421.21 622.147 420.362 624.019 419.132C625.726 417.93 627.213 416.443 628.415 414.737Z" fill="#FAFAFA"/>
<path d="M631.01 448.216C630.605 448.597 630.158 448.93 629.677 449.208C629.143 449.579 628.589 449.92 628.018 450.229C627.352 450.598 626.6 451.052 625.749 451.449C623.739 452.453 621.653 453.297 619.51 453.973C614.259 455.644 608.75 456.36 603.246 456.086C601.001 455.978 598.767 455.693 596.567 455.235C595.631 455.079 594.794 454.824 594.057 454.639C593.428 454.484 592.808 454.295 592.199 454.072C591.661 453.928 591.141 453.719 590.654 453.448C590.654 453.321 592.937 454.072 596.666 454.724C598.85 455.103 601.058 455.331 603.274 455.405C605.978 455.487 608.685 455.363 611.371 455.036C614.058 454.67 616.713 454.096 619.312 453.321C621.433 452.683 623.508 451.901 625.522 450.981C628.997 449.407 631.01 448.088 631.01 448.216Z" fill="#FAFAFA"/>
<path d="M649.118 477.866C649.118 477.937 648.338 477.866 646.977 478.107C645.052 478.41 643.204 479.079 641.531 480.078C639.066 481.61 636.762 483.387 634.654 485.381C632.077 487.883 629.339 490.214 626.458 492.358C623.509 494.432 620.263 496.048 616.83 497.151C614.015 498.047 611.078 498.502 608.123 498.498C606.134 498.485 604.155 498.208 602.239 497.675C601.719 497.522 601.208 497.343 600.707 497.137C600.524 497.089 600.35 497.007 600.197 496.896C602.78 497.6 605.445 497.962 608.123 497.973C611.014 497.927 613.882 497.449 616.631 496.555C619.993 495.431 623.174 493.826 626.075 491.791C628.936 489.662 631.663 487.361 634.243 484.899C636.409 482.899 638.787 481.14 641.333 479.653C643.079 478.667 645.01 478.054 647.005 477.852C647.543 477.811 648.083 477.811 648.621 477.852C648.933 477.866 649.118 477.866 649.118 477.866Z" fill="#FAFAFA"/>
<path d="M614.788 386.079C614.767 386.24 614.724 386.397 614.66 386.547C614.511 386.991 614.326 387.423 614.107 387.837C613.285 389.355 612.143 390.675 610.761 391.708C608.703 393.222 606.373 394.325 603.898 394.956C600.897 395.721 597.829 396.196 594.737 396.374C591.476 396.643 588.371 396.856 585.606 397.366C583.153 397.787 580.768 398.536 578.516 399.592C576.471 400.637 574.62 402.023 573.042 403.69C573.105 403.537 573.191 403.393 573.297 403.265C573.563 402.889 573.857 402.533 574.176 402.202C575.368 400.962 576.751 399.922 578.274 399.125C580.542 397.976 582.963 397.159 585.464 396.7C588.509 396.173 591.581 395.818 594.667 395.636C597.714 395.434 600.737 394.959 603.699 394.218C606.102 393.682 608.389 392.717 610.449 391.368C611.808 390.401 612.964 389.178 613.852 387.766C614.476 386.674 614.717 386.051 614.788 386.079Z" fill="#FAFAFA"/>
<path d="M554.438 386.107C554.438 386.107 554.551 386.192 554.778 386.249C554.944 386.275 555.113 386.269 555.276 386.23C555.439 386.191 555.593 386.121 555.728 386.022C556.2 385.704 556.633 385.333 557.019 384.916L558.692 383.342C561.908 380.268 565.313 377.398 568.887 374.749C572.493 372.084 576.539 370.073 580.841 368.808C582.15 368.447 583.488 368.205 584.84 368.084C585.332 367.998 585.836 367.998 586.329 368.084C586.329 368.212 584.216 368.326 580.983 369.332C576.8 370.716 572.862 372.749 569.313 375.359C565.059 378.365 561.627 381.541 559.046 383.753L557.274 385.228C556.847 385.636 556.37 385.988 555.856 386.277C555.683 386.376 555.492 386.437 555.294 386.456C555.096 386.476 554.896 386.454 554.707 386.391C554.438 386.263 554.353 386.107 554.438 386.107Z" fill="#FAFAFA"/>
<path d="M553.828 349.041C553.587 349.53 553.266 349.976 552.878 350.36C551.918 351.492 550.823 352.501 549.617 353.366C547.832 354.694 545.804 355.658 543.647 356.202C540.978 356.702 538.238 356.678 535.578 356.131C532.988 355.606 530.362 355.274 527.723 355.138C525.575 355.088 523.428 355.254 521.313 355.634C517.683 356.315 515.57 357.251 515.528 357.123C515.96 356.814 516.439 356.575 516.946 356.414C518.326 355.869 519.749 355.437 521.2 355.124C523.348 354.665 525.54 354.442 527.737 354.458C530.414 354.554 533.079 354.867 535.706 355.393C538.269 355.933 540.91 355.981 543.491 355.535C545.577 355.066 547.555 354.205 549.319 352.997C550.935 351.812 552.443 350.489 553.828 349.041Z" fill="#FAFAFA"/>
<path d="M548.681 357.549C538.755 354.855 531.452 351.877 521.328 351.437L411.546 365.504L400.131 440.998C400.131 440.998 436.574 515.486 443.494 524.504C456.44 541.393 410.88 610.931 412.298 621.637H608.946C608.946 621.637 607.018 471.74 595.333 402.542C593.291 390.39 586.329 377.826 577.084 371.218C568.46 365.083 558.856 360.461 548.681 357.549Z" fill="#E91E63"/>
<path d="M520.165 584.84C519.939 584.688 519.73 584.512 519.541 584.315L517.84 582.671C516.422 581.253 514.252 579.196 511.6 576.687C506.297 571.681 498.767 564.96 490.033 558.054C481.298 551.148 473.017 545.391 466.877 541.393C463.828 539.393 461.332 537.805 459.602 536.727L457.617 535.451C457.384 535.313 457.165 535.151 456.965 534.969C457.223 535.058 457.471 535.177 457.702 535.323L459.758 536.472C461.531 537.479 464.012 539.01 467.16 540.953C483.277 551.158 498.294 563.004 511.969 576.304C514.578 578.87 516.648 580.983 518.052 582.472L519.64 584.202C519.841 584.392 520.018 584.606 520.165 584.84Z" fill="#263238"/>
<path d="M507.233 429.044C505.63 427.796 505.574 425.173 507.133 423.174C508.693 421.174 511.246 420.593 512.805 421.841C514.365 423.089 514.465 425.726 512.905 427.726C511.345 429.725 508.835 430.306 507.233 429.044Z" fill="#263238"/>
<path d="M547.958 367.801C546.979 369.587 545.207 370.509 543.987 369.843C542.768 369.176 542.569 367.191 543.548 365.404C544.526 363.618 546.298 362.696 547.518 363.362C548.737 364.029 548.922 366.014 547.958 367.801Z" fill="#263238"/>
<path d="M531.92 454.611C531.36 454.461 530.853 454.155 530.459 453.729C530.065 453.304 529.799 452.775 529.693 452.205C529.586 451.635 529.643 451.046 529.856 450.507C530.069 449.968 530.431 449.499 530.899 449.157C531.367 448.814 531.922 448.61 532.501 448.569C533.079 448.529 533.658 448.652 534.169 448.926C534.68 449.2 535.104 449.612 535.391 450.116C535.678 450.62 535.817 451.195 535.791 451.775C535.651 452.663 535.166 453.46 534.441 453.991C533.715 454.523 532.809 454.745 531.92 454.611Z" fill="#263238"/>
<path d="M480.83 423.713C480.236 424.105 479.539 424.313 478.828 424.312C478.116 424.31 477.42 424.098 476.828 423.703C476.237 423.308 475.774 422.747 475.5 422.09C475.225 421.434 475.151 420.71 475.286 420.012C475.42 419.313 475.758 418.669 476.257 418.161C476.756 417.654 477.394 417.305 478.09 417.158C478.786 417.011 479.511 417.073 480.172 417.336C480.834 417.599 481.403 418.051 481.808 418.636C482.351 419.439 482.552 420.425 482.369 421.377C482.186 422.329 481.632 423.169 480.83 423.713Z" fill="#263238"/>
<path d="M447.832 495.846C445.989 494.953 445.464 492.259 446.655 489.806C447.847 487.352 450.286 486.09 452.115 486.97C453.944 487.849 454.483 490.557 453.306 493.01C452.129 495.463 449.662 496.74 447.832 495.846Z" fill="#263238"/>
<path d="M469.103 502.27C467.288 503.191 465.26 502.851 464.608 501.518C463.955 500.185 464.877 498.384 466.706 497.463C468.535 496.541 470.549 496.896 471.201 498.214C471.854 499.533 470.932 501.362 469.103 502.27Z" fill="#263238"/>
<path d="M459.9 526.702C459.579 527.085 459.173 527.387 458.714 527.585C458.256 527.783 457.757 527.871 457.259 527.842C456.76 527.813 456.275 527.668 455.842 527.419C455.41 527.169 455.041 526.822 454.767 526.404C454.467 525.987 454.27 525.505 454.192 524.998C454.113 524.49 454.154 523.971 454.313 523.483C454.478 523.029 454.74 522.616 455.08 522.274C455.42 521.931 455.831 521.666 456.284 521.498C457.154 521.159 458.1 521.061 459.021 521.214C459.375 521.249 459.718 521.355 460.03 521.525C460.342 521.696 460.616 521.928 460.836 522.207C461.197 522.823 461.299 523.557 461.119 524.249C460.934 525.159 460.513 526.004 459.9 526.702Z" fill="#263238"/>
<path d="M492.33 536.713C492.62 537.211 492.764 537.78 492.744 538.356C492.723 538.932 492.541 539.49 492.216 539.966C491.892 540.442 491.44 540.817 490.911 541.046C490.383 541.276 489.8 541.351 489.231 541.263C488.662 541.175 488.129 540.927 487.695 540.549C487.26 540.171 486.942 539.677 486.776 539.125C486.611 538.574 486.605 537.986 486.76 537.431C486.915 536.876 487.223 536.377 487.65 535.99C488.37 535.476 489.263 535.264 490.137 535.399C491.012 535.534 491.799 536.006 492.33 536.713Z" fill="#263238"/>
<path d="M441.82 603.699C441.154 603.74 440.489 603.586 439.909 603.255C439.329 602.923 438.858 602.43 438.554 601.835C438.25 601.24 438.127 600.57 438.199 599.906C438.27 599.242 438.534 598.613 438.958 598.097C439.382 597.58 439.948 597.199 440.585 597C441.223 596.8 441.904 596.791 442.547 596.973C443.19 597.155 443.765 597.521 444.203 598.026C444.64 598.531 444.921 599.152 445.011 599.814C445.098 600.751 444.812 601.685 444.214 602.413C443.617 603.14 442.757 603.603 441.82 603.699Z" fill="#263238"/>
<path d="M463.516 564.009C463.657 564.508 463.659 565.036 463.522 565.537C463.384 566.037 463.112 566.489 462.736 566.846C462.213 567.334 461.596 567.711 460.924 567.955C460.251 568.198 459.536 568.303 458.822 568.264C458.111 568.256 457.41 568.102 456.761 567.811C456.112 567.521 455.53 567.101 455.05 566.576C454.689 566.187 454.444 565.704 454.344 565.183C454.244 564.661 454.292 564.122 454.483 563.627C454.891 562.731 455.591 562.001 456.468 561.556C457.269 561.095 458.182 560.864 459.106 560.89C460.03 560.928 460.925 561.228 461.686 561.755C462.535 562.277 463.18 563.072 463.516 564.009Z" fill="#263238"/>
<path d="M471.542 596.978C470.623 597.208 469.655 597.148 468.772 596.807C467.888 596.466 467.132 595.86 466.606 595.072C466.08 594.284 465.81 593.353 465.834 592.406C465.858 591.459 466.173 590.543 466.738 589.782C467.303 589.022 468.089 588.454 468.988 588.158C469.888 587.861 470.857 587.85 471.763 588.125C472.669 588.401 473.468 588.95 474.05 589.697C474.633 590.444 474.97 591.353 475.016 592.299C475.166 593.378 474.887 594.474 474.237 595.35C473.587 596.225 472.619 596.81 471.542 596.978Z" fill="#263238"/>
<path d="M502.724 582.5C502.393 582.88 501.975 583.173 501.505 583.353C501.036 583.534 500.529 583.596 500.029 583.535C499.449 583.446 498.891 583.242 498.391 582.934C497.891 582.625 497.457 582.22 497.116 581.742C496.775 581.263 496.533 580.721 496.405 580.147C496.277 579.574 496.266 578.98 496.371 578.402C496.477 577.912 496.7 577.455 497.021 577.07C497.342 576.684 497.751 576.383 498.214 576.19C499.12 575.836 500.117 575.791 501.05 576.063C501.894 576.277 502.636 576.778 503.149 577.481C503.634 578.197 503.859 579.057 503.787 579.919C503.721 580.872 503.348 581.778 502.724 582.5Z" fill="#263238"/>
<path d="M503.971 611.711C502.27 610.591 502.099 607.854 503.603 605.614C505.106 603.373 507.672 602.48 509.374 603.614C511.075 604.749 511.231 607.471 509.743 609.712C508.254 611.952 505.659 612.846 503.971 611.711Z" fill="#263238"/>
<path d="M546.455 613.625C545.747 612.995 545.251 612.162 545.035 611.239C544.819 610.316 544.894 609.349 545.25 608.471C545.605 607.592 546.223 606.845 547.02 606.332C547.816 605.818 548.752 605.564 549.699 605.603C550.646 605.642 551.558 605.973 552.309 606.551C553.06 607.128 553.615 607.924 553.896 608.829C554.177 609.734 554.172 610.704 553.881 611.606C553.589 612.508 553.026 613.297 552.268 613.866C551.461 614.595 550.399 614.979 549.312 614.934C548.225 614.888 547.199 614.419 546.455 613.625Z" fill="#263238"/>
<path d="M597.701 614.533C595.801 615.27 593.83 614.76 593.305 613.399C592.78 612.037 593.901 610.35 595.801 609.612C597.701 608.875 599.672 609.386 600.197 610.747C600.721 612.108 599.601 613.796 597.701 614.533Z" fill="#263238"/>
<path d="M417.175 229.631C413.46 234.551 409.688 239.557 407.334 245.229C404.981 250.901 404.144 257.495 406.384 263.238C407.49 266.074 409.291 268.598 409.873 271.561C410.95 277.233 407.363 282.537 405.619 287.996C404.336 292.102 404.047 296.454 404.774 300.694C405.501 304.934 407.224 308.941 409.802 312.385C414.127 318.057 420.593 321.815 427.314 324.197C439.75 328.607 455.433 327.983 463.941 317.916" fill="#263238"/>
<path d="M516.762 218.769C519.13 231.262 537.025 236.324 538.727 248.916C539.464 254.318 536.855 259.664 537.011 265.124C537.224 272.44 542.286 278.623 544.852 285.5C550.142 299.68 543.987 316.356 532.601 326.282C521.214 336.208 505.659 340.136 490.515 340.377" fill="#263238"/>
<path d="M520.406 225.618C519.654 219.478 513.316 215.621 507.247 214.274C501.178 212.927 494.768 213.026 489.167 210.389C484.218 208.049 480.475 203.795 476.093 200.463C470.676 196.42 464.28 193.893 457.563 193.14C450.846 192.387 444.049 193.436 437.872 196.179C431.694 198.922 426.358 203.26 422.411 208.748C418.465 214.236 416.051 220.675 415.417 227.405C414.566 236.452 417.615 246.505 425.343 251.256C434.319 256.743 445.904 253.453 455.787 249.838C465.671 246.222 476.916 242.379 486.345 247.072C492.017 249.908 495.874 255.325 499.845 260.288C503.815 265.251 508.608 270.214 514.861 271.349C521.115 272.483 528.63 267.733 527.907 261.423" fill="#263238"/>
<path d="M460.85 380.393C458.624 366.369 456.454 352.727 456.468 352.798C456.483 352.869 433.61 352.444 424.62 324.041C420.153 309.861 417.317 286.096 415.63 266.513C414.113 248.902 422.451 225.746 440.119 224.98L496.484 230.553C499.073 230.436 501.612 231.297 503.595 232.965C505.578 234.633 506.862 236.986 507.19 239.557L522.306 372.012C523.231 380.093 520.945 388.213 515.94 394.624C510.935 401.034 503.612 405.222 495.549 406.285C487.531 407.346 479.415 405.233 472.933 400.396C466.451 395.559 462.115 388.381 460.85 380.393Z" fill="#FFBE9D"/>
<path d="M438.162 280.764C437.623 280.339 435.113 282.863 431.072 283.458C427.031 284.054 423.812 282.48 423.443 283.033C423.259 283.288 423.869 284.096 425.287 284.834C427.207 285.774 429.371 286.101 431.483 285.77C433.572 285.464 435.51 284.5 437.013 283.019C438.162 281.87 438.375 280.934 438.162 280.764Z" fill="#263238"/>
<path d="M476.193 277.233C475.626 276.85 473.272 279.516 469.301 280.353C465.331 281.189 461.999 279.828 461.672 280.353C461.502 280.608 462.155 281.374 463.615 282.026C465.588 282.849 467.767 283.043 469.854 282.579C471.923 282.15 473.801 281.072 475.214 279.502C476.221 278.368 476.448 277.403 476.193 277.233Z" fill="#263238"/>
<path d="M452.087 304.87C452.087 304.643 449.52 304.587 445.394 304.672C444.359 304.672 443.352 304.672 443.068 303.991C442.825 302.943 442.904 301.845 443.295 300.843L445.167 292.59C447.705 280.835 449.421 271.249 448.896 271.15C448.372 271.051 445.989 280.495 443.437 292.236C442.841 295.072 442.26 297.908 441.721 300.517C441.263 301.854 441.288 303.309 441.792 304.629C441.996 304.968 442.275 305.256 442.606 305.472C442.938 305.688 443.314 305.827 443.706 305.877C444.295 305.957 444.891 305.957 445.479 305.877C449.577 305.466 452.115 305.097 452.087 304.87Z" fill="#263238"/>
<path d="M456.454 352.798C470.181 350.943 483.125 345.318 493.847 336.548C493.535 336.676 486.204 358.4 457.872 359.605L456.454 352.798Z" fill="#EB996E"/>
<path d="M473.91 266.13C473.144 265.237 469.542 267.18 464.891 268.342C460.24 269.505 456.17 269.675 455.929 270.824C455.844 271.363 456.837 272.1 458.666 272.54C461.071 273.019 463.553 272.946 465.926 272.327C468.298 271.708 470.5 270.559 472.364 268.966C473.739 267.69 474.25 266.584 473.91 266.13Z" fill="#263238"/>
<path d="M437.68 272.455C436.999 271.519 434.163 272.369 430.803 272.299C427.442 272.228 424.62 271.476 423.939 272.412C423.627 272.866 424.053 273.83 425.258 274.723C426.881 275.848 428.813 276.443 430.788 276.425C431.778 276.612 432.798 276.559 433.762 276.27C434.727 275.982 435.609 275.466 436.333 274.766C437.552 273.858 437.978 272.923 437.68 272.455Z" fill="#263238"/>
<path d="M523.611 325.956C515.854 328.792 514.521 324.836 507.701 320.185C504.294 317.82 501.488 314.689 499.508 311.045C497.528 307.401 496.43 303.343 496.3 299.198C496.115 291.924 498.852 284.068 495.35 277.687C490.713 269.179 477.767 268.399 473.087 259.99C470.365 255.098 471.173 248.774 468.209 244.024C465.373 239.571 459.971 237.586 454.809 236.565C449.648 235.544 444.217 235.147 439.622 232.552C435.028 229.957 431.554 224.342 433.511 219.464C455.631 218.76 477.756 220.693 499.419 225.221C504.439 226.27 509.742 227.632 513.188 231.432C516.847 235.445 517.584 241.23 518.151 246.619C520.902 272.918 523.662 299.217 526.432 325.516" fill="#263238"/>
<path d="M532.856 263.847C532.556 258.924 533.877 254.037 536.618 249.935C539.358 245.834 543.366 242.742 548.03 241.134C552.693 239.526 557.755 239.49 562.441 241.031C567.127 242.572 571.179 245.605 573.978 249.667C579.267 257.268 579.395 267.477 576.885 276.382C573.921 286.989 566.108 297.44 555.175 298.603C544.88 299.694 535.323 291.966 530.828 282.622C526.333 273.277 525.978 262.585 525.652 252.234" fill="#263238"/>
<path d="M544.625 302.814C545.184 302.273 545.615 301.614 545.888 300.885C546.763 298.958 547.203 296.862 547.178 294.745C547.133 291.62 546.567 288.525 545.505 285.585C544.399 282.253 542.669 278.85 541.251 275.177C539.782 271.807 539.006 268.176 538.968 264.5C539.067 261.181 540.173 258.189 540.457 255.538C540.804 253.422 540.534 251.25 539.677 249.284C539.01 247.866 538.259 247.427 538.259 247.484C538.259 247.54 538.741 248.15 539.237 249.483C539.854 251.398 539.966 253.439 539.563 255.41C539.195 257.934 537.989 260.855 537.791 264.457C537.755 268.299 538.528 272.107 540.06 275.631C541.478 279.389 543.236 282.721 544.314 285.982C545.383 288.79 546.015 291.746 546.185 294.745C546.276 297.518 545.743 300.275 544.625 302.814Z" fill="#455A64"/>
<path d="M539.719 267.818C539.634 267.917 541.321 269.718 544.852 271.505C549.487 273.831 554.716 274.706 559.856 274.015C564.996 273.325 569.809 271.101 573.666 267.633C575.339 266.315 576.695 264.638 577.636 262.727C577.452 262.585 576.048 264.556 573.07 266.981C569.232 270.12 564.598 272.133 559.684 272.796C554.77 273.46 549.768 272.747 545.235 270.739C541.676 269.165 539.861 267.633 539.719 267.818Z" fill="#455A64"/>
<path d="M541.86 272.157C542.619 273.772 543.694 275.219 545.022 276.411C548.04 279.431 551.626 281.822 555.574 283.445C559.523 285.069 563.754 285.893 568.022 285.869C569.785 285.953 571.546 285.698 573.212 285.117C573.212 284.89 571.213 285.117 568.037 284.947C559.744 284.513 551.847 281.267 545.646 275.744C544.447 274.485 543.183 273.287 541.86 272.157Z" fill="#455A64"/>
<path d="M540.655 313.378C540.655 313.378 540.754 313.25 540.91 312.967C541.151 312.553 541.36 312.122 541.534 311.676C542.234 309.968 542.623 308.148 542.683 306.302C542.788 303.365 542.18 300.445 540.91 297.794C539.231 294.218 536.337 291.353 532.743 289.712C528.928 287.812 524.235 286.805 520.732 283.359C519.863 282.504 519.18 281.478 518.729 280.345C518.277 279.212 518.066 277.998 518.109 276.78C518.309 274.091 518.784 271.43 519.527 268.839C520.238 265.902 520.336 262.849 519.814 259.872C519.292 256.896 518.161 254.059 516.492 251.539C514.711 248.829 512.272 246.614 509.402 245.101C506.444 243.667 503.216 242.874 499.93 242.776C496.669 242.535 493.464 242.592 490.415 242.152C487.423 241.849 484.553 240.806 482.063 239.117C479.814 237.321 478.227 234.826 477.554 232.027C476.841 229.223 475.951 226.466 474.888 223.775C472.798 218.754 469.364 214.406 464.962 211.211C461.073 208.467 456.435 206.982 451.676 206.957C447.743 206.901 443.894 208.098 440.686 210.375C438.279 212.081 436.33 214.356 435.014 216.997C434.189 218.647 433.674 220.435 433.497 222.272C433.413 222.907 433.413 223.551 433.497 224.186C433.696 221.759 434.366 219.395 435.468 217.224C436.806 214.72 438.727 212.575 441.069 210.97C444.18 208.858 447.874 207.772 451.633 207.865C456.191 207.97 460.611 209.453 464.31 212.119C468.525 215.221 471.802 219.426 473.782 224.271C474.815 226.931 475.677 229.654 476.363 232.424C477.091 235.487 478.823 238.217 481.283 240.181C483.938 242.012 487.01 243.148 490.217 243.485C493.407 243.939 496.626 243.882 499.817 244.123C502.929 244.208 505.989 244.952 508.793 246.307C511.453 247.719 513.711 249.783 515.358 252.305C516.933 254.687 517.998 257.369 518.486 260.183C518.974 262.997 518.874 265.881 518.194 268.654C517.464 271.328 517.013 274.07 516.847 276.836C516.814 278.2 517.063 279.557 517.577 280.821C518.092 282.084 518.862 283.229 519.839 284.181C523.653 287.868 528.517 288.79 532.232 290.605C535.676 292.11 538.475 294.788 540.13 298.163C541.413 300.698 542.069 303.504 542.045 306.345C542.01 308.754 541.539 311.137 540.655 313.378Z" fill="#455A64"/>
<path d="M526.333 232.552C526.48 232.095 526.529 231.612 526.475 231.134C526.385 229.759 525.841 228.452 524.929 227.419C523.507 225.764 521.586 224.615 519.456 224.143C516.619 223.695 513.715 224.039 511.061 225.136C508.097 226.185 505.12 227.887 501.759 229.078C498.398 230.269 494.428 230.964 490.996 229.078C487.565 227.192 485.324 223.406 483.169 219.549C480.926 215.475 478.055 211.781 474.661 208.602C468.062 202.392 459.578 198.564 450.555 197.726C446.585 197.416 442.601 198.129 438.984 199.796C435.832 201.29 433.171 203.651 431.313 206.603C429.776 209.047 429.06 211.919 429.271 214.799C429.391 216.907 430.008 218.958 431.072 220.783C431.768 221.945 432.683 222.961 433.766 223.775C434.129 224.072 434.535 224.311 434.971 224.484C433.582 223.387 432.405 222.047 431.497 220.528C430.514 218.721 429.961 216.712 429.881 214.657C429.761 211.943 430.495 209.26 431.979 206.986C433.786 204.225 436.338 202.032 439.339 200.661C442.801 199.122 446.597 198.488 450.371 198.818C459.124 199.691 467.343 203.429 473.754 209.453C477.071 212.537 479.88 216.127 482.077 220.088C484.303 223.86 486.544 227.915 490.429 230.014C492.29 231.008 494.394 231.456 496.498 231.304C498.441 231.157 500.352 230.727 502.17 230.028C505.644 228.738 508.565 227.008 511.416 225.944C513.905 224.852 516.645 224.455 519.342 224.796C521.357 225.178 523.196 226.197 524.589 227.703C525.485 228.636 526.07 229.826 526.262 231.106C526.361 231.985 526.248 232.467 526.333 232.552Z" fill="#455A64"/>
<path d="M546.951 306.373C546.885 306.885 546.751 307.385 546.554 307.862C546.085 309.184 545.516 310.469 544.852 311.705C542.635 315.807 539.454 319.31 535.584 321.911C531.713 324.512 527.268 326.134 522.632 326.636C521.22 326.793 519.797 326.835 518.378 326.764C517.862 326.761 517.348 326.699 516.847 326.58C516.847 326.452 519.045 326.665 522.519 326.183C527.068 325.586 531.418 323.949 535.232 321.399C539.047 318.849 542.222 315.454 544.512 311.478C546.213 308.443 546.837 306.288 546.951 306.373Z" fill="#455A64"/>
<path d="M482.29 329.614C481.705 329.75 481.103 329.802 480.503 329.77C478.865 329.78 477.232 329.59 475.639 329.203C473.262 328.637 470.995 327.678 468.932 326.367C466.386 324.766 464.226 322.62 462.608 320.085C461.04 317.507 460.116 314.588 459.914 311.577C459.73 309.135 460.039 306.68 460.821 304.36C461.339 302.799 462.1 301.33 463.076 300.006C463.337 299.648 463.621 299.307 463.927 298.985C464.14 298.773 464.253 298.659 464.281 298.673C463.014 300.466 462.015 302.434 461.318 304.516C460.565 307.039 460.346 309.691 460.676 312.304C461.005 314.916 461.876 317.431 463.232 319.688C464.791 322.131 466.861 324.207 469.301 325.771C471.291 327.055 473.474 328.013 475.767 328.607C477.904 329.15 480.088 329.488 482.29 329.614Z" fill="#EB996E"/>
<path d="M453.632 269.789C453.632 269.874 453.264 270.115 452.541 270.186C451.569 270.256 450.603 269.991 449.804 269.434C449.003 268.876 448.425 268.052 448.173 267.109C447.989 266.4 448.088 265.946 448.173 265.946C448.258 265.946 448.599 267.69 450.229 268.782C451.268 269.382 452.434 269.727 453.632 269.789Z" fill="#EB996E"/>
<path d="M441.452 272.256C441.281 272.129 442.005 270.966 442.146 269.42C442.288 267.875 441.834 266.584 442.033 266.457C442.231 266.329 443.068 267.648 442.884 269.491C442.699 271.334 441.579 272.44 441.452 272.256Z" fill="#EB996E"/>
<path d="M443.834 269.704C443.635 269.604 444.047 268.598 444.018 267.307C443.99 266.017 443.593 265.024 443.777 264.925C443.961 264.826 444.756 265.79 444.756 267.307C444.756 268.824 443.961 269.831 443.834 269.704Z" fill="#EB996E"/>
<path d="M462.736 352.969C466.607 355.393 471.669 354.599 475.98 353.068C484.715 349.962 492.273 344.262 500.625 340.306C508.977 336.35 519.059 334.081 527.383 338.25C529.184 339.157 530.999 340.561 531.311 342.504C531.342 344.108 531.007 345.699 530.332 347.155C527.496 355.904 533.381 364.823 535.21 373.813C536.387 380.248 535.555 386.889 532.828 392.835C530.101 398.781 525.611 403.744 519.967 407.051C513.43 410.71 505.787 411.872 498.257 411.83C483.595 411.745 468.479 406.867 458.284 396.388C455.891 394.109 454.031 391.33 452.838 388.248C451.787 384.611 451.617 380.776 452.342 377.06C453.708 367.853 457.199 359.09 462.538 351.466" fill="#E91E63"/>
<g opacity="0.4">
<path opacity="0.4" d="M462.736 352.969C466.607 355.393 471.669 354.599 475.98 353.068C484.715 349.962 492.273 344.262 500.625 340.306C508.977 336.35 519.059 334.081 527.383 338.25C529.184 339.157 530.999 340.561 531.311 342.504C531.342 344.108 531.007 345.699 530.332 347.155C527.496 355.904 533.381 364.823 535.21 373.813C536.387 380.248 535.555 386.889 532.828 392.835C530.101 398.781 525.611 403.744 519.967 407.051C513.43 410.71 505.787 411.872 498.257 411.83C483.595 411.745 468.479 406.867 458.284 396.388C455.891 394.109 454.031 391.33 452.838 388.248C451.787 384.611 451.617 380.776 452.342 377.06C453.708 367.853 457.199 359.09 462.538 351.466" fill="black"/>
</g>
<path d="M530.332 397.692C530.332 397.692 530.8 396.785 531.608 395.154C532.762 392.88 533.711 390.507 534.444 388.064C535.578 384.431 535.973 380.608 535.607 376.819C535.328 374.601 534.766 372.428 533.933 370.353C533.097 368.17 532.062 365.943 531.211 363.575C529.591 359.072 529.17 354.224 529.991 349.509C530.506 347.566 530.608 345.537 530.289 343.553C529.802 341.878 528.812 340.393 527.453 339.299C525.481 337.666 523.096 336.611 520.562 336.25C518.775 335.981 517.726 336.109 517.726 336.024C517.96 335.955 518.204 335.922 518.449 335.924C519.156 335.849 519.869 335.849 520.576 335.924C523.207 336.183 525.705 337.203 527.765 338.86C529.227 340.004 530.297 341.575 530.828 343.355C531.197 345.422 531.12 347.545 530.601 349.58C529.84 354.177 530.27 358.893 531.849 363.277C532.686 365.617 533.706 367.829 534.557 370.056C535.403 372.19 535.965 374.426 536.231 376.706C536.57 380.582 536.111 384.486 534.883 388.178C534.081 390.641 533.031 393.016 531.75 395.268C531.296 396.062 530.927 396.686 530.658 397.068C530.388 397.451 530.417 397.706 530.332 397.692Z" fill="#263238"/>
<path d="M522.817 353.834C522.283 354.395 521.705 354.912 521.087 355.379C519.924 356.329 518.251 357.648 516.039 359.194C510.323 363.2 504.236 366.647 497.86 369.488C491.479 372.335 484.828 374.535 478.008 376.054C475.933 376.516 473.807 376.702 471.684 376.607C471.107 376.567 470.533 376.486 469.968 376.366C469.571 376.281 469.372 376.224 469.386 376.195C469.401 376.167 470.209 376.295 471.684 376.309C473.778 376.315 475.864 376.057 477.894 375.543C484.625 373.876 491.197 371.622 497.534 368.808C503.879 365.983 509.97 362.619 515.741 358.754C517.953 357.336 519.697 356.003 520.902 355.138C521.502 354.649 522.142 354.212 522.817 353.834Z" fill="#263238"/>
<path d="M508.41 375.401C508.007 375.7 507.569 375.947 507.105 376.139C506.254 376.578 504.978 377.131 503.376 377.755C494.961 381.001 485.911 382.262 476.93 381.442C475.574 381.321 474.225 381.132 472.889 380.875C472.404 380.811 471.928 380.692 471.471 380.52C471.471 380.393 473.584 380.719 477.001 380.917C485.89 381.459 494.799 380.244 503.22 377.344C506.424 376.153 508.353 375.288 508.41 375.401Z" fill="#263238"/>
<path d="M485.367 410.738C485.367 410.738 485.027 410.44 484.516 409.83C483.811 408.942 483.185 407.993 482.645 406.994C481.819 405.54 481.144 404.006 480.631 402.414C480.006 400.46 479.593 398.444 479.397 396.402C479.228 394.361 479.276 392.307 479.539 390.276C479.772 388.619 480.171 386.99 480.73 385.412C481.11 384.342 481.584 383.307 482.148 382.321C482.327 381.95 482.551 381.603 482.815 381.286C482.942 381.357 482.106 382.888 481.298 385.54C480.824 387.106 480.487 388.709 480.291 390.333C480.069 392.32 480.04 394.324 480.206 396.317C480.401 398.305 480.781 400.27 481.34 402.187C481.832 403.745 482.443 405.262 483.169 406.725C484.375 409.277 485.481 410.653 485.367 410.738Z" fill="#FAFAFA"/>
<path d="M489.862 372.097C490.806 373.405 491.226 375.019 491.039 376.621C491.093 378.236 490.553 379.815 489.522 381.059C489.86 379.585 490.12 378.094 490.302 376.592C490.244 375.087 490.097 373.586 489.862 372.097Z" fill="#FAFAFA"/>
<path d="M475.143 353.763C474.559 354.693 474.083 355.687 473.725 356.726C473.075 359.32 472.813 361.996 472.946 364.667C473.191 368.462 473.891 372.213 475.03 375.841C474.389 374.896 473.91 373.852 473.612 372.75C472.757 370.147 472.279 367.434 472.194 364.695C472.06 361.943 472.41 359.188 473.229 356.556C473.536 355.437 474.21 354.453 475.143 353.763Z" fill="#FAFAFA"/>
<path d="M506.595 364.71C505.674 363.898 504.893 362.939 504.283 361.874C501.057 356.82 499.637 350.822 500.256 344.858C500.325 343.628 500.588 342.417 501.036 341.27C500.547 345.359 500.719 349.501 501.546 353.536C502.612 357.51 504.317 361.284 506.595 364.71Z" fill="#FAFAFA"/>
<path d="M511.785 374.749C512.099 372.568 512.298 370.372 512.38 368.17C512.192 365.977 511.894 363.795 511.487 361.633C512.509 363.659 513.066 365.888 513.118 368.157C513.169 370.426 512.714 372.678 511.785 374.749Z" fill="#FAFAFA"/>
<path d="M516.733 405.761C516.33 405.637 515.951 405.446 515.613 405.194C514.625 404.597 513.699 403.903 512.848 403.123C509.982 400.566 507.828 397.309 506.597 393.67C505.367 390.032 505.102 386.136 505.829 382.364C506.04 381.226 506.358 380.11 506.779 379.031C506.901 378.626 507.087 378.243 507.332 377.897C507.46 377.897 506.765 379.613 506.354 382.449C505.789 386.128 506.117 389.889 507.309 393.415C508.5 396.941 510.522 400.13 513.203 402.712C515.259 404.74 516.819 405.647 516.733 405.761Z" fill="#FAFAFA"/>
<path d="M525.596 353.763C525.013 355.955 524.964 358.255 525.454 360.47C526.037 362.865 526.888 365.186 527.992 367.39C529.384 370.124 530.432 373.02 531.112 376.011C532.256 381.515 531.879 387.226 530.02 392.531C529.447 394.115 528.741 395.647 527.907 397.111C527.609 397.655 527.257 398.168 526.858 398.642C527.861 396.599 528.751 394.502 529.524 392.361C531.205 387.128 531.503 381.549 530.389 376.167C529.718 373.225 528.71 370.37 527.383 367.659C526.283 365.404 525.464 363.023 524.944 360.569C524.61 358.898 524.61 357.178 524.944 355.507C525.046 355.057 525.183 354.616 525.355 354.188C525.497 353.904 525.568 353.763 525.596 353.763Z" fill="#FAFAFA"/>
<path d="M460.467 398.458C460.156 397.937 459.908 397.38 459.73 396.799C459.454 396.146 459.213 395.478 459.007 394.8C458.766 394.02 458.454 393.126 458.227 392.105C457.619 389.736 457.197 387.323 456.965 384.888C456.698 381.903 456.674 378.901 456.894 375.912C457.155 372.926 457.662 369.966 458.411 367.064C459.047 364.707 459.862 362.404 460.85 360.172C461.233 359.194 461.687 358.371 462.055 357.62C462.361 356.982 462.701 356.362 463.076 355.762C463.351 355.226 463.684 354.722 464.069 354.259C464.196 354.33 462.878 356.542 461.332 360.371C460.424 362.612 459.675 364.915 459.092 367.262C457.649 373.004 457.17 378.946 457.674 384.845C457.876 387.231 458.241 389.6 458.766 391.935C459.645 395.977 460.595 398.359 460.467 398.458Z" fill="#FAFAFA"/>
<path d="M533.168 487.565C533.168 487.565 532.459 473.087 528.162 466.593C523.866 460.099 500.369 431.71 500.369 431.71C499.261 431.161 498.017 430.949 496.789 431.101C495.562 431.252 494.406 431.76 493.464 432.561C490.302 435.397 493.62 440.374 496.427 445.692C499.235 451.009 502.95 457.036 502.95 457.036C502.95 457.036 463.686 413.574 459.021 415.474C454.355 417.374 455.235 419.728 456.851 421.94C458.468 424.152 471.882 440.998 471.882 440.998C471.882 440.998 452.016 415.559 446.67 418.31C441.324 421.061 444.529 422.89 446.33 426.449C448.13 430.009 460.027 445.252 460.027 445.252C460.027 445.252 446.117 429.044 442.728 432.15C439.339 435.255 440.558 436.475 443.805 440.927C447.053 445.38 454.398 455.107 454.398 455.107C454.398 455.107 447.478 452.03 445.677 454.951C443.876 457.872 445.564 459.602 449.747 462.864C453.93 466.125 471.414 479.355 478.22 486.346C485.027 493.336 501.064 509.062 501.064 509.062L537.223 495.265L533.168 487.565Z" fill="#FFBE9D"/>
<path d="M501.065 509.133C500.909 508.977 484.942 493.209 478.221 486.303C472.293 480.22 458.042 469.287 451.959 464.537L449.761 462.835C445.507 459.545 443.877 457.801 445.677 454.88C446.429 453.675 448.173 453.32 450.754 453.845C451.976 454.111 453.172 454.485 454.327 454.965C453.519 453.888 446.84 445.039 443.806 440.899L443.267 440.147C440.431 436.319 439.509 435.028 442.728 432.079C443.044 431.8 443.455 431.652 443.877 431.668H444.018C445.975 431.781 449.279 434.092 453.831 438.531C456.128 440.771 458.17 443.026 459.262 444.203C456.61 440.799 447.847 429.498 446.344 426.492C445.969 425.766 445.547 425.065 445.082 424.393C444.259 423.145 443.536 422.068 443.82 420.99C444.103 419.912 444.968 419.232 446.656 418.31C447.875 417.658 449.974 418.452 452.867 420.65C455.874 423.051 458.686 425.687 461.275 428.534C463.7 431.115 466.026 433.78 467.869 435.964C463.771 430.845 457.844 423.386 456.795 421.968C456.339 421.481 455.996 420.899 455.79 420.265C455.585 419.63 455.521 418.958 455.603 418.296C455.901 417.19 457.021 416.254 458.978 415.46C459.101 415.444 459.225 415.444 459.347 415.46C461.786 415.46 469.642 422.224 482.744 435.581C492.131 445.139 501.178 455.008 502.752 456.78C501.958 455.462 498.838 450.328 496.428 445.762C496.102 445.153 495.775 444.543 495.449 443.962C494.228 441.917 493.226 439.75 492.457 437.496C491.862 435.298 492.174 433.738 493.464 432.589C494.413 431.786 495.577 431.277 496.811 431.126C498.045 430.975 499.297 431.188 500.412 431.738C500.639 432.022 523.937 460.226 528.205 466.635C532.473 473.045 533.196 487.211 533.225 487.608L537.238 495.364L501.065 509.133ZM448.599 453.661C448.06 453.609 447.517 453.695 447.021 453.911C446.525 454.127 446.092 454.465 445.763 454.894C445.347 455.433 445.106 456.085 445.071 456.764C445.035 457.442 445.207 458.116 445.564 458.695C446.745 460.279 448.183 461.655 449.818 462.764L452.016 464.466C458.099 469.159 472.35 480.149 478.291 486.246C484.913 493.053 500.526 508.466 501.121 509.062L537.209 495.279L533.239 487.565C533.239 487.423 532.473 473.016 528.219 466.621C523.965 460.226 500.894 432.277 500.441 431.738C499.337 431.2 498.101 430.994 496.883 431.145C495.664 431.296 494.516 431.798 493.577 432.589C492.315 433.724 492.004 435.255 492.599 437.41C493.367 439.665 494.37 441.832 495.591 443.877C495.903 444.458 496.243 445.068 496.555 445.677C499.391 450.924 503.05 456.95 503.092 457.021C502.596 456.596 465.246 415.474 459.432 415.474C459.32 415.451 459.204 415.451 459.092 415.474C457.149 416.282 456.057 417.204 455.745 418.31C455.671 418.961 455.739 419.62 455.945 420.242C456.151 420.864 456.489 421.433 456.936 421.912C458.241 423.698 467.288 435.014 470.677 439.254L471.967 440.856L470.677 439.254C468.833 436.985 465.246 432.646 461.375 428.534C456.752 423.613 450.882 418.111 447.762 418.111C447.437 418.098 447.114 418.171 446.826 418.324C445.096 419.232 444.189 420.068 443.99 420.962C443.792 421.855 444.401 423.018 445.252 424.294C445.717 424.974 446.143 425.679 446.528 426.407C448.287 429.923 460.07 444.926 460.198 445.068C460.084 444.926 448.854 431.866 444.189 431.582C443.966 431.559 443.74 431.58 443.525 431.646C443.311 431.712 443.112 431.82 442.941 431.965C439.764 434.886 440.629 436.063 443.494 439.949L444.033 440.7C447.251 445.096 454.554 454.781 454.625 454.88L454.71 454.979H454.582C452.68 454.193 450.655 453.746 448.599 453.661Z" fill="#EB996E"/>
<path d="M481.978 455.859C481.169 454.723 480.43 453.54 479.766 452.314C478.039 449.458 476.145 446.707 474.094 444.075C471.669 440.998 469.174 438.403 467.529 436.432C466.576 435.396 465.774 434.232 465.146 432.972C465.246 432.972 466.196 434.192 467.982 436.092C469.769 437.992 472.236 440.502 474.732 443.621C476.856 446.27 478.753 449.092 480.404 452.058C481.069 453.262 481.597 454.537 481.978 455.859Z" fill="#EB996E"/>
<path d="M472.549 460.85C471.732 459.976 471.001 459.027 470.365 458.014C469.075 456.27 467.274 453.874 465.175 451.307C463.076 448.74 461.091 446.514 459.631 444.912C458.786 444.09 458.017 443.193 457.333 442.232C458.309 442.896 459.203 443.672 459.999 444.543C464.063 448.534 467.686 452.95 470.804 457.716C471.511 458.686 472.097 459.739 472.549 460.85Z" fill="#EB996E"/>
<path d="M467.273 468.72C464.856 466.714 462.625 464.493 460.609 462.084C458.85 460.169 457.305 458.411 456.185 457.135C455.544 456.475 454.947 455.774 454.398 455.036C454.625 454.795 457.674 457.745 461.148 461.587C463.344 463.828 465.39 466.211 467.273 468.72Z" fill="#EB996E"/>
<g opacity="0.3">
<path opacity="0.3" d="M493.535 515.627C493.535 515.627 521.966 586.315 541.874 600.14C561.783 613.966 586.57 609.768 599.828 597.304C599.828 597.304 581.904 613.498 562.393 598.722C542.881 583.947 493.535 515.627 493.535 515.627Z" fill="black"/>
</g>
<g opacity="0.3">
<path opacity="0.3" d="M542.158 435.113C540.499 449.18 544.328 461.914 543.222 475.938C542.811 481.312 542.087 486.785 543.222 492.06C545.32 501.986 554.963 511.813 562.648 518.407C557.146 491.181 550.198 461.687 542.158 435.113Z" fill="black"/>
</g>
<path d="M541.477 590.611C540.883 590.922 540.21 591.053 539.542 590.988C538.875 590.922 538.24 590.663 537.718 590.242C537.195 589.821 536.807 589.257 536.6 588.618C536.394 587.98 536.378 587.295 536.556 586.648C536.733 586.001 537.096 585.419 537.599 584.975C538.102 584.531 538.724 584.244 539.388 584.148C540.052 584.052 540.73 584.153 541.338 584.437C541.946 584.721 542.457 585.176 542.81 585.747C543.043 586.154 543.193 586.603 543.252 587.067C543.311 587.532 543.278 588.004 543.154 588.456C543.03 588.908 542.818 589.331 542.53 589.701C542.243 590.071 541.885 590.38 541.477 590.611Z" fill="#263238"/>
<path d="M516.237 559.075C515.734 559.374 515.155 559.524 514.57 559.507C513.984 559.49 513.416 559.307 512.93 558.98C512.445 558.652 512.062 558.193 511.827 557.657C511.592 557.12 511.515 556.528 511.603 555.949C511.692 555.37 511.943 554.828 512.328 554.387C512.713 553.945 513.215 553.622 513.777 553.454C514.338 553.287 514.935 553.283 515.499 553.442C516.062 553.601 516.569 553.917 516.96 554.353C517.484 555.077 517.702 555.979 517.567 556.862C517.431 557.746 516.954 558.541 516.237 559.075Z" fill="#263238"/>
<path d="M578.544 372.48C575.714 370 572.189 368.45 568.448 368.042C550.709 365.404 530.346 376.55 535.834 406.555L550.652 468.947L562.705 518.478L536.302 494.031L490.515 511.515C490.515 511.515 541.336 581.167 557.685 595.064C574.035 608.96 585.634 606.096 599.814 597.361C599.814 597.361 617.341 589.378 617.199 539.223C617.085 495.875 607.627 400.84 578.544 372.48Z" fill="#E91E63"/>
<path d="M610.066 584.017C610.066 584.017 609.953 584.301 609.712 584.826L608.634 587.194C607.111 590.162 605.167 592.893 602.863 595.305C599.19 599.129 594.674 602.043 589.675 603.813C586.557 604.948 583.266 605.533 579.948 605.543C576.219 605.473 572.548 604.602 569.185 602.99C562.095 599.686 555.501 593.972 549.461 587.151C543.42 580.331 537.124 572.858 530.715 564.846C517.953 548.794 504.269 530.814 490.217 511.671L489.933 511.288L490.387 511.104L492.528 510.296L536.174 493.648L536.387 493.563L536.543 493.719L562.861 518.109L562.322 518.435C559.146 505.191 556.225 493.039 553.63 482.233C551.035 471.428 548.681 462.055 546.767 454.299C544.852 446.542 543.378 440.459 542.357 436.276L541.208 431.512C541.095 430.987 540.995 430.576 540.939 430.278C540.892 430.145 540.863 430.007 540.854 429.867C540.9 429.999 540.929 430.138 540.939 430.278C541.024 430.576 541.123 430.973 541.265 431.497C541.562 432.589 541.974 434.177 542.513 436.234C543.576 440.417 545.122 446.5 547.093 454.214C549.064 461.928 551.474 471.343 554.112 482.134L562.918 518.293L563.173 519.343L562.379 518.605L536.004 494.286L536.373 494.357L492.727 511.033L490.628 511.898L490.798 511.331C504.836 530.46 518.463 548.468 531.225 564.52C537.62 572.532 543.789 580.118 549.886 586.853C555.984 593.589 562.393 599.332 569.384 602.622C572.682 604.218 576.284 605.089 579.948 605.174C583.215 605.183 586.459 604.621 589.533 603.515C594.492 601.783 598.978 598.918 602.636 595.149C604.951 592.778 606.918 590.09 608.478 587.165L609.627 584.84C609.91 584.216 610.066 584.017 610.066 584.017Z" fill="#263238"/>
<path d="M569.029 374.792C569.029 374.919 566.491 374.948 562.506 375.77C560.186 376.254 557.91 376.928 555.7 377.784C552.977 378.796 550.431 380.232 548.156 382.038C545.98 383.929 544.235 386.264 543.037 388.887C542.055 391.048 541.267 393.293 540.683 395.594C540.173 397.565 539.833 399.181 539.577 400.287C539.489 400.876 539.332 401.451 539.109 402.003C539.11 401.412 539.171 400.823 539.294 400.245C539.464 399.11 539.733 397.409 540.187 395.466C540.7 393.11 541.445 390.811 542.413 388.603C543.627 385.879 545.428 383.458 547.688 381.513C550.024 379.681 552.644 378.244 555.445 377.259C557.703 376.417 560.034 375.781 562.407 375.359C564.005 375.078 565.621 374.908 567.242 374.848C567.832 374.742 568.434 374.722 569.029 374.792Z" fill="#263238"/>
<path d="M598.991 533.281C598.195 531.278 597.167 529.375 595.929 527.609C592.746 523.48 588.362 520.438 583.379 518.903C578.364 517.481 573.128 517 567.937 517.485C565.938 517.627 564.321 517.825 563.201 517.953C562.626 518.061 562.042 518.108 561.457 518.095C562.005 517.886 562.577 517.743 563.159 517.669C564.724 517.357 566.305 517.125 567.895 516.974C573.165 516.336 578.51 516.775 583.606 518.265C588.736 519.825 593.217 523.016 596.368 527.354C597.298 528.663 598.043 530.095 598.58 531.608C598.786 532.147 598.924 532.709 598.991 533.281Z" fill="#263238"/>
<path d="M577.126 539.039C576.998 539.039 576.559 537.621 575.595 535.409C573.052 529.622 569.086 524.573 564.066 520.732C562.138 519.314 560.847 518.492 560.904 518.378C562.151 518.847 563.321 519.497 564.378 520.307C569.674 524 573.747 529.189 576.077 535.21C576.61 536.429 576.963 537.718 577.126 539.039Z" fill="#263238"/>
<path d="M546.908 414.169C546.189 413.96 545.548 413.54 545.067 412.964C544.587 412.389 544.289 411.683 544.212 410.937C544.135 410.191 544.281 409.439 544.633 408.777C544.985 408.115 545.527 407.573 546.188 407.22C546.85 406.867 547.601 406.72 548.347 406.796C549.093 406.872 549.799 407.169 550.376 407.648C550.952 408.128 551.373 408.768 551.584 409.488C551.794 410.207 551.786 410.973 551.559 411.688C551.271 412.633 550.62 413.426 549.747 413.891C548.875 414.357 547.854 414.457 546.908 414.169Z" fill="#263238"/>
<path d="M583.337 416.424C582.65 416.954 581.818 417.261 580.952 417.305C580.085 417.348 579.227 417.126 578.49 416.668C577.754 416.209 577.175 415.537 576.832 414.74C576.489 413.944 576.397 413.061 576.569 412.211C576.741 411.361 577.169 410.584 577.796 409.984C578.422 409.384 579.217 408.99 580.073 408.854C580.93 408.719 581.808 408.848 582.589 409.225C583.369 409.603 584.017 410.21 584.443 410.965C585.016 411.837 585.221 412.9 585.013 413.922C584.806 414.945 584.204 415.844 583.337 416.424Z" fill="#263238"/>
<path d="M567.398 445.252C565.371 445.096 563.868 442.941 564.052 440.431C564.236 437.921 566.023 435.993 568.065 436.177C570.107 436.361 571.596 438.446 571.454 440.998C571.312 443.55 569.44 445.394 567.398 445.252Z" fill="#263238"/>
<path d="M594.553 457.787C593.906 458.1 593.181 458.215 592.468 458.117C591.756 458.019 591.089 457.713 590.55 457.236C590.012 456.76 589.626 456.135 589.442 455.44C589.258 454.745 589.284 454.011 589.516 453.331C589.748 452.65 590.176 452.054 590.747 451.616C591.317 451.178 592.004 450.919 592.721 450.871C593.439 450.823 594.154 450.988 594.778 451.346C595.402 451.703 595.906 452.237 596.226 452.881C596.44 453.313 596.565 453.782 596.597 454.263C596.628 454.744 596.564 455.226 596.409 455.681C596.253 456.137 596.009 456.558 595.691 456.919C595.372 457.281 594.986 457.576 594.553 457.787Z" fill="#263238"/>
<path d="M566.604 481.992C566.104 482.592 565.435 483.027 564.684 483.241C563.934 483.456 563.136 483.44 562.394 483.197C561.653 482.953 561.001 482.492 560.524 481.874C560.048 481.256 559.767 480.509 559.72 479.73C559.672 478.95 559.86 478.175 560.258 477.503C560.656 476.832 561.246 476.295 561.953 475.963C562.66 475.631 563.449 475.519 564.221 475.64C564.992 475.762 565.709 476.113 566.278 476.647C567.027 477.314 567.482 478.251 567.543 479.252C567.604 480.254 567.267 481.239 566.604 481.992Z" fill="#263238"/>
<path d="M590.469 494.499C591.052 494.89 591.508 495.443 591.778 496.091C592.049 496.738 592.123 497.451 591.991 498.141C591.859 498.83 591.527 499.465 591.036 499.967C590.545 500.469 589.917 500.815 589.231 500.962C588.545 501.11 587.831 501.051 587.177 500.795C586.524 500.539 585.96 500.096 585.557 499.522C585.153 498.948 584.928 498.267 584.909 497.566C584.89 496.864 585.078 496.172 585.449 495.577C585.975 494.771 586.797 494.206 587.737 494.004C588.678 493.802 589.66 493.98 590.469 494.499Z" fill="#263238"/>
<path d="M606.748 521.441C606.168 521.365 605.621 521.125 605.172 520.75C604.723 520.375 604.389 519.881 604.21 519.324C604.03 518.767 604.013 518.17 604.159 517.604C604.306 517.037 604.61 516.524 605.036 516.123C605.463 515.722 605.994 515.451 606.569 515.341C607.144 515.23 607.738 515.285 608.282 515.499C608.827 515.713 609.3 516.077 609.646 516.549C609.992 517.021 610.196 517.582 610.236 518.166C610.199 519.06 609.813 519.903 609.161 520.516C608.509 521.128 607.643 521.46 606.748 521.441Z" fill="#263238"/>
<path d="M587.818 543.76C587.209 543.607 586.656 543.283 586.226 542.825C585.797 542.366 585.508 541.794 585.394 541.177C585.28 540.559 585.346 539.922 585.585 539.341C585.823 538.759 586.224 538.259 586.738 537.899C587.253 537.539 587.86 537.335 588.488 537.31C589.116 537.286 589.737 537.442 590.278 537.761C590.819 538.08 591.257 538.548 591.54 539.109C591.823 539.669 591.939 540.3 591.873 540.924C591.707 541.836 591.188 542.645 590.429 543.177C589.669 543.708 588.731 543.917 587.818 543.76Z" fill="#263238"/>
<path d="M575.538 562.946C574.96 563.476 574.237 563.821 573.462 563.935C572.687 564.05 571.895 563.929 571.19 563.588C570.484 563.247 569.897 562.703 569.504 562.025C569.111 561.347 568.931 560.566 568.987 559.785C569.043 559.003 569.332 558.256 569.817 557.641C570.302 557.025 570.961 556.57 571.708 556.333C572.455 556.096 573.256 556.089 574.007 556.312C574.758 556.536 575.425 556.979 575.921 557.586C576.58 558.348 576.911 559.34 576.839 560.345C576.767 561.351 576.299 562.286 575.538 562.946Z" fill="#263238"/>
<path d="M573.269 586.258C574.165 586.154 575.072 586.328 575.866 586.756C576.661 587.184 577.305 587.845 577.712 588.65C578.118 589.456 578.268 590.367 578.141 591.26C578.014 592.153 577.616 592.986 577.001 593.646C576.386 594.306 575.583 594.761 574.701 594.951C573.819 595.14 572.9 595.054 572.068 594.705C571.236 594.355 570.531 593.759 570.049 592.997C569.566 592.234 569.329 591.342 569.37 590.441C569.339 589.371 569.731 588.332 570.461 587.549C571.191 586.766 572.2 586.302 573.269 586.258Z" fill="#263238"/>
<path d="M545.76 553.984C545.749 554.485 545.614 554.976 545.366 555.411C545.119 555.847 544.767 556.214 544.342 556.48C543.842 556.771 543.285 556.952 542.709 557.011C542.133 557.07 541.551 557.005 541.002 556.822C540.453 556.638 539.95 556.339 539.526 555.945C539.102 555.551 538.766 555.071 538.542 554.537C538.365 554.07 538.308 553.566 538.375 553.071C538.442 552.576 538.631 552.105 538.925 551.701C539.469 550.928 540.229 550.331 541.109 549.986C541.802 549.649 542.596 549.583 543.335 549.801C544.057 550.075 544.653 550.605 545.008 551.29C545.52 552.094 545.781 553.032 545.76 553.984Z" fill="#263238"/>
<path d="M554.863 534.657C554.36 534.392 553.942 533.99 553.657 533.497C553.372 533.005 553.232 532.442 553.254 531.874C553.275 531.305 553.456 530.754 553.776 530.284C554.096 529.814 554.543 529.444 555.064 529.217C555.586 528.989 556.161 528.914 556.723 528.999C557.286 529.084 557.813 529.326 558.244 529.697C558.675 530.069 558.992 530.554 559.159 531.098C559.326 531.642 559.336 532.222 559.188 532.771C558.856 533.588 558.218 534.243 557.41 534.595C556.602 534.948 555.688 534.97 554.863 534.657Z" fill="#263238"/>
<path d="M524.547 522.916C524.312 523.371 523.967 523.76 523.544 524.047C523.12 524.335 522.631 524.511 522.122 524.561C520.866 524.651 519.621 524.274 518.626 523.502C517.632 522.729 516.958 521.617 516.734 520.378C516.64 519.86 516.682 519.326 516.856 518.829C517.03 518.332 517.33 517.889 517.726 517.542C518.512 516.955 519.469 516.643 520.45 516.653C521.431 516.662 522.382 516.994 523.156 517.596C523.931 518.198 524.486 519.038 524.737 519.986C524.989 520.934 524.922 521.939 524.547 522.845V522.916Z" fill="#263238"/>
<path d="M603.543 567.64C604.028 567.907 604.427 568.306 604.695 568.79C604.963 569.274 605.09 569.824 605.061 570.376C605.018 571.934 604.494 573.44 603.559 574.688C602.624 575.935 601.326 576.861 599.842 577.339C599.318 577.521 598.753 577.553 598.211 577.43C597.67 577.308 597.174 577.035 596.779 576.644C596.458 576.226 596.233 575.743 596.12 575.228C596.007 574.713 596.01 574.18 596.127 573.666C596.363 572.427 596.887 571.261 597.659 570.263C598.395 569.242 599.368 568.415 600.495 567.852C600.954 567.591 601.467 567.436 601.995 567.399C602.522 567.362 603.052 567.444 603.543 567.64Z" fill="#263238"/>
<path d="M422.564 355.266C422.564 355.266 381.215 357.549 376.564 398.798C373.544 425.599 349.069 531.055 360.767 544.852C372.82 559.032 398.883 575.595 416.835 549.872C434.787 524.15 452.455 426.506 452.455 426.506L412.638 405.988L422.564 355.266Z" fill="#E91E63"/>
<path d="M421.727 382.633C421.727 382.633 410.057 365.319 409.83 361.831C409.603 358.343 410.057 350.898 411.149 350.671C411.149 350.671 410.057 347.835 411.362 346.304C412.666 344.773 415.517 342.149 415.517 342.149C415.517 342.149 414.637 337.782 416.396 336.69C418.154 335.598 429.725 325.757 429.725 325.757C429.725 325.757 434.532 315.916 437.155 315.704C439.779 315.491 444.373 315.264 446.117 316.569C447.861 317.873 455.306 324.197 455.306 324.197H458.794C459.9 324.197 463.388 330.777 463.388 330.777C463.388 330.777 467.103 331.217 467.983 333.188C468.862 335.159 466.238 359.633 466.238 359.633L457.489 387.398L450.399 425.868L414.51 406.555L421.727 382.633Z" fill="#FFBE9D"/>
<path d="M421.727 382.633C421.716 382.769 421.687 382.902 421.642 383.03C421.557 383.328 421.444 383.711 421.302 384.221C420.971 385.318 420.498 386.878 419.884 388.901C418.65 393.027 416.864 399.025 414.609 406.612L414.51 406.371L450.442 425.584L449.988 425.811C452.143 414.141 454.526 401.167 457.078 387.341C459.914 378.464 462.75 369.148 465.813 359.577C466.011 357.634 466.21 355.549 466.423 353.465C466.848 349.083 467.231 344.744 467.514 340.462C467.642 338.321 467.784 336.208 467.699 334.109C467.689 333.641 467.537 333.188 467.264 332.808C466.99 332.428 466.608 332.14 466.167 331.982C465.275 331.543 464.317 331.251 463.331 331.117H463.147L463.062 330.947C462.149 329.244 461.15 327.587 460.07 325.984C459.803 325.6 459.509 325.235 459.191 324.892C459.122 324.818 459.046 324.752 458.964 324.694C458.916 324.644 458.858 324.605 458.794 324.58C458.582 324.558 458.368 324.558 458.156 324.58H455.178L455.079 324.495L448.244 318.823L446.571 317.405C446.088 316.916 445.495 316.551 444.841 316.342C443.494 315.993 442.105 315.835 440.714 315.874C440.019 315.874 439.296 315.874 438.63 315.874C437.987 315.889 437.351 316.004 436.744 316.214C435.663 316.972 434.743 317.936 434.035 319.05C432.547 321.239 431.211 323.527 430.037 325.899C426.851 328.593 423.769 331.16 420.791 333.599C419.373 334.79 417.785 336.024 416.381 337.045C415.893 337.735 415.648 338.568 415.687 339.413C415.659 340.277 415.726 341.143 415.885 341.993V342.149L415.772 342.249C414.354 343.496 413.12 344.744 411.957 346.006C410.794 347.268 410.965 349.055 411.447 350.487L411.546 350.785H411.262C411.073 350.969 410.945 351.207 410.894 351.466C410.783 351.774 410.703 352.092 410.653 352.416C410.519 353.067 410.419 353.725 410.355 354.387C410.213 355.677 410.128 356.953 410.085 358.201C410.021 359.396 410.021 360.594 410.085 361.789C410.338 362.867 410.724 363.91 411.234 364.894C413.191 368.779 415.176 371.984 416.764 374.551L420.479 380.45L421.444 381.967C421.562 382.138 421.667 382.318 421.756 382.506C421.756 382.506 421.628 382.35 421.387 382.009L420.366 380.52C419.473 379.216 418.168 377.259 416.537 374.692C414.907 372.126 412.893 369.02 410.865 365.064C410.318 364.045 409.908 362.958 409.646 361.831C409.558 360.619 409.534 359.402 409.575 358.187C409.575 356.939 409.688 355.649 409.816 354.33C409.882 353.659 409.981 352.992 410.114 352.331C410.174 351.986 410.254 351.645 410.355 351.31C410.426 351.139 410.483 350.969 410.568 350.785C410.618 350.675 410.691 350.577 410.781 350.496C410.871 350.416 410.977 350.355 411.092 350.317L410.922 350.643C410.615 349.833 410.461 348.972 410.468 348.105C410.46 347.62 410.547 347.138 410.724 346.687C410.913 346.265 411.177 345.881 411.503 345.553C412.695 344.262 413.985 343.014 415.332 341.752L415.247 342.008C415.086 341.114 415.01 340.207 415.02 339.299C414.988 338.313 415.287 337.344 415.871 336.548C417.417 335.4 418.82 334.279 420.323 333.032C423.287 330.593 426.35 328.012 429.526 325.318L429.441 325.417C430.62 323.01 431.966 320.688 433.468 318.469C434.231 317.256 435.235 316.213 436.418 315.406C437.119 315.162 437.859 315.047 438.601 315.066C439.296 315.066 440.019 314.995 440.714 314.995C442.177 314.95 443.638 315.117 445.053 315.491C445.426 315.602 445.783 315.759 446.117 315.959C446.424 316.172 446.718 316.404 446.996 316.654L448.669 318.072L455.532 323.744L455.305 323.659H458.141C458.401 323.632 458.662 323.632 458.921 323.659C459.095 323.69 459.257 323.768 459.389 323.885C459.495 323.973 459.595 324.067 459.687 324.169C460.032 324.533 460.349 324.922 460.637 325.332C461.74 326.961 462.758 328.646 463.686 330.38L463.402 330.196C464.488 330.329 465.542 330.645 466.522 331.131C467.058 331.387 467.539 331.743 467.94 332.181C468.322 332.653 468.523 333.247 468.507 333.854C468.564 336.006 468.507 338.16 468.337 340.306C468.053 344.56 467.67 348.942 467.245 353.337C467.032 355.422 466.82 357.52 466.635 359.449C463.629 369.02 460.68 378.337 457.886 387.213C455.305 401.039 452.881 414.014 450.711 425.67L450.626 426.095L450.243 425.882L414.41 406.484L414.254 406.399V406.243C416.58 398.713 418.423 392.758 419.7 388.66L421.118 383.98L421.5 382.775C421.573 382.724 421.649 382.676 421.727 382.633Z" fill="#EB996E"/>
<path d="M461.034 342.39C460.464 342.536 459.868 342.548 459.292 342.425C458.717 342.302 458.177 342.047 457.716 341.681C456.674 340.97 455.779 340.065 455.079 339.015C454.131 337.816 453.331 336.507 452.697 335.116C452.217 333.645 452.058 332.088 452.229 330.55C452.213 329.29 452.419 328.037 452.838 326.849C453.153 326.041 453.694 325.342 454.398 324.835C454.909 324.495 455.263 324.453 455.277 324.495C454.368 325.104 453.685 325.996 453.335 327.033C453 328.179 452.856 329.372 452.909 330.564C452.789 331.999 452.948 333.444 453.377 334.818C454 336.148 454.755 337.412 455.632 338.59C456.269 339.591 457.069 340.477 458 341.213C458.895 341.857 459.939 342.262 461.034 342.39Z" fill="#EB996E"/>
<path d="M464.608 356.811C463.626 356.769 462.662 356.533 461.772 356.117C460.765 355.778 459.811 355.3 458.936 354.699C457.855 353.909 456.972 352.88 456.355 351.693C455.327 349.51 455.004 347.062 455.433 344.688C455.503 343.7 455.769 342.736 456.213 341.852C456.188 342.802 456.098 343.75 455.944 344.688C455.693 346.946 456.06 349.23 457.007 351.295C458.116 353.27 459.868 354.806 461.97 355.649C462.872 355.982 463.753 356.37 464.608 356.811Z" fill="#EB996E"/>
<path d="M453.604 380.166C451.913 377.269 450.017 374.497 447.932 371.87C445.669 369.404 443.238 367.097 440.658 364.965C441.587 365.333 442.453 365.845 443.224 366.482C445.171 367.902 446.942 369.549 448.499 371.388C450.055 373.227 451.392 375.24 452.484 377.387C453.01 378.244 453.389 379.183 453.604 380.166Z" fill="#EB996E"/>
<path d="M455.618 376.607C455.49 376.607 455.362 375.572 454.653 374.083C453.704 372.149 452.327 370.456 450.626 369.134C448.895 367.815 447.043 366.661 445.096 365.688C444.247 365.315 443.447 364.838 442.714 364.27C443.625 364.429 444.506 364.73 445.323 365.163C447.38 366.016 449.316 367.137 451.08 368.496C452.873 369.884 454.271 371.717 455.136 373.813C455.564 374.678 455.732 375.648 455.618 376.607Z" fill="#EB996E"/>
<path d="M450.357 387.922C450.357 387.922 450.031 388.773 448.939 389.752C447.552 391.026 445.823 391.869 443.964 392.177C442.105 392.484 440.197 392.242 438.474 391.482C437.169 390.886 436.531 390.248 436.588 390.191C437.292 390.417 437.984 390.682 438.658 390.985C440.317 391.566 442.095 391.722 443.829 391.437C445.564 391.152 447.199 390.436 448.584 389.354C449.719 388.532 450.257 387.851 450.357 387.922Z" fill="#EB996E"/>
<path d="M428.647 326.807C430.36 325.482 432.198 324.328 434.135 323.361C434.954 322.966 435.838 322.725 436.744 322.652C437.821 322.67 438.88 322.922 439.85 323.389C444.393 325.29 448.503 328.093 451.931 331.628C453.09 332.7 453.979 334.032 454.526 335.513C454.822 336.684 454.927 337.896 454.838 339.101C454.838 341.937 454.791 344.744 454.696 347.524C454.748 348.518 454.594 349.513 454.242 350.445C453.964 350.965 453.57 351.415 453.09 351.759C452.611 352.103 452.059 352.333 451.477 352.43C450.895 352.527 450.298 352.49 449.732 352.32C449.167 352.15 448.648 351.853 448.216 351.451" fill="#FFBE9D"/>
<path d="M448.215 351.451C448.768 351.868 449.408 352.154 450.087 352.288C450.88 352.403 451.69 352.28 452.413 351.933C452.885 351.728 453.3 351.409 453.621 351.007C453.942 350.604 454.16 350.128 454.256 349.622C454.411 348.319 454.468 347.006 454.426 345.694C454.426 344.248 454.426 342.716 454.426 341.1C454.523 339.444 454.47 337.783 454.27 336.137C453.789 334.448 452.835 332.933 451.519 331.77C449.089 329.289 446.32 327.165 443.295 325.459C441.977 324.716 440.613 324.058 439.211 323.488C438.058 322.921 436.738 322.79 435.496 323.12C433.685 323.713 431.978 324.584 430.434 325.7C429.866 326.134 429.252 326.505 428.604 326.807C429.122 326.32 429.677 325.875 430.264 325.474C431.78 324.236 433.503 323.275 435.354 322.638C435.992 322.419 436.668 322.336 437.339 322.397C438.055 322.474 438.757 322.65 439.424 322.921C440.881 323.485 442.301 324.139 443.678 324.878C446.783 326.587 449.621 328.741 452.101 331.273C453.516 332.529 454.536 334.17 455.036 335.995C455.239 337.698 455.281 339.417 455.164 341.128C455.164 342.745 455.079 344.276 455.05 345.708C455.075 347.061 454.98 348.414 454.767 349.75C454.641 350.323 454.377 350.858 454 351.307C453.622 351.757 453.14 352.108 452.597 352.331C451.797 352.673 450.911 352.762 450.059 352.586C449.537 352.472 449.051 352.233 448.641 351.891C448.315 351.664 448.201 351.466 448.215 351.451Z" fill="#EB996E"/>
<path d="M439.424 359.576C440.429 360.611 441.733 361.304 443.152 361.559C444.572 361.813 446.035 361.616 447.336 360.995C447.563 358.158 447.79 355.322 448.003 352.486C448.216 351.067 448.134 349.619 447.762 348.232C447.374 347.271 446.838 346.376 446.174 345.581C443.826 342.307 441.234 339.216 438.417 336.335C437.353 334.835 435.764 333.788 433.965 333.405C432.165 333.021 430.287 333.328 428.704 334.265C423.419 336.519 418.607 339.752 414.524 343.794" fill="#FFBE9D"/>
<path d="M414.467 343.808C414.467 343.808 414.595 343.61 414.893 343.298C415.19 342.986 415.63 342.532 416.226 341.965C417.933 340.402 419.763 338.98 421.699 337.711C423.042 336.833 424.429 336.024 425.854 335.286C427.49 334.408 429.209 333.696 430.987 333.159C432.005 332.896 433.074 332.896 434.092 333.159C435.123 333.438 436.087 333.92 436.928 334.577C438.61 335.985 440.167 337.536 441.579 339.214C443.125 341.015 444.529 342.83 445.833 344.603C446.523 345.465 447.144 346.38 447.691 347.339C448.172 348.317 448.411 349.397 448.386 350.487C448.173 354.571 447.762 358.088 447.521 360.995V361.151H447.407C446.421 361.607 445.342 361.83 444.255 361.803C443.169 361.776 442.103 361.499 441.14 360.995C440.622 360.728 440.145 360.389 439.722 359.988C439.452 359.704 439.339 359.534 439.353 359.52C439.937 359.992 440.569 360.4 441.239 360.739C442.162 361.183 443.172 361.413 444.196 361.413C445.219 361.413 446.23 361.183 447.152 360.739L447.01 360.952C447.181 358.045 447.521 354.443 447.691 350.487C447.722 349.503 447.502 348.527 447.053 347.651C446.519 346.73 445.912 345.852 445.238 345.028C443.905 343.27 442.501 341.455 440.984 339.682C439.603 338.044 438.09 336.521 436.46 335.13C435.695 334.487 434.808 334.005 433.851 333.712C432.945 333.478 431.993 333.478 431.086 333.712C429.356 334.219 427.68 334.894 426.081 335.726C424.549 336.477 423.16 337.271 421.926 338.037C419.983 339.261 418.126 340.616 416.367 342.093C415.764 342.697 415.13 343.27 414.467 343.808Z" fill="#EB996E"/>
<path d="M428.463 359.137C428.576 359.137 428.548 360.03 427.683 360.938C426.6 362.071 425.346 363.027 423.968 363.774C422.073 364.962 419.865 365.555 417.629 365.475C419.679 364.839 421.679 364.052 423.613 363.122C424.931 362.388 426.17 361.523 427.314 360.541C427.76 360.128 428.146 359.655 428.463 359.137Z" fill="#EB996E"/>
<path d="M427.073 356.258C427.317 356.919 427.734 357.501 428.28 357.946C428.827 358.39 429.482 358.679 430.179 358.782C430.139 359.792 430.326 360.797 430.726 361.725C431.126 362.652 431.729 363.478 432.49 364.142C433.047 364.684 433.773 365.019 434.546 365.093C436.092 365.093 437.212 363.675 438.006 362.384C438.942 360.824 439.807 359.222 440.601 357.591C440.841 357.312 441.02 356.986 441.127 356.634C441.234 356.282 441.267 355.911 441.223 355.546C441.179 355.18 441.059 354.828 440.872 354.511C440.684 354.194 440.432 353.92 440.133 353.706C438.242 351.815 436.304 349.925 434.319 348.034C433.491 347.12 432.494 346.374 431.384 345.836C429.75 345.389 428.026 345.389 426.393 345.836C420.99 346.786 416.041 348.02 411.418 350.998" fill="#FFBE9D"/>
<path d="M411.348 350.912C411.348 350.912 411.504 350.756 411.83 350.53C412.309 350.191 412.806 349.879 413.319 349.594C415.194 348.547 417.176 347.706 419.232 347.084C422.283 346.157 425.41 345.497 428.576 345.113C429.536 345.03 430.503 345.151 431.412 345.467C432.336 345.865 433.174 346.438 433.88 347.155L438.134 351.409L439.552 352.827C440.063 353.295 440.537 353.802 440.97 354.344C441.174 354.665 441.304 355.028 441.35 355.406C441.397 355.783 441.359 356.167 441.239 356.528C441.044 357.163 440.773 357.773 440.431 358.343L438.772 361.59C438.261 362.64 437.581 363.598 436.758 364.426C436.324 364.832 435.799 365.128 435.227 365.291C434.666 365.432 434.076 365.393 433.539 365.178C432.622 364.753 431.837 364.086 431.271 363.249C430.332 361.946 429.881 360.356 429.994 358.754L430.15 358.953C429.615 358.866 429.104 358.67 428.648 358.377C428.192 358.084 427.801 357.701 427.499 357.251C427.342 357.024 427.217 356.776 427.13 356.514C427.13 356.343 427.059 356.244 427.13 356.244C427.201 356.244 427.286 356.584 427.711 357.137C428.348 357.921 429.262 358.428 430.264 358.555H430.434V358.754C430.389 360.251 430.86 361.717 431.767 362.909C432.284 363.65 432.995 364.234 433.823 364.596C434.269 364.752 434.751 364.772 435.208 364.653C435.665 364.534 436.076 364.283 436.39 363.93C437.163 363.095 437.791 362.136 438.247 361.094C438.814 360.059 439.381 358.981 439.977 357.875C440.573 356.769 441.197 355.535 440.544 354.599C440.148 354.088 439.707 353.614 439.226 353.181L437.808 351.763L433.554 347.509C432.913 346.858 432.158 346.329 431.327 345.949C430.51 345.657 429.639 345.546 428.775 345.623C425.656 345.975 422.569 346.572 419.544 347.41C417.498 347.984 415.51 348.744 413.602 349.679C412.877 350.136 412.124 350.548 411.348 350.912Z" fill="#EB996E"/>
<path d="M428.009 359.449C428.009 359.534 427.612 359.846 426.79 360.03C425.702 360.232 424.581 360.159 423.528 359.818C422.048 359.426 420.701 358.642 419.629 357.549C419.757 357.322 421.501 358.371 423.741 359.109C424.702 359.417 425.71 359.556 426.719 359.52C427.485 359.477 427.967 359.35 428.009 359.449Z" fill="#EB996E"/>
<path d="M360.739 522.476C360.739 522.476 360.739 522.264 360.739 521.838C360.739 521.413 360.739 520.732 360.81 519.91C361.029 517.456 361.504 515.032 362.228 512.678C363.414 508.946 364.948 505.333 366.808 501.887C368.893 497.817 371.658 493.379 374.508 488.373C377.448 482.805 379.937 477.011 381.953 471.045C384.306 464.679 386.646 457.73 389.936 450.754C396.26 436.73 402.698 420.976 409.462 404.399L409.618 404.017L409.972 404.215L418.891 408.937L452.342 426.69L452.583 426.818V427.102C450.655 434.107 448.854 440.885 447.28 447.422C446.486 450.683 445.758 453.883 445.096 457.021C444.444 460.155 443.82 463.232 443.111 466.182C441.693 472.095 440.275 477.625 439.367 482.872C438.46 488.118 437.297 492.911 436.191 497.25C433.965 505.9 431.937 512.72 430.519 517.386C429.796 519.697 429.229 521.484 428.846 522.732C428.647 523.313 428.505 523.767 428.392 524.15L428.222 524.617C428.243 524.453 428.281 524.292 428.335 524.135L428.718 522.717C429.087 521.47 429.612 519.669 430.278 517.343C431.625 512.65 433.61 505.829 435.78 497.165C436.843 492.826 437.978 488.047 438.857 482.801C439.736 477.554 441.154 471.981 442.529 466.068C443.224 463.119 443.834 460.07 444.486 456.922C445.139 453.774 445.904 450.57 446.642 447.294C448.202 440.743 450.002 433.951 451.917 426.946L452.087 427.343L418.679 409.618L409.774 404.896L410.284 404.711C403.464 421.302 397.054 437.042 390.687 451.052C387.383 458 385.015 464.905 382.647 471.286C380.591 477.267 378.064 483.076 375.089 488.657C372.253 493.663 369.417 498.058 367.29 502.1C365.418 505.517 363.857 509.095 362.625 512.791C361.875 515.123 361.348 517.521 361.051 519.952C361.051 520.775 360.952 521.37 360.909 521.867C360.867 522.363 360.739 522.476 360.739 522.476Z" fill="#263238"/>
<path d="M384.519 527.879C382.591 528.531 380.35 527.042 379.528 524.575C378.705 522.108 379.599 519.584 381.541 518.903C383.484 518.222 385.71 519.74 386.533 522.207C387.355 524.674 386.448 527.241 384.519 527.879Z" fill="#263238"/>
<path d="M404.13 490.274C404.445 490.691 404.637 491.188 404.688 491.708C404.738 492.229 404.643 492.753 404.414 493.223C403.804 494.444 402.753 495.388 401.474 495.865C400.195 496.341 398.782 496.314 397.522 495.79C397.042 495.585 396.628 495.251 396.325 494.826C396.022 494.4 395.843 493.9 395.806 493.379C395.768 492.389 396.085 491.419 396.7 490.642C397.25 489.875 398.014 489.288 398.897 488.955C399.783 488.63 400.744 488.57 401.663 488.785C402.633 488.979 403.506 489.505 404.13 490.274Z" fill="#263238"/>
<path d="M410.766 529.666C409.834 529.784 408.889 529.611 408.058 529.172C407.228 528.733 406.553 528.048 406.126 527.212C405.699 526.375 405.54 525.427 405.672 524.497C405.803 523.567 406.218 522.7 406.86 522.014C407.503 521.329 408.341 520.858 409.26 520.666C410.18 520.474 411.136 520.571 411.999 520.942C412.861 521.314 413.589 521.942 414.081 522.742C414.574 523.542 414.807 524.474 414.751 525.412C414.781 526.503 414.38 527.562 413.634 528.358C412.887 529.155 411.857 529.625 410.766 529.666Z" fill="#263238"/>
<path d="M429.866 465.841C430.244 466.177 430.53 466.603 430.699 467.079C430.867 467.555 430.913 468.066 430.831 468.564C430.71 469.153 430.472 469.712 430.132 470.208C429.792 470.704 429.356 471.127 428.85 471.452C428.344 471.777 427.778 471.998 427.186 472.101C426.593 472.204 425.986 472.187 425.4 472.052C424.914 471.91 424.471 471.649 424.112 471.293C423.753 470.936 423.489 470.495 423.344 470.01C423.074 469.078 423.114 468.083 423.457 467.174C423.692 466.379 424.193 465.689 424.875 465.217C425.594 464.784 426.439 464.609 427.271 464.721C428.235 464.804 429.145 465.197 429.866 465.841Z" fill="#263238"/>
<path d="M410.171 443.834C410.586 444.596 410.758 445.467 410.664 446.33C410.57 447.193 410.215 448.006 409.645 448.661C409.076 449.316 408.32 449.781 407.478 449.994C406.637 450.207 405.75 450.157 404.938 449.852C404.126 449.546 403.426 448.999 402.933 448.285C402.441 447.57 402.178 446.722 402.181 445.855C402.184 444.987 402.453 444.14 402.951 443.429C403.449 442.719 404.152 442.177 404.966 441.877C405.916 441.45 406.997 441.415 407.972 441.782C408.947 442.149 409.738 442.886 410.171 443.834Z" fill="#263238"/>
<path d="M429.271 434.816C428.901 435.255 428.405 435.572 427.851 435.724C427.296 435.876 426.708 435.856 426.165 435.666C424.512 435.178 423.059 434.169 422.025 432.79C420.99 431.41 420.428 429.733 420.423 428.009C420.394 427.436 420.54 426.867 420.841 426.378C421.142 425.89 421.585 425.504 422.11 425.272C422.623 425.134 423.161 425.109 423.685 425.2C424.209 425.29 424.707 425.494 425.144 425.797C426.251 426.45 427.215 427.318 427.98 428.349C428.754 429.357 429.318 430.509 429.639 431.738C429.805 432.247 429.858 432.786 429.794 433.318C429.731 433.849 429.552 434.36 429.271 434.816Z" fill="#263238"/>
<path d="M380.336 453.306C381.033 454.023 381.442 454.973 381.485 455.972C381.574 456.954 381.387 457.941 380.946 458.823C380.505 459.704 379.828 460.446 378.989 460.963C378.163 461.539 377.152 461.787 376.153 461.658C375.631 461.565 375.145 461.326 374.751 460.97C374.358 460.614 374.072 460.155 373.927 459.645C373.544 458.271 373.684 456.805 374.321 455.529C374.958 454.253 376.045 453.259 377.372 452.739C377.87 452.545 378.412 452.496 378.936 452.596C379.46 452.696 379.945 452.942 380.336 453.306Z" fill="#263238"/>
<path d="M385.696 430.037C385.102 430.661 384.333 431.091 383.491 431.268C382.648 431.446 381.771 431.364 380.976 431.032C380.181 430.701 379.505 430.136 379.038 429.412C378.571 428.688 378.335 427.839 378.361 426.978C378.387 426.117 378.673 425.284 379.183 424.59C379.692 423.895 380.401 423.372 381.214 423.088C382.028 422.805 382.908 422.776 383.739 423.003C384.569 423.231 385.311 423.706 385.866 424.365C386.596 425.14 386.988 426.172 386.956 427.236C386.924 428.3 386.471 429.307 385.696 430.037Z" fill="#263238"/>
<path d="M393.438 394.204C395.339 393.453 397.948 395.509 399.252 398.813C400.557 402.117 400.103 405.392 398.203 406.144C396.303 406.895 393.708 404.839 392.389 401.549C391.07 398.26 391.552 395.012 393.438 394.204Z" fill="#263238"/>
<path d="M404.229 378.237C404.467 379.069 404.447 379.953 404.169 380.772C403.892 381.592 403.372 382.307 402.678 382.823C401.984 383.339 401.149 383.632 400.285 383.661C399.42 383.691 398.567 383.456 397.84 382.988C397.112 382.521 396.544 381.842 396.212 381.044C395.88 380.245 395.799 379.364 395.98 378.519C396.161 377.673 396.596 376.903 397.226 376.31C397.856 375.718 398.652 375.331 399.507 375.203C400.535 374.983 401.609 375.179 402.493 375.748C403.378 376.316 404.002 377.211 404.229 378.237Z" fill="#263238"/>
<path d="M537.096 176.683C535.833 176.651 534.591 176.351 533.452 175.804C534.648 175.385 535.919 175.226 537.181 175.336C539.223 175.336 540.854 175.719 540.825 176.229C540.797 176.74 539.124 176.938 537.096 176.683Z" fill="#263238"/>
<path d="M533.551 183.759C532.133 182.27 531.169 180.923 531.325 180.738C531.481 180.554 532.899 181.49 534.473 182.78C536.047 184.071 537.053 185.432 536.699 185.815C536.344 186.198 534.94 185.262 533.551 183.759Z" fill="#263238"/>
<path d="M526.276 186.907C526.088 185.656 526.17 184.379 526.517 183.163C527.135 184.267 527.507 185.49 527.609 186.751C527.992 188.764 527.879 190.437 527.368 190.494C526.858 190.551 526.376 188.949 526.276 186.907Z" fill="#263238"/>
<path d="M518.676 184.638C519.91 183.021 521.072 181.802 521.271 181.929C521.051 183.166 520.567 184.342 519.853 185.375C518.846 187.162 517.683 188.381 517.258 188.098C516.833 187.814 517.442 186.269 518.676 184.638Z" fill="#263238"/>
<path d="M514.323 178.03C515.521 177.62 516.794 177.48 518.052 177.619C517.066 178.411 515.927 178.991 514.706 179.32C512.806 180.044 511.132 180.228 510.976 179.746C510.82 179.264 512.338 178.484 514.323 178.03Z" fill="#263238"/>
<path d="M515.23 170.16C517.045 171.096 518.449 172.018 518.35 172.23C517.085 172.212 515.838 171.927 514.692 171.394C512.777 170.713 511.373 169.791 511.572 169.309C511.77 168.827 513.415 169.224 515.23 170.16Z" fill="#263238"/>
<path d="M520.988 164.715C521.593 165.822 521.955 167.045 522.051 168.302C521.838 168.416 520.817 167.069 519.782 165.31C518.747 163.552 518.265 161.95 518.719 161.723C519.173 161.496 520.193 162.829 520.988 164.715Z" fill="#263238"/>
<path d="M528.914 164.233C528.658 165.473 528.146 166.647 527.411 167.679C527.202 166.427 527.265 165.146 527.595 163.921C527.921 161.907 528.588 160.362 529.098 160.489C529.609 160.617 529.495 162.29 528.914 164.233Z" fill="#263238"/>
<path d="M535.267 168.955C534.277 169.744 533.132 170.314 531.906 170.628C531.764 170.444 532.913 169.21 534.458 167.877C536.004 166.544 537.507 165.793 537.805 166.204C538.103 166.615 536.968 167.849 535.267 168.955Z" fill="#263238"/>
<path d="M379.088 241.145C377.83 241.055 376.599 240.733 375.458 240.195C376.665 239.828 377.929 239.689 379.187 239.784C381.229 239.784 382.86 240.181 382.817 240.734C382.775 241.287 381.102 241.471 379.088 241.145Z" fill="#263238"/>
<path d="M374.621 247.696C373.906 246.655 373.387 245.492 373.09 244.265C373.26 244.151 374.508 245.357 375.742 246.931C376.975 248.505 377.727 250.05 377.259 250.362C376.791 250.674 375.614 249.483 374.621 247.696Z" fill="#263238"/>
<path d="M366.709 248.306C367.078 247.099 367.664 245.97 368.439 244.974C368.536 246.233 368.392 247.498 368.014 248.703C367.588 250.688 366.809 252.191 366.284 252.035C365.759 251.879 365.944 250.192 366.709 248.306Z" fill="#263238"/>
<path d="M361.306 242.478C362.482 242.021 363.731 241.776 364.993 241.755C364.059 242.609 362.978 243.286 361.802 243.754C359.987 244.662 358.328 244.988 358.115 244.477C357.903 243.967 359.349 243.074 361.306 242.478Z" fill="#263238"/>
<path d="M362.469 234.651C363.554 235.279 364.516 236.101 365.305 237.075C364.056 236.883 362.854 236.46 361.76 235.828C359.917 234.977 358.626 233.885 358.924 233.403C359.222 232.921 360.796 233.488 362.469 234.651Z" fill="#263238"/>
<path d="M369.318 230.666C369.517 231.915 369.478 233.19 369.205 234.424C368.593 233.322 368.176 232.123 367.971 230.879C367.489 228.894 367.545 227.206 368.084 227.121C368.623 227.036 369.19 228.624 369.318 230.666Z" fill="#263238"/>
<path d="M376.72 233.531C375.868 234.464 374.849 235.229 373.714 235.785C374.193 234.59 374.89 233.493 375.77 232.552C377.018 230.936 378.365 229.929 378.776 230.298C379.187 230.666 378.223 232.169 376.72 233.531Z" fill="#263238"/>
<path d="M569.78 196.464C568.549 196.242 567.343 195.9 566.179 195.443C567.411 195.243 568.66 195.157 569.908 195.188C571.95 195.188 573.581 195.599 573.524 196.209C573.467 196.819 571.766 196.932 569.78 196.464Z" fill="#263238"/>
<path d="M564.364 201.356C564.202 200.115 564.159 198.862 564.237 197.613C564.808 198.733 565.282 199.9 565.655 201.101C566.321 203.015 566.392 204.717 565.796 204.844C565.201 204.972 564.577 203.341 564.364 201.356Z" fill="#263238"/>
<path d="M558.139 197.698C559.267 197.153 560.445 196.717 561.655 196.393C560.792 197.289 559.842 198.096 558.819 198.804C557.189 200.037 555.601 200.619 555.303 200.094C555.005 199.569 556.267 198.52 558.139 197.698Z" fill="#263238"/>
<path d="M559.642 190.622C560.51 191.524 561.285 192.512 561.953 193.571C560.84 193.004 559.781 192.335 558.791 191.572C557.118 190.409 556.069 189.076 556.466 188.622C556.863 188.169 558.309 189.076 559.642 190.622Z" fill="#263238"/>
<path d="M566.831 189.856C566.241 190.958 565.542 191.998 564.747 192.962C564.943 191.727 565.246 190.513 565.654 189.331C566.25 187.389 567.186 185.971 567.739 186.226C568.292 186.481 567.88 188.112 566.831 189.856Z" fill="#263238"/>
<path d="M406.498 328.494C405.817 328.589 405.13 328.632 404.442 328.622C403.109 328.622 401.195 328.622 398.77 328.622C394.034 328.622 387.497 328.423 380.336 328.168L361.902 327.501L356.23 327.289C355.541 327.301 354.853 327.249 354.174 327.133C354.853 327.019 355.542 326.976 356.23 327.005C357.563 327.005 359.477 327.005 361.902 327.005C366.638 327.005 373.175 327.204 380.336 327.445L398.77 328.111L404.442 328.324C405.131 328.31 405.82 328.367 406.498 328.494Z" fill="#263238"/>
<path d="M405.052 321.645C404.966 321.829 396.813 318.568 386.83 314.357C376.848 310.145 368.807 306.558 368.878 306.373C368.949 306.189 377.117 309.45 387.114 313.676C397.111 317.902 405.137 321.461 405.052 321.645Z" fill="#263238"/>
<path d="M405.761 336.165C402.61 338.314 399.322 340.256 395.92 341.979C392.626 343.908 389.217 345.632 385.71 347.141C388.866 344.99 392.158 343.048 395.566 341.327C398.848 339.386 402.254 337.662 405.761 336.165Z" fill="#263238"/>
</svg>
