<svg width="500" height="500" viewBox="0 0 500 500" fill="none" xmlns="http://www.w3.org/2000/svg">
<path d="M71.0298 271.49H15.7598V326.76H71.0298V271.49Z" fill="#F5F5F5"/>
<path d="M130.06 271.49H74.7896V326.76H130.06V271.49Z" fill="#F5F5F5"/>
<path d="M189.09 271.49H133.82V326.76H189.09V271.49Z" fill="#F5F5F5"/>
<path d="M248.12 271.49H192.85V326.76H248.12V271.49Z" fill="#F5F5F5"/>
<path d="M307.15 271.49H251.88V326.76H307.15V271.49Z" fill="#F5F5F5"/>
<path d="M366.18 271.49H310.91V326.76H366.18V271.49Z" fill="#F5F5F5"/>
<path d="M425.21 271.49H369.94V326.76H425.21V271.49Z" fill="#F5F5F5"/>
<path d="M484.24 271.49H428.97V326.76H484.24V271.49Z" fill="#F5F5F5"/>
<path d="M71.0298 152.3H15.7598V207.57H71.0298V152.3Z" fill="#F5F5F5"/>
<path d="M71.0298 212.37H15.7598V267.64H71.0298V212.37Z" fill="#F5F5F5"/>
<path d="M130.06 152.3H74.7896V207.57H130.06V152.3Z" fill="#F5F5F5"/>
<path d="M130.06 212.37H74.7896V267.64H130.06V212.37Z" fill="#F5F5F5"/>
<path d="M189.09 152.3H133.82V207.57H189.09V152.3Z" fill="#F5F5F5"/>
<path d="M189.09 212.37H133.82V267.64H189.09V212.37Z" fill="#F5F5F5"/>
<path d="M248.12 152.3H192.85V207.57H248.12V152.3Z" fill="#F5F5F5"/>
<path d="M248.12 212.37H192.85V267.64H248.12V212.37Z" fill="#F5F5F5"/>
<path d="M307.15 152.3H251.88V207.57H307.15V152.3Z" fill="#F5F5F5"/>
<path d="M307.15 212.37H251.88V267.64H307.15V212.37Z" fill="#F5F5F5"/>
<path d="M366.18 152.3H310.91V207.57H366.18V152.3Z" fill="#F5F5F5"/>
<path d="M366.18 212.37H310.91V267.64H366.18V212.37Z" fill="#F5F5F5"/>
<path d="M425.21 152.3H369.94V207.57H425.21V152.3Z" fill="#F5F5F5"/>
<path d="M425.21 212.37H369.94V267.64H425.21V212.37Z" fill="#F5F5F5"/>
<path d="M484.24 152.3H428.97V207.57H484.24V152.3Z" fill="#F5F5F5"/>
<path d="M484.24 212.37H428.97V267.64H484.24V212.37Z" fill="#F5F5F5"/>
<path d="M429 43.5998V33.5398H421.92V43.5998H414.81V101.12H435.61V43.5998H429Z" fill="#EBEBEB"/>
<path d="M458.35 101.12H286.74V109.88H458.35V101.12Z" fill="#E0E0E0"/>
<path d="M431.95 109.88H426.95V125.1H431.95V109.88Z" fill="#E0E0E0"/>
<path d="M325.28 109.88H320.28V125.1H325.28V109.88Z" fill="#E0E0E0"/>
<path d="M383.24 59.07V51.72H378.07V59.07H372.87V101.12H388.08V59.07H383.24Z" fill="#F5F5F5"/>
<path d="M405.39 59.07V51.72H400.22V59.07H395V101.12H410.21V59.07H405.39Z" fill="#EBEBEB"/>
<path d="M339.18 73.7998H311.86V101.12H339.18V73.7998Z" fill="#E0E0E0"/>
<path d="M339 80.82C339 81 333 81.14 325.53 81.14C318.06 81.14 312.1 81 312.1 80.82C312.1 80.64 318.1 80.5 325.57 80.5C333.04 80.5 339 80.65 339 80.82Z" fill="#EBEBEB"/>
<path d="M326.56 84.43C326.56 84.43 326.66 84.43 326.83 84.43C327.092 84.4985 327.339 84.6137 327.56 84.77C328.366 85.3812 328.903 86.2808 329.06 87.28C329.4 88.7509 329.145 90.2965 328.35 91.58C327.848 92.343 327.1 92.9111 326.23 93.19C325.302 93.4546 324.318 93.4546 323.39 93.19C322.481 92.994 321.645 92.5486 320.976 91.9039C320.306 91.2591 319.83 90.4405 319.6 89.54C319.454 88.9268 319.447 88.2889 319.578 87.6725C319.709 87.0561 319.976 86.4766 320.359 85.976C320.742 85.4753 321.231 85.0662 321.792 84.778C322.352 84.4899 322.97 84.33 323.6 84.31C323.962 84.2618 324.331 84.321 324.66 84.48C324.66 84.54 324.27 84.48 323.66 84.56C322.746 84.68 321.894 85.0901 321.23 85.73C320.765 86.2086 320.43 86.7973 320.255 87.441C320.08 88.0846 320.071 88.7621 320.23 89.41C320.454 90.1965 320.887 90.9072 321.485 91.4658C322.082 92.0243 322.82 92.4095 323.62 92.58C324.435 92.8044 325.295 92.8044 326.11 92.58C326.853 92.3506 327.495 91.8743 327.93 91.23C328.662 90.0819 328.927 88.6972 328.67 87.36C328.573 86.4412 328.147 85.5886 327.47 84.96C326.91 84.59 326.53 84.49 326.56 84.43Z" fill="#EBEBEB"/>
<path d="M169.04 32.6499H77.2397V128.35H169.04V32.6499Z" fill="#E0E0E0"/>
<path d="M162.83 32.6499H71.0298V128.35H162.83V32.6499Z" fill="#EBEBEB"/>
<path d="M150.49 45.52H83.3696V115.49H150.49V45.52Z" fill="#FAFAFA"/>
<path d="M83.3696 116C82.8725 116.686 82.3099 117.323 81.6896 117.9C80.6096 119.03 79.0996 120.56 77.4096 122.22C75.7196 123.88 74.1796 125.37 73.0396 126.43C72.4539 127.016 71.8107 127.542 71.1196 128C71.6101 127.311 72.1696 126.675 72.7896 126.1C73.8696 124.98 75.3796 123.45 77.0696 121.78C78.7596 120.11 80.3196 118.62 81.4596 117.56C82.0448 116.98 82.6844 116.458 83.3696 116Z" fill="#E0E0E0"/>
<path d="M150.49 115.78C151.176 116.277 151.812 116.84 152.39 117.46C153.52 118.53 155.04 120.04 156.71 121.73C158.38 123.42 159.86 124.97 160.91 126.11C161.521 126.692 162.07 127.335 162.55 128.03C161.863 127.54 161.23 126.981 160.66 126.36C159.53 125.28 158 123.77 156.33 122.07C154.66 120.37 153.18 118.83 152.12 117.69C151.515 117.109 150.969 116.469 150.49 115.78Z" fill="#E0E0E0"/>
<path d="M150.31 45.6999C150.806 45.0103 151.373 44.3736 152 43.7999C153.08 42.6799 154.59 41.1499 156.28 39.4899C157.97 37.8299 159.52 36.3399 160.66 35.2799C161.237 34.6681 161.877 34.1184 162.57 33.6399C162.079 34.3285 161.52 34.9651 160.9 35.5399C159.83 36.6599 158.31 38.1899 156.62 39.8599C154.93 41.5299 153.37 43.0199 152.24 44.0699C151.655 44.6796 151.008 45.226 150.31 45.6999Z" fill="#E0E0E0"/>
<path d="M83.1796 45.8799C82.4958 45.3797 81.8598 44.8173 81.2796 44.1999C80.1596 43.1199 78.6296 41.6099 76.9696 39.9199C75.3096 38.2299 73.8196 36.6899 72.7596 35.5499C72.1488 34.9676 71.5993 34.3242 71.1196 33.6299C71.8025 34.1198 72.4326 34.6795 72.9996 35.2999C74.1296 36.3799 75.6596 37.8899 77.3296 39.5799C78.9996 41.2699 80.4796 42.8299 81.5396 43.9699C82.1548 44.5443 82.7048 45.1849 83.1796 45.8799Z" fill="#E0E0E0"/>
<path d="M150.31 115.49C150.31 115.49 150.31 115.37 150.31 115.15C150.31 114.93 150.31 114.59 150.31 114.15C150.31 113.28 150.31 112.02 150.31 110.38C150.31 107.07 150.31 102.25 150.26 96.1298C150.26 83.8698 150.19 66.4098 150.15 45.4998L150.36 45.7198H83.4299L83.6799 45.4698C83.6799 71.1498 83.6799 95.1798 83.6799 115.47L83.4699 115.25L131.95 115.36L145.56 115.42H149.15H150H150.33H149.1H145.55H131.98L83.3699 115.53H83.1499V115.32C83.1499 95.0598 83.1499 71.0298 83.1499 45.3198V45.0698H83.4099H150.34H150.57V45.2898C150.57 66.2898 150.49 83.7698 150.46 96.0598C150.46 102.16 150.46 106.97 150.46 110.26C150.46 111.88 150.46 113.13 150.46 113.99C150.46 114.4 150.46 114.72 150.46 114.99C150.46 115.26 150.31 115.49 150.31 115.49Z" fill="#E0E0E0"/>
<path d="M102.4 73.7398H106C106 73.7398 108.68 64.4598 115.69 66.0098C122.7 67.5598 123.42 73.7398 122.9 76.8298C122.843 76.9918 122.825 77.165 122.848 77.3351C122.871 77.5053 122.934 77.6677 123.031 77.809C123.129 77.9503 123.258 78.0667 123.409 78.1485C123.56 78.2303 123.728 78.2753 123.9 78.2798C125.35 78.4798 136.17 78.2798 136.17 78.2798C136.17 78.2798 139.26 96.6198 119.27 95.0798C99.2799 93.5398 106.27 80.2298 107.21 78.8898C108.15 77.5498 102.4 73.7398 102.4 73.7398Z" fill="#EBEBEB"/>
<path d="M126.31 83.7299C124.102 84.9551 121.517 85.3117 119.06 84.7299C117.761 84.344 116.388 84.2822 115.06 84.5499C114.325 84.8056 113.696 85.2997 113.274 85.9539C112.851 86.608 112.66 87.3845 112.73 88.1599L112.94 88.6799C113.775 90.1906 115.125 91.3505 116.744 91.9479C118.364 92.5453 120.144 92.5402 121.76 91.9336C123.376 91.3271 124.719 90.1595 125.546 88.6441C126.372 87.1288 126.625 85.3668 126.26 83.6799L126.31 83.7299Z" fill="#E0E0E0"/>
<path d="M110.77 73.45C110.772 73.567 110.739 73.6821 110.675 73.7804C110.612 73.8788 110.52 73.9559 110.413 74.0021C110.305 74.0483 110.186 74.0614 110.071 74.0398C109.956 74.0182 109.85 73.9628 109.766 73.8807C109.683 73.7986 109.626 73.6935 109.602 73.5788C109.578 73.4641 109.589 73.3449 109.634 73.2365C109.678 73.1282 109.754 73.0354 109.851 72.9701C109.948 72.9048 110.063 72.87 110.18 72.87C110.257 72.8686 110.333 72.8827 110.405 72.9112C110.476 72.9398 110.541 72.9823 110.596 73.0363C110.651 73.0902 110.695 73.1546 110.725 73.2257C110.754 73.2967 110.77 73.3729 110.77 73.45Z" fill="#E0E0E0"/>
<path d="M50.3202 408.39C48.9602 405.79 49.8802 394.24 51.5402 391.82C53.3431 389.484 55.6065 387.544 58.1902 386.12C77.5802 374 93.7702 371.46 116.57 369C139.721 366.408 163.059 365.902 186.3 367.49C211.82 369.32 237.58 367.03 260.51 378.25C264.226 379.99 267.374 382.746 269.59 386.2C271.36 389.08 270.65 395.5 268.72 401.65C265.16 412.95 263.45 428.12 234.86 436.2C202.71 445.28 204.94 467.46 204.94 467.46L70.7502 466.32L69.0002 455.39C66.993 443.587 62.5153 432.342 55.8602 422.39C52.7888 417.664 50.7447 412.346 49.8602 406.78" fill="#EBEBEB"/>
<path d="M265.63 411.53C265.614 411.632 265.587 411.733 265.55 411.83C265.48 412.03 265.41 412.33 265.25 412.7C264.829 413.806 264.331 414.882 263.76 415.92C262.869 417.566 261.866 419.15 260.76 420.66C259.311 422.68 257.67 424.555 255.86 426.26C253.606 428.279 251.057 429.941 248.3 431.19C245.37 432.59 242.13 433.81 238.71 435.05C217.787 442.742 195.71 446.83 173.42 447.14C167.479 447.275 161.535 447.057 155.62 446.49H155.94H156.86L160.4 446.64C161.93 446.71 163.81 446.73 165.99 446.79C168.17 446.85 170.66 446.79 173.41 446.79C195.64 446.325 217.642 442.213 238.54 434.62C241.96 433.39 245.2 432.19 248.12 430.82C250.843 429.6 253.365 427.975 255.6 426C257.409 424.328 259.053 422.486 260.51 420.5C261.633 419.011 262.659 417.451 263.58 415.83C264.165 414.81 264.693 413.759 265.16 412.68C265.32 412.31 265.42 412.01 265.5 411.82C265.53 411.718 265.573 411.62 265.63 411.53Z" fill="#263238"/>
<path d="M188.26 450.16C188.26 450.24 187.12 450.66 185.34 451.56C183.03 452.737 180.874 454.194 178.92 455.9C176.98 457.624 175.257 459.578 173.79 461.72C172.68 463.37 172.11 464.48 172.03 464.44C172.091 464.152 172.196 463.876 172.34 463.62C172.678 462.898 173.059 462.197 173.48 461.52C176.281 457.012 180.352 453.432 185.18 451.23C185.903 450.893 186.648 450.606 187.41 450.37C187.68 450.252 187.967 450.181 188.26 450.16Z" fill="#263238"/>
<path d="M166.56 411.53C216.564 411.53 257.1 404.631 257.1 396.12C257.1 387.609 216.564 380.71 166.56 380.71C116.556 380.71 76.02 387.609 76.02 396.12C76.02 404.631 116.556 411.53 166.56 411.53Z" fill="#E0E0E0"/>
<path d="M257.1 396.12C257.066 395.801 256.999 395.486 256.9 395.18C256.526 394.305 255.921 393.548 255.15 392.99C253.15 391.42 249.76 389.92 245.21 388.58C236.08 385.9 222.42 383.74 205.47 382.38C185.596 380.885 165.653 380.551 145.74 381.38C134.51 381.85 122.74 382.67 110.59 384.28C104.421 385.073 98.2961 386.182 92.24 387.6C89.1506 388.321 86.1163 389.26 83.16 390.41C81.6781 390.987 80.2577 391.71 78.92 392.57C78.2585 392.995 77.6594 393.51 77.14 394.1C76.6319 394.648 76.3282 395.354 76.28 396.1C76.3222 396.845 76.6228 397.552 77.13 398.1C77.6481 398.688 78.2435 399.202 78.9 399.63C80.2387 400.497 81.6628 401.224 83.15 401.8C86.1095 402.941 89.1432 403.88 92.23 404.61C98.2849 406.052 104.41 407.184 110.58 408C122.71 409.62 134.5 410.44 145.74 410.91C165.652 411.74 185.596 411.406 205.47 409.91C222.42 408.55 236.08 406.39 245.21 403.71C249.77 402.37 253.21 400.87 255.15 399.3C255.918 398.743 256.523 397.99 256.9 397.12C256.998 396.814 257.065 396.499 257.1 396.18V396.42C257.08 396.662 257.03 396.901 256.95 397.13C256.591 398.025 255.993 398.803 255.22 399.38C253.27 400.99 249.83 402.53 245.27 403.9C236.13 406.65 222.47 408.9 205.5 410.28C185.613 411.839 165.651 412.216 145.72 411.41C134.47 410.96 122.72 410.15 110.51 408.54C104.323 407.747 98.182 406.636 92.11 405.21C89.0103 404.458 85.9663 403.493 83 402.32C81.4817 401.729 80.0276 400.985 78.66 400.1C77.9614 399.646 77.3288 399.097 76.78 398.47C76.4692 398.161 76.2225 397.793 76.0542 397.388C75.886 396.983 75.7993 396.549 75.7993 396.11C75.7993 395.671 75.886 395.237 76.0542 394.832C76.2225 394.427 76.4692 394.059 76.78 393.75C77.3265 393.121 77.9595 392.572 78.66 392.12C80.0256 391.234 81.4802 390.493 83 389.91C85.9787 388.75 89.0365 387.804 92.15 387.08C98.2211 385.653 104.363 384.545 110.55 383.76C122.7 382.15 134.55 381.33 145.75 380.88C165.671 380.071 185.623 380.445 205.5 382C222.5 383.4 236.13 385.62 245.27 388.37C249.82 389.74 253.27 391.28 255.22 392.89C255.993 393.467 256.591 394.245 256.95 395.14C257.03 395.37 257.08 395.608 257.1 395.85V396.12Z" fill="#263238"/>
<path d="M195.43 387.65C195.535 388.005 195.599 388.37 195.62 388.74C195.684 389.17 195.718 389.605 195.72 390.04C195.76 390.619 195.76 391.201 195.72 391.78C195.642 393.284 195.404 394.776 195.01 396.23C194.515 398.009 193.821 399.727 192.94 401.35C191.325 404.298 189.155 406.906 186.55 409.03C185.772 409.675 184.95 410.267 184.09 410.8C183.779 411.015 183.443 411.193 183.09 411.33C183.03 411.24 184.38 410.41 186.3 408.75C188.78 406.579 190.865 403.994 192.46 401.11C193.32 399.519 194.014 397.843 194.53 396.11C194.933 394.688 195.204 393.232 195.34 391.76C195.55 389.23 195.32 387.66 195.43 387.65Z" fill="#263238"/>
<path d="M205.73 388.53C205.767 388.825 205.767 389.124 205.73 389.42C205.727 389.754 205.703 390.088 205.66 390.42C205.625 390.88 205.562 391.338 205.47 391.79C204.979 394.421 203.98 396.931 202.53 399.18C201.093 401.428 199.288 403.42 197.19 405.07C196.553 405.568 195.885 406.025 195.19 406.44C194.949 406.615 194.682 406.753 194.4 406.85C194.35 406.77 195.4 406.09 196.94 404.78C198.927 403.08 200.655 401.099 202.07 398.9C203.474 396.693 204.489 394.261 205.07 391.71C205.59 389.78 205.63 388.52 205.73 388.53Z" fill="#263238"/>
<path d="M290.77 366L270.61 467.4H340.54L351.12 419.23L358.12 467.4H428.39C428.39 467.4 430.08 355.72 408 323.37L290.77 366Z" fill="#263238"/>
<path d="M242 110.06L269.84 176.06L232.17 211.35C229.6 206.72 221.01 188.14 221.01 188.14C221.01 188.14 202.77 193.74 194.33 176.89C190.23 168.71 183.15 151.12 176.94 135.2C173.631 126.706 173.78 117.254 177.353 108.867C180.927 100.481 187.641 93.8273 196.06 90.33C200.364 88.5404 204.984 87.6324 209.645 87.6595C214.307 87.6867 218.915 88.6485 223.199 90.488C227.482 92.3276 231.353 95.0075 234.582 98.3692C237.811 101.731 240.334 105.706 242 110.06Z" fill="#FFBE9D"/>
<path d="M221 188.21C221 188.21 232.13 183.87 240 171.21C240 171.21 240.7 185.95 223.05 192.64L221 188.21Z" fill="#EB996E"/>
<path d="M187.92 145.17C188.22 145.804 188.756 146.296 189.413 146.541C190.071 146.786 190.798 146.764 191.44 146.48C191.76 146.356 192.052 146.169 192.298 145.93C192.545 145.691 192.741 145.405 192.875 145.089C193.009 144.773 193.079 144.433 193.08 144.09C193.08 143.747 193.012 143.407 192.88 143.09C192.58 142.456 192.044 141.964 191.386 141.719C190.728 141.474 190.001 141.496 189.36 141.78C189.039 141.903 188.746 142.09 188.499 142.328C188.251 142.567 188.054 142.853 187.92 143.169C187.786 143.486 187.716 143.826 187.716 144.17C187.716 144.513 187.785 144.854 187.92 145.17Z" fill="#263238"/>
<path d="M184.85 142.27C185.3 142.44 186.48 140.19 189.09 138.94C191.7 137.69 194.24 138.05 194.36 137.6C194.44 137.39 193.85 136.97 192.73 136.77C191.222 136.53 189.676 136.768 188.31 137.45C186.949 138.098 185.834 139.167 185.13 140.5C184.63 141.5 184.63 142.2 184.85 142.27Z" fill="#263238"/>
<path d="M213.07 134.3C213.371 134.932 213.908 135.422 214.566 135.665C215.223 135.908 215.949 135.884 216.59 135.6C216.911 135.477 217.203 135.29 217.451 135.052C217.698 134.813 217.895 134.527 218.029 134.211C218.164 133.894 218.233 133.554 218.233 133.21C218.233 132.867 218.164 132.526 218.03 132.21C217.73 131.576 217.194 131.084 216.536 130.839C215.878 130.594 215.151 130.616 214.51 130.9C214.189 131.025 213.897 131.213 213.65 131.453C213.404 131.693 213.208 131.98 213.073 132.297C212.939 132.613 212.87 132.954 212.869 133.298C212.868 133.642 212.937 133.983 213.07 134.3Z" fill="#263238"/>
<path d="M210.69 130.32C211.15 130.49 212.32 128.25 214.93 126.99C217.54 125.73 220.08 126.11 220.21 125.65C220.28 125.44 219.7 125.02 218.57 124.82C217.062 124.581 215.516 124.818 214.15 125.5C212.796 126.158 211.683 127.225 210.97 128.55C210.47 129.55 210.48 130.25 210.69 130.32Z" fill="#263238"/>
<path d="M210.62 154.23C210.56 154.08 208.8 154.59 206.02 155.52C205.32 155.78 204.63 155.95 204.29 155.52C203.899 154.863 203.721 154.102 203.78 153.34C203.62 151.42 203.46 149.42 203.29 147.34C202.52 138.8 201.61 131.91 201.29 131.94C200.97 131.97 201.29 138.94 202.06 147.46C202.27 149.56 202.46 151.56 202.65 153.46C202.623 154.467 202.952 155.452 203.58 156.24C203.789 156.427 204.039 156.564 204.309 156.64C204.579 156.716 204.863 156.73 205.14 156.68C205.557 156.6 205.964 156.469 206.35 156.29C209 155.17 210.68 154.39 210.62 154.23Z" fill="#263238"/>
<path d="M219.16 152.31C218.72 152.49 220.09 155.31 218.65 158.51C217.21 161.71 214.04 162.84 214.21 163.24C214.21 163.44 215.15 163.47 216.44 162.88C218.107 162.102 219.446 160.76 220.22 159.09C220.959 157.483 221.048 155.652 220.47 153.98C220 152.75 219.35 152.2 219.16 152.31Z" fill="#263238"/>
<path d="M205.06 120.44C205.66 121.03 208.06 119.44 211.34 118.31C214.62 117.18 217.45 116.83 217.54 116C217.54 115.61 216.82 115.15 215.54 115C213.804 114.802 212.045 115.004 210.399 115.59C208.752 116.176 207.261 117.13 206.04 118.38C205.08 119.33 204.79 120.16 205.06 120.44Z" fill="#263238"/>
<path d="M182.15 134.27C182.89 134.64 184.39 133.15 186.53 132.08C188.67 131.01 190.71 130.54 190.83 129.71C190.83 129.32 190.29 128.87 189.22 128.71C187.821 128.558 186.408 128.826 185.161 129.479C183.914 130.133 182.891 131.143 182.22 132.38C181.76 133.35 181.81 134.08 182.15 134.27Z" fill="#263238"/>
<path d="M214.71 100.69H214.84C218.575 101.507 221.85 103.735 223.98 106.91C224.06 107.02 224.13 107.13 224.19 107.23C227.19 111.74 229.47 116.72 232.53 121.23C235.59 125.74 239.64 129.81 244.83 131.41C246.96 132.06 250.01 131.74 250.44 129.55C250.544 128.675 250.391 127.789 250 127C245.23 114.89 243.39 103 237.44 90.7899C236.653 89.153 235.486 87.7275 234.037 86.6318C232.589 85.5361 230.899 84.8018 229.11 84.4899C225.66 83.8999 221.62 83.4899 219.43 86.2299C217.24 88.9699 216.11 96.0999 215 99.4299" fill="#263238"/>
<path d="M240.15 120.79C240.38 120.52 250.15 111.69 255.38 123.46C260.61 135.23 247.74 138.08 247.57 137.75C247.4 137.42 240.15 120.79 240.15 120.79Z" fill="#FFBE9D"/>
<path d="M249.17 131.68C249.17 131.62 249.44 131.68 249.86 131.74C250.437 131.727 250.988 131.495 251.4 131.09C252.4 130.09 252.61 127.63 251.72 125.49C251.3 124.465 250.654 123.549 249.83 122.81C249.556 122.491 249.21 122.244 248.82 122.089C248.429 121.933 248.007 121.876 247.59 121.92C247.319 121.953 247.069 122.083 246.886 122.285C246.702 122.486 246.597 122.747 246.59 123.02C246.59 123.42 246.76 123.63 246.7 123.67C246.64 123.71 246.36 123.59 246.24 123.06C246.175 122.741 246.221 122.409 246.37 122.12C246.586 121.731 246.944 121.44 247.37 121.31C247.902 121.184 248.459 121.197 248.984 121.35C249.51 121.502 249.987 121.788 250.37 122.18C251.33 122.987 252.079 124.017 252.55 125.18C253.55 127.59 253.31 130.35 251.83 131.6C251.554 131.827 251.233 131.992 250.888 132.083C250.542 132.175 250.182 132.191 249.83 132.13C249.32 132 249.14 131.72 249.17 131.68Z" fill="#EB996E"/>
<path d="M222.74 89.1399C224.27 83.2899 213.8 78.7399 207.13 78.6799C200.46 78.6199 193.36 84.0299 187.92 87.8799C184.49 90.3099 181.22 93.2399 177.15 94.2999C174.379 94.8504 171.54 94.9819 168.73 94.6899C165.914 94.4071 163.071 94.6963 160.37 95.5399C157.74 96.5399 155.37 98.8199 155.14 101.63C154.91 104.44 157.39 107.42 160.14 106.97C156.14 106.14 151.97 110.11 152.59 114.13C153.21 118.15 158.39 120.67 161.94 118.68C159.79 117.88 157.77 120.9 158.65 123.02C159.53 125.14 162.01 126.13 164.29 126.4C170.11 127.09 175.89 124.54 180.66 121.13C185.43 117.72 189.51 113.42 194.2 109.89C198.89 106.36 206.67 100.22 212.53 100.47C216.84 100.65 220.99 104.47 222.87 102.81C223.738 101.938 224.39 100.876 224.774 99.7073C225.158 98.5386 225.262 97.2964 225.08 96.0799C224.663 93.6542 223.859 91.311 222.7 89.1399" fill="#263238"/>
<path d="M161.17 107.56C161.17 107.56 161 107.77 160.74 108.19C160.369 108.791 160.174 109.484 160.18 110.19C160.199 111.517 160.697 112.793 161.583 113.782C162.469 114.771 163.682 115.406 165 115.57C166.82 115.796 168.669 115.541 170.36 114.83C172.311 114.004 174.128 112.892 175.75 111.53C179.22 108.68 182.16 104.64 185.28 100.47C188.4 96.2999 191.8 92.4699 195.79 90.1799C197.661 89.0707 199.729 88.3339 201.88 88.0099C203.75 87.7349 205.654 87.8027 207.5 88.2099C210.18 88.7688 212.677 89.993 214.76 91.7699C215.518 92.4105 216.19 93.1467 216.76 93.9599C216.71 93.9599 216.07 93.1399 214.6 91.9599C212.51 90.2769 210.043 89.1272 207.41 88.6099C205.602 88.2394 203.744 88.192 201.92 88.4699C199.833 88.8116 197.831 89.5481 196.02 90.6399C192.14 92.9099 188.81 96.6399 185.69 100.82C182.57 105 179.6 109.05 176.04 111.94C174.374 113.326 172.505 114.449 170.5 115.27C168.731 115.992 166.802 116.234 164.91 115.97C164.087 115.829 163.297 115.538 162.58 115.11C161.945 114.714 161.4 114.189 160.98 113.57C160.296 112.589 159.946 111.415 159.98 110.22C159.984 109.465 160.218 108.729 160.65 108.11C160.794 107.901 160.969 107.715 161.17 107.56Z" fill="#455A64"/>
<path d="M200.47 83.65C200.47 83.65 200.72 83.48 201.22 83.29C201.941 83.0462 202.685 82.8753 203.44 82.78C205.961 82.4453 208.525 82.8848 210.792 84.0402C213.058 85.1957 214.919 87.0126 216.13 89.25C216.497 89.9145 216.795 90.6148 217.02 91.34C217.123 91.6012 217.177 91.8792 217.18 92.16C217.09 92.16 216.78 91.04 215.81 89.44C214.537 87.352 212.718 85.6509 210.55 84.52C208.363 83.4248 205.917 82.9542 203.48 83.16C201.61 83.31 200.49 83.74 200.47 83.65Z" fill="#455A64"/>
<path d="M241.84 101.84C241.616 102.132 241.324 102.366 240.99 102.52C240.095 102.996 239.078 103.194 238.07 103.09C236.574 102.948 235.156 102.359 234 101.4C232.632 100.222 231.416 98.878 230.38 97.3999C229.365 95.9682 228.179 94.6653 226.85 93.5199C225.753 92.6175 224.413 92.0607 223 91.9199C222.048 91.8129 221.086 91.9721 220.22 92.3799C219.61 92.6799 219.33 92.9499 219.3 92.9099C219.27 92.8699 219.52 92.5699 220.12 92.1899C221.002 91.6953 222.011 91.4726 223.02 91.5499C224.523 91.6496 225.959 92.212 227.13 93.1599C228.517 94.3041 229.745 95.6293 230.78 97.0999C231.796 98.5334 232.974 99.8453 234.29 101.01C235.363 101.935 236.684 102.526 238.09 102.71C239.036 102.838 240 102.71 240.88 102.34C241.52 102.06 241.81 101.8 241.84 101.84Z" fill="#455A64"/>
<path d="M244.57 109.93C244.57 109.93 244.5 110.02 244.32 110.14C244.059 110.312 243.789 110.469 243.51 110.61C242.485 111.142 241.386 111.516 240.25 111.72C236.437 112.385 232.514 111.6 229.25 109.52C226.048 107.445 223.412 104.607 221.58 101.26C221.303 100.687 220.968 100.144 220.58 99.6399C220.283 99.2771 219.887 99.0093 219.44 98.8699C219.05 98.7633 218.637 98.7843 218.26 98.9299C218.26 98.9299 218.62 98.5099 219.49 98.6699C219.996 98.7832 220.454 99.0525 220.8 99.4399C221.231 99.941 221.607 100.488 221.92 101.07C223.801 104.294 226.411 107.034 229.54 109.07C232.693 111.075 236.46 111.887 240.16 111.36C241.686 111.078 243.168 110.597 244.57 109.93Z" fill="#455A64"/>
<path d="M351.45 218.89C336 201.19 313.07 179.68 292.67 176C288.55 175.26 276.47 175.67 272.88 175.82L268.47 169.1C268.322 168.852 268.121 168.638 267.883 168.475C267.644 168.311 267.373 168.202 267.087 168.153C266.802 168.105 266.51 168.119 266.231 168.194C265.951 168.269 265.692 168.405 265.47 168.59L226.27 198.3C225.804 198.652 225.477 199.156 225.346 199.724C225.214 200.293 225.286 200.889 225.55 201.41L227.21 204.68L224.06 216.68C222.167 223.895 221.86 231.435 223.16 238.781C224.46 246.126 227.336 253.102 231.59 259.23L289.83 343.15L290.83 365.39C297.94 370.05 347.65 379.39 369.28 372.6C388.03 366.69 408.49 340.82 413.61 334.02C413.978 333.532 414.204 332.951 414.262 332.342C414.321 331.733 414.209 331.119 413.94 330.57C407.61 317.62 368.86 238.84 351.45 218.89Z" fill="#E91E63"/>
<path d="M157.14 339.2L207.52 299.8C207.52 299.8 213.13 227.44 213.52 225.92C216.4 215.12 229.67 201.43 229.67 201.43L254.04 279.84L253.3 297.63C252.895 308.431 248.857 318.779 241.84 327L241.61 327.27C237.785 331.647 233.189 335.284 228.05 338L176.32 365.5L157.14 339.2Z" fill="#E91E63"/>
<path d="M287.65 338.08C287.581 338.015 287.517 337.945 287.46 337.87L286.96 337.25L285.05 334.81C283.39 332.7 281.05 329.56 278.25 325.68C272.6 317.91 265.06 306.98 256.93 294.78C248.8 282.58 241.61 271.42 236.45 263.31L230.45 253.68L228.78 251C228.62 250.72 228.48 250.49 228.37 250.31C228.318 250.233 228.277 250.149 228.25 250.06C228.25 250.06 228.31 250.13 228.42 250.28L228.87 250.94L230.57 253.53L236.76 263.07C242 271.13 249.24 282.25 257.37 294.45C265.5 306.65 272.98 317.6 278.55 325.45C281.35 329.35 283.6 332.52 285.21 334.67L287.04 337.16L287.5 337.82C287.613 337.987 287.663 338.073 287.65 338.08Z" fill="#263238"/>
<path d="M278.38 194L274.26 303.6L191.26 343.53L198.26 368.87C198.26 368.87 242.26 367.69 279.26 356.06C292.27 351.964 303.762 344.08 312.266 333.416C320.77 322.753 325.9 309.795 327 296.2C329.69 262.87 333.09 220 333 217.31C332.78 212.89 295.87 187.6 278.38 194Z" fill="#E91E63"/>
<path d="M292.05 183.43L291.11 183.55C290.724 183.579 290.34 183.629 289.96 183.7L288.4 184.1C285.032 185.379 282.24 187.833 280.54 191.01C278.18 195.01 276.54 200.66 275.63 207.29C274.675 214.865 274.484 222.516 275.06 230.13C274.9 250.26 274.71 275.23 274.49 303.59V303.74L274.36 303.8L191.67 342.9L191.81 342.6C193.4 348.9 195.1 355.6 196.81 362.38C197.36 364.58 197.92 366.78 198.43 368.82L198.17 368.62C213.885 367.962 229.545 366.336 245.06 363.75C252.57 362.52 259.89 360.96 266.98 359.22L272.26 357.85L277.44 356.33C279.17 355.87 280.82 355.22 282.44 354.64C284.089 354.056 285.708 353.388 287.29 352.64C299.319 347.077 309.466 338.129 316.49 326.89C319.68 321.825 322.204 316.37 324 310.66C325.58 305.39 326.566 299.959 326.94 294.47C328.68 273.47 330.08 256.54 331.05 244.82C331.52 238.97 331.88 234.43 332.12 231.34C332.23 229.81 332.31 228.64 332.36 227.84C332.36 227.44 332.36 227.15 332.36 226.95C332.36 226.75 332.36 226.64 332.36 226.64C332.36 226.64 332.36 227.05 332.36 227.84C332.36 228.63 332.27 229.84 332.18 231.35C331.98 234.43 331.65 238.98 331.18 244.84C330.25 256.56 328.9 273.51 327.23 294.5C326.866 300.018 325.887 305.479 324.31 310.78C322.534 316.516 320.03 322 316.86 327.1C309.81 338.437 299.607 347.473 287.5 353.1C285.89 353.79 284.31 354.59 282.62 355.1C280.93 355.61 279.28 356.34 277.55 356.81L272.36 358.33C270.613 358.79 268.85 359.246 267.07 359.7C259.96 361.46 252.64 363.02 245.07 364.26C229.519 366.86 213.823 368.493 198.07 369.15H198V368.94C197.49 366.94 196.93 364.71 196.37 362.5L191.37 342.73L191.32 342.52L191.51 342.43L274.22 303.43L274.09 303.64C274.36 275.27 274.6 250.31 274.79 230.17C274.232 222.531 274.45 214.855 275.44 207.26C276.37 200.62 278.04 194.99 280.44 190.93C282.173 187.727 285.019 185.269 288.44 184.02L290.02 183.64C290.47 183.55 290.87 183.55 291.18 183.51L292.05 183.43Z" fill="#263238"/>
<path d="M353.49 316.94C353.071 317.259 352.626 317.543 352.16 317.79C351.28 318.31 349.98 319.02 348.37 319.87C344.138 322.049 339.78 323.976 335.32 325.64C330.857 327.296 326.299 328.682 321.67 329.79C319.9 330.21 318.45 330.51 317.45 330.69C316.933 330.806 316.408 330.883 315.88 330.92C316.371 330.727 316.88 330.583 317.4 330.49C318.4 330.25 319.82 329.89 321.58 329.43C325.11 328.51 329.93 327.08 335.14 325.15C340.35 323.22 344.93 321.15 348.2 319.54C349.84 318.74 351.15 318.08 352.06 317.61C352.516 317.345 352.994 317.121 353.49 316.94Z" fill="#263238"/>
<path d="M372.54 336.48C372.355 336.661 372.154 336.825 371.94 336.97L370.15 338.28L368.84 339.22C368.36 339.54 367.84 339.87 367.22 340.22C366.05 340.92 364.75 341.8 363.22 342.56L360.82 343.81C359.98 344.24 359.06 344.6 358.14 345.02C356.3 345.89 354.25 346.59 352.14 347.37C347.431 348.91 342.591 350.018 337.68 350.68C332.756 351.269 327.788 351.403 322.84 351.08C320.57 350.86 318.41 350.7 316.41 350.31C315.41 350.13 314.41 350.01 313.51 349.81L310.88 349.19C309.18 348.85 307.71 348.32 306.4 347.93C305.74 347.72 305.13 347.55 304.58 347.35L303.08 346.77L301 346C300.758 345.905 300.521 345.798 300.29 345.68C300.547 345.728 300.798 345.802 301.04 345.9L303.13 346.63L304.63 347.17C305.19 347.35 305.81 347.51 306.46 347.7C307.78 348.06 309.25 348.56 310.94 348.88L313.57 349.46C314.49 349.66 315.46 349.77 316.46 349.93C318.46 350.3 320.6 350.44 322.86 350.65C332.711 351.317 342.597 350.064 351.97 346.96C354.1 346.2 356.15 345.52 357.97 344.67C358.89 344.26 359.8 343.92 360.64 343.5L363.05 342.28C364.6 341.55 365.91 340.7 367.05 340.02C367.64 339.67 368.19 339.36 368.69 339.02L370.01 338.12L371.85 336.89C372.071 336.739 372.301 336.602 372.54 336.48Z" fill="#263238"/>
<path d="M272.86 176.81C272.86 176.81 272.86 176.86 272.91 176.96C272.952 177.11 272.975 177.264 272.98 177.42C273.035 178.02 272.991 178.625 272.85 179.21C272.621 180.134 272.239 181.012 271.72 181.81C271.024 182.85 270.234 183.824 269.36 184.72C268.319 185.789 267.381 186.954 266.56 188.2C265.665 189.665 264.851 191.177 264.12 192.73C263.3 194.476 262.333 196.148 261.23 197.73C260.011 199.401 258.612 200.933 257.06 202.3C254.045 204.951 250.479 206.898 246.62 208C243.474 208.88 240.193 209.175 236.94 208.87C234.757 208.682 232.607 208.218 230.54 207.49C229.81 207.22 229.26 207 228.89 206.82C228.694 206.75 228.509 206.652 228.34 206.53C228.34 206.53 229.14 206.83 230.6 207.3C232.671 207.943 234.808 208.349 236.97 208.51C240.532 208.788 244.114 208.35 247.504 207.222C250.895 206.094 254.025 204.298 256.71 201.94C258.234 200.599 259.609 199.097 260.81 197.46C261.903 195.912 262.866 194.277 263.69 192.57C264.436 190.999 265.274 189.473 266.2 188C267.047 186.745 268.015 185.576 269.09 184.51C269.963 183.637 270.762 182.694 271.48 181.69C271.999 180.927 272.394 180.087 272.65 179.2C272.851 178.42 272.922 177.613 272.86 176.81Z" fill="#263238"/>
<g opacity="0.3">
<path opacity="0.3" d="M230.85 208C235.915 210.728 241.597 212.106 247.35 212C253.136 211.863 258.645 209.49 262.72 205.38C267.14 200.68 269.02 193.89 273.92 189.68C275.47 188.35 277.47 186.96 277.41 184.92C277.332 184.15 277.003 183.427 276.473 182.863C275.944 182.3 275.243 181.926 274.48 181.8C272.96 181.51 271.11 183.1 269.83 183.97C265.47 186.91 264.68 191.7 262.17 196.33C259.225 201.57 254.405 205.5 248.68 207.33C242.972 209.113 236.853 209.089 231.16 207.26" fill="black"/>
</g>
<g opacity="0.3">
<path opacity="0.3" d="M289.92 351.93C294.5 353.77 299.62 351.72 304.12 349.69C304.12 349.69 320.22 343.19 328.37 320.69C332.14 310.26 335.48 299.58 335.48 288.49C335.322 277.372 333.474 266.342 330 255.78C326.62 275.45 330.33 295.86 322.47 315.26C316.059 330.895 304.386 343.799 289.47 351.74" fill="black"/>
</g>
<path opacity="0.3" d="M232.71 257.12L250.8 311.25C250.8 311.25 255.8 299.6 253.65 289.38L232.71 257.12Z" fill="black"/>
<g opacity="0.3">
<path opacity="0.3" d="M309.86 348.9C318.07 353.39 327.16 354.5 336.52 354.28C345.905 353.883 355.174 352.045 364 348.83C366.57 347.94 369.42 346.69 370.3 344.12C370.532 343.597 370.587 343.013 370.455 342.456C370.323 341.9 370.012 341.402 369.57 341.04C368.66 340.46 367.46 340.82 366.44 341.21C355.36 345.44 344.32 350.73 332.44 351.21C324.843 351.548 317.237 350.763 309.87 348.88" fill="black"/>
</g>
<path d="M269.58 172.89C269.519 173.068 269.438 173.239 269.34 173.4C269.14 173.78 268.88 174.25 268.56 174.83C267.87 176.06 266.86 177.83 265.56 179.99C264.26 182.15 262.61 184.67 260.56 187.34C258.39 190.264 255.913 192.946 253.17 195.34C250.399 197.714 247.275 199.641 243.91 201.05C241.16 202.203 238.243 202.906 235.27 203.13C233.261 203.277 231.241 203.142 229.27 202.73C228.739 202.62 228.214 202.48 227.7 202.31C227.513 202.268 227.332 202.204 227.16 202.12C229.798 202.74 232.516 202.956 235.22 202.76C238.141 202.49 241.003 201.765 243.7 200.61C247.005 199.195 250.077 197.287 252.81 194.95C258.62 189.95 262.48 184.02 265.2 179.81C266.55 177.69 267.61 175.94 268.35 174.74L269.21 173.37C269.313 173.196 269.438 173.034 269.58 172.89Z" fill="#FAFAFA"/>
<path d="M272.63 213.83C272.516 213.967 272.385 214.088 272.24 214.19L271.06 215.14C270.06 215.97 268.49 217.14 266.55 218.43C264.61 219.72 262.24 221.28 259.55 222.85C256.86 224.42 253.81 225.99 250.55 227.49C247.29 228.99 244.08 230.24 241.14 231.27C238.2 232.3 235.5 233.1 233.22 233.69C230.94 234.28 229.08 234.69 227.78 234.94L226.29 235.21C226.117 235.257 225.938 235.277 225.76 235.27C225.922 235.195 226.094 235.141 226.27 235.11L227.74 234.74C229.02 234.44 230.86 233.97 233.12 233.33C235.38 232.69 238.05 231.86 240.98 230.82C243.91 229.78 247.07 228.5 250.33 227.02C253.59 225.54 256.61 223.95 259.33 222.43C262.05 220.91 264.41 219.43 266.33 218.13C268.25 216.83 269.85 215.75 270.92 214.98L272.16 214.11C272.303 213.996 272.461 213.901 272.63 213.83Z" fill="#FAFAFA"/>
<path d="M274.82 259.72C274.464 260.02 274.079 260.285 273.67 260.51C272.91 261 271.79 261.64 270.37 262.4C262.927 266.293 254.814 268.743 246.46 269.62C244.86 269.78 243.56 269.86 242.67 269.87C242.205 269.917 241.735 269.917 241.27 269.87C241.724 269.768 242.185 269.707 242.65 269.69C243.54 269.62 244.83 269.48 246.42 269.27C254.69 268.213 262.727 265.787 270.2 262.09C271.63 261.38 272.78 260.78 273.57 260.35C273.965 260.098 274.383 259.887 274.82 259.72Z" fill="#FAFAFA"/>
<path d="M330.47 241.34C330.291 241.268 330.12 241.178 329.96 241.07L328.56 240.2L327.56 239.57C327.19 239.35 326.77 239.13 326.33 238.88C325.43 238.41 324.45 237.81 323.28 237.29L321.47 236.43C320.84 236.14 320.16 235.89 319.47 235.61C318.09 235.01 316.56 234.53 314.97 234C307.973 231.833 300.637 230.979 293.33 231.48C291.65 231.64 290.06 231.75 288.58 232.02C287.84 232.14 287.12 232.22 286.44 232.37L284.44 232.79C283.19 233.02 282.09 233.38 281.11 233.64C280.63 233.78 280.17 233.89 279.75 234.03L278.63 234.41L277.07 234.93C276.888 234.996 276.7 235.046 276.51 235.08C276.671 234.974 276.846 234.89 277.03 234.83L278.56 234.22L279.68 233.79C280.09 233.64 280.54 233.52 281.03 233.36C282.03 233.07 283.1 232.69 284.36 232.43L286.36 231.97C287.05 231.82 287.77 231.73 288.51 231.59C290 231.31 291.61 231.18 293.3 231.01C300.665 230.438 308.071 231.298 315.11 233.54C316.72 234.09 318.25 234.59 319.63 235.21C320.33 235.5 321.01 235.76 321.63 236.07L323.43 236.96C324.6 237.5 325.58 238.13 326.43 238.63C326.87 238.89 327.29 239.12 327.65 239.36L328.65 240.03C329.19 240.42 329.65 240.73 330 240.98C330.171 241.079 330.329 241.2 330.47 241.34Z" fill="#FAFAFA"/>
<path d="M323.93 311.86C323.93 311.86 323.52 311.17 322.77 309.93C321.708 308.192 320.49 306.555 319.13 305.04C314.557 300.088 308.932 296.223 302.67 293.73C296.393 291.28 289.877 289.49 283.23 288.39L277.23 287.31L275.59 287.01C275.394 286.983 275.203 286.932 275.02 286.86C275.216 286.844 275.413 286.844 275.61 286.86L277.26 287.07C278.7 287.26 280.78 287.56 283.33 287.99C290.032 288.985 296.601 290.736 302.91 293.21C309.242 295.724 314.904 299.675 319.45 304.75C320.796 306.293 321.982 307.968 322.99 309.75C323.36 310.37 323.58 310.9 323.75 311.24C323.841 311.436 323.902 311.645 323.93 311.86Z" fill="#FAFAFA"/>
<path d="M269.69 357.56C269.69 357.56 269.59 357.43 269.45 357.15C269.31 356.87 269.11 356.41 268.88 355.92C268.39 354.85 267.71 353.29 266.88 351.34C265.29 347.44 263.26 341.98 261.39 335.84C259.52 329.7 258.14 324.03 257.29 319.91C256.86 317.85 256.54 316.17 256.36 315.01C256.27 314.48 256.2 314.01 256.15 313.67C256.121 313.515 256.121 313.356 256.15 313.2C256.216 313.343 256.263 313.495 256.29 313.65L256.59 314.97L257.69 319.83C258.63 323.92 260.06 329.55 261.92 335.68C263.78 341.81 265.76 347.28 267.26 351.2L269.07 355.84L269.55 357.11C269.61 357.256 269.657 357.406 269.69 357.56Z" fill="#FAFAFA"/>
<path d="M223 368.42C222.679 368.062 222.395 367.674 222.15 367.26C221.63 366.49 220.92 365.35 220.15 363.9C215.931 356.304 213.311 347.926 212.45 339.28C212.29 337.63 212.22 336.28 212.21 335.36C212.161 334.878 212.161 334.392 212.21 333.91C212.305 334.385 212.362 334.866 212.38 335.35C212.44 336.27 212.57 337.6 212.78 339.24C213.821 347.797 216.414 356.093 220.43 363.72C221.2 365.19 221.85 366.36 222.32 367.15C222.587 367.55 222.815 367.976 223 368.42Z" fill="#FAFAFA"/>
<path d="M218.05 327.29C217.96 327.29 217.63 325.76 216.73 323.4C216.2 322.026 215.579 320.69 214.87 319.4C213.137 316.205 210.879 313.325 208.19 310.88C207.096 309.887 205.941 308.965 204.73 308.12C202.64 306.68 201.22 305.99 201.26 305.9C201.609 306.003 201.945 306.147 202.26 306.33C203.173 306.761 204.055 307.255 204.9 307.81C206.166 308.621 207.366 309.53 208.49 310.53C211.254 312.973 213.549 315.901 215.26 319.17C215.96 320.498 216.555 321.879 217.04 323.3C217.382 324.253 217.656 325.228 217.86 326.22C217.971 326.566 218.035 326.926 218.05 327.29Z" fill="#FAFAFA"/>
<path d="M251.28 284.76C250.762 284.539 250.263 284.274 249.79 283.97C248.86 283.42 247.49 282.68 245.79 281.81C244.09 280.94 242 280 239.58 279C237.002 277.997 234.376 277.126 231.71 276.39C229.038 275.683 226.331 275.116 223.6 274.69C221.07 274.33 218.79 274.09 216.86 273.99C214.93 273.89 213.37 273.83 212.29 273.84C211.726 273.857 211.161 273.837 210.6 273.78C211.154 273.682 211.716 273.635 212.28 273.64C213.37 273.57 214.94 273.56 216.88 273.64C219.152 273.722 221.418 273.922 223.67 274.24C229.19 275.017 234.594 276.471 239.76 278.57C241.867 279.425 243.927 280.393 245.93 281.47C247.64 282.39 249 283.19 249.93 283.79C250.405 284.076 250.857 284.4 251.28 284.76Z" fill="#FAFAFA"/>
<path d="M220.83 230C219.684 229.956 218.536 230.012 217.4 230.17C216.304 230.493 215.239 230.914 214.22 231.43C214.972 230.461 216.074 229.826 217.29 229.66C218.469 229.313 219.738 229.434 220.83 230Z" fill="#FAFAFA"/>
<path d="M185.62 363C185.308 362.646 185.04 362.257 184.82 361.84L182.82 358.58C181.11 355.83 178.71 352.06 175.96 347.95C173.21 343.84 170.62 340.19 168.73 337.56L166.49 334.45C166.192 334.083 165.931 333.688 165.71 333.27C166.057 333.589 166.371 333.94 166.65 334.32C167.22 335.02 168.04 336.06 169.02 337.32C171.02 339.9 173.63 343.53 176.39 347.64C179.15 351.75 181.5 355.57 183.14 358.37C183.96 359.77 184.6 360.92 185.03 361.72C185.261 362.13 185.458 362.558 185.62 363Z" fill="#FAFAFA"/>
<path d="M332.55 218.7C332.55 218.7 332.43 218.03 332.23 216.84C331.954 215.149 331.567 213.479 331.07 211.84C329.474 206.409 326.641 201.423 322.792 197.272C318.944 193.122 314.185 189.92 308.89 187.92C307.292 187.301 305.655 186.79 303.99 186.39C302.81 186.1 302.15 185.97 302.15 185.93C302.312 185.904 302.478 185.904 302.64 185.93C302.96 185.93 303.43 186.03 304.03 186.16C305.731 186.485 307.403 186.946 309.03 187.54C314.43 189.476 319.285 192.681 323.187 196.885C327.088 201.09 329.922 206.171 331.45 211.7C331.918 213.364 332.252 215.063 332.45 216.78C332.53 217.38 332.55 217.86 332.57 218.18C332.593 218.353 332.586 218.529 332.55 218.7Z" fill="#FAFAFA"/>
<path d="M373 252.44C372.915 252.596 372.811 252.74 372.69 252.87L371.69 254.02C371.27 254.52 370.74 255.12 370.1 255.79C369.46 256.46 368.75 257.25 367.9 258.05C365.943 259.97 363.887 261.786 361.74 263.49C356.477 267.679 350.704 271.183 344.56 273.92C342.056 275.033 339.496 276.015 336.89 276.86C335.78 277.25 334.76 277.51 333.89 277.77C333.02 278.03 332.23 278.22 331.59 278.37L330.12 278.69C329.951 278.741 329.776 278.768 329.6 278.77C329.752 278.684 329.918 278.623 330.09 278.59L331.54 278.17C332.17 278 332.93 277.78 333.81 277.49C334.69 277.2 335.71 276.92 336.81 276.49C339.02 275.74 341.59 274.72 344.4 273.49C347.429 272.085 350.383 270.522 353.25 268.81C356.093 267.066 358.841 265.17 361.48 263.13C363.9 261.22 366 259.41 367.68 257.8C368.55 257.02 369.27 256.25 369.93 255.6C370.59 254.95 371.14 254.37 371.58 253.89L372.58 252.81C372.702 252.668 372.843 252.543 373 252.44Z" fill="#FAFAFA"/>
<path d="M391.44 291.38C391.44 291.38 391.44 291.47 391.35 291.63L391.03 292.33C390.74 292.94 390.35 293.86 389.74 295C388.08 298.231 386.195 301.342 384.1 304.31C381.01 308.734 377.493 312.843 373.6 316.58C364.059 325.81 352.419 332.584 339.68 336.32C334.506 337.86 329.194 338.891 323.82 339.4C320.205 339.752 316.569 339.852 312.94 339.7C311.65 339.7 310.66 339.55 309.99 339.51L309.22 339.44C309.131 339.437 309.043 339.421 308.96 339.39H309.22H309.99C310.67 339.39 311.66 339.49 312.99 339.49C316.61 339.559 320.23 339.402 323.83 339.02C329.169 338.467 334.443 337.405 339.58 335.85C360.985 329.281 378.946 314.554 389.58 294.85C390.22 293.74 390.63 292.85 390.96 292.24C391.1 291.96 391.22 291.74 391.32 291.56C391.354 291.496 391.394 291.436 391.44 291.38Z" fill="#FAFAFA"/>
<path d="M408.8 321.91C408.748 322.016 408.692 322.119 408.63 322.22L408.11 323.12C407.86 323.5 407.6 324.01 407.21 324.55L405.86 326.42C402.744 330.212 399.139 333.575 395.14 336.42C392.66 338.29 389.87 340.22 386.89 342.32C383.705 344.516 380.643 346.886 377.72 349.42C374.64 352.09 371.87 355.42 368.81 358.64C365.75 361.86 362.26 365.11 357.81 367.01C353.522 368.797 348.951 369.812 344.31 370.01C339.85 370.3 335.54 370.18 331.44 370.11C324.171 370.126 316.914 369.547 309.74 368.38C304.902 367.564 300.194 366.108 295.74 364.05L293.7 363C293.11 362.7 292.64 362.38 292.25 362.15L291.36 361.6C291.257 361.542 291.16 361.475 291.07 361.4C291.181 361.442 291.289 361.496 291.39 361.56L292.3 362.06C292.7 362.27 293.18 362.58 293.78 362.87L295.84 363.87C300.309 365.85 305.014 367.248 309.84 368.03C317.003 369.138 324.242 369.676 331.49 369.64C335.58 369.69 339.89 369.81 344.32 369.51C348.897 369.316 353.404 368.325 357.64 366.58C361.96 364.71 365.41 361.58 368.45 358.33C371.49 355.08 374.29 351.79 377.45 349.1C380.394 346.561 383.483 344.194 386.7 342.01C389.7 339.92 392.49 338.01 394.97 336.17C398.963 333.357 402.585 330.051 405.75 326.33L407.14 324.49C407.54 323.96 407.81 323.49 408.07 323.09C408.33 322.69 408.49 322.44 408.64 322.23C408.79 322.02 408.79 321.9 408.8 321.91Z" fill="#FAFAFA"/>
<path d="M121.61 396C122.596 396.765 123.828 397.142 125.073 397.061C126.319 396.98 127.491 396.446 128.37 395.56C129.132 396.431 129.523 397.565 129.46 398.72C129.392 399.857 129.456 400.998 129.65 402.12C129.755 402.683 130.03 403.2 130.438 403.602C130.845 404.004 131.366 404.272 131.93 404.37C132.425 404.366 132.91 404.223 133.329 403.958C133.747 403.693 134.084 403.316 134.3 402.87C134.712 401.966 134.95 400.992 135 400L135.69 394.3C136.18 395.11 136.87 396.02 137.81 395.96C138.96 395.89 139.47 394.47 139.53 393.31C139.59 392.15 139.6 390.79 140.53 390.15C140.77 391.02 142.11 391.15 142.77 390.5C143.351 389.792 143.628 388.882 143.54 387.97C143.444 387.062 143.56 386.145 143.88 385.29L134.53 385.94L121.61 396Z" fill="#FAFAFA"/>
<path d="M111.85 351C112.14 350.58 112.515 350.226 112.951 349.961C113.387 349.696 113.874 349.525 114.38 349.46C116 349.27 118.6 348.92 119.94 348.61C121.94 348.14 132.79 342.97 135.06 341.95C138.04 340.945 141.165 340.442 144.31 340.46C145.8 340.62 156.54 339.84 156.54 339.84L173.54 355.9C173.54 355.9 166.86 373.83 159 377.7C153.577 380.446 148.312 383.495 143.23 386.83L137.11 388C137.11 388 125.51 396.67 122.47 396.09C119.43 395.51 118.7 394.21 118.7 394.21C118.7 394.21 114.95 396.37 112.97 394.45C110.99 392.53 112.97 389.64 112.97 389.64C112.97 389.64 109.97 389.29 109.58 387.89C109.36 386.917 109.384 385.906 109.649 384.944C109.914 383.983 110.413 383.102 111.1 382.38C112.86 380.38 124.93 367.27 127.5 365.51C130.07 363.75 131.6 360.51 132.19 358.6C132.78 356.69 131.02 353.92 127.74 355.44C124.46 356.96 120.74 357.8 118.13 357.34C114.27 356.68 108.73 355.54 111.85 351Z" fill="#FFBE9D"/>
<path d="M142.64 376.65C142.187 376.606 141.736 376.54 141.29 376.45C140.12 376.308 138.934 376.449 137.83 376.86L137.61 376.94L137.53 376.74C137.003 375.22 135.906 373.965 134.47 373.24C133.643 372.903 132.725 372.861 131.87 373.12L131.42 373.27L131.54 372.82C131.762 371.938 131.724 371.01 131.43 370.15C131.18 369.445 130.844 368.773 130.43 368.15C130.161 367.742 129.87 367.348 129.56 366.97C129.434 366.841 129.317 366.704 129.21 366.56C129.21 366.49 129.91 366.94 130.68 367.97C131.149 368.578 131.526 369.252 131.8 369.97C132.179 370.935 132.249 371.993 132 373L131.67 372.7C132.648 372.368 133.713 372.4 134.67 372.79C135.521 373.157 136.258 373.748 136.8 374.5C137.282 375.145 137.669 375.855 137.95 376.61L137.65 376.49C138.833 376.067 140.109 375.977 141.34 376.23C141.797 376.279 142.24 376.422 142.64 376.65Z" fill="#EB996E"/>
<path d="M131.39 372.85C130.512 373.688 129.59 374.479 128.63 375.22C126.91 376.66 124.57 378.68 122.09 381.03C119.61 383.38 117.47 385.62 115.95 387.26C115.165 388.184 114.327 389.063 113.44 389.89C113.582 389.594 113.768 389.321 113.99 389.08C114.37 388.57 114.99 387.87 115.68 387.01C117.59 384.788 119.612 382.665 121.74 380.65C124.23 378.29 126.62 376.3 128.4 374.93C129.29 374.25 130.03 373.71 130.55 373.36C130.802 373.148 131.085 372.976 131.39 372.85Z" fill="#EB996E"/>
<path d="M138.19 376.89C137.96 377.14 137.697 377.359 137.41 377.54L135.18 379.18C133.29 380.55 130.68 382.44 127.87 384.63C125.43 386.428 123.151 388.436 121.06 390.63C120.263 391.594 119.56 392.632 118.96 393.73C119.001 393.378 119.114 393.038 119.29 392.73C119.689 391.886 120.19 391.094 120.78 390.37C122.809 388.08 125.079 386.015 127.55 384.21C130.37 382.01 133.02 380.16 134.97 378.87C135.97 378.22 136.74 377.71 137.29 377.37C137.569 377.173 137.871 377.012 138.19 376.89Z" fill="#EB996E"/>
<path d="M145.48 377.4C145.224 377.697 144.928 377.956 144.6 378.17C143.746 378.807 142.855 379.392 141.93 379.92C140.547 380.698 139.106 381.367 137.62 381.92C135.797 382.561 133.924 383.049 132.02 383.38C131.078 383.548 130.2 383.97 129.48 384.6C129.162 384.884 128.922 385.244 128.782 385.646C128.642 386.049 128.607 386.48 128.68 386.9C128.794 387.691 129.21 388.408 129.84 388.9C130.394 389.33 131.047 389.616 131.74 389.73C132.751 389.863 133.779 389.754 134.74 389.41C135.095 389.259 135.459 389.129 135.83 389.02C135.535 389.273 135.196 389.47 134.83 389.6C133.834 390.05 132.735 390.219 131.65 390.09C130.885 389.991 130.159 389.699 129.54 389.24C128.827 388.688 128.349 387.889 128.2 387C128.108 386.501 128.144 385.987 128.305 385.506C128.466 385.025 128.746 384.593 129.12 384.25C129.906 383.555 130.867 383.088 131.9 382.9C133.785 382.568 135.644 382.096 137.46 381.49C138.934 380.973 140.368 380.348 141.75 379.62C144.11 378.35 145.43 377.32 145.48 377.4Z" fill="#EB996E"/>
<path d="M131.71 373.57C131.752 373.974 131.664 374.381 131.459 374.732C131.254 375.082 130.942 375.358 130.57 375.52C130.204 375.691 129.803 375.769 129.4 375.748C128.997 375.728 128.605 375.608 128.26 375.4C127.78 375.11 127.34 374.66 126.78 374.68C126.22 374.7 125.68 375.28 125.09 375.19C124.803 375.117 124.557 374.935 124.402 374.683C124.247 374.431 124.196 374.129 124.26 373.84C124.473 373.204 124.905 372.666 125.48 372.32C126.357 371.63 127.469 371.307 128.58 371.42C130.46 371.6 131.53 372.68 131.71 373.57Z" fill="#FAFAFA"/>
<path d="M166.28 346.71C165.601 345.807 164.664 345.131 163.592 344.774C162.52 344.417 161.365 344.394 160.28 344.71C160.566 343.527 160.491 342.285 160.065 341.144C159.639 340.004 158.881 339.017 157.89 338.31C155.83 337.03 152.63 337.78 151.74 340.03C151.112 339.227 150.244 338.646 149.261 338.373C148.279 338.101 147.235 338.151 146.284 338.516C145.332 338.881 144.523 339.542 143.975 340.401C143.427 341.26 143.169 342.273 143.24 343.29C143.24 343.29 138.99 339.87 135.97 344.21C138 345.543 140.381 346.239 142.81 346.21C142.849 347.466 143.265 348.68 144.004 349.696C144.742 350.713 145.768 351.484 146.95 351.91C151.1 353.37 153.12 351.01 153.12 351.01C153.12 351.01 153.92 356.78 157.39 356.31L165.79 353.25L166.27 353.02C166.911 352.093 167.255 350.993 167.257 349.867C167.258 348.74 166.918 347.639 166.28 346.71ZM156.4 338.27C156.454 338.27 156.509 338.281 156.559 338.302C156.609 338.323 156.655 338.355 156.693 338.394C156.731 338.433 156.761 338.479 156.781 338.53C156.801 338.581 156.811 338.635 156.81 338.69C156.81 338.799 156.767 338.903 156.69 338.98C156.613 339.057 156.508 339.1 156.4 339.1C156.345 339.101 156.291 339.092 156.24 339.072C156.189 339.052 156.142 339.022 156.103 338.984C156.064 338.945 156.033 338.9 156.012 338.849C155.991 338.799 155.98 338.745 155.98 338.69C155.98 338.579 156.024 338.472 156.103 338.393C156.182 338.314 156.288 338.27 156.4 338.27ZM155 341.11C154.945 341.11 154.891 341.099 154.84 341.078C154.79 341.057 154.744 341.026 154.706 340.986C154.668 340.947 154.638 340.901 154.618 340.85C154.598 340.799 154.588 340.745 154.59 340.69C154.59 340.581 154.633 340.477 154.71 340.4C154.787 340.323 154.891 340.28 155 340.28C155.054 340.279 155.109 340.288 155.16 340.308C155.211 340.328 155.257 340.358 155.296 340.397C155.335 340.435 155.366 340.48 155.388 340.531C155.409 340.581 155.42 340.635 155.42 340.69C155.42 340.745 155.409 340.8 155.388 340.851C155.367 340.902 155.336 340.948 155.297 340.987C155.258 341.026 155.211 341.057 155.16 341.078C155.109 341.099 155.055 341.11 155 341.11ZM155.06 339.87C154.907 339.87 154.759 339.825 154.632 339.74C154.505 339.656 154.407 339.535 154.348 339.395C154.29 339.254 154.275 339.099 154.305 338.95C154.334 338.8 154.408 338.663 154.515 338.556C154.623 338.448 154.76 338.375 154.91 338.345C155.059 338.315 155.214 338.33 155.354 338.389C155.495 338.447 155.615 338.546 155.7 338.672C155.785 338.799 155.83 338.948 155.83 339.1C155.83 339.206 155.808 339.312 155.766 339.409C155.724 339.507 155.661 339.595 155.583 339.667C155.505 339.739 155.413 339.795 155.313 339.83C155.212 339.865 155.106 339.878 155 339.87H155.06ZM156.64 344.23C156.487 344.232 156.336 344.188 156.208 344.104C156.08 344.021 155.98 343.9 155.92 343.759C155.861 343.618 155.845 343.463 155.874 343.312C155.903 343.162 155.977 343.024 156.085 342.916C156.194 342.807 156.332 342.734 156.482 342.704C156.632 342.675 156.788 342.691 156.929 342.751C157.07 342.81 157.19 342.91 157.274 343.039C157.358 343.167 157.402 343.317 157.4 343.47C157.4 343.573 157.379 343.676 157.338 343.77C157.298 343.865 157.238 343.951 157.163 344.022C157.088 344.093 157 344.148 156.903 344.184C156.806 344.22 156.703 344.236 156.6 344.23H156.64ZM157.23 342.17C156.925 342.17 156.627 342.079 156.373 341.91C156.12 341.74 155.922 341.499 155.806 341.217C155.69 340.935 155.66 340.625 155.72 340.326C155.78 340.027 155.928 339.753 156.144 339.538C156.361 339.323 156.636 339.177 156.935 339.118C157.235 339.06 157.545 339.092 157.826 339.21C158.107 339.328 158.347 339.527 158.515 339.782C158.683 340.036 158.772 340.335 158.77 340.64C158.77 340.845 158.729 341.048 158.649 341.237C158.569 341.426 158.451 341.597 158.304 341.74C158.157 341.883 157.982 341.994 157.791 342.068C157.599 342.142 157.395 342.177 157.19 342.17H157.23ZM159.23 348.17C159.077 348.172 158.927 348.129 158.799 348.045C158.671 347.962 158.571 347.842 158.511 347.702C158.451 347.561 158.435 347.406 158.463 347.256C158.492 347.106 158.564 346.968 158.672 346.859C158.779 346.751 158.916 346.676 159.066 346.646C159.215 346.615 159.371 346.63 159.512 346.688C159.653 346.746 159.774 346.844 159.859 346.971C159.944 347.098 159.99 347.247 159.99 347.4C159.986 347.5 159.962 347.598 159.921 347.689C159.879 347.779 159.819 347.861 159.746 347.929C159.673 347.997 159.587 348.049 159.493 348.084C159.399 348.118 159.3 348.134 159.2 348.13L159.23 348.17ZM160.58 346.73C160.497 346.73 160.415 346.705 160.346 346.659C160.277 346.613 160.223 346.548 160.192 346.471C160.16 346.394 160.152 346.31 160.168 346.228C160.184 346.147 160.224 346.072 160.283 346.013C160.341 345.954 160.416 345.914 160.498 345.898C160.579 345.882 160.664 345.89 160.74 345.922C160.817 345.954 160.883 346.008 160.929 346.077C160.975 346.146 161 346.227 161 346.31C160.99 346.42 160.937 346.521 160.852 346.592C160.768 346.663 160.66 346.698 160.55 346.69L160.58 346.73ZM162.35 348.49C162.134 348.49 161.923 348.426 161.744 348.306C161.565 348.187 161.425 348.016 161.343 347.817C161.26 347.618 161.239 347.399 161.281 347.187C161.323 346.976 161.427 346.782 161.579 346.629C161.731 346.477 161.926 346.373 162.137 346.331C162.349 346.289 162.568 346.311 162.767 346.393C162.966 346.476 163.136 346.615 163.256 346.794C163.376 346.974 163.44 347.184 163.44 347.4C163.429 347.687 163.306 347.959 163.096 348.156C162.886 348.352 162.607 348.458 162.32 348.45L162.35 348.49ZM163.78 349.16C163.697 349.16 163.615 349.135 163.546 349.089C163.477 349.043 163.423 348.978 163.392 348.901C163.36 348.824 163.352 348.74 163.368 348.658C163.384 348.577 163.424 348.502 163.483 348.443C163.541 348.384 163.616 348.344 163.698 348.328C163.779 348.312 163.864 348.32 163.94 348.352C164.017 348.384 164.083 348.438 164.129 348.507C164.175 348.576 164.2 348.657 164.2 348.74C164.19 348.85 164.137 348.951 164.052 349.022C163.968 349.093 163.86 349.128 163.75 349.12L163.78 349.16Z" fill="#EBEBEB"/>
<path d="M157.76 372.41C157.415 372.094 157.005 371.858 156.559 371.72C156.113 371.582 155.642 371.544 155.18 371.61C154.262 371.751 153.369 372.024 152.53 372.42C152.273 371.636 151.773 370.954 151.102 370.473C150.432 369.993 149.625 369.738 148.8 369.747C147.975 369.756 147.175 370.028 146.514 370.523C145.854 371.018 145.369 371.71 145.13 372.5C144.668 372.202 144.152 371.999 143.611 371.901C143.071 371.803 142.516 371.813 141.98 371.93C141.445 372.058 140.954 372.329 140.56 372.712C140.166 373.096 139.883 373.579 139.74 374.11C139.619 374.646 139.682 375.207 139.92 375.703C140.158 376.198 140.556 376.599 141.05 376.84C141.706 377.015 142.374 377.139 143.05 377.21C143.7 377.37 144.38 377.89 144.32 378.56C144.214 378.984 144.004 379.376 143.71 379.7C143.345 380.307 143.208 381.024 143.321 381.723C143.435 382.422 143.792 383.059 144.33 383.52L142.84 384.52C142.1 386.1 143.43 387.18 145.14 387.52C145.566 387.577 145.999 387.542 146.411 387.417C146.822 387.292 147.202 387.081 147.525 386.796C147.847 386.512 148.105 386.161 148.28 385.768C148.455 385.376 148.543 384.95 148.54 384.52C149.471 384.931 150.5 385.068 151.507 384.914C152.513 384.76 153.454 384.321 154.22 383.65C154.943 382.937 155.361 381.973 155.387 380.958C155.413 379.943 155.045 378.958 154.36 378.21C155.712 377.978 156.936 377.268 157.81 376.21C158.241 375.668 158.472 374.993 158.463 374.301C158.454 373.608 158.205 372.94 157.76 372.41ZM152.43 381.8C152.468 381.798 152.507 381.805 152.544 381.819C152.58 381.833 152.613 381.854 152.641 381.881C152.669 381.908 152.691 381.941 152.707 381.976C152.722 382.012 152.73 382.051 152.73 382.09C152.738 382.133 152.736 382.178 152.725 382.22C152.714 382.263 152.693 382.302 152.665 382.336C152.637 382.37 152.602 382.397 152.562 382.416C152.522 382.435 152.479 382.444 152.435 382.444C152.391 382.444 152.347 382.435 152.307 382.416C152.267 382.397 152.232 382.37 152.204 382.336C152.176 382.302 152.155 382.263 152.144 382.22C152.133 382.178 152.132 382.133 152.14 382.09C152.14 382.013 152.17 381.939 152.224 381.885C152.279 381.83 152.353 381.8 152.43 381.8ZM150.76 371.37C150.957 371.37 151.151 371.428 151.315 371.538C151.48 371.648 151.608 371.804 151.683 371.987C151.759 372.17 151.779 372.371 151.74 372.565C151.702 372.759 151.607 372.937 151.467 373.077C151.327 373.217 151.149 373.312 150.955 373.351C150.761 373.389 150.56 373.369 150.377 373.294C150.194 373.218 150.038 373.09 149.928 372.925C149.818 372.761 149.76 372.568 149.76 372.37C149.76 372.105 149.865 371.85 150.052 371.663C150.24 371.475 150.494 371.37 150.76 371.37ZM148.66 371.08C148.712 371.078 148.763 371.088 148.812 371.107C148.86 371.126 148.905 371.154 148.942 371.19C148.979 371.227 149.009 371.27 149.029 371.318C149.049 371.366 149.06 371.418 149.06 371.47C149.069 371.527 149.065 371.585 149.05 371.641C149.034 371.697 149.006 371.748 148.969 371.792C148.931 371.836 148.885 371.872 148.832 371.896C148.78 371.92 148.722 371.933 148.665 371.933C148.607 371.933 148.55 371.92 148.497 371.896C148.444 371.872 148.398 371.836 148.36 371.792C148.323 371.748 148.295 371.697 148.279 371.641C148.264 371.585 148.26 371.527 148.27 371.47C148.27 371.366 148.311 371.267 148.384 371.194C148.457 371.121 148.556 371.08 148.66 371.08ZM146.13 386.53C145.913 386.532 145.701 386.469 145.52 386.35C145.339 386.231 145.198 386.061 145.114 385.861C145.031 385.662 145.008 385.442 145.05 385.23C145.092 385.017 145.196 384.822 145.349 384.669C145.502 384.516 145.697 384.412 145.909 384.37C146.122 384.329 146.342 384.351 146.541 384.435C146.741 384.518 146.911 384.66 147.03 384.84C147.149 385.021 147.212 385.233 147.21 385.45C147.207 385.735 147.092 386.009 146.89 386.211C146.688 386.413 146.415 386.527 146.13 386.53ZM148.13 383.71C147.973 383.71 147.823 383.648 147.712 383.537C147.602 383.426 147.54 383.276 147.54 383.12C147.542 382.964 147.605 382.815 147.715 382.705C147.825 382.595 147.974 382.532 148.13 382.53C148.207 382.53 148.284 382.545 148.355 382.575C148.427 382.604 148.492 382.648 148.547 382.703C148.602 382.757 148.645 382.822 148.675 382.894C148.704 382.966 148.72 383.042 148.72 383.12C148.722 383.272 148.665 383.419 148.56 383.529C148.456 383.64 148.312 383.705 148.16 383.71H148.13ZM148.68 373.71C148.515 373.69 148.363 373.61 148.253 373.486C148.143 373.361 148.082 373.201 148.082 373.035C148.082 372.869 148.143 372.708 148.253 372.584C148.363 372.46 148.515 372.38 148.68 372.36C148.775 372.348 148.872 372.357 148.964 372.385C149.056 372.414 149.141 372.462 149.213 372.526C149.285 372.589 149.342 372.668 149.382 372.756C149.421 372.843 149.442 372.938 149.442 373.035C149.442 373.131 149.421 373.226 149.382 373.314C149.342 373.402 149.285 373.48 149.213 373.544C149.141 373.608 149.056 373.655 148.964 373.684C148.872 373.713 148.775 373.721 148.68 373.71ZM150.42 383.44C150.186 383.44 149.958 383.371 149.764 383.241C149.57 383.111 149.419 382.927 149.329 382.711C149.24 382.496 149.217 382.258 149.262 382.03C149.308 381.801 149.42 381.59 149.585 381.425C149.75 381.26 149.96 381.148 150.189 381.102C150.418 381.057 150.656 381.08 150.871 381.17C151.087 381.259 151.271 381.41 151.401 381.604C151.53 381.798 151.6 382.026 151.6 382.26C151.605 382.416 151.579 382.571 151.524 382.717C151.469 382.863 151.386 382.996 151.279 383.109C151.172 383.223 151.044 383.314 150.901 383.378C150.759 383.441 150.605 383.476 150.45 383.48L150.42 383.44ZM152.25 383.97C152.093 383.97 151.943 383.908 151.832 383.797C151.722 383.686 151.66 383.536 151.66 383.38C151.662 383.224 151.725 383.075 151.835 382.965C151.945 382.855 152.094 382.792 152.25 382.79C152.406 382.79 152.556 382.852 152.667 382.963C152.777 383.073 152.84 383.223 152.84 383.38C152.845 383.458 152.835 383.536 152.809 383.609C152.784 383.683 152.744 383.751 152.691 383.809C152.639 383.867 152.576 383.913 152.505 383.946C152.434 383.979 152.358 383.997 152.28 384L152.25 383.97ZM153.39 383.32C153.312 383.32 153.237 383.29 153.181 383.235C153.125 383.181 153.092 383.108 153.09 383.03C153.092 382.951 153.124 382.876 153.18 382.82C153.236 382.765 153.311 382.732 153.39 382.73C153.467 382.732 153.541 382.765 153.595 382.821C153.649 382.877 153.68 382.952 153.68 383.03C153.685 383.069 153.683 383.108 153.673 383.146C153.662 383.184 153.645 383.22 153.62 383.25C153.596 383.281 153.566 383.307 153.531 383.326C153.497 383.345 153.459 383.356 153.42 383.36L153.39 383.32ZM154.47 373.75C154.326 373.752 154.186 373.711 154.066 373.633C153.946 373.554 153.852 373.442 153.796 373.31C153.741 373.178 153.726 373.032 153.753 372.892C153.78 372.751 153.849 372.622 153.951 372.521C154.052 372.419 154.181 372.351 154.322 372.323C154.462 372.296 154.608 372.311 154.74 372.367C154.872 372.422 154.984 372.516 155.062 372.636C155.141 372.756 155.182 372.897 155.18 373.04C155.185 373.134 155.172 373.228 155.14 373.317C155.109 373.406 155.06 373.487 154.997 373.557C154.933 373.627 154.857 373.684 154.772 373.723C154.686 373.763 154.594 373.786 154.5 373.79L154.47 373.75ZM155.53 372.67C155.479 372.678 155.428 372.676 155.379 372.662C155.33 372.649 155.284 372.625 155.245 372.592C155.206 372.559 155.175 372.518 155.153 372.472C155.132 372.426 155.121 372.376 155.121 372.325C155.121 372.274 155.132 372.223 155.153 372.177C155.175 372.131 155.206 372.09 155.245 372.057C155.284 372.024 155.33 372 155.379 371.987C155.428 371.974 155.479 371.971 155.53 371.98C155.611 371.994 155.685 372.036 155.738 372.099C155.791 372.162 155.821 372.242 155.821 372.325C155.821 372.407 155.791 372.487 155.738 372.55C155.685 372.614 155.611 372.656 155.53 372.67Z" fill="#FAFAFA"/>
<path d="M148.36 364.28C148.44 363.432 148.247 362.581 147.81 361.85C147.695 361.678 147.543 361.535 147.366 361.429C147.188 361.323 146.99 361.258 146.784 361.238C146.579 361.218 146.371 361.243 146.177 361.313C145.983 361.382 145.806 361.494 145.66 361.64C145.92 361.066 145.987 360.424 145.848 359.809C145.71 359.195 145.375 358.642 144.894 358.236C144.413 357.829 143.812 357.591 143.183 357.558C142.554 357.524 141.931 357.697 141.41 358.05C140.994 357.493 140.398 357.098 139.724 356.931C139.049 356.765 138.338 356.838 137.711 357.138C137.084 357.438 136.581 357.946 136.287 358.575C135.993 359.205 135.927 359.917 136.1 360.59C135.579 360.638 135.075 360.798 134.622 361.061C134.17 361.323 133.78 361.681 133.48 362.11C133.183 362.543 132.986 363.037 132.903 363.556C132.82 364.075 132.853 364.605 133 365.11C133 365.11 130.17 365.78 131.39 367.6C132.61 369.42 138.72 368.69 138.72 368.69C138.72 368.69 137 370.32 139.72 370.69C140.577 370.761 141.439 370.646 142.249 370.355C143.058 370.063 143.795 369.601 144.41 369C144.41 369 147.99 368.81 148.79 368.16C149.59 367.51 148.36 364.28 148.36 364.28ZM133.84 363.05C133.879 363.05 133.918 363.061 133.951 363.083C133.984 363.105 134.009 363.137 134.025 363.173C134.04 363.21 134.044 363.25 134.036 363.289C134.028 363.328 134.009 363.363 133.981 363.391C133.953 363.419 133.918 363.438 133.879 363.446C133.84 363.454 133.8 363.45 133.763 363.434C133.727 363.419 133.695 363.394 133.674 363.361C133.652 363.328 133.64 363.289 133.64 363.25C133.64 363.197 133.661 363.146 133.698 363.108C133.736 363.071 133.787 363.05 133.84 363.05ZM133.84 364.58C133.761 364.58 133.683 364.556 133.618 364.512C133.552 364.468 133.501 364.406 133.47 364.333C133.44 364.26 133.432 364.179 133.447 364.102C133.463 364.024 133.501 363.953 133.557 363.897C133.613 363.841 133.684 363.803 133.762 363.787C133.839 363.772 133.92 363.78 133.993 363.81C134.066 363.84 134.128 363.892 134.172 363.957C134.216 364.023 134.24 364.101 134.24 364.18C134.241 364.278 134.205 364.373 134.141 364.446C134.076 364.52 133.987 364.567 133.89 364.58H133.84ZM135.04 364.04C134.842 364.04 134.649 363.981 134.484 363.871C134.32 363.761 134.192 363.605 134.116 363.422C134.04 363.24 134.02 363.039 134.059 362.845C134.098 362.651 134.193 362.472 134.333 362.333C134.473 362.193 134.651 362.098 134.845 362.059C135.039 362.02 135.24 362.04 135.422 362.116C135.605 362.192 135.761 362.32 135.871 362.484C135.981 362.649 136.04 362.842 136.04 363.04C136.03 363.29 135.927 363.527 135.751 363.704C135.576 363.882 135.339 363.987 135.09 364L135.04 364.04ZM143.18 361.37C143.071 361.37 142.967 361.327 142.89 361.25C142.813 361.173 142.77 361.068 142.77 360.96C142.77 360.851 142.813 360.747 142.89 360.67C142.967 360.593 143.071 360.55 143.18 360.55C143.289 360.55 143.393 360.593 143.47 360.67C143.547 360.747 143.59 360.851 143.59 360.96C143.59 361.068 143.547 361.173 143.47 361.25C143.393 361.327 143.289 361.37 143.18 361.37ZM142.89 359.37C142.89 359.172 142.948 358.979 143.058 358.814C143.168 358.65 143.324 358.522 143.507 358.446C143.69 358.37 143.891 358.35 144.085 358.389C144.279 358.428 144.457 358.523 144.597 358.663C144.737 358.802 144.832 358.981 144.871 359.175C144.909 359.369 144.889 359.57 144.814 359.752C144.738 359.935 144.61 360.091 144.445 360.201C144.281 360.311 144.088 360.37 143.89 360.37C143.635 360.357 143.395 360.247 143.218 360.063C143.042 359.879 142.942 359.635 142.94 359.38L142.89 359.37ZM144.51 361.68C144.435 361.681 144.36 361.667 144.29 361.639C144.22 361.611 144.157 361.569 144.104 361.516C144.051 361.463 144.009 361.399 143.98 361.329C143.952 361.26 143.938 361.185 143.94 361.11C143.94 360.959 144 360.814 144.107 360.707C144.214 360.6 144.359 360.54 144.51 360.54C144.66 360.542 144.804 360.603 144.91 360.71C145.016 360.816 145.077 360.959 145.08 361.11C145.083 361.254 145.031 361.395 144.934 361.502C144.838 361.61 144.704 361.677 144.56 361.69L144.51 361.68Z" fill="#FAFAFA"/>
<path d="M191.21 343.54L197.69 367.1C197.69 367.1 183.53 378.4 182.69 379.1C181.89 379.847 180.875 380.322 179.79 380.46C179.01 380.39 177.72 379.46 176.79 379.23C175.86 379 173.5 378.71 172.86 379.04C171.284 379.789 169.594 380.269 167.86 380.46C165.66 380.65 161.14 383.94 158.86 382.52C158.231 382.171 157.687 381.689 157.265 381.106C156.844 380.524 156.555 379.856 156.42 379.15C156.42 379.15 160.9 377.35 161.56 376.15C162.22 374.95 165.56 369.86 165.96 368.7C166.262 367.103 166.432 365.485 166.47 363.86C166.47 363.86 160.21 363.92 158.99 364.38C157.77 364.84 156.66 365.72 154.34 366.56C152.02 367.4 147.56 368.11 146.79 366.56C146.02 365.01 145.79 363.19 146.14 362.7C146.14 362.7 150.92 357.47 151.95 356.7C152.98 355.93 165.37 350.05 168.09 348.63C170.81 347.21 180.75 340.22 191.19 343.52" fill="#FFBE9D"/>
<path d="M191.21 343.54L190.97 343.49L190.28 343.34C189.97 343.27 189.6 343.16 189.14 343.08L187.56 342.86C184.093 342.577 180.607 343.061 177.35 344.28C175.035 345.104 172.802 346.142 170.68 347.38C168.39 348.79 165.75 350.04 162.99 351.38C160.23 352.72 157.27 354.17 154.21 355.73C153.446 356.104 152.707 356.528 152 357C151.36 357.56 150.74 358.21 150.12 358.85C148.87 360.15 147.62 361.5 146.36 362.85C146.241 363.252 146.22 363.677 146.3 364.09C146.359 364.555 146.463 365.014 146.61 365.46C146.68 365.68 146.77 365.9 146.86 366.12C146.95 366.34 146.96 366.33 147.01 366.44C147.06 366.55 147.12 366.59 147.17 366.68C147.51 366.964 147.928 367.138 148.37 367.18C149.339 367.289 150.319 367.259 151.28 367.09C152.274 366.943 153.251 366.702 154.2 366.37C155.166 366.023 156.102 365.598 157 365.1C157.46 364.86 157.92 364.6 158.41 364.37C158.912 364.129 159.454 363.983 160.01 363.94C162.15 363.71 164.3 363.66 166.49 363.62H166.76V363.89C166.723 365.309 166.599 366.725 166.39 368.13C166.33 368.511 166.215 368.881 166.05 369.23C165.89 369.57 165.71 369.89 165.52 370.23C165.16 370.87 164.78 371.5 164.39 372.13L162.93 374.48L162.21 375.65L161.86 376.24C161.728 376.458 161.567 376.657 161.38 376.83C160.649 377.41 159.854 377.903 159.01 378.3C158.2 378.71 157.38 379.07 156.55 379.41L156.71 379.15C156.933 380.246 157.543 381.226 158.43 381.91C158.825 382.277 159.318 382.524 159.85 382.62C160.393 382.665 160.94 382.621 161.47 382.49C162.556 382.191 163.617 381.803 164.64 381.33C165.67 380.817 166.768 380.45 167.9 380.24C168.978 380.126 170.039 379.884 171.06 379.52C171.566 379.35 172.064 379.153 172.55 378.93C173.082 378.702 173.664 378.616 174.24 378.68C175.334 378.69 176.419 378.883 177.45 379.25C177.94 379.47 178.4 379.72 178.86 379.93C179.258 380.181 179.733 380.284 180.2 380.22C181.143 379.957 182.01 379.474 182.73 378.81L185 377L189.45 373.45L197.54 367.01L197.48 367.2L192.81 349.93C192.28 347.93 191.86 346.33 191.57 345.23C191.44 344.71 191.34 344.31 191.26 344.01C191.217 343.873 191.187 343.732 191.17 343.59C191.233 343.717 191.28 343.851 191.31 343.99L191.67 345.2C191.98 346.3 192.43 347.87 193.01 349.88C194.15 353.97 195.8 359.88 197.83 367.1V367.22L197.74 367.3L189.69 373.77L185.26 377.34L183 379.14C182.217 379.852 181.278 380.373 180.26 380.66C179.974 380.734 179.675 380.734 179.39 380.66C179.133 380.581 178.882 380.484 178.64 380.37C178.16 380.15 177.7 379.9 177.23 379.7C176.264 379.365 175.251 379.19 174.23 379.18C173.73 379.115 173.223 379.184 172.76 379.38C172.257 379.613 171.743 379.82 171.22 380C170.159 380.374 169.058 380.622 167.94 380.74C166.864 380.954 165.821 381.311 164.84 381.8C163.791 382.287 162.704 382.689 161.59 383C160.997 383.142 160.387 383.189 159.78 383.14C159.158 383.024 158.581 382.74 158.11 382.32C157.104 381.561 156.422 380.45 156.2 379.21V379.02L156.39 378.95C157.2 378.61 158.02 378.24 158.81 377.84C159.612 377.467 160.367 377.001 161.06 376.45C161.21 376.318 161.338 376.162 161.44 375.99L161.79 375.39L162.52 374.22L163.98 371.87C164.36 371.24 164.74 370.61 165.1 369.98C165.489 369.4 165.764 368.752 165.91 368.07C166.113 366.688 166.233 365.296 166.27 363.9L166.53 364.17C164.36 364.17 162.2 364.25 160.11 364.48C159.607 364.518 159.116 364.647 158.66 364.86C158.2 365.08 157.74 365.33 157.28 365.58C156.357 366.084 155.397 366.519 154.41 366.88C153.434 367.214 152.43 367.458 151.41 367.61C150.396 367.786 149.361 367.813 148.34 367.69C147.793 367.641 147.277 367.417 146.87 367.05C146.699 366.834 146.561 366.595 146.46 366.34C146.358 366.109 146.271 365.872 146.2 365.63C146.039 365.159 145.929 364.673 145.87 364.18C145.765 363.657 145.814 363.115 146.01 362.62C147.29 361.24 148.54 359.89 149.79 358.62C150.43 357.98 151.04 357.34 151.72 356.74C152.46 356.25 153.235 355.815 154.04 355.44C157.12 353.89 160.04 352.44 162.84 351.13C165.64 349.82 168.23 348.57 170.54 347.13C172.688 345.894 174.948 344.863 177.29 344.05C180.589 342.851 184.116 342.41 187.61 342.76L189.2 343.01C189.65 343.11 190.02 343.23 190.33 343.31L191.01 343.51C191.077 343.509 191.145 343.519 191.21 343.54Z" fill="#EB996E"/>
<path d="M155.44 361.48C155.29 361.48 155.13 360.57 154.68 359.54C154.23 358.51 153.68 357.75 153.8 357.65C153.92 357.55 154.68 358.2 155.16 359.33C155.346 359.652 155.466 360.008 155.514 360.377C155.562 360.746 155.537 361.121 155.44 361.48Z" fill="#EB996E"/>
<path d="M176.73 374.81C176.549 375.327 176.278 375.808 175.93 376.23C175.211 377.344 174.28 378.306 173.19 379.06C172.08 379.805 170.808 380.272 169.48 380.42C168.942 380.536 168.387 380.536 167.85 380.42C168.36 380.253 168.886 380.139 169.42 380.08C170.661 379.832 171.842 379.346 172.9 378.65C173.937 377.917 174.861 377.034 175.64 376.03C176.27 375.24 176.67 374.77 176.73 374.81Z" fill="#EB996E"/>
<path d="M166.05 359.77C166.479 360.543 166.731 361.4 166.79 362.282C166.849 363.164 166.712 364.047 166.39 364.87C166.276 364.025 166.236 363.172 166.27 362.32C166.129 361.477 166.056 360.624 166.05 359.77Z" fill="#EB996E"/>
<path d="M164.49 361.13C164.56 361.01 165.28 361.38 165.74 362.22C166.2 363.06 166.15 363.85 166.01 363.85C165.87 363.85 165.69 363.19 165.28 362.47C164.87 361.75 164.4 361.25 164.49 361.13Z" fill="#EB996E"/>
<path d="M148.1 366.74C148.1 366.67 148.41 366.43 148.85 365.96C149.432 365.367 149.787 364.588 149.85 363.76C149.875 363.36 149.803 362.96 149.639 362.594C149.476 362.228 149.225 361.907 148.91 361.66C148.4 361.27 147.98 361.23 147.98 361.15C147.98 361.07 148.46 360.99 149.11 361.35C149.487 361.565 149.799 361.88 150.01 362.26C150.28 362.722 150.406 363.255 150.37 363.79C150.341 364.262 150.213 364.722 149.996 365.142C149.78 365.562 149.478 365.933 149.11 366.23C148.55 366.67 148.12 366.79 148.1 366.74Z" fill="#EB996E"/>
<path d="M142.82 398.61C143.681 398.61 144.38 397.911 144.38 397.05C144.38 396.188 143.681 395.49 142.82 395.49C141.958 395.49 141.26 396.188 141.26 397.05C141.26 397.911 141.958 398.61 142.82 398.61Z" fill="#FAFAFA"/>
<path d="M123.07 375.82C123.087 376.023 123.061 376.226 122.995 376.419C122.929 376.611 122.824 376.787 122.686 376.937C122.549 377.086 122.381 377.206 122.195 377.287C122.009 377.369 121.808 377.411 121.605 377.411C121.402 377.411 121.2 377.369 121.014 377.287C120.828 377.206 120.661 377.086 120.523 376.937C120.386 376.787 120.28 376.611 120.214 376.419C120.148 376.226 120.123 376.023 120.14 375.82C120.17 375.452 120.338 375.11 120.609 374.86C120.88 374.61 121.236 374.471 121.605 374.471C121.974 374.471 122.329 374.61 122.6 374.86C122.872 375.11 123.039 375.452 123.07 375.82Z" fill="#FAFAFA"/>
<path d="M136.52 365.35V328.65H142.65L142.54 357.2L142.84 364.62" fill="#FAFAFA"/>
<path d="M142.84 364.62C142.793 364.383 142.766 364.142 142.76 363.9C142.76 363.39 142.69 362.7 142.63 361.84C142.55 360.05 142.34 357.45 142.38 354.21C142.38 347.69 142.38 338.72 142.38 328.65L142.64 328.91H136.51L136.77 328.65C136.77 338.89 136.71 348.04 136.69 354.7C136.69 357.96 136.63 360.61 136.61 362.5C136.61 363.38 136.61 364.08 136.56 364.61C136.589 364.856 136.589 365.104 136.56 365.35C136.528 365.105 136.512 364.858 136.51 364.61C136.51 364.08 136.51 363.38 136.51 362.5C136.51 360.61 136.46 357.96 136.43 354.7C136.43 348.04 136.43 338.89 136.34 328.65V328.39H142.99V328.65C142.92 338.71 142.86 347.65 142.81 354.2C142.72 357.44 142.88 360.04 142.91 361.84C142.91 362.7 142.91 363.38 142.91 363.9C142.909 364.142 142.885 364.383 142.84 364.62Z" fill="#263238"/>
<path d="M138.09 346.58C137.743 342.438 137.743 338.273 138.09 334.13C138.437 338.273 138.437 342.438 138.09 346.58Z" fill="#263238"/>
<path d="M140.53 350.2C140.183 346.208 140.183 342.193 140.53 338.2C140.878 342.193 140.878 346.208 140.53 350.2Z" fill="#263238"/>
<path d="M97.0003 367.46C96.2653 366.949 95.3586 366.749 94.4768 366.902C93.595 367.056 92.8094 367.551 92.2903 368.28L86.1903 376.1C85.5811 376.963 85.2042 377.968 85.0956 379.019C84.987 380.07 85.1505 381.131 85.5703 382.1C86.8703 384.83 89.9303 382.5 89.9303 382.5L98.0003 372.75C98.5018 372.163 98.7856 371.42 98.8038 370.648C98.822 369.876 98.5735 369.121 98.1003 368.51C97.8037 368.142 97.4685 367.807 97.1003 367.51L97.0003 367.46Z" fill="#E0E0E0"/>
<path d="M100.67 365.26C101.35 364.44 98.82 361.7 98.02 361.07L93.31 357.32C92.9545 356.993 92.4997 356.793 92.0178 356.753C91.5359 356.713 91.0545 356.835 90.65 357.1C90.3844 357.267 90.1724 357.506 90.0394 357.79C89.9063 358.074 89.8579 358.39 89.9 358.7C89.9234 358.983 90.0069 359.258 90.1448 359.507C90.2828 359.755 90.472 359.971 90.7 360.14L95.7 364.06C96.47 364.66 99.57 366.29 100.22 365.51L100.67 365.26Z" fill="#EBEBEB"/>
<path d="M100.67 365.26C100.67 365.26 100.55 365.37 100.23 365.56C100.119 365.665 99.9857 365.742 99.8401 365.788C99.6946 365.833 99.5406 365.844 99.39 365.82C98.9809 365.783 98.5778 365.696 98.19 365.56C97.1428 365.192 96.158 364.666 95.27 364L92 361.44L91.09 360.73C90.7513 360.488 90.4395 360.209 90.16 359.9C89.8664 359.546 89.6983 359.105 89.682 358.646C89.6657 358.186 89.8022 357.734 90.07 357.36C90.4543 356.89 91.0069 356.589 91.61 356.52C92.1743 356.461 92.742 356.595 93.22 356.9C94.02 357.52 94.68 358.08 95.37 358.63L97.3 360.2C97.8835 360.637 98.4319 361.118 98.94 361.64C99.6737 362.378 100.279 363.233 100.73 364.17C100.863 364.425 100.912 364.716 100.87 365C100.87 365.2 100.71 365.28 100.72 365.26C100.73 365.24 100.72 365.16 100.72 364.99C100.704 364.725 100.626 364.468 100.49 364.24C99.976 363.364 99.3396 362.566 98.6 361.87C98.1058 361.37 97.5706 360.912 97 360.5L95 359C94.32 358.48 93.58 357.86 92.87 357.33C92.4954 357.082 92.0432 356.978 91.5978 357.039C91.1525 357.1 90.7445 357.321 90.45 357.66C90.2483 357.96 90.149 358.316 90.167 358.677C90.185 359.037 90.3194 359.382 90.55 359.66C90.8007 359.945 91.0863 360.197 91.4 360.41L92.3 361.14L95.56 363.75C96.4037 364.411 97.3405 364.943 98.34 365.33C99.14 365.66 99.9 365.79 100.16 365.51C100.317 365.403 100.489 365.319 100.67 365.26Z" fill="#263238"/>
<path d="M98.3601 363.82C97.6301 364.61 100.04 367.47 100.82 368.14L105.53 372.08C105.892 372.42 106.353 372.635 106.846 372.694C107.339 372.754 107.838 372.654 108.27 372.41C108.54 372.256 108.758 372.026 108.897 371.748C109.036 371.471 109.089 371.158 109.05 370.85C109.018 370.563 108.928 370.285 108.788 370.033C108.647 369.78 108.457 369.559 108.23 369.38L103.23 365.25C102.48 364.62 99.4701 362.84 98.7801 363.6L98.3601 363.82Z" fill="#EBEBEB"/>
<path d="M98.3602 363.82C98.3602 363.82 98.4802 363.72 98.8102 363.55C98.9258 363.451 99.0625 363.38 99.2098 363.342C99.3571 363.304 99.5112 363.3 99.6602 363.33C100.067 363.387 100.463 363.498 100.84 363.66C101.878 364.064 102.847 364.627 103.71 365.33L107 368L107.92 368.75C108.265 369.001 108.58 369.29 108.86 369.61C109.167 369.958 109.344 370.401 109.361 370.864C109.377 371.327 109.232 371.782 108.95 372.15C108.746 372.379 108.499 372.565 108.223 372.697C107.946 372.829 107.646 372.905 107.34 372.92C106.753 372.954 106.17 372.797 105.68 372.47C104.87 371.82 104.2 371.23 103.51 370.65L101.57 369C100.995 368.543 100.46 368.038 99.9702 367.49C99.2683 366.72 98.7004 365.838 98.2902 364.88C98.1704 364.617 98.1355 364.324 98.1902 364.04C98.1993 363.988 98.219 363.937 98.2482 363.893C98.2775 363.848 98.3156 363.81 98.3602 363.78C98.3602 363.78 98.3002 363.88 98.2902 364.05C98.292 364.315 98.3572 364.576 98.4802 364.81C98.9543 365.713 99.5573 366.541 100.27 367.27C100.764 367.796 101.303 368.278 101.88 368.71L103.88 370.32C104.57 370.89 105.28 371.48 106.03 372.08C106.413 372.339 106.869 372.465 107.33 372.44C107.794 372.411 108.227 372.203 108.54 371.86C108.75 371.564 108.854 371.206 108.836 370.843C108.818 370.48 108.679 370.134 108.44 369.86C108.182 369.567 107.894 369.302 107.58 369.07L106.67 368.31L103.44 365.56C102.623 364.864 101.711 364.288 100.73 363.85C99.9502 363.49 99.2102 363.32 98.9302 363.58C98.7514 363.685 98.5598 363.765 98.3602 363.82Z" fill="#263238"/>
<path d="M98.0001 370.87L103.81 364.69L99.0001 360.9L93.6201 367.8C93.9201 370.45 95.4301 371.39 98.0001 370.87Z" fill="#E0E0E0"/>
<path d="M103.34 362.44L107.26 358.12C107.422 357.928 107.522 357.693 107.549 357.443C107.576 357.194 107.527 356.942 107.41 356.72C107.345 356.535 107.24 356.366 107.101 356.227C106.962 356.088 106.794 355.982 106.608 355.916C106.423 355.851 106.225 355.828 106.03 355.85C105.835 355.871 105.647 355.936 105.48 356.04L101 361.16" fill="#EBEBEB"/>
<path d="M101 361.16C101.33 360.597 101.722 360.074 102.17 359.6C102.94 358.6 104.03 357.36 105.29 355.9C105.542 355.751 105.827 355.668 106.12 355.66C106.431 355.658 106.734 355.76 106.98 355.95C107.222 356.141 107.423 356.379 107.57 356.65C107.724 356.916 107.784 357.226 107.74 357.53C107.699 357.831 107.57 358.112 107.37 358.34L106.86 358.9L105.06 360.81C104.525 361.432 103.929 361.998 103.28 362.5C103.713 361.82 104.212 361.183 104.77 360.6L106.49 358.6C106.65 358.41 106.82 358.23 106.98 358.03C107.122 357.872 107.209 357.672 107.23 357.46C107.258 357.246 107.216 357.028 107.11 356.84C106.99 356.631 106.834 356.445 106.65 356.29C106.487 356.183 106.296 356.125 106.1 356.125C105.904 356.125 105.713 356.183 105.55 356.29L105.62 356.23C104.35 357.68 103.2 358.94 102.36 359.83C101.957 360.322 101.501 360.768 101 361.16Z" fill="#263238"/>
<path d="M99.19 360.93C98.7618 361.51 98.5757 362.234 98.6708 362.949C98.766 363.663 99.135 364.313 99.6999 364.76C99.9116 365.061 100.188 365.311 100.508 365.491C100.829 365.672 101.186 365.778 101.553 365.803C101.92 365.828 102.287 365.771 102.629 365.635C102.971 365.5 103.279 365.29 103.529 365.02C103.78 364.751 103.967 364.429 104.077 364.078C104.187 363.727 104.217 363.356 104.165 362.992C104.114 362.628 103.981 362.28 103.778 361.973C103.575 361.667 103.305 361.41 102.99 361.22C101.79 360.08 100.09 360 99.19 360.93Z" fill="#E0E0E0"/>
<path d="M99.6 360.55C99.2935 360.862 99.073 361.248 98.96 361.67C98.8781 362.176 98.9269 362.694 99.102 363.176C99.277 363.657 99.5724 364.086 99.96 364.42C100.359 364.841 100.874 365.133 101.44 365.26C101.924 365.358 102.424 365.323 102.89 365.16C103.68 364.85 103.89 364.31 103.99 364.36C104.09 364.41 103.99 364.99 102.99 365.46C102.456 365.707 101.86 365.787 101.28 365.69C100.604 365.571 99.9836 365.238 99.51 364.74C99.0837 364.352 98.7731 363.853 98.6125 363.299C98.4519 362.745 98.4476 362.157 98.6 361.6C98.7039 361.247 98.9175 360.935 99.21 360.71C99.43 360.55 99.59 360.52 99.6 360.55Z" fill="#263238"/>
<path d="M93.6803 367.41C93.7603 367.41 93.6803 367.83 93.6803 368.41C93.7006 368.826 93.8162 369.232 94.0181 369.597C94.22 369.961 94.5029 370.274 94.8449 370.512C95.187 370.749 95.579 370.905 95.9909 370.967C96.4027 371.03 96.8234 370.996 97.2203 370.87C97.8903 370.7 98.2204 370.42 98.3004 370.48C98.3804 370.54 98.0704 370.9 97.3004 371.19C96.8214 371.374 96.3046 371.438 95.7954 371.375C95.2862 371.312 94.8003 371.125 94.3803 370.83C94.0173 370.55 93.7269 370.187 93.5337 369.771C93.3405 369.355 93.2502 368.899 93.2703 368.44C93.3703 367.78 93.6303 367.39 93.6803 367.41Z" fill="#263238"/>
<path d="M99.1704 365.05C99.0094 364.911 98.8219 364.805 98.6192 364.74C98.4164 364.675 98.2026 364.652 97.9906 364.671C97.7786 364.691 97.5727 364.753 97.3854 364.854C97.198 364.956 97.0331 365.094 96.9004 365.26L93.3404 369.42C93.0325 369.716 92.8276 370.103 92.7556 370.524C92.6837 370.945 92.7484 371.378 92.9404 371.76C93.0646 371.99 93.2582 372.174 93.4934 372.287C93.7286 372.4 93.9935 372.436 94.2504 372.39C94.7635 372.314 95.2301 372.05 95.5604 371.65L99.2804 367.25C99.5496 366.94 99.6886 366.538 99.6681 366.128C99.6476 365.718 99.4692 365.332 99.1704 365.05Z" fill="#EBEBEB"/>
<path d="M99.1702 365.05C99.1702 365.05 99.5002 365.19 99.7002 365.71C99.8057 366.035 99.8057 366.385 99.7002 366.71C99.5401 367.14 99.2914 367.532 98.9702 367.86C98.3102 368.66 97.5702 369.56 96.7702 370.55L96.1202 371.32C95.8955 371.616 95.6445 371.89 95.3702 372.14C95.0233 372.419 94.6032 372.593 94.1603 372.64C93.9299 372.667 93.6964 372.643 93.4767 372.568C93.257 372.494 93.0567 372.372 92.8902 372.21C92.6333 371.911 92.4707 371.542 92.4226 371.151C92.3746 370.759 92.4433 370.363 92.6202 370.01C92.7878 369.674 93.0071 369.367 93.2702 369.1L93.9302 368.34L96.2402 365.72L96.7202 365.19C96.875 365.013 97.0615 364.868 97.2702 364.76C97.6129 364.587 98.0027 364.531 98.3802 364.6C98.6045 364.645 98.8141 364.744 98.9902 364.89C99.1002 364.99 99.1402 365.05 99.1302 365.06C98.883 364.928 98.6163 364.837 98.3402 364.79C98.0166 364.75 97.6889 364.821 97.4103 364.99C97.0671 365.246 96.7725 365.561 96.5402 365.92L94.3102 368.6L93.6603 369.38C93.4309 369.608 93.2446 369.876 93.1102 370.17C92.97 370.444 92.9141 370.754 92.9497 371.06C92.9853 371.366 93.1107 371.655 93.3102 371.89C93.561 372.082 93.8717 372.178 94.1868 372.161C94.5019 372.145 94.8008 372.017 95.0302 371.8C95.2774 371.57 95.508 371.323 95.7202 371.06L96.3802 370.29L98.6702 367.66C98.9841 367.382 99.2362 367.041 99.4103 366.66C99.4976 366.373 99.4976 366.067 99.4103 365.78C99.3562 365.529 99.2757 365.284 99.1702 365.05Z" fill="#263238"/>
<path d="M98.7602 370.17C98.6902 370.05 98.6502 369.95 98.6702 369.94C98.7371 369.991 98.7918 370.056 98.8302 370.13C98.9002 370.24 98.9402 370.34 98.9202 370.35C98.9002 370.36 98.8302 370.28 98.7602 370.17Z" fill="#263238"/>
<path d="M76.4501 324.18C76.4501 323.6 75.4501 314.33 83.2201 314.04C90.9901 313.75 136.55 310.74 140.15 311.33C143.75 311.92 146.02 313.22 146.02 317.55V319.48C146.227 321.099 146.112 322.742 145.681 324.316C145.25 325.89 144.513 327.363 143.51 328.65H136.07C136.07 328.65 132.64 323.93 133.41 319.76L88.4101 321.88C87.9687 321.853 87.533 321.992 87.1888 322.269C86.8446 322.547 86.6167 322.943 86.5501 323.38C86.4501 323.94 87.6101 386.01 87.6101 386.01C86.0671 387.299 84.1205 388.005 82.1101 388.005C80.0997 388.005 78.1531 387.299 76.6101 386.01L76.4101 385.84L76.4501 324.18Z" fill="#E0E0E0"/>
<path d="M76.4499 324.18C76.4499 324.18 76.4499 324.56 76.4499 325.3C76.4499 326.04 76.4499 327.14 76.4499 328.56C76.4499 331.44 76.4499 335.64 76.4499 341C76.4499 351.76 76.4499 367.17 76.5099 385.83L76.4299 385.67C77.4668 386.587 78.7135 387.235 80.0599 387.555C81.4063 387.876 82.811 387.861 84.1499 387.51C84.8454 387.322 85.5166 387.054 86.1499 386.71C86.4618 386.532 86.7624 386.335 87.0499 386.12L87.2599 385.95L87.3699 385.87C87.3699 385.87 87.2199 386.2 87.2899 386.03V385.41C87.2899 383.93 87.2299 382.41 87.1999 380.92C87.0866 374.88 86.9666 368.6 86.8399 362.08C86.7199 355.57 86.5999 348.85 86.4799 341.96C86.4199 338.507 86.3599 335.017 86.2999 331.49C86.2999 329.73 86.2499 327.95 86.2299 326.17C86.2299 325.26 86.2299 324.41 86.2299 323.44C86.2815 322.923 86.5326 322.446 86.9299 322.11C87.3376 321.786 87.8498 321.622 88.3699 321.65L95.8399 321.3L133.35 319.54H133.66L133.61 319.85C133.393 321.395 133.568 322.971 134.12 324.43C134.64 325.885 135.346 327.267 136.22 328.54L136.02 328.44H143.46L143.28 328.53C144.264 327.267 144.988 325.821 145.41 324.276C145.832 322.731 145.944 321.118 145.74 319.53C145.854 318.044 145.736 316.55 145.39 315.1C145.163 314.427 144.782 313.815 144.276 313.315C143.771 312.815 143.156 312.44 142.48 312.22C141.809 311.97 141.116 311.782 140.41 311.66C139.708 311.562 138.999 311.518 138.29 311.53C136.87 311.53 135.45 311.53 134.05 311.61C128.46 311.8 123.15 312.07 118.15 312.33L92.1499 313.75C88.5399 313.97 85.2899 314.08 82.4899 314.28C81.2008 314.372 79.9746 314.873 78.9899 315.71C78.1966 316.442 77.5809 317.345 77.1899 318.35C76.6822 319.745 76.4184 321.216 76.4099 322.7C76.4099 323.2 76.4099 323.59 76.4099 323.84C76.4166 323.97 76.4166 324.1 76.4099 324.23C76.3551 323.722 76.3284 323.211 76.3299 322.7C76.3073 321.202 76.5546 319.711 77.0599 318.3C77.443 317.267 78.0589 316.337 78.8599 315.58C79.8749 314.674 81.1549 314.12 82.5099 314C85.3299 313.78 88.5099 313.65 92.1799 313.42L118.18 311.88C123.18 311.61 128.5 311.32 134.1 311.12C135.5 311.12 136.92 311.02 138.36 311.03C139.092 311.014 139.825 311.057 140.55 311.16C141.281 311.291 142 311.482 142.7 311.73C143.426 311.991 144.09 312.399 144.65 312.93C145.22 313.484 145.643 314.171 145.88 314.93C146.248 316.424 146.38 317.966 146.27 319.5C146.487 321.151 146.374 322.83 145.936 324.437C145.498 326.043 144.745 327.547 143.72 328.86L143.65 328.95H135.96L135.89 328.84C134.982 327.529 134.253 326.103 133.72 324.6C133.139 323.061 132.954 321.4 133.18 319.77L133.44 320.07L95.9399 321.84L88.4599 322.19C88.0743 322.173 87.6951 322.294 87.3899 322.53C87.0952 322.784 86.912 323.143 86.8799 323.53C86.8799 324.41 86.8799 325.29 86.8799 326.17C86.8799 327.95 86.9299 329.73 86.9499 331.49C87.0099 335.02 87.0599 338.49 87.1199 341.96C87.2399 348.86 87.3533 355.567 87.4599 362.08C87.5666 368.593 87.6766 374.877 87.7899 380.93C87.7899 382.44 87.8499 383.93 87.8699 385.41V386C87.9399 385.85 87.7799 386.23 87.7899 386.2L87.6799 386.29L87.4599 386.46C86.5621 387.133 85.5438 387.629 84.4599 387.92C83.0425 388.302 81.5524 388.327 80.1232 387.991C78.6939 387.656 77.37 386.972 76.2699 386L76.1899 385.94V385.84C76.1899 367.18 76.2899 351.77 76.3199 341.01C76.3199 335.65 76.3699 331.45 76.3799 328.57C76.3799 327.15 76.3799 326.06 76.3799 325.31C76.3799 324.56 76.4499 324.18 76.4499 324.18Z" fill="#263238"/>
<path d="M62.6404 370.68C62.8879 370.198 63.228 369.769 63.6414 369.417C64.0548 369.066 64.5333 368.8 65.0496 368.634C65.5659 368.468 66.1099 368.405 66.6505 368.449C67.1911 368.493 67.7178 368.643 68.2004 368.89L78.6904 374.15C79.7919 374.808 80.7048 375.739 81.3407 376.854C81.9767 377.968 82.3141 379.227 82.3204 380.51C82.3204 384.31 77.9304 383.43 77.9304 383.43L64.3404 377.14C63.4776 376.747 62.7752 376.07 62.3496 375.223C61.924 374.375 61.8008 373.408 62.0004 372.48C62.1371 371.891 62.3348 371.318 62.5904 370.77L62.6404 370.68Z" fill="#E0E0E0"/>
<path d="M57.4504 370.38C56.2604 369.86 57.6004 365.38 58.1604 364.19L61.4604 357.26C61.6809 356.695 62.0766 356.215 62.5894 355.891C63.1023 355.568 63.7054 355.416 64.3104 355.46C64.6964 355.485 65.0654 355.628 65.3676 355.869C65.6698 356.111 65.8907 356.439 66.0004 356.81C66.2198 357.502 66.1587 358.253 65.8304 358.9L62.3304 366.16C61.7904 367.27 59.2604 370.88 58.1304 370.38H57.4504Z" fill="#EBEBEB"/>
<path d="M57.4501 370.38C57.6601 370.334 57.8751 370.314 58.0901 370.32C58.5501 370.48 59.2601 369.92 59.9701 369.13C60.8539 368.136 61.6036 367.03 62.2001 365.84L64.4501 361.06C64.8401 360.2 65.3501 359.27 65.6901 358.38C65.8302 357.927 65.8302 357.443 65.6901 356.99C65.632 356.763 65.5285 356.551 65.3858 356.365C65.2432 356.179 65.0643 356.025 64.8601 355.91C64.6051 355.79 64.3287 355.722 64.0471 355.71C63.7655 355.698 63.4844 355.742 63.2201 355.84C62.6922 356.028 62.2373 356.378 61.9201 356.84C61.3801 357.84 60.9201 358.95 60.4001 359.93C59.8801 360.91 59.4001 361.87 59.0201 362.77C58.5942 363.57 58.2168 364.395 57.8901 365.24C57.4328 366.472 57.1435 367.761 57.0301 369.07C56.9857 369.411 57.0377 369.757 57.1801 370.07C57.2701 370.29 57.4101 370.33 57.4001 370.36C57.3353 370.345 57.2743 370.317 57.2209 370.278C57.1676 370.238 57.123 370.188 57.0901 370.13C56.898 369.808 56.8074 369.435 56.8301 369.06C56.8608 367.717 57.1038 366.387 57.5501 365.12C57.8526 364.247 58.2134 363.395 58.6301 362.57C59.0501 361.67 59.5001 360.72 59.9601 359.72C60.4201 358.72 60.8801 357.72 61.5001 356.55C61.8749 355.99 62.4175 355.563 63.0501 355.33C63.4923 355.144 63.9804 355.094 64.4509 355.189C64.9214 355.284 65.3525 355.518 65.6881 355.861C66.0236 356.204 66.2481 356.64 66.3323 357.113C66.4165 357.585 66.3565 358.072 66.1601 358.51C65.7501 359.51 65.2801 360.37 64.8701 361.26L62.5801 366C61.9455 367.209 61.1443 368.324 60.2001 369.31C59.8605 369.663 59.4813 369.975 59.0701 370.24C58.9287 370.345 58.7648 370.416 58.5912 370.448C58.4177 370.479 58.2393 370.47 58.0701 370.42C57.8626 370.439 57.6534 370.426 57.4501 370.38Z" fill="#263238"/>
<path d="M59.2202 367.44C60.4302 367.9 59.3002 372.44 58.8002 373.66L55.8002 380.73C55.6057 381.306 55.2317 381.804 54.7331 382.151C54.2345 382.499 53.6376 382.677 53.0302 382.66C52.6511 382.647 52.2852 382.518 51.9813 382.291C51.6775 382.064 51.4503 381.75 51.3302 381.39C51.0774 380.711 51.1025 379.96 51.4002 379.3L54.5502 371.88C55.0302 370.74 57.4002 367.03 58.5502 367.47L59.2202 367.44Z" fill="#EBEBEB"/>
<path d="M59.2201 367.44C59.0112 367.496 58.7963 367.527 58.5801 367.53C58.1201 367.4 57.4301 367.98 56.7601 368.81C55.9236 369.84 55.2275 370.977 54.6901 372.19C54.0801 373.67 53.4001 375.31 52.6901 377.07C52.3401 377.95 51.8801 378.91 51.5701 379.81C51.435 380.267 51.435 380.753 51.5701 381.21C51.7168 381.645 52.0295 382.005 52.4401 382.21C52.9657 382.425 53.5545 382.425 54.0801 382.21C54.6027 381.991 55.0433 381.613 55.3401 381.13C55.8301 380.13 56.2701 378.98 56.7101 377.98L57.9601 375.08C58.3462 374.259 58.6802 373.414 58.9601 372.55C59.3622 371.3 59.5943 370.002 59.6501 368.69C59.6709 368.345 59.602 368.001 59.4501 367.69C59.3501 367.49 59.2101 367.45 59.2201 367.42C59.2301 367.39 59.3801 367.42 59.5401 367.63C59.7408 367.948 59.8483 368.315 59.8501 368.69C59.8827 370.043 59.7038 371.393 59.3201 372.69C59.0462 373.579 58.7121 374.447 58.3201 375.29L57.1301 378.2C56.6801 379.2 56.3101 380.27 55.7401 381.44C55.392 382.017 54.8704 382.468 54.2501 382.73C53.9244 382.869 53.574 382.94 53.2201 382.94C52.8661 382.94 52.5158 382.869 52.1901 382.73C51.6815 382.439 51.2868 381.983 51.0707 381.438C50.8545 380.893 50.8296 380.291 51.0001 379.73C51.3601 378.68 51.7901 377.83 52.1601 376.92C52.9201 375.17 53.6301 373.54 54.2601 372.07C54.8389 370.834 55.5896 369.686 56.4901 368.66C56.8078 368.28 57.1743 367.944 57.5801 367.66C57.7159 367.544 57.8778 367.463 58.0519 367.423C58.226 367.383 58.4072 367.385 58.5801 367.43C58.7927 367.401 59.0085 367.404 59.2201 367.44Z" fill="#263238"/>
<path d="M63.3202 375.07L53.7202 371.55L56.9702 364.55L66.4502 369.13C67.4902 372.27 66.3502 374.19 63.3202 375.07Z" fill="#E0E0E0"/>
<path d="M53.0003 368.8L46.3303 366.29C46.0449 366.172 45.8021 365.971 45.6342 365.712C45.4663 365.453 45.3812 365.149 45.3903 364.84C45.4503 363.74 45.9703 362.92 47.1803 362.95L54.9203 366" fill="#EBEBEB"/>
<path d="M54.9202 366C54.1371 365.84 53.373 365.599 52.6402 365.28C51.2402 364.77 49.2902 364.04 47.0902 363.18H47.1702C46.9184 363.155 46.6649 363.204 46.4398 363.319C46.2146 363.434 46.0273 363.612 45.9002 363.83C45.7601 364.107 45.6784 364.41 45.6602 364.72C45.6231 364.998 45.6831 365.281 45.8302 365.52C45.978 365.75 46.1902 365.93 46.4402 366.04L47.3102 366.37L50.3102 367.55C51.2433 367.883 52.1438 368.302 53.0002 368.8C52.0298 368.594 51.0794 368.303 50.1602 367.93L47.1602 366.85L46.2902 366.53C45.9356 366.39 45.6344 366.142 45.4302 365.82C45.2153 365.489 45.1233 365.092 45.1702 364.7C45.197 364.319 45.3025 363.948 45.4802 363.61C45.6515 363.306 45.9066 363.058 46.2151 362.895C46.5236 362.732 46.8725 362.661 47.2202 362.69H47.3002C49.5002 363.57 51.4202 364.37 52.7902 364.96C53.5315 365.239 54.2446 365.587 54.9202 366Z" fill="#263238"/>
<path d="M56.7903 364.71C58.3103 365.27 58.9603 367.31 58.2403 369.26C57.5203 371.21 55.7003 372.34 54.1803 371.78C52.6603 371.22 52.0203 369.19 52.7403 367.23C53.4603 365.27 55.2803 364.15 56.7903 364.71Z" fill="#E0E0E0"/>
<path d="M56.1401 364.52C56.1401 364.52 56.3101 364.44 56.6201 364.52C57.067 364.61 57.4715 364.846 57.7701 365.19C58.2288 365.692 58.519 366.325 58.6001 367C58.6979 367.805 58.5984 368.622 58.3101 369.38C58.0424 370.155 57.5433 370.828 56.8801 371.31C56.3362 371.702 55.69 371.928 55.0201 371.96C53.8401 371.96 53.3201 371.33 53.3801 371.32C53.8912 371.525 54.4403 371.617 54.9901 371.59C55.6384 371.493 56.2471 371.219 56.7485 370.797C57.2499 370.375 57.6244 369.822 57.8301 369.2C58.0955 368.597 58.2036 367.937 58.1441 367.281C58.0846 366.625 57.8596 365.995 57.4901 365.45C57.1434 365.012 56.6731 364.688 56.1401 364.52Z" fill="#263238"/>
<path d="M66.1903 368.74C66.1903 368.74 66.7103 369.01 67.1003 369.82C67.3443 370.358 67.4605 370.944 67.4397 371.534C67.4189 372.124 67.2616 372.701 66.9803 373.22C66.6853 373.731 66.2747 374.165 65.7815 374.488C65.2883 374.811 64.7262 375.014 64.1403 375.08C63.2403 375.17 62.7203 374.91 62.7403 374.86C62.7603 374.81 63.2803 374.86 64.0803 374.72C64.5868 374.622 65.0661 374.416 65.4851 374.115C65.9042 373.814 66.2531 373.426 66.5078 372.978C66.7625 372.529 66.917 372.031 66.9606 371.517C67.0042 371.003 66.9358 370.485 66.7603 370C66.5003 369.19 66.1303 368.8 66.1903 368.74Z" fill="#263238"/>
<path d="M59.0001 369.28C59.2036 368.794 59.5909 368.407 60.0778 368.205C60.5648 368.003 61.1118 368.001 61.6001 368.2L67.6001 370.79C68.0903 370.961 68.5131 371.284 68.8064 371.712C69.0997 372.14 69.2482 372.651 69.2301 373.17C69.213 373.494 69.0991 373.806 68.9029 374.064C68.7068 374.323 68.4376 374.517 68.1301 374.62C67.8413 374.726 67.5343 374.774 67.227 374.76C66.9197 374.746 66.6182 374.672 66.3401 374.54L60.0001 371.79C59.5497 371.573 59.1973 371.194 59.0121 370.73C58.827 370.265 58.8227 369.748 59.0001 369.28Z" fill="#EBEBEB"/>
<path d="M59.0001 369.28C58.9583 369.612 58.9583 369.948 59.0001 370.28C59.0824 370.66 59.2735 371.008 59.5501 371.28C59.9655 371.593 60.4326 371.83 60.9301 371.98L64.8001 373.61L65.9201 374.08C66.2796 374.26 66.6588 374.398 67.0501 374.49C67.4325 374.573 67.8318 374.518 68.1775 374.335C68.5233 374.152 68.7934 373.853 68.9401 373.49C69.0409 373.108 69.0264 372.705 68.8982 372.331C68.7701 371.958 68.5341 371.63 68.2201 371.39C67.9 371.152 67.5461 370.964 67.1701 370.83L66.0001 370.37L62.1501 368.66C61.714 368.384 61.2153 368.223 60.7001 368.19C60.3154 368.191 59.9408 368.314 59.6301 368.54C59.1101 368.92 59.0001 369.31 58.9501 369.28C58.9001 369.25 58.9501 369.18 59.0201 369.01C59.1356 368.767 59.3029 368.552 59.5101 368.38C59.8406 368.096 60.255 367.927 60.6901 367.9C60.964 367.881 61.2391 367.915 61.5001 368L62.3001 368.32L66.1801 369.93L67.3001 370.4C67.7222 370.547 68.1199 370.756 68.4801 371.02C68.8774 371.324 69.1746 371.74 69.3333 372.214C69.492 372.688 69.5048 373.199 69.3701 373.68C69.1823 374.155 68.8313 374.546 68.3802 374.785C67.9292 375.023 67.4078 375.092 66.9101 374.98C66.476 374.884 66.056 374.733 65.6601 374.53L64.5701 374L60.7401 372.27L60.0001 372C59.6789 371.852 59.4005 371.624 59.1908 371.339C58.981 371.054 58.8466 370.721 58.8001 370.37C58.7665 370.101 58.7938 369.828 58.8801 369.57C58.9001 369.35 59.0001 369.27 59.0001 369.28Z" fill="#263238"/>
<path d="M75.6201 372.92C75.876 372.844 76.1455 372.823 76.4101 372.86C77.1418 372.894 77.8623 373.053 78.5401 373.33C79.559 373.735 80.4648 374.38 81.1801 375.21C82.0603 376.234 82.6324 377.485 82.8301 378.82C83.0816 380.17 82.8099 381.564 82.0701 382.72C81.7213 383.225 81.2306 383.615 80.6601 383.84C80.1659 384.026 79.6329 384.085 79.1101 384.01C78.3881 383.904 77.6907 383.67 77.0501 383.32C76.5901 383.09 76.3601 382.93 76.3801 382.9C76.4001 382.87 76.6601 382.96 77.1301 383.14C77.7701 383.4 78.4433 383.568 79.1301 383.64C79.6195 383.698 80.1151 383.617 80.5607 383.407C81.0062 383.196 81.3837 382.865 81.6501 382.45C82.3002 381.385 82.5285 380.115 82.2901 378.89C82.1253 377.762 81.6801 376.693 80.9952 375.781C80.3104 374.869 79.4079 374.143 78.3701 373.67C77.4884 373.306 76.5645 373.054 75.6201 372.92Z" fill="#263238"/>
</svg>
