<svg width="425" height="323" viewBox="0 0 425 323" fill="none" xmlns="http://www.w3.org/2000/svg">
<g clip-path="url(#clip0)">
<path opacity="0.18" d="M424.961 221.199C424.791 226.997 423.787 232.74 421.978 238.25C415.999 256.262 401.461 270.106 385.664 280.625C365.783 293.936 343.813 302.793 320.819 308.819C296.359 315.221 270.732 318.39 244.988 320.221C231.111 321.208 217.208 321.792 203.486 322.26C183.384 322.961 163.036 323.558 142.972 322.26C125.38 321.404 107.94 318.573 90.9788 313.818C54.6651 303.17 20.4264 279.093 6.8866 243.691C6.81507 243.533 6.75863 243.367 6.718 243.198C-1.75087 220.783 -1.25804 195.914 2.69756 172.253C3.32008 168.63 3.99447 165.058 4.85044 161.474C7.17192 151.371 10.6606 141.566 16.5227 133.124C26.1199 119.307 40.814 110.658 55.106 101.476C61.2078 97.6784 67.0722 93.5106 72.6663 88.9964C78.453 84.139 83.8317 78.8139 88.7481 73.075C106.697 52.7511 120.769 28.4664 143.491 13.8696C188.507 -15.1163 229.088 6.88282 269.733 29.4533C287.345 39.1932 304.996 49.0499 323.01 54.9069C335.513 58.9846 349.052 62.8546 357.405 72.997C363.5 80.3604 365.912 89.9574 369.323 98.97C377.04 119.255 390.204 136.813 401.915 155.15C403.99 158.474 406.065 161.799 408.023 165.175C417.958 182.11 425.635 201.914 424.961 221.199Z" fill="#E91E63"/>
<path opacity="0.36" d="M226.416 266.911C216.663 277.171 200.477 282.495 187.262 285.988C174.046 289.482 148.51 288.066 143.167 304.17C141.377 309.65 142.583 316.221 143.037 322.221C125.445 321.365 108.004 318.534 91.0436 313.78C54.7299 303.131 20.4912 279.054 6.95142 243.653C6.87989 243.494 6.82344 243.328 6.78282 243.159C9.57119 235.004 15.8612 227.939 22.696 222.277C31.5799 214.965 41.7088 208.966 49.0623 200.109C54.9633 193.044 58.7763 184.434 64.2233 177.032C69.6704 169.63 77.5556 162.98 86.7248 162.851C91.3419 162.773 95.907 164.305 100.472 163.734C105.037 163.162 109.732 158.864 108.254 154.5C73.9661 158.72 39.4715 161.035 4.92822 161.435C7.24971 151.332 10.7384 141.527 16.6005 133.086C26.1977 119.268 40.8918 110.619 55.1838 101.437C61.2856 97.6395 67.1499 93.4717 72.7441 88.9574C78.5308 84.1 83.9095 78.775 88.8258 73.036C119.101 66.075 148.576 56.0003 176.783 42.9723C182.632 58.3483 180.803 75.4385 181.426 91.8664C182.048 108.294 186.367 126.462 200.075 135.527C211.748 143.319 228.063 142.89 237.907 152.838C242.809 157.825 245.299 164.682 246.985 171.5C253.949 200.291 247.893 244.406 226.416 266.911Z" fill="#E91E63"/>
<path d="M269.733 29.4145V145.89H55.1968V101.528C61.2986 97.7305 67.1629 93.5627 72.757 89.0484C99.4217 67.0883 114.479 32.5182 143.491 13.8697C188.507 -15.1162 229.075 6.88292 269.733 29.4145Z" fill="#E91E63"/>
<path d="M269.733 29.4145V145.89H55.1968V101.528C61.2986 97.7305 67.1629 93.5627 72.757 89.0484C99.4217 67.0883 114.479 32.5182 143.491 13.8697C188.507 -15.1162 229.075 6.88292 269.733 29.4145Z" fill="url(#paint0_linear)"/>
<path d="M118.123 265.717L77.5815 251.99L298.291 241.497L274.22 254.25C258.758 262.444 241.725 267.235 224.263 268.301L164.825 271.924C149.004 272.893 133.144 270.785 118.123 265.717Z" fill="white"/>
<path d="M118.123 265.717L77.5815 251.99L298.291 241.497L274.22 254.25C258.758 262.444 241.725 267.235 224.263 268.301L164.825 271.924C149.004 272.893 133.144 270.785 118.123 265.717Z" fill="url(#paint1_linear)"/>
<path d="M283.779 245.289L92.3925 254.379C86.282 254.66 80.2029 253.354 74.7451 250.588C69.2873 247.823 64.6362 243.691 61.2432 238.595C57.8501 233.498 55.8304 227.61 55.38 221.502C54.9296 215.393 56.0639 209.272 58.6726 203.732L80.0977 158.279L275.037 151.786L307.46 184.915C328.86 206.849 314.373 243.834 283.779 245.289Z" fill="white"/>
<path d="M253.703 217.602L121.417 223.913C117.19 224.117 112.983 223.222 109.204 221.315C105.425 219.408 102.204 216.553 99.8532 213.029C97.5029 209.506 96.1036 205.433 95.7916 201.207C95.4796 196.981 96.2655 192.746 98.0728 188.915L112.871 157.513L247.62 152.994L270.109 175.889C284.855 191.031 274.843 216.589 253.703 217.602Z" fill="#E91E63"/>
<path d="M253.703 217.602L121.417 223.913C117.19 224.117 112.983 223.222 109.204 221.315C105.425 219.408 102.204 216.553 99.8532 213.029C97.5029 209.506 96.1036 205.433 95.7916 201.207C95.4796 196.981 96.2655 192.746 98.0728 188.915L112.871 157.513L247.62 152.994L270.109 175.889C284.855 191.031 274.843 216.589 253.703 217.602Z" fill="url(#paint2_linear)"/>
<path d="M198.221 198.291C195.627 201.018 191.218 200.55 187.431 200.304C180.512 199.843 173.572 200.792 167.03 203.096C168.989 206.667 166.109 211.251 162.387 212.888C158.665 214.524 154.437 214.251 150.404 214.641C146.37 215.03 141.922 216.498 140.119 220.147C154.152 224.42 169.17 220.653 183.773 219.329C207.118 217.212 231.085 221.355 253.716 215.316C253.353 210.667 246.038 210.55 243.419 206.693C240.254 202.057 245.169 194.005 240.578 190.785C239.476 190.122 238.23 189.734 236.947 189.655C229.7 188.691 222.348 188.84 215.146 190.096C207.429 191.447 203.383 192.901 198.221 198.291Z" fill="url(#paint3_linear)"/>
<path d="M223.42 133.164C226.688 130.19 230.955 127.501 235.261 128.462C235.692 128.518 236.093 128.715 236.402 129.021C236.684 129.393 236.822 129.854 236.791 130.32C236.737 131.265 236.495 132.189 236.079 133.039C235.662 133.889 235.08 134.646 234.366 135.267C233.069 136.566 231.422 137.631 230.047 138.93C227.856 141.004 226.323 143.677 225.638 146.618C228.836 142.569 232.419 138.842 236.337 135.488C237.19 134.612 238.282 134.006 239.476 133.748C239.769 133.7 240.069 133.71 240.358 133.778C240.647 133.846 240.92 133.97 241.161 134.144C241.401 134.318 241.606 134.537 241.762 134.79C241.918 135.043 242.023 135.324 242.07 135.618C242.016 136.3 241.753 136.948 241.318 137.475L232.563 150.539C236.765 147.786 239.32 142.241 244.236 141.449C244.713 141.328 245.217 141.36 245.675 141.54C247.193 142.241 246.557 144.514 245.675 145.942L238.023 158.578L243.626 153.474C244.456 152.708 245.61 151.89 246.622 152.41C247.841 153.02 247.556 154.851 246.907 156.046C244.858 159.942 241.11 162.695 239.515 166.747C238.14 170.227 238.555 174.123 238.335 177.876C238.201 180.433 237.766 182.966 237.038 185.421C236.869 186.13 236.55 186.794 236.104 187.369C235.545 187.865 234.882 188.229 234.163 188.433C233.445 188.638 232.69 188.678 231.954 188.551C223.718 187.993 216.585 181.798 213.149 174.266C210.23 167.889 208.272 157.903 210.62 151.046C212.941 144.345 218.362 137.8 223.42 133.164Z" fill="#E26F54"/>
<path d="M320.897 308.819C296.437 315.221 270.81 318.39 245.066 320.221C241.447 303.248 238.581 285.703 233.108 269.574C225.794 248.367 218.077 227.29 210.97 205.94C202.371 181.265 193.656 155.176 198.001 129.319C202.203 129.319 205.601 132.943 207.183 136.852C208.765 140.761 209.089 145.046 210.373 149.033C215.561 164.747 234.548 173.071 238.905 189.031C240.449 194.603 239.943 200.511 240.734 206.251C242.277 217.563 248.619 227.627 255.065 237.029C264.947 251.457 274.661 267.755 287.657 279.352C298.706 289.213 309.786 299.036 320.897 308.819Z" fill="#F38A6B"/>
<path d="M160.286 149.306V108.671C160.268 103.562 161.712 98.5545 164.447 94.2415C167.182 89.9285 171.094 86.4905 175.719 84.3342C181.205 81.8148 187.171 79.724 191.892 79.724C203.746 79.724 225.391 91.8014 225.391 91.8014C229.072 96.0116 232.515 100.425 235.702 105.022C238.879 110.06 231.928 121.476 231.928 121.476L211.294 120.605L209.452 104.346C209.452 104.346 189.259 95.113 185.745 95.9961C183.241 96.6194 184.759 129.761 185.835 148.617C185.929 150.275 185.684 151.933 185.114 153.492C184.545 155.051 183.664 156.478 182.525 157.684C181.386 158.89 180.014 159.85 178.491 160.507C176.968 161.163 175.328 161.501 173.67 161.5H172.464C169.234 161.5 166.137 160.215 163.853 157.928C161.569 155.641 160.286 152.54 160.286 149.306Z" fill="#E91E63"/>
<path d="M231.941 121.489L211.307 120.618L209.478 104.359C209.478 104.359 189.246 95.126 185.757 95.9961C184.72 96.2428 184.344 102.113 184.396 110.281C184.396 121.722 185.174 137.644 185.848 148.669C185.938 150.327 185.69 151.985 185.118 153.543C184.547 155.102 183.665 156.527 182.525 157.732C181.386 158.938 180.013 159.898 178.49 160.555C176.968 161.212 175.328 161.551 173.67 161.552H172.477C171.154 161.564 169.839 161.354 168.586 160.929C166.16 160.122 164.047 158.573 162.549 156.498C161.05 154.424 160.24 151.931 160.234 149.371V108.684C160.23 101.595 163.027 94.7927 168.016 89.7626C170.232 87.5272 172.833 85.7104 175.693 84.3991C181.179 81.8018 187.158 79.7889 191.892 79.7889C203.733 79.7889 225.365 91.8404 225.365 91.8404C229.052 96.0469 232.491 100.466 235.663 105.074C238.879 110.047 231.941 121.489 231.941 121.489Z" fill="url(#paint4_linear)"/>
<path d="M221.514 104.139V120.619H211.307L209.478 104.359C209.478 104.359 189.246 95.126 185.758 95.9961C184.72 96.2429 184.344 102.113 184.396 110.281L170.817 99.2558L167.99 89.8276C168.82 89.4639 179.039 84.9706 194.486 89.8276C204.287 92.9187 213.445 97.7679 221.514 104.139Z" fill="url(#paint5_linear)"/>
<path d="M185.809 148.604C185.899 150.262 185.651 151.92 185.08 153.479C184.508 155.037 183.626 156.462 182.486 157.667C181.347 158.873 179.974 159.833 178.451 160.49C176.929 161.147 175.289 161.486 173.631 161.487H172.438C171.115 161.5 169.8 161.289 168.547 160.864C168.547 160.864 166.135 104.437 170.752 99.1909C175.369 93.9443 185.809 95.9962 185.809 95.9962C183.215 96.6195 184.759 129.722 185.809 148.604Z" fill="#E91E63"/>
<path d="M185.809 148.604C185.899 150.262 185.651 151.92 185.08 153.479C184.508 155.037 183.626 156.462 182.486 157.667C181.347 158.873 179.974 159.833 178.451 160.49C176.929 161.147 175.289 161.486 173.631 161.487H172.438C171.115 161.5 169.8 161.289 168.547 160.864C168.547 160.864 166.135 104.437 170.752 99.1909C175.369 93.9443 185.809 95.9962 185.809 95.9962C183.215 96.6195 184.759 129.722 185.809 148.604Z" fill="url(#paint6_linear)"/>
<path d="M424.961 221.199C380.944 206.394 337.925 188.733 303.66 156.461C298.304 151.423 293.116 146.072 287.215 141.735C278.971 135.562 269.475 131.275 259.397 129.177C251.33 127.514 242.822 127.229 235.43 123.605C232.836 122.307 230.242 120.151 230.242 117.281C230.242 114.411 232.836 112.97 233.899 110.632C234.434 109.289 234.64 107.839 234.503 106.4C234.365 104.961 233.887 103.576 233.108 102.36C232.381 101.322 231.546 100.364 230.618 99.5026C226.636 95.5287 222.59 91.5159 217.649 88.7238C216.929 88.3879 216.278 87.9212 215.729 87.3472C215.459 87.0549 215.284 86.6876 215.226 86.2936C215.168 85.8996 215.23 85.4973 215.405 85.1395C215.66 84.8315 215.979 84.5826 216.34 84.41C216.7 84.2373 217.094 84.1451 217.493 84.1395C221.929 83.4902 226.144 84.1395 230.462 84.1395C234.603 83.9595 238.752 84.1901 242.848 84.8278C251.221 86.6306 259.217 89.878 266.478 94.4248C277.891 101.256 288.149 110.009 299.653 116.723C311.948 123.956 325.488 128.826 338.898 133.605C358.17 143.254 380.399 149.28 401.772 155.02C403.847 158.344 405.922 161.669 407.881 165.045C417.958 182.11 425.636 201.914 424.961 221.199Z" fill="#F38A6B"/>
<path d="M212.759 144.371C212.414 145.197 212.382 146.12 212.669 146.968C213.239 148.163 214.886 148.358 216.157 147.994C217.368 147.469 218.628 147.065 219.918 146.786C223.135 146.514 225.301 149.877 226.818 152.721C229.652 158.006 232.85 163.088 236.389 167.928C237.608 169.591 239.294 171.409 241.318 171.071C242.614 168.474 239.878 165.435 240.189 162.513C240.319 161.214 241.045 160.007 240.851 158.734C240.565 156.812 238.464 155.825 237.206 154.357C234.612 151.358 235.845 146.631 233.99 143.163C233.251 141.787 232.045 140.67 231.396 139.267C231.04 138.307 230.817 137.302 230.735 136.28L228.854 121.593C228.621 119.723 217.376 121.203 216.196 124.099C215.12 126.696 215.561 130.852 215.12 133.683C214.541 137.289 213.753 140.857 212.759 144.371Z" fill="url(#paint7_linear)"/>
<path d="M227.038 8.1815L105.504 145.838H70.3838L198.39 0.636353C198.39 0.636353 215.639 3.27261 227.038 8.1815Z" fill="url(#paint8_linear)"/>
<path d="M238.853 173.967C237.556 172.837 236.506 171.37 234.898 170.824C234.763 170.757 234.614 170.722 234.463 170.722C234.313 170.722 234.164 170.757 234.029 170.824C233.914 170.944 233.835 171.095 233.803 171.259C233.771 171.422 233.786 171.591 233.847 171.746C234.159 172.85 235.261 173.473 236.117 174.214C238.335 176.097 239.242 179.058 239.852 181.902C240.021 183.591 240.731 185.181 241.875 186.434C242.224 186.77 242.688 186.96 243.172 186.966C243.598 186.889 243.982 186.662 244.255 186.327C244.529 185.991 244.674 185.568 244.664 185.135C244.614 184.274 244.394 183.43 244.015 182.655C243.315 180.863 243.47 178.304 242.64 176.694C241.979 175.447 239.943 174.928 238.853 173.967Z" fill="url(#paint9_linear)"/>
<path d="M200.906 155.422C200.076 158.201 201.152 161.136 201.736 163.967C201.8 164.241 201.8 164.525 201.736 164.799C201.639 165.109 201.43 165.373 201.149 165.536C200.868 165.7 200.536 165.752 200.218 165.682C199.904 165.577 199.634 165.371 199.449 165.096C199.263 164.821 199.174 164.493 199.194 164.162" fill="url(#paint10_linear)"/>
<path d="M217.364 172.383C220.32 173.136 221.695 176.577 221.929 179.616C222.162 182.655 221.734 185.85 222.953 188.642C223.05 188.903 223.205 189.138 223.407 189.33C223.685 189.515 224.021 189.593 224.352 189.55C224.683 189.507 224.988 189.346 225.21 189.096C225.628 188.565 225.869 187.915 225.897 187.239C226.023 186.059 225.926 184.865 225.612 183.72" fill="url(#paint11_linear)"/>
</g>
<defs>
<linearGradient id="paint0_linear" x1="88.6572" y1="11.1815" x2="392.035" y2="324.699" gradientUnits="userSpaceOnUse">
<stop offset="0.01" stop-color="white"/>
<stop offset="0.13" stop-color="white" stop-opacity="0.69"/>
<stop offset="1" stop-color="white" stop-opacity="0"/>
</linearGradient>
<linearGradient id="paint1_linear" x1="183.423" y1="310.78" x2="188.273" y2="242.199" gradientUnits="userSpaceOnUse">
<stop offset="0.01"/>
<stop offset="0.13" stop-opacity="0.69"/>
<stop offset="1" stop-opacity="0"/>
</linearGradient>
<linearGradient id="paint2_linear" x1="36731.7" y1="11640.1" x2="36656.5" y2="24228.8" gradientUnits="userSpaceOnUse">
<stop offset="0.01" stop-color="white"/>
<stop offset="0.13" stop-color="white" stop-opacity="0.69"/>
<stop offset="1" stop-color="white" stop-opacity="0"/>
</linearGradient>
<linearGradient id="paint3_linear" x1="18971.1" y1="6917.18" x2="28921.1" y2="6917.18" gradientUnits="userSpaceOnUse">
<stop offset="0.01" stop-color="white"/>
<stop offset="0.13" stop-color="white" stop-opacity="0.69"/>
<stop offset="1" stop-color="white" stop-opacity="0"/>
</linearGradient>
<linearGradient id="paint4_linear" x1="19469.7" y1="7457.31" x2="15571.1" y2="10635.2" gradientUnits="userSpaceOnUse">
<stop offset="0.01"/>
<stop offset="0.13" stop-opacity="0.69"/>
<stop offset="1" stop-opacity="0"/>
</linearGradient>
<linearGradient id="paint5_linear" x1="13170.5" y1="3759.83" x2="10868.6" y2="5333.39" gradientUnits="userSpaceOnUse">
<stop offset="0.01" stop-color="white"/>
<stop offset="0.13" stop-color="white" stop-opacity="0.69"/>
<stop offset="1" stop-color="white" stop-opacity="0"/>
</linearGradient>
<linearGradient id="paint6_linear" x1="3129.48" y1="8138.38" x2="5356.42" y2="8593.3" gradientUnits="userSpaceOnUse">
<stop offset="0.01"/>
<stop offset="0.13" stop-opacity="0.69"/>
<stop offset="1" stop-opacity="0"/>
</linearGradient>
<linearGradient id="paint7_linear" x1="6680.36" y1="8041.88" x2="7336.64" y2="8041.88" gradientUnits="userSpaceOnUse">
<stop offset="0.01" stop-color="white"/>
<stop offset="0.13" stop-color="white" stop-opacity="0.69"/>
<stop offset="1" stop-color="white" stop-opacity="0"/>
</linearGradient>
<linearGradient id="paint8_linear" x1="24677.7" y1="12842.3" x2="31953.1" y2="20964.2" gradientUnits="userSpaceOnUse">
<stop offset="0.01" stop-color="white"/>
<stop offset="0.13" stop-color="white" stop-opacity="0.69"/>
<stop offset="1" stop-color="white" stop-opacity="0"/>
</linearGradient>
<linearGradient id="paint9_linear" x1="2822.62" y1="3138.48" x2="2913.77" y2="3138.48" gradientUnits="userSpaceOnUse">
<stop offset="0.01" stop-color="white"/>
<stop offset="0.13" stop-color="white" stop-opacity="0.69"/>
<stop offset="1" stop-color="white" stop-opacity="0"/>
</linearGradient>
<linearGradient id="paint10_linear" x1="747.241" y1="1890.37" x2="752.402" y2="1890.37" gradientUnits="userSpaceOnUse">
<stop offset="0.01" stop-color="white"/>
<stop offset="0.13" stop-color="white" stop-opacity="0.69"/>
<stop offset="1" stop-color="white" stop-opacity="0"/>
</linearGradient>
<linearGradient id="paint11_linear" x1="2152.31" y1="3338.76" x2="2209.16" y2="3338.76" gradientUnits="userSpaceOnUse">
<stop offset="0.01" stop-color="white"/>
<stop offset="0.13" stop-color="white" stop-opacity="0.69"/>
<stop offset="1" stop-color="white" stop-opacity="0"/>
</linearGradient>
<clipPath id="clip0">
<rect width="425" height="323" fill="white"/>
</clipPath>
</defs>
</svg>
