<svg width="72" height="71" viewBox="0 0 72 71" fill="none" xmlns="http://www.w3.org/2000/svg">
<path d="M35.9303 70.9388C55.5195 70.9388 71.3997 55.0586 71.3997 35.4694C71.3997 15.8802 55.5195 0 35.9303 0C16.3411 0 0.460938 15.8802 0.460938 35.4694C0.460938 55.0586 16.3411 70.9388 35.9303 70.9388Z" fill="#212121"/>
<path d="M35.9302 69.6398C54.802 69.6398 70.1006 54.3412 70.1006 35.4694C70.1006 16.5976 54.802 1.29898 35.9302 1.29898C17.0584 1.29898 1.75977 16.5976 1.75977 35.4694C1.75977 54.3412 17.0584 69.6398 35.9302 69.6398Z" fill="#FF0000"/>
<path fill-rule="evenodd" clip-rule="evenodd" d="M35.9664 36.9488C49.2274 36.9488 60.66 43.0716 65.8975 51.9004C60.088 62.4738 48.8462 69.6398 35.9303 69.6398C23.0402 69.6398 11.8177 62.5021 5.99805 51.9638C11.2184 43.101 22.6735 36.9488 35.9664 36.9488ZM36.0025 10.3197C38.4931 10.3197 40.9278 11.0582 42.9987 12.442C45.0696 13.8257 46.6837 15.7924 47.6368 18.0935C48.5899 20.3945 48.8393 22.9265 48.3534 25.3693C47.8675 27.8121 46.6681 30.0559 44.907 31.8171C43.1459 33.5782 40.902 34.7776 38.4592 35.2635C36.0165 35.7494 33.4844 35.5 31.1834 34.5469C28.8823 33.5938 26.9156 31.9797 25.5319 29.9088C24.1481 27.8379 23.4096 25.4032 23.4096 22.9126C23.4096 19.5727 24.7363 16.3697 27.098 14.008C29.4596 11.6464 32.6626 10.3197 36.0025 10.3197V10.3197Z" fill="#F4F4F4"/>
</svg>
