<svg width="72" height="72" viewBox="0 0 72 72" fill="none" xmlns="http://www.w3.org/2000/svg">
<path d="M36.07 71.5837C55.6592 71.5837 71.5394 55.7035 71.5394 36.1143C71.5394 16.5251 55.6592 0.644897 36.07 0.644897C16.4808 0.644897 0.600586 16.5251 0.600586 36.1143C0.600586 55.7035 16.4808 71.5837 36.07 71.5837Z" fill="#212121"/>
<path d="M36.0688 70.2847C54.9406 70.2847 70.2392 54.986 70.2392 36.1143C70.2392 17.2425 54.9406 1.94385 36.0688 1.94385C17.197 1.94385 1.89844 17.2425 1.89844 36.1143C1.89844 54.986 17.197 70.2847 36.0688 70.2847Z" fill="#FFFF00"/>
<path fill-rule="evenodd" clip-rule="evenodd" d="M36.106 37.5937C49.3671 37.5937 60.7997 43.7165 66.0372 52.5453C60.2276 63.1187 48.9859 70.2847 36.07 70.2847C23.1799 70.2847 11.9573 63.147 6.1377 52.6088C11.358 43.7459 22.8131 37.5937 36.106 37.5937ZM36.1421 10.9646C38.6328 10.9646 41.0675 11.7032 43.1384 13.0869C45.2093 14.4706 46.8233 16.4374 47.7765 18.7384C48.7296 21.0395 48.979 23.5715 48.4931 26.0143C48.0072 28.457 46.8078 30.7009 45.0466 32.462C43.2855 34.2232 41.0417 35.4225 38.5989 35.9084C36.1561 36.3943 33.6241 36.1449 31.323 35.1918C29.022 34.2387 27.0552 32.6246 25.6715 30.5537C24.2878 28.4828 23.5492 26.0481 23.5492 23.5575C23.5492 20.2177 24.876 17.0146 27.2376 14.653C29.5992 12.2913 32.8023 10.9646 36.1421 10.9646Z" fill="#F4F4F4"/>
</svg>
