<svg width="72" height="72" viewBox="0 0 72 72" fill="none" xmlns="http://www.w3.org/2000/svg">
<path d="M36.1627 71.8082C55.7519 71.8082 71.6321 55.928 71.6321 36.3388C71.6321 16.7496 55.7519 0.869385 36.1627 0.869385C16.5735 0.869385 0.693359 16.7496 0.693359 36.3388C0.693359 55.928 16.5735 71.8082 36.1627 71.8082Z" fill="#212121"/>
<path d="M36.1636 70.5091C55.0354 70.5091 70.334 55.2105 70.334 36.3387C70.334 17.4669 55.0354 2.16833 36.1636 2.16833C17.2918 2.16833 1.99316 17.4669 1.99316 36.3387C1.99316 55.2105 17.2918 70.5091 36.1636 70.5091Z" fill="#E88C2A"/>
<path fill-rule="evenodd" clip-rule="evenodd" d="M36.1988 37.8182C49.4598 37.8182 60.8924 43.941 66.1299 52.7698C60.3204 63.3432 49.0786 70.5092 36.1627 70.5092C23.2727 70.5092 12.0501 63.3715 6.23047 52.8333C11.4508 43.9704 22.9059 37.8182 36.1988 37.8182ZM36.2349 11.1891C38.7255 11.1891 41.1602 11.9276 43.2311 13.3114C45.302 14.6951 46.9161 16.6618 47.8692 18.9629C48.8223 21.2639 49.0717 23.796 48.5858 26.2387C48.0999 28.6815 46.9006 30.9254 45.1394 32.6865C43.3783 34.4477 41.1344 35.647 38.6917 36.1329C36.2489 36.6188 33.7169 36.3694 31.4158 35.4163C29.1148 34.4632 27.148 32.8491 25.7643 30.7782C24.3806 28.7073 23.642 26.2726 23.642 23.782C23.642 20.4421 24.9688 17.2391 27.3304 14.8775C29.692 12.5158 32.8951 11.1891 36.2349 11.1891V11.1891Z" fill="#F4F4F4"/>
</svg>
