<svg width="346" height="939" viewBox="0 0 346 939" fill="none" xmlns="http://www.w3.org/2000/svg">
<path fill-rule="evenodd" clip-rule="evenodd" d="M167.244 178.6C212.297 178.6 258.184 136.026 258.184 90.958C258.184 45.911 214.5 0 169.442 0C124.41 0 79.6163 46.989 79.6163 92.04C79.6163 137.111 122.212 178.6 167.244 178.6ZM344.691 439.556V304.36C344.691 260.169 347.63 264.407 344.691 236.773C333.438 202.958 310.912 191.701 288.385 191.701H187.052C141.799 191.701 119.834 191.561 74.7824 191.561C52.2764 191.561 37.6053 190.083 20.8953 205.261C-1.89266 231.094 0.387342 233.354 0.387342 305.461V443.033C0.387342 478.628 -5.62966 534.016 30.0073 534.016C63.8273 534.016 63.5073 509.879 63.5073 473.927C63.5073 423.138 63.3883 409.96 63.3883 379.966C63.3883 347.172 61.5104 341.594 68.1044 341.594C74.7404 341.594 74.6784 342.032 74.6784 376.887C74.6784 409.181 74.4414 863.915 74.4414 890.21C74.4414 912.746 86.4513 936.88 120.369 936.88C154.189 936.88 168.299 917.08 168.299 894.547V657.974C168.299 635.438 169.061 624.521 174.636 624.521C180.314 624.521 179.573 635.438 179.573 657.974V894.547C179.573 908.547 194.424 939.001 228.223 939.001C250.749 939.001 271.458 910.044 271.458 895.026C271.458 804.907 271.978 403.882 271.978 375.526C271.978 360.169 270.656 340.651 276.415 340.651C282.15 340.651 282.052 345.951 282.052 368.105V454.871C282.052 514.121 291.246 529.671 313.772 529.671C347.552 529.675 344.691 471.81 344.691 439.556Z" fill="#393939"/>
</svg>
