<svg width="436" height="938" viewBox="0 0 436 938" fill="none" xmlns="http://www.w3.org/2000/svg">
<path fill-rule="evenodd" clip-rule="evenodd" d="M223.794 179.035C268.952 179.035 314.91 136.335 314.91 91.146C314.91 45.978 271.155 -0.0109863 225.998 -0.0109863C180.86 -0.0109863 135.961 47.083 135.961 92.247C135.961 137.435 178.657 179.035 223.794 179.035ZM424.235 440.682C400.417 369.212 390.377 339.018 379.097 305.137C367.797 259.969 367.797 271.256 356.519 237.375C345.219 203.494 322.66 192.186 300.082 192.186H153.354C130.775 192.186 96.9171 203.494 85.6171 237.375C74.3381 271.256 74.3381 271.256 63.0381 305.137C51.7591 339.018 29.1801 406.8 17.9001 440.682C6.60014 474.563 -15.9789 519.752 17.9001 531.039C51.7581 542.346 74.3371 474.563 85.6161 440.682C96.9161 406.801 96.9162 406.801 108.195 372.92C110.595 366.745 115.104 347.12 123.881 350.404C129.412 352.613 123.881 360.29 119.474 372.92C110.739 404.896 40.4582 621.412 40.4582 621.412H130.774V892.482C130.774 915.076 138.545 938.011 169.219 938.011C199.192 938.011 209.79 915.076 209.79 892.482V655.293C209.79 632.699 210.528 621.753 216.121 621.753C221.807 621.753 221.069 632.699 221.069 655.293V892.482C221.069 906.515 228.118 937.309 261.269 937.309C291.262 937.309 300.076 907.538 300.076 892.482V621.412H390.371C390.371 621.412 329.151 407.023 320.4 372.378C317.052 356.501 312.666 350.547 318.2 347.119C325.832 345.033 321.9 348.08 333.944 384.207C345.223 418.088 345.223 418.088 356.523 451.969C364.318 475.343 379.101 531.039 401.66 531.039C435.534 531.039 446.814 508.445 424.235 440.682Z" fill="#393939"/>
</svg>
