<svg width="1338" height="162" viewBox="0 0 1338 162" fill="none" xmlns="http://www.w3.org/2000/svg">
<path fill-rule="evenodd" clip-rule="evenodd" d="M0 161.996V145.626C0.516495 145.341 1.0288 145.054 1.55228 144.769C2.07017 142.52 3.42213 140.045 6.61532 138.406C5.85593 139.81 4.89553 141.481 3.95956 143.48C21.6932 134.104 40.2591 125.674 59.5239 118.251C58.3967 113.551 55.7891 107.988 48.1736 101.855C57.9109 107.093 60.9394 113.361 61.8391 117.35C63.51 116.706 65.1942 116.064 66.8916 115.425C67.503 108.71 67.101 98.4519 62.47 85.5275C71.4982 97.9224 71.9247 107.49 70.112 114.224C71.4661 113.721 72.8267 113.22 74.1937 112.721C75.3781 110.507 77.4069 108.615 80.0183 107.288C79.3447 108.516 78.5581 109.89 77.7394 111.436C94.2356 105.517 111.819 99.8457 130.49 94.4216C128.85 91.4581 126.496 88.7539 123.551 86.448C127.209 88.3475 130.17 90.925 132.155 93.9372C132.618 93.8033 133.079 93.6716 133.543 93.5361C132.258 88.376 129.464 83.268 127.077 79.2313C134.098 85.971 134.786 90.8018 134.467 93.2738C135.677 92.9274 136.892 92.5824 138.111 92.2385C137.945 86.0167 136.749 79.8355 134.552 73.8412C139.655 80.8747 141.182 86.7279 141.082 91.4031C141.605 91.2565 142.135 91.112 142.661 90.9659C143.121 87.062 144.889 78.0707 151.466 76.4008C147.086 81.8408 145.609 85.0782 143.304 90.788C159.117 86.406 175.603 82.211 192.762 78.203C191.878 71.9285 189.942 63.9082 178.699 54.8213C196.051 64.1897 195.246 76.3509 195.106 77.6559C196.676 77.2926 198.252 76.9309 199.832 76.5708C201.237 69.6016 202.469 55.2006 195.47 35.6007C209.556 55.0072 205.8 68.535 201.743 76.1389C203.579 75.723 205.41 75.3061 207.257 74.895C207.455 70.6039 209.133 64.7347 216.052 61.2185C214.221 64.5695 211.68 68.8442 209.594 74.383C210.794 74.1181 211.997 73.8543 213.204 73.5916C213.706 72.6995 214.435 71.8921 215.35 71.2159C216.264 70.5398 217.346 70.0085 218.532 69.6526C219.289 69.1868 218.721 70.5247 217.32 72.6976C229.691 70.0387 242.362 67.4807 255.334 65.0236C255.011 63.8515 254.838 62.6586 254.815 61.4612C254.658 59.0292 254.122 56.6199 253.22 54.2838C252.522 52.6973 251.824 49.2209 251.824 45.8965C251.794 43.1992 252.195 40.5092 253.02 37.8857C253.516 36.5249 253.216 34.2585 252.121 32.4446C251.125 31.462 251.125 30.934 251.423 30.7067C251.622 30.5553 253.018 31.462 253.914 32.672C255.11 34.2585 259.194 41.5894 260.19 44.8384C260.458 47.2251 260.525 49.6225 260.39 52.0158C259.89 54.6604 259.89 59.7233 260.789 62.6712C260.91 63.0833 261.065 63.4976 261.235 63.9125C263.254 63.5371 265.278 63.1635 267.308 62.7917C267.294 62.753 267.275 62.7094 267.264 62.6712C266.601 60.6166 266.234 58.5133 266.168 56.3983C266.339 54.7515 266.17 53.0945 265.669 51.4873C265.172 50.1281 265.172 48.9182 265.669 46.4244C267.065 39.7755 272.344 35.0897 275.831 33.1988C277.227 32.2922 278.522 31.4609 279.219 30.5543C279.605 30.1879 280.079 29.8802 280.615 29.6471C280.915 29.6471 280.615 30.4045 280.415 31.0844C279.471 32.7186 278.231 34.2442 276.731 35.6166C274.349 37.7848 271.69 42.4536 270.24 47.2419C272.05 47.847 273.711 48.4633 275.223 49.0908C275.316 48.7749 275.42 48.4653 275.533 48.1618C276.268 46.1668 278.036 44.1941 280.256 42.2868C278.987 40.8984 277.707 39.5716 276.482 38.3313C278.318 39.3862 279.925 40.3996 281.352 41.3748C283.079 39.9901 284.999 38.6442 286.891 37.3545C290.279 35.0887 291.871 31.087 291.175 27.9091C290.775 26.5494 290.775 25.6427 290.975 25.4914C291.475 25.4914 291.871 25.8701 293.069 27.9091C294.021 30.3326 294.753 32.8032 295.259 35.3033C301.777 41.608 304.233 47.0448 304.48 51.6063C305.784 50.2998 306.686 48.7868 307.119 47.1792C307.318 46.4234 307.817 45.7451 308.014 45.8954C308.514 45.8954 308.514 46.272 308.514 47.4819C307.763 50.4454 306.778 53.3719 305.567 56.2459C307.501 55.9357 309.438 55.6269 311.379 55.3195C313.42 53.8719 315.813 52.7417 318.423 51.9924C317.696 52.7892 316.882 53.6555 316.026 54.5919C331.21 52.2403 346.707 50.0249 362.517 47.9456C360.57 46.1929 358.375 44.6086 355.972 43.2216C359.053 44.393 361.891 45.9023 364.395 47.7013C365.668 47.5345 366.943 47.3686 368.219 47.2036C366.26 43.177 363.32 39.3102 360.732 36.1228C367.185 40.6376 369.67 44.2765 370.468 46.9104C372.127 46.698 373.797 46.4914 375.462 46.2821C374.877 40.9881 373.314 35.7833 370.819 30.8214C376.597 36.6226 378.974 41.6037 379.514 45.7764C380.421 45.6638 381.324 45.548 382.236 45.4365C382.929 42.742 384.316 39.2221 387.075 36.6301C387.054 36.5769 387.033 36.5238 387.012 36.4776C386.16 34.0203 385.743 31.4873 385.773 28.946C385.746 26.5243 386.103 24.1091 386.837 21.7526C387.247 20.1001 386.967 18.3914 386.036 16.8661C385.15 15.9838 385.15 15.5095 385.417 15.3056C385.595 15.1696 386.837 15.9838 387.635 17.07C388.699 18.4946 392.335 25.0776 393.218 27.9952C393.362 29.0325 393.505 31.6521 393.462 33.3784C393.526 33.3656 393.588 33.3502 393.653 33.3385C393.583 33.3991 393.524 33.4565 393.458 33.5165C393.447 33.8761 393.427 34.1942 393.396 34.4401C392.953 36.8149 392.953 41.3615 393.752 44.0082C393.757 44.0252 393.764 44.0428 393.769 44.0614C395.616 43.845 397.468 43.6313 399.324 43.4203C398.861 41.7612 398.599 40.0731 398.541 38.3775C398.693 36.8994 398.543 35.4122 398.097 33.969C397.655 32.7474 397.655 31.6622 398.097 29.4229C399.339 23.4523 404.04 19.2445 407.144 17.5475C408.305 16.8796 409.322 16.0785 410.159 15.1728C410.503 14.8445 410.924 14.5683 411.402 14.3585C411.669 14.3585 411.402 15.0384 411.224 15.6487C410.385 17.115 409.281 18.485 407.943 19.7189C404.839 22.5701 401.201 30.2356 401.201 36.0038C401.334 38.3854 401.839 40.7466 402.705 43.0373C404.076 42.8822 405.439 42.7234 406.813 42.5704C405.85 38.5958 405.627 34.3318 406.879 30.9834C408.119 27.5899 412.644 24.2665 416.99 21.2794C420.006 19.2445 421.424 15.6492 420.804 12.7975C420.448 11.5758 420.448 10.7626 420.626 10.6267C421.071 10.6267 421.424 10.9666 422.488 12.7975C422.933 13.7482 424.973 19.7189 424.973 23.9266C424.973 29.7613 420.006 35.0557 413.886 39.9396C413.091 40.5676 412.4 41.2674 411.829 42.0233C413.968 41.7896 416.105 41.5549 418.25 41.3265C418.418 41.1762 418.585 41.0248 418.761 40.8904C421.971 38.3759 425.051 37.5112 427.702 36.6306C427.52 36.4782 427.348 36.3268 427.157 36.1733C427.403 36.3061 427.627 36.4426 427.863 36.5769C430.218 35.7882 432.221 34.9548 433.656 32.8961C432.783 31.2495 431.886 29.6832 431.034 28.2464C432.213 29.3723 433.311 30.5457 434.323 31.7616C434.591 31.2192 434.814 30.6646 434.991 30.1012C435.169 29.4229 435.611 28.8126 435.789 28.9486C436.233 28.9486 436.233 29.2869 436.233 30.3731C436.155 30.6945 435.884 31.7541 435.445 33.184C436.895 35.0763 437.987 37.1147 438.688 39.2391C440.116 39.0992 441.546 38.9607 442.978 38.8237C442.46 33.2447 441.213 27.7189 439.253 22.3284C443.79 28.5662 445.756 33.9605 446.289 38.5103C447.067 38.4367 447.846 38.363 448.624 38.2894C449.576 33.4878 451.954 26.6365 457.858 25.1392C454.49 29.1899 451.856 33.5684 450.029 38.156C458.482 37.3682 466.998 36.6173 475.574 35.9035C475.113 34.8916 474.646 33.9281 474.2 33.031C474.995 33.935 475.724 34.8714 476.385 35.836C477.874 35.7128 479.365 35.5903 480.86 35.4684C480.489 33.3715 479.966 31.113 479.243 28.7016C480.562 30.8382 481.622 33.0619 482.409 35.3452C483.778 35.2358 485.149 35.1269 486.52 35.0186C487.418 33.0331 488.732 31.3398 490.66 30.7572C489.613 32.3007 488.817 33.6222 488.152 34.8884C496.972 34.2004 505.858 33.5544 514.807 32.9503C514.773 32.8653 514.737 32.783 514.706 32.7081C513.866 30.3077 513.454 27.832 513.483 25.348C513.457 22.9811 513.808 20.6205 514.53 18.3182C514.935 16.703 514.658 15.0319 513.741 13.5432C512.866 12.6806 512.867 12.2153 513.13 12.0177C513.306 11.885 514.53 12.6806 515.317 13.7424C516.364 15.1345 519.954 21.5678 520.827 24.4184C521.063 26.513 521.122 28.617 521.003 30.7173C520.905 31.2368 520.83 31.8667 520.78 32.5546C522.536 32.4398 524.295 32.3267 526.056 32.2152C525.985 31.5539 525.845 30.8979 525.637 30.2536C525.201 29.0607 525.201 27.9989 525.637 25.8106C526.862 19.9759 531.5 15.8638 534.56 14.2055C535.704 13.554 536.707 12.7709 537.535 11.8844C537.874 11.5629 538.289 11.2926 538.76 11.0877C539.023 11.0877 538.76 11.7522 538.584 12.3487C537.756 13.783 536.667 15.1218 535.349 16.3259C532.322 19.0809 528.783 26.4352 528.703 32.0479C530.289 31.9491 531.876 31.851 533.465 31.7536C533.506 30.2602 533.787 28.7762 534.302 27.335C535.525 24.0185 539.988 20.7705 544.276 17.8513C545.73 16.7988 546.832 15.4964 547.489 14.0532C548.146 12.61 548.339 11.068 548.052 9.55641C547.703 8.36345 547.703 7.56779 547.876 7.43182C548.314 7.43182 548.663 7.76485 549.713 9.55641C550.151 10.4854 552.163 16.32 552.163 20.4327C552.159 20.9066 552.121 21.38 552.05 21.8509C555.594 23.7952 558.562 26.2838 560.763 29.1557C561.326 28.317 561.753 27.4291 562.034 26.5117C560.103 21.1652 556.881 15.9854 554.077 11.7777C565.575 21.5619 564.496 27.9888 563.666 30.0853C565.431 29.9976 567.192 29.9073 568.961 29.8229C569.153 23.7381 568.226 15.4128 564.164 5.32741C572.489 15.4984 573.768 23.6079 572.633 29.654C574.103 29.5853 575.574 29.518 577.046 29.4521C578.35 27.7905 580.188 26.4083 582.387 25.4351C581.68 26.5829 580.851 27.872 579.991 29.3178C601.007 28.3971 622.292 27.7066 643.845 27.2463C642.269 25.5561 640.535 23.9539 638.658 22.4521C641.246 23.83 643.621 25.426 645.739 27.2096C647.615 27.171 649.494 27.1347 651.375 27.1007C649.307 21.9508 646.765 16.9181 643.767 12.0401C650.224 18.2072 652.98 23.2627 654.021 27.0498C655.878 27.0168 657.733 26.9818 659.594 26.952C658.983 19.2769 657.309 11.6724 654.601 4.26459C661.041 13.0944 663.556 20.6372 664.005 26.8915C664.889 26.8787 665.774 26.8665 666.658 26.8548C667.68 20.5952 670.646 10.0998 679.126 7.95712C673.272 15.1924 670.998 19.7189 668.06 26.8352C680.477 26.6726 692.965 26.5854 705.525 26.5733C704.052 25.0962 702.537 23.6929 701.106 22.4017C703.597 23.6557 705.96 25.05 708.177 26.5728C712.141 26.5749 716.099 26.5853 720.049 26.6041C718.848 23.2844 717.194 20.0694 715.115 17.0116C719.875 20.5097 722.967 23.7136 724.858 26.6291C727.825 26.6471 730.784 26.67 733.736 26.6976C735.067 24.8329 736.938 23.2225 739.206 21.988C741.474 20.7535 744.081 19.9271 746.83 19.5712C743.466 21.7205 740.391 24.1195 737.652 26.7327C744.478 26.8035 751.278 26.8991 758.053 27.0195C757.914 26.5669 757.767 26.1638 757.635 25.8541C756.78 23.3973 756.362 20.8643 756.392 18.323C756.367 15.9013 756.726 13.4861 757.46 11.1297C757.868 9.47697 757.588 7.7685 756.657 6.24311C755.771 5.36087 755.771 4.88656 756.036 4.6826C756.218 4.54663 757.46 5.36087 758.256 6.44707C759.324 7.87161 762.96 14.4546 763.847 17.3722C764.084 19.5156 764.143 21.6682 764.021 23.8172C763.84 24.9139 763.742 26.0177 763.728 27.1231C765.564 27.1585 767.394 27.1962 769.221 27.2362C769.276 25.9276 769.109 24.6191 768.725 23.3429C768.279 22.1212 768.279 21.0356 768.725 18.7968C769.968 12.8256 774.665 8.61787 777.771 6.92139C778.931 6.25334 779.949 5.45221 780.786 4.54662C781.128 4.21744 781.55 3.94107 782.028 3.73238C782.294 3.73238 782.029 4.41225 781.847 5.02254C781.011 6.48983 779.906 7.85991 778.567 9.09219C775.468 11.9434 771.824 19.6089 771.824 25.3777C771.832 26.0189 771.888 26.6593 771.992 27.2957C773.562 27.3311 775.133 27.3674 776.703 27.4046C776.463 25.0379 776.734 22.6572 777.506 20.3573C778.748 16.9638 783.271 13.6404 787.619 10.6532C790.634 8.61787 792.051 5.02306 791.43 2.17133C791.074 0.94969 791.074 0.135974 791.256 0C791.695 0 792.051 0.340464 793.112 2.17133C793.559 3.12208 795.597 9.09218 795.597 13.3005C795.597 18.4813 791.681 23.2356 786.516 27.6553C788.792 27.7172 791.067 27.7813 793.343 27.8475C798.891 25.2566 803.603 25.817 805.62 19.4751C805.801 18.7968 806.241 18.1865 806.422 18.3225C806.862 18.3225 806.862 18.6603 806.862 19.747C806.145 22.6034 805.187 25.4217 803.994 28.1843C806.262 28.2602 808.537 28.3362 810.806 28.4169C809.5 25.8563 808.118 23.4358 806.827 21.2464C809.217 23.5092 811.32 25.9389 813.109 28.503C815.754 28.5996 818.395 28.6988 821.031 28.8004C820.181 23.7441 818.868 18.7391 817.101 13.8221C820.628 18.5562 823.237 23.6531 824.849 28.955C826.57 29.0258 828.294 29.0966 830.021 29.1674C831.689 24.0684 834.753 18.7718 840.358 17.3473C837.232 21.1126 834.617 25.11 832.554 29.2779C849.375 30.0091 866.012 30.8827 882.466 31.8986C882.229 30.2113 881.797 28.5432 881.175 26.9138C880.32 24.4569 879.902 21.924 879.932 19.3826C879.907 16.9609 880.266 14.5457 881 12.1893C881.408 10.5366 881.128 8.82814 880.197 7.30275C879.311 6.42052 879.311 5.9462 879.576 5.74224C879.758 5.60626 881 6.42052 881.796 7.50671C882.864 8.93125 886.5 15.5143 887.386 18.4314C887.624 20.5748 887.683 22.7277 887.561 24.8768C887.193 27.3127 887.163 29.7713 887.47 32.212C889.369 32.3331 891.274 32.4536 893.173 32.5785C892.903 31.3327 892.747 30.0743 892.705 28.8121C892.858 27.3341 892.71 25.847 892.265 24.4036C891.819 23.1819 891.819 22.0963 892.265 19.8575C893.508 13.8863 898.205 9.67857 901.311 7.98209C902.471 7.31404 903.489 6.51291 904.326 5.60733C904.668 5.27814 905.09 5.00176 905.568 4.79308C905.834 4.79308 905.568 5.47295 905.387 6.08323C904.551 7.55053 903.446 8.92061 902.107 10.1529C899.51 12.5431 896.53 18.3129 895.636 23.5139C897.395 25.2194 898.924 26.8543 900.243 28.4159C900.01 26.0656 900.281 23.702 901.046 21.418C902.288 18.0245 906.811 14.7011 911.159 11.7134C914.174 9.67858 915.591 6.08324 914.97 3.23204C914.614 2.0104 914.614 1.19668 914.796 1.06071C915.235 1.06071 915.591 1.40117 916.652 3.23204C917.099 4.18226 919.137 10.1529 919.137 14.3612C919.137 17.7871 917.42 21.026 914.768 24.1061C915.584 25.7499 916.292 27.3484 916.889 28.9019C922.438 26.3184 927.143 26.8724 929.16 20.5358C929.341 19.8575 929.781 19.2467 929.962 19.3832C930.402 19.3832 930.402 19.721 930.402 20.8077C930.311 21.1869 929.955 22.5902 929.362 24.4259C931.526 21.5402 934.36 19.2578 938.073 18.3134C933.702 23.5701 930.125 29.1849 927.408 35.0515C941.967 36.1991 956.343 37.4579 970.535 38.828C968.616 34.6106 966.361 30.6302 964.309 27.1772C969.125 31.7775 971.952 35.7792 973.557 39.1238C975.847 39.3469 978.143 39.5657 980.425 39.7946C979.62 32.8093 977.977 25.8946 975.519 19.1367C981.416 27.2261 984.124 34.2654 984.99 40.2642C986.107 40.3784 987.223 40.4936 988.333 40.6094C989.659 34.1002 992.926 24.9666 1000.89 22.9551C996.258 28.5026 992.642 34.5048 990.141 40.7959C1004.37 42.2809 1018.39 43.8714 1032.21 45.5672C1030.42 43.3876 1028.34 41.3478 1026.02 39.4775C1029.32 41.2426 1032.23 43.4 1034.63 45.8673C1036 46.0372 1037.37 46.2061 1038.74 46.3782C1036.8 40.3104 1033.59 34.4327 1030.78 29.6572C1038.56 37.1803 1040.58 42.9534 1040.82 46.6433C1042.44 46.8493 1044.07 47.0549 1045.68 47.2636C1045.44 38.8306 1043.83 30.4529 1040.87 22.3236C1048.34 32.6916 1050.14 41.1793 1049.61 47.7783C1050.28 47.8654 1050.95 47.952 1051.61 48.0396C1051.66 46.9577 1052.64 28.6389 1063.71 25.8058C1057.15 34.0152 1055.41 38.5247 1051.62 48.0418C1052.68 48.1809 1053.73 48.3206 1054.77 48.4608C1055.92 47.1695 1057.39 46.0581 1059.09 45.1868C1058.51 46.2693 1057.84 47.4644 1057.13 48.7774C1066.4 50.0256 1075.56 51.322 1084.62 52.6665C1084.49 50.7658 1084.07 48.883 1083.37 47.056C1082.62 44.9059 1082.26 42.6896 1082.29 40.466C1082.26 38.3472 1082.57 36.2339 1083.21 34.1719C1083.57 32.7263 1083.33 31.2313 1082.52 29.8967C1081.73 29.1249 1081.73 28.7096 1081.97 28.5311C1082.13 28.4121 1083.21 29.1249 1083.91 30.0752C1084.85 31.3218 1088.04 37.0821 1088.81 39.6358C1089.02 41.511 1089.08 43.3946 1088.97 45.275C1088.55 47.9644 1088.63 50.685 1089.2 53.358C1090.98 53.6236 1092.77 53.8929 1094.54 54.1648C1094.46 53.9816 1094.38 53.8052 1094.33 53.6475C1093.82 52.0328 1093.53 50.3804 1093.48 48.719C1093.61 47.4251 1093.48 46.1234 1093.09 44.8602C1092.7 43.7921 1092.7 42.8418 1093.09 40.8824C1094.18 35.6575 1098.3 31.9761 1101.02 30.4916C1102.04 29.9071 1102.93 29.2059 1103.67 28.4132C1103.97 28.1262 1104.34 27.8846 1104.75 27.7009C1104.99 27.7009 1104.75 28.2958 1104.6 28.8296C1103.86 30.1112 1102.89 31.3089 1101.72 32.3883C1099 34.8847 1095.81 41.592 1095.81 46.6379C1095.81 48.8475 1096.73 51.8735 1097.82 54.6742C1099.08 54.8691 1100.34 55.0641 1101.59 55.2585C1101.59 55.2351 1101.58 55.2085 1101.57 55.1862C1100.09 51.0295 1099.39 45.9825 1100.79 42.2427C1101.88 39.2731 1105.84 36.365 1109.65 33.7512C1110.95 32.8051 1111.92 31.6384 1112.5 30.3478C1113.09 29.0572 1113.25 27.6797 1113 26.3295C1112.69 25.2614 1112.69 24.5491 1112.84 24.4301C1113.23 24.4301 1113.54 24.7276 1114.48 26.3295C1114.87 27.1613 1116.65 32.3846 1116.65 36.0676C1116.65 41.173 1112.3 45.8056 1106.93 50.0792C1105.04 51.5752 1103.86 53.506 1103.57 55.5681C1104.92 55.7806 1106.26 56 1107.61 56.2156C1108.43 54.1117 1109.61 52.1332 1111.21 50.911C1117.51 45.9825 1123.26 48.2983 1125.44 41.4704C1125.6 40.8771 1125.99 40.3428 1126.14 40.4612C1126.53 40.4612 1126.53 40.7571 1126.53 41.7078C1126.3 42.657 1124.2 50.9105 1120.62 54.4729C1119.28 55.7846 1117.54 56.8259 1115.54 57.5052C1120.49 58.3196 1125.4 59.1475 1130.29 59.9889C1128.55 56.3935 1126.62 53.0043 1124.84 50.0113C1128.29 53.2042 1131.15 56.7413 1133.34 60.5243C1135.86 60.9634 1138.37 61.406 1140.87 61.8521C1140.03 55.1312 1138.41 48.4791 1136.05 41.9718C1141.82 49.8753 1144.53 56.777 1145.46 62.6866C1146.6 62.8948 1147.76 63.0998 1148.89 63.3091C1150.24 56.8094 1153.51 47.7884 1161.42 45.7908C1156.79 51.3401 1153.17 57.3443 1150.67 63.6373C1164.7 66.2336 1178.39 68.9502 1191.74 71.7872C1191.72 71.5249 1191.71 71.271 1191.71 71.033C1191.57 68.9235 1191.11 66.8337 1190.32 64.8074C1189.5 62.4339 1189.09 59.9865 1189.12 57.5307C1189.09 55.1912 1189.44 52.858 1190.16 50.5828C1190.55 48.986 1190.28 47.3352 1189.38 45.863C1188.52 45.0132 1188.52 44.5527 1188.77 44.3556C1188.95 44.2244 1190.16 45.011 1190.93 46.0601C1191.96 47.4363 1195.5 53.7946 1196.36 56.6129C1196.6 58.6829 1196.65 60.7622 1196.54 62.8379C1196.1 65.132 1196.1 69.5235 1196.89 72.0799C1196.97 72.3667 1197.07 72.6543 1197.18 72.9425C1199.36 73.4131 1201.53 73.8878 1203.68 74.3665C1203.18 73.6389 1202.78 72.8723 1202.49 72.0799C1201.92 70.2976 1201.6 68.4736 1201.54 66.6394C1201.69 65.2111 1201.54 63.7739 1201.11 62.3801C1200.68 61.2009 1200.68 60.1493 1201.11 57.9886C1202.32 52.2214 1206.89 48.157 1209.91 46.5184C1211.04 45.8746 1212.03 45.1006 1212.84 44.2244C1213.18 43.907 1213.58 43.6402 1214.05 43.4378C1214.31 43.4378 1214.05 44.0948 1213.87 44.6844C1213.06 46.1018 1211.98 47.425 1210.68 48.6149C1207.67 51.3689 1204.13 58.7747 1204.13 64.3448C1204.13 67.2985 1205.62 71.5727 1207.15 75.1271C1208.49 75.4245 1209.8 75.7289 1211.12 76.0301C1210.93 75.1685 1210.72 74.3835 1210.52 73.7849C1208.88 69.1968 1208.09 63.6251 1209.65 59.497C1210.86 56.2193 1215.26 53.0096 1219.49 50.1239C1220.92 49.0816 1222 47.7945 1222.65 46.3695C1223.29 44.9445 1223.48 43.4229 1223.2 41.9309C1222.85 40.7523 1222.85 39.9657 1223.02 39.8339C1223.46 39.8339 1223.8 40.1627 1224.83 41.9309C1225.26 42.8493 1227.25 48.6165 1227.25 52.6808C1227.25 58.3163 1222.42 63.4302 1216.46 68.1478C1213.69 70.3484 1212.59 72.9505 1212.55 76.3551C1213.85 76.6499 1215.16 76.9394 1216.45 77.2384C1217.29 74.127 1218.85 70.8604 1221.21 69.0662C1226.8 64.7171 1231.99 65.474 1235.09 62.1039C1234.42 60.9221 1233.76 59.7775 1233.12 58.6891C1234.06 59.5921 1234.92 60.4696 1235.71 61.3268C1236.29 60.4769 1236.72 59.576 1237 58.6451C1237.17 57.9896 1237.6 57.4001 1237.77 57.5297C1238.2 57.5297 1238.2 57.8563 1238.2 58.9053C1238.11 59.3005 1237.72 60.8403 1237.05 62.8162C1248.16 75.6641 1243.52 82.9647 1243.52 82.9647C1242.35 76.6053 1239.48 70.1959 1236.44 64.5488C1235.42 67.2613 1233.99 70.3457 1232.19 72.4156C1236.62 75.4186 1240.04 79.1874 1242.16 83.405C1244.7 84.0424 1247.22 84.6858 1249.73 85.3352C1250.41 77.4254 1249.87 65.4703 1244.51 50.4696C1255.98 66.2729 1255.62 78.1759 1252.9 86.159C1254.14 86.4823 1255.37 86.8069 1256.6 87.1326C1257.34 83.2956 1259.51 78.9248 1265.1 76.0848C1262.86 79.9126 1260.9 83.8267 1259.2 87.8109C1260.19 88.0765 1261.17 88.3447 1262.15 88.6108C1262.65 87.6861 1263.38 86.8472 1264.31 86.1444C1265.25 85.4415 1266.36 84.8893 1267.58 84.521C1268.52 83.9341 1267.38 86.2095 1265.11 89.4123C1289.9 96.0986 1314.22 103.731 1338 112.28V161.996H0ZM275.005 49.9592C273.579 49.1046 271.987 48.2362 270.212 47.3566C269.557 49.4539 269.206 51.5994 269.165 53.7548C269.165 56.0823 269.969 59.1194 271.043 62.1214C272.537 61.8521 274.029 61.5834 275.53 61.3167C274.564 57.5004 274.214 53.4292 275.005 49.9592ZM284.187 57.5105C283.929 57.7193 283.673 57.9285 283.41 58.1357C282.569 58.7967 281.831 59.5294 281.21 60.3192C282.676 60.0638 284.142 59.8056 285.616 59.5528C285.191 58.852 284.714 58.1701 284.187 57.5105V57.5105ZM295.833 40.9C295.642 44.5399 293.728 47.9908 290.844 51.278C292.402 55.2447 290.135 57.3862 290.135 57.3862C289.735 56.1123 289.22 54.8611 288.591 53.6417C287.884 54.329 287.143 55.009 286.369 55.6818C287.486 56.6786 288.449 57.77 289.238 58.9345H289.243C292.572 56.4493 295.771 55.4821 298.567 54.5733C298.483 49.9417 297.563 45.3408 295.833 40.9V40.9ZM388.435 42.9183C388.379 41.7026 388.196 40.4922 387.889 39.2985C386.381 41.202 385.052 43.184 383.91 45.2299C385.463 45.0408 387.03 44.8581 388.587 44.6732C388.49 44.0918 388.44 43.5065 388.435 42.9204V42.9183ZM434.814 35.1354C434.304 36.5993 433.666 38.2325 432.906 39.8058C434.171 39.6794 435.437 39.5535 436.706 39.4281C436.138 37.9675 435.494 36.5307 434.814 35.1375V35.1354ZM551.955 22.4537C551.359 25.4282 549.492 28.2613 546.93 30.9659C550.917 30.7439 554.913 30.5289 558.918 30.3211C557.184 27.4248 554.831 24.7671 551.955 22.4559V22.4537ZM562.739 28.6793C562.609 29.1207 562.46 29.6141 562.283 30.1506L563.121 30.1086C563.006 29.6338 562.876 29.1558 562.739 28.6814V28.6793ZM895.615 23.644C895.455 24.57 895.371 25.5028 895.364 26.4368C895.472 28.5917 895.903 30.7301 896.648 32.8106C898.037 32.9035 899.426 32.9944 900.808 33.0889C899.112 29.7193 897.312 26.5329 895.615 23.6462V23.644ZM912.255 26.7327C910.957 27.9713 909.54 29.1839 908.053 30.3726C906.93 31.2568 906.023 32.2857 905.373 33.4113C907.139 33.5356 908.905 33.662 910.671 33.7906C911.258 32.8865 912.02 32.0546 912.932 31.3228C913.009 31.2612 913.085 31.206 913.169 31.146C912.904 29.7129 912.604 28.2443 912.255 26.7348V26.7327ZM924.211 34.8013C924.295 34.8082 924.379 34.8146 924.469 34.821C924.518 34.6473 924.567 34.4725 924.623 34.2978C924.49 34.4736 924.351 34.6414 924.211 34.8034V34.8013ZM1231.57 73.0817C1228.37 76.208 1224.47 76.5304 1221.13 78.331C1227.06 79.7183 1232.92 81.1269 1238.71 82.5568C1236.96 79.145 1234.56 75.9512 1231.57 73.0817V73.0817ZM1270.3 54.3762C1262.88 63.5911 1260.93 68.6444 1256.64 79.3465C1256.64 79.3439 1257.42 57.6449 1270.3 54.3736V54.3762ZM586.996 8.39107C580.427 15.6237 578.7 19.5903 574.898 27.9904C574.896 27.9872 575.588 10.956 586.995 8.38789L586.996 8.39107ZM325.259 34.9484C315.527 42.1816 312.969 46.1477 307.336 54.5478C307.337 54.5446 308.361 37.5123 325.26 34.9453L325.259 34.9484ZM221.262 39.5062C213.842 48.7206 211.891 53.7739 207.597 64.476C207.595 64.4723 208.376 42.7733 221.261 39.5025L221.262 39.5062ZM184.074 43.8213C200.123 59.2245 194.48 68.099 194.48 68.099C192.882 59.4057 188.095 50.6141 184.073 43.8154L184.074 43.8213ZM84.4587 88.8408C78.1331 96.6678 76.4705 100.961 72.809 110.052C72.809 110.05 73.4748 91.6187 84.4587 88.8408ZM52.7578 92.5057C66.4386 105.588 61.6304 113.13 61.6304 113.13C60.2672 105.747 56.1862 98.2809 52.7578 92.5062V92.5057ZM9.77501 125.096C5.27383 130.744 4.09078 133.841 1.48597 140.4C1.48597 140.4 1.95919 127.099 9.77501 125.096ZM0 136.197C0.225476 137.878 0.225476 139.571 0 141.252L0 136.197Z" fill="#E9E9E9"/>
</svg>
