<svg width="301" height="213" viewBox="0 0 301 213" fill="none" xmlns="http://www.w3.org/2000/svg">
<g clip-path="url(#clip0)">
<path fill-rule="evenodd" clip-rule="evenodd" d="M229.444 212.988C214.826 213.009 200.56 208.496 188.614 200.069L133.336 168.231C122.304 165.063 112.212 159.25 103.936 151.296L44.1363 116.855C39.3453 114.096 37.1423 108.955 39.2173 105.367L42.2173 100.174C44.2923 96.589 49.8593 95.92 54.6503 98.674L85.0703 116.195C88.9203 117.481 92.4183 117.117 93.6413 114.995C95.2173 112.265 92.4233 107.702 87.4013 104.802L82.4633 101.952V101.822L6.01131 57.682C-0.12869 54.137 -1.85869 45.642 2.14531 38.707C6.14931 31.772 14.3713 29.023 20.5113 32.567L88.7833 71.984C88.8073 71.931 88.8283 71.876 88.8523 71.824L110.938 84.575C118.113 88.717 126.367 87.851 129.375 82.641C132.338 77.51 129.098 70.086 122.146 65.905L69.3833 35.442C67.0866 34.1159 65.4107 31.9317 64.7243 29.37C64.0379 26.8083 64.3973 24.0788 65.7233 21.782L67.2233 19.182C68.5495 16.8853 70.7336 15.2094 73.2953 14.523C75.857 13.8366 78.5865 14.196 80.8833 15.522L180.733 73.17C185.125 74.77 189.349 74.203 190.897 71.522C192.767 68.283 190.019 63.194 184.757 60.156L137.262 32.735C137.355 32.714 137.451 32.7 137.544 32.679L120.394 22.775C116.976 20.801 116.447 15.316 119.211 10.524L120.211 8.789C122.975 3.997 127.987 1.713 131.405 3.689L259.256 77.552C263.106 79.3355 266.787 81.4614 270.256 83.904L272.502 85.204C273.243 85.6409 273.868 86.2498 274.324 86.979C285.677 96.243 293.885 108.793 297.823 122.906C301.761 137.02 301.236 152.006 296.32 165.81C291.404 179.613 282.337 191.558 270.364 200.004C258.39 208.451 244.097 212.986 229.444 212.988ZM26.4443 82.988C28.4221 82.988 30.3555 83.5745 32 84.6733C33.6445 85.7721 34.9262 87.3339 35.6831 89.1612C36.44 90.9884 36.638 92.9991 36.2522 94.9389C35.8663 96.8787 34.9139 98.6605 33.5154 100.059C32.1169 101.458 30.335 102.41 28.3952 102.796C26.4554 103.182 24.4448 102.984 22.6175 102.227C20.7902 101.47 19.2284 100.188 18.1296 98.5437C17.0308 96.8992 16.4443 94.9658 16.4443 92.988C16.4443 90.3358 17.4979 87.7923 19.3732 85.9169C21.2486 84.0416 23.7921 82.988 26.4443 82.988ZM49.9443 -0.0119934C52.2188 -0.0119934 54.4422 0.66245 56.3334 1.92609C58.2246 3.18972 59.6985 4.98578 60.5689 7.08713C61.4393 9.18848 61.6671 11.5008 61.2233 13.7315C60.7796 15.9623 59.6844 18.0114 58.0761 19.6197C56.4678 21.228 54.4187 22.3233 52.1879 22.767C49.9571 23.2108 47.6448 22.983 45.5435 22.1126C43.4421 21.2422 41.646 19.7682 40.3824 17.877C39.1188 15.9859 38.4443 13.7625 38.4443 11.488C38.4443 8.43802 39.6559 5.51293 41.8126 3.35626C43.9692 1.19959 46.8943 -0.0119934 49.9443 -0.0119934Z" fill="#FFCA00"/>
<path fill-rule="evenodd" clip-rule="evenodd" d="M49.9443 5.98801C51.0321 5.98801 52.0955 6.31057 53 6.91492C53.9045 7.51926 54.6094 8.37825 55.0257 9.38324C55.442 10.3882 55.5509 11.4941 55.3387 12.561C55.1265 13.6279 54.6026 14.6079 53.8334 15.3771C53.0642 16.1463 52.0842 16.6701 51.0173 16.8823C49.9504 17.0945 48.8446 16.9856 47.8396 16.5693C46.8346 16.1531 45.9756 15.4481 45.3713 14.5436C44.7669 13.6392 44.4443 12.5758 44.4443 11.488C44.4443 10.0293 45.0238 8.63036 46.0553 7.59891C47.0867 6.56746 48.4856 5.98801 49.9443 5.98801ZM293.444 142.488C293.447 154.508 289.983 166.274 283.468 176.375C276.952 186.476 267.661 194.483 256.709 199.436C245.757 204.39 233.609 206.079 221.721 204.301C209.833 202.524 198.71 197.355 189.685 189.415L114.458 146.175C113.767 145.784 113.16 145.26 112.672 144.633C112.184 144.005 111.826 143.288 111.617 142.521C111.409 141.754 111.355 140.954 111.458 140.166C111.561 139.379 111.819 138.619 112.218 137.932C112.616 137.245 113.147 136.643 113.78 136.163C114.412 135.682 115.134 135.332 115.903 135.132C116.672 134.932 117.473 134.886 118.259 134.998C119.046 135.11 119.803 135.377 120.485 135.783L173.033 165.988C170.459 159.655 168.947 152.942 168.557 146.117L62.3234 84.782C54.6704 80.364 50.4814 73.293 52.9664 68.988C55.4514 64.683 63.6664 64.775 71.3234 69.194L170.523 126.468C173.313 115.964 178.796 106.37 186.43 98.635L98.8544 48.069C94.4694 45.537 92.4823 40.769 94.4153 37.423C96.3483 34.077 101.469 33.413 105.854 35.944L198.194 89.257C207.111 83.7537 217.276 80.5951 227.741 80.075L212.057 71.02C211.599 70.7593 211.196 70.4104 210.873 69.9935C210.55 69.5766 210.312 69.0998 210.174 68.5908C210.036 68.0817 210 67.5503 210.068 67.0272C210.136 66.504 210.307 65.9995 210.57 65.5427C210.834 65.0858 211.186 64.6857 211.605 64.3652C212.024 64.0448 212.502 63.8104 213.012 63.6756C213.522 63.5408 214.054 63.5081 214.576 63.5796C215.099 63.6511 215.602 63.8252 216.057 64.092L247.407 82.192C260.63 85.8049 272.299 93.6637 280.617 104.559C288.936 115.454 293.443 128.78 293.444 142.488ZM26.4443 87.988C27.4332 87.988 28.4 88.2812 29.2222 88.8307C30.0445 89.3801 30.6853 90.161 31.0638 91.0746C31.4422 91.9882 31.5412 92.9935 31.3483 93.9634C31.1553 94.9333 30.6792 95.8243 29.9799 96.5235C29.2807 97.2228 28.3897 97.699 27.4198 97.8919C26.4499 98.0848 25.4446 97.9858 24.5309 97.6074C23.6173 97.229 22.8364 96.5881 22.287 95.7658C21.7376 94.9436 21.4443 93.9769 21.4443 92.988C21.4443 91.6619 21.9711 90.3901 22.9088 89.4525C23.8465 88.5148 25.1183 87.988 26.4443 87.988Z" fill="#FFA314"/>
<path d="M230.938 197C261.038 197 285.438 172.6 285.438 142.5C285.438 112.4 261.038 88 230.938 88C200.839 88 176.438 112.4 176.438 142.5C176.438 172.6 200.839 197 230.938 197Z" fill="#FF7A18"/>
<path fill-rule="evenodd" clip-rule="evenodd" d="M286.694 134.988L289.444 140.488L286.694 145.988H284.835L274.573 163.714L276.444 166.988L272.444 173.988H268.625L259.942 188.988H240.257L236.694 194.988H227.194L223.63 188.988H204.947L202.632 184.988H194.694L190.444 177.988L194.608 171.129L183.526 151.988H175.944L171.444 143.988L175.944 135.988H180.631L200.694 101.344L199.45 98.988L204.2 89.988H213.7L215.812 93.988H259.948L268.048 107.988H274.194L282.443 122.488L279.468 127.717L283.677 134.988H286.694Z" fill="#C2B4B3"/>
<path fill-rule="evenodd" clip-rule="evenodd" d="M221.444 111.988C224.015 111.988 226.529 112.75 228.667 114.179C230.805 115.607 232.471 117.638 233.455 120.013C234.439 122.389 234.696 125.002 234.195 127.524C233.693 130.046 232.455 132.362 230.637 134.18C228.819 135.998 226.502 137.237 223.981 137.738C221.459 138.24 218.845 137.982 216.469 136.998C214.094 136.014 212.064 134.348 210.635 132.21C209.207 130.073 208.444 127.559 208.444 124.988C208.444 121.54 209.814 118.234 212.252 115.796C214.69 113.358 217.997 111.988 221.444 111.988ZM232.944 161.988C234.23 161.988 235.487 162.369 236.556 163.083C237.624 163.798 238.458 164.813 238.95 166.001C239.442 167.188 239.57 168.495 239.319 169.756C239.069 171.017 238.45 172.175 237.541 173.084C236.631 173.993 235.473 174.612 234.212 174.863C232.952 175.114 231.645 174.985 230.457 174.493C229.269 174.001 228.254 173.168 227.54 172.099C226.826 171.03 226.444 169.774 226.444 168.488C226.444 166.764 227.129 165.111 228.348 163.892C229.567 162.673 231.22 161.988 232.944 161.988ZM259.944 125.988C261.823 125.988 263.66 126.545 265.222 127.589C266.785 128.633 268.002 130.117 268.721 131.852C269.44 133.588 269.628 135.499 269.262 137.341C268.895 139.184 267.99 140.877 266.662 142.206C265.333 143.534 263.641 144.439 261.798 144.805C259.955 145.172 258.045 144.984 256.309 144.265C254.573 143.546 253.089 142.328 252.045 140.766C251.002 139.204 250.444 137.367 250.444 135.488C250.444 132.968 251.445 130.552 253.227 128.771C255.008 126.989 257.425 125.988 259.944 125.988ZM219.944 145.988C220.439 145.988 220.922 146.135 221.333 146.409C221.744 146.684 222.065 147.074 222.254 147.531C222.443 147.988 222.493 148.491 222.396 148.976C222.3 149.461 222.062 149.906 221.712 150.256C221.362 150.605 220.917 150.843 220.432 150.94C219.947 151.036 219.444 150.987 218.988 150.798C218.531 150.608 218.14 150.288 217.866 149.877C217.591 149.466 217.444 148.982 217.444 148.488C217.444 147.825 217.708 147.189 218.177 146.72C218.645 146.251 219.281 145.988 219.944 145.988Z" fill="#9B9191"/>
<path fill-rule="evenodd" clip-rule="evenodd" d="M221.444 113.988C224.015 113.988 226.529 114.75 228.667 116.179C230.805 117.607 232.471 119.638 233.455 122.013C234.439 124.389 234.696 127.002 234.195 129.524C233.693 132.046 232.455 134.362 230.637 136.18C228.819 137.998 226.502 139.237 223.981 139.738C221.459 140.24 218.845 139.982 216.469 138.998C214.094 138.014 212.064 136.348 210.635 134.21C209.207 132.073 208.444 129.559 208.444 126.988C208.444 123.54 209.814 120.234 212.252 117.796C214.69 115.358 217.997 113.988 221.444 113.988ZM232.944 163.988C234.23 163.988 235.487 164.369 236.556 165.083C237.624 165.798 238.458 166.813 238.95 168.001C239.442 169.188 239.57 170.495 239.319 171.756C239.069 173.017 238.45 174.175 237.541 175.084C236.631 175.993 235.473 176.612 234.212 176.863C232.952 177.114 231.645 176.985 230.457 176.493C229.269 176.001 228.254 175.168 227.54 174.099C226.826 173.03 226.444 171.774 226.444 170.488C226.444 168.764 227.129 167.111 228.348 165.892C229.567 164.673 231.22 163.988 232.944 163.988ZM259.944 127.988C261.823 127.988 263.66 128.545 265.222 129.589C266.785 130.633 268.002 132.117 268.721 133.852C269.44 135.588 269.628 137.499 269.262 139.341C268.895 141.184 267.99 142.877 266.662 144.206C265.333 145.534 263.641 146.439 261.798 146.805C259.955 147.172 258.045 146.984 256.309 146.265C254.573 145.546 253.089 144.328 252.045 142.766C251.002 141.204 250.444 139.367 250.444 137.488C250.444 134.968 251.445 132.552 253.227 130.771C255.008 128.989 257.425 127.988 259.944 127.988ZM219.944 147.988C220.439 147.988 220.922 148.135 221.333 148.409C221.744 148.684 222.065 149.074 222.254 149.531C222.443 149.988 222.493 150.491 222.396 150.976C222.3 151.461 222.062 151.906 221.712 152.256C221.362 152.605 220.917 152.843 220.432 152.94C219.947 153.036 219.444 152.987 218.988 152.798C218.531 152.608 218.14 152.288 217.866 151.877C217.591 151.466 217.444 150.982 217.444 150.488C217.444 149.825 217.708 149.189 218.177 148.72C218.645 148.251 219.281 147.988 219.944 147.988Z" fill="#B3A1A1"/>
</g>
<defs>
<clipPath id="clip0">
<rect width="300.438" height="213" fill="white"/>
</clipPath>
</defs>
</svg>
